/* XPM */
char * image_data[] = {
"16  16  257  2",
"  	c	None",
"!!	c #000000",
"@!	c #0d1a32",
"#!	c #111436",
"$!	c #0e2736",
"%!	c #0a0a4a",
"^!	c #002040",
"&!	c #192844",
"*!	c #152b55",
"(!	c #1a334d",
")!	c #1c3955",
"{!	c #212e4b",
"}!	c #2b2b55",
"[!	c #25324b",
"]!	c #283753",
"|!	c #303d5a",
"+!	c #2f4258",
"=!	c #324868",
"-!	c #4c3425",
",!	c #453438",
".!	c #55392a",
"<!	c #5f3e31",
">!	c #7d1a15",
"/!	c #683427",
"?!	c #5b402d",
";!	c #65432d",
":!	c #634232",
"a!	c #704b2c",
"b!	c #774b33",
"c!	c #534042",
"d!	c #46476f",
"e!	c #7d5644",
"f!	c #666666",
"g!	c #000080",
"h!	c #1966bf",
"j!	c #0073d9",
"i!	c #007ae0",
"k!	c #525385",
"l!	c #5e5f91",
"m!	c #5252b0",
"n!	c #5a618f",
"o!	c #695fa7",
"p!	c #666798",
"q!	c #6a69a8",
"r!	c #6a67b6",
"s!	c #6c73a5",
"t!	c #6e7bbf",
"u!	c #7266a0",
"v!	c #7378a7",
"w!	c #707ab3",
"x!	c #757ac1",
"y!	c #008ff5",
"z!	c #3587d9",
"A!	c #3895e7",
"B!	c #31a8fd",
"C!	c #6986b9",
"D!	c #7d82ad",
"E!	c #7484b6",
"F!	c #4e92d4",
"G!	c #4092e0",
"H!	c #47a1ee",
"I!	c #43a6f7",
"J!	c #44b0ff",
"K!	c #54b5fe",
"L!	c #6887c3",
"M!	c #628ad0",
"N!	c #6a93c8",
"O!	c #689cd0",
"P!	c #7b8dc2",
"Q!	c #7a93c6",
"R!	c #6aa1de",
"S!	c #78a6da",
"T!	c #6fa3e2",
"U!	c #66bcff",
"V!	c #72a6e2",
"W!	c #76b3ea",
"X!	c #74c0ff",
"Y!	c #990402",
"Z!	c #802a1c",
"0!	c #a71508",
"1!	c #a93712",
"2!	c #ba2711",
"3!	c #b23412",
"4!	c #ad322d",
"5!	c #98501a",
"6!	c #875c2c",
"7!	c #8a5830",
"8!	c #9e6d1d",
"9!	c #8c6027",
"!@	c #b35931",
"@@	c #ae701b",
"#@	c #a96827",
"$@	c #815445",
"%@	c #8d624e",
"^@	c #87657c",
"&@	c #b57745",
"*@	c #a57762",
"(@	c #c42e15",
")@	c #c83518",
"{@	c #d13d1c",
"}@	c #ce421d",
"[@	c #d2411d",
"]@	c #d94921",
"|@	c #dd5225",
"+@	c #d46e29",
"=@	c #e14d23",
"-@	c #e65727",
",@	c #f15f2c",
".@	c #e4602e",
"<@	c #e56933",
">@	c #e97438",
"/@	c #f2642f",
"?@	c #fc6d33",
";@	c #f2722d",
":@	c #fd7336",
"a@	c #f0774e",
"b@	c #8f718a",
"c@	c #8775a5",
"d@	c #857eb9",
"e@	c #967fa2",
"f@	c #a37e8c",
"g@	c #817ec0",
"h@	c #000000",
"j@	c #b7836f",
"i@	c #bc897b",
"k@	c #eb8539",
"l@	c #fb833b",
"m@	c #f6963d",
"n@	c #c88044",
"o@	c #c28359",
"p@	c #d28a54",
"q@	c #db9159",
"r@	c #cb8c69",
"s@	c #c48c73",
"t@	c #c89374",
"u@	c #d18f65",
"v@	c #d59162",
"w@	c #d39d71",
"x@	c #d9a06b",
"y@	c #d7a576",
"z@	c #d5b977",
"A@	c #e7934a",
"B@	c #e29253",
"C@	c #fc8a43",
"D@	c #fd8654",
"E@	c #f89545",
"F@	c #fe905d",
"G@	c #fd9566",
"H@	c #eaa75b",
"I@	c #fda14c",
"J@	c #fda852",
"K@	c #fdb659",
"L@	c #e7a569",
"M@	c #e3a371",
"N@	c #e9b66a",
"O@	c #e7bc76",
"P@	c #fbab69",
"Q@	c #f4ba64",
"R@	c #f9ba74",
"S@	c #ffc05f",
"T@	c #e9c77b",
"U@	c #fdc562",
"V@	c #f5c574",
"W@	c #fed36e",
"X@	c #f9d479",
"Y@	c #ffe17a",
"Z@	c #99889c",
"0@	c #868ca8",
"1@	c #8a82b3",
"2@	c #8a92b6",
"3@	c #9682a6",
"4@	c #9081b0",
"5@	c #9191a5",
"6@	c #ac868c",
"7@	c #a68595",
"8@	c #a59297",
"9@	c #b68983",
"!#	c #bb968a",
"@#	c #b79893",
"##	c #a28ca2",
"$#	c #a994a8",
"%#	c #a094b7",
"^#	c #b298a4",
"&#	c #b3a191",
"*#	c #bdbabf",
"(#	c #8284c2",
")#	c #839bc9",
"{#	c #8a97db",
"}#	c #9597c3",
"[#	c #959cd0",
"]#	c #9c9cfb",
"|#	c #87aacc",
"+#	c #86a8d8",
"=#	c #93a7cb",
"-#	c #98a5d5",
",#	c #95b0cf",
".#	c #9db4da",
"<#	c #8aade0",
">#	c #8cb2e5",
"/#	c #9fa0ff",
"?#	c #90b9eb",
";#	c #91bdf0",
":#	c #a4a7d4",
"a#	c #a9b3cb",
"b#	c #a7b5d6",
"c#	c #b0bed6",
"d#	c #a8a8fd",
"e#	c #a3bce5",
"f#	c #abb1f8",
"g#	c #b7b7fd",
"h#	c #8ac7f9",
"j#	c #9ec0eb",
"i#	c #96c6f7",
"k#	c #96d8ff",
"l#	c #b5c4dc",
"m#	c #a7c3e8",
"n#	c #a5cbf4",
"o#	c #afd0ed",
"p#	c #a8d2fd",
"q#	c #b6cde9",
"r#	c #bbcafa",
"s#	c #b8d3ea",
"t#	c #b7d7fd",
"u#	c #b2e5ff",
"v#	c #c69a83",
"w#	c #c09b95",
"x#	c #c9a88a",
"y#	c #c7b088",
"z#	c #d3a381",
"A#	c #d8b783",
"B#	c #f3bc90",
"C#	c #e6c881",
"D#	c #ecd182",
"E#	c #f2d983",
"F#	c #ffdd9a",
"G#	c #f9e585",
"H#	c #fef28c",
"I#	c #ffe2aa",
"J#	c #cbc9cc",
"K#	c #d5d5d5",
"L#	c #c9cafe",
"M#	c #c2d6ee",
"N#	c #c3d6fc",
"O#	c #d3dde7",
"P#	c #d3defb",
"Q#	c #c6e2fe",
"R#	c #c2f5ff",
"S#	c #dde4eb",
"T#	c #d5e9fe",
"U#	c #fbe6dd",
"V#	c #e5e6e7",
"W#	c #e9edf2",
"X#	c #e8f3fd",
"Y#	c #f7ebe3",
"Z#	c #fbf2e3",
"0#	c #fafcfd",
"1#	c #000000",

"    +#+#+#+#+#+#+#+#+#f!        ",
"    +#0#0#0#0#0#0#0#+#W!f!      ",
"    +#0#0#0#0#0#0#0#I!I!G!f!    ",
"    +#0#0#0#0#0#0#X#N#N#f#E!f!  ",
"    +#0#G@?@:@C@J@U@X#T#T#r#f!  ",
"    +#0#D@!@:@E@K@F#V@J@=#r#f!  ",
"    +#0#4!/!3!)@[@-@-@]@)#r#f!  ",
"    +#X#B@7!#@k@l@Q@l@k@|#r#f!  ",
"    +#W#y@&@;!q@B@X@X@q@+#r#f!  ",
"    )#V#w#i@c!j@w@C#T@t@S!r#f!  ",
"    Q!S#$#c@r!7@C#G#Y@@#S!n#f!  ",
"    P!S#}#1@3@3@8@A#T@3@V!n#f!  ",
"    E!O#T#p#p#n#n#i#i#i#p#e#f!  ",
"    E!O#T#Q#Q#Q#t#t#t#p#p#e#f!  ",
"    s!-#-#-#-#=#}#}#}#}#2@1@f!  ",
"      f!f!f!f!f!f!f!f!f!f!f!f!  ",
};

