/* XPM */
static const char * bulb_xpm[] = {
"16 16 5 1",
" 	c None",
".	c #000000",
"+	c #E4EA91",
"@	c #C4C2C2",
"#	c #A9B207",
"                ",
"      ...       ",
"    ..+++..     ",
"   .+++++++.    ",
"  .+++++++++.   ",
"  .+++++++++.   ",
"  .+++++++++.   ",
"   .+++++++.    ",
"   .+++++++.    ",
"    .@@+@@.     ",
"     .@@@.      ",
"     .###.      ",
"     .###.      ",
"     ..#..      ",
"      ...       ",
"                "};
