/* XPM */
static char * config_xpm[] = {
"32 32 267 2",
"  	c None",
". 	c #848484",
"+ 	c #9D9D9D",
"@ 	c #929292",
"# 	c #A9A9A9",
"$ 	c #7F7F7F",
"% 	c #C53708",
"& 	c #DC6D43",
"* 	c #DE7A53",
"= 	c #DE7952",
"- 	c #CD5D32",
"; 	c #A7A7A7",
"> 	c #E1E1E1",
", 	c #E2E2E2",
"' 	c #858585",
") 	c #CCCCCC",
"! 	c #E5E5E5",
"~ 	c #DADADA",
"{ 	c #8E8E8E",
"] 	c #D5582B",
"^ 	c #F6CBAB",
"/ 	c #FCE0C0",
"( 	c #FCE0BF",
"_ 	c #FCDFC1",
": 	c #F0AF8B",
"< 	c #AE340A",
"[ 	c #9A9A9A",
"} 	c #E4E4E4",
"| 	c #EAEAEA",
"1 	c #E6E6E6",
"2 	c #A6A6A6",
"3 	c #DEDEDE",
"4 	c #E9E9E9",
"5 	c #DCDCDC",
"6 	c #7D7D7D",
"7 	c #F4C09A",
"8 	c #FDDCB2",
"9 	c #FEDFB2",
"0 	c #FEE0B2",
"a 	c #FEDEB2",
"b 	c #FCDAB2",
"c 	c #E88C62",
"d 	c #D8D8D8",
"e 	c #E8E8E8",
"f 	c #EBEBEB",
"g 	c #818181",
"h 	c #E0E0E0",
"i 	c #C3C3C3",
"j 	c #BB5128",
"k 	c #FAD1A6",
"l 	c #FED8A4",
"m 	c #FFDAA4",
"n 	c #FDD7A4",
"o 	c #F5BC90",
"p 	c #871F00",
"q 	c #E3E3E3",
"r 	c #ABABAB",
"s 	c #E7E7E7",
"t 	c #BA5831",
"u 	c #FACA94",
"v 	c #FED394",
"w 	c #FFD494",
"x 	c #FED194",
"y 	c #F7BE8C",
"z 	c #861F00",
"A 	c #C2C2C2",
"B 	c #AEAEAE",
"C 	c #DDDDDD",
"D 	c #B9542B",
"E 	c #FAC282",
"F 	c #FECC80",
"G 	c #FFCC80",
"H 	c #FFCC81",
"I 	c #FDCA81",
"J 	c #F6B67B",
"K 	c #851F00",
"L 	c #CDCDCD",
"M 	c #C0C0C0",
"N 	c #909090",
"O 	c #B6B6B6",
"P 	c #B95125",
"Q 	c #FAB970",
"R 	c #FEC470",
"S 	c #FFC570",
"T 	c #FFC46C",
"U 	c #FFB444",
"V 	c #FDAC3B",
"W 	c #F39C4C",
"X 	c #CFCFCF",
"Y 	c #9F9F9F",
"Z 	c #787878",
"` 	c #828282",
" .	c #C8C8C8",
"..	c #DFDFDF",
"+.	c #B9B9B9",
"@.	c #B84E1F",
"#.	c #F8B05E",
"$.	c #FEBD5D",
"%.	c #FFBE5D",
"&.	c #FFBE5E",
"*.	c #FFB240",
"=.	c #FF9A06",
"-.	c #FF9901",
";.	c #FC9401",
">.	c #EE7201",
",.	c #852000",
"'.	c #C4C4C4",
").	c #D9D9D9",
"!.	c #D2D2D2",
"~.	c #CECECE",
"{.	c #B7410A",
"].	c #F69628",
"^.	c #FEAB31",
"/.	c #FFAE36",
"(.	c #FFAB2F",
"_.	c #FFA319",
":.	c #FF9C08",
"<.	c #FC9809",
"[.	c #EE7607",
"}.	c #B4B4B4",
"|.	c #D6D6D6",
"1.	c #CBCBCB",
"2.	c #BCBCBC",
"3.	c #8F8F8F",
"4.	c #B63E05",
"5.	c #F68C13",
"6.	c #FEA016",
"7.	c #FFA216",
"8.	c #FFA116",
"9.	c #FC9D15",
"0.	c #F07C11",
"a.	c #949494",
"b.	c #B1B1B1",
"c.	c #646464",
"d.	c #B74009",
"e.	c #F69323",
"f.	c #FEA726",
"g.	c #FFA828",
"h.	c #FFA928",
"i.	c #FCA426",
"j.	c #F0831E",
"k.	c #D1D1D1",
"l.	c #CACACA",
"m.	c #BEBEBE",
"n.	c #989898",
"o.	c #252525",
"p.	c #B7430E",
"q.	c #F79C35",
"r.	c #FEAF3A",
"s.	c #FFB13C",
"t.	c #FFB13B",
"u.	c #FDAC3A",
"v.	c #F18B2E",
"w.	c #808080",
"x.	c #C7C7C7",
"y.	c #535353",
"z.	c #B74713",
"A.	c #F8A548",
"B.	c #FEB850",
"C.	c #FFB952",
"D.	c #FDB54F",
"E.	c #F2943F",
"F.	c #8B8B8B",
"G.	c #BDBDBD",
"H.	c #696969",
"I.	c #B74918",
"J.	c #F8AD5B",
"K.	c #FEC066",
"L.	c #FFC268",
"M.	c #FFC267",
"N.	c #FDBD64",
"O.	c #F39C4F",
"P.	c #C9C9C9",
"Q.	c #B94413",
"R.	c #F7B169",
"S.	c #FEC77A",
"T.	c #FFCB7D",
"U.	c #FFCB7E",
"V.	c #FCC376",
"W.	c #F09854",
"X.	c #7B1D00",
"Y.	c #A5A5A5",
"Z.	c #6F6F6F",
"`.	c #EE985A",
" +	c #FCC684",
".+	c #FED08E",
"++	c #FED18F",
"@+	c #FED290",
"#+	c #FED28F",
"$+	c #FECE8C",
"%+	c #FAC07E",
"&+	c #E26F35",
"*+	c #2D0B00",
"=+	c #A3A3A3",
"-+	c #D0D0D0",
";+	c #6B6B6B",
">+	c #C94515",
",+	c #F0A168",
"'+	c #F9C289",
")+	c #FAC88E",
"!+	c #FAC88F",
"~+	c #FAC68D",
"{+	c #F8BF86",
"]+	c #EA864E",
"^+	c #7F2202",
"/+	c #A4A4A4",
"(+	c #6C6C6C",
"_+	c #9A2600",
":+	c #B3491E",
"<+	c #CD6A40",
"[+	c #D47146",
"}+	c #D26E44",
"|+	c #C55E33",
"1+	c #A33910",
"2+	c #5E1600",
"3+	c #D4D4D4",
"4+	c #C1C1C1",
"5+	c #9C9D9E",
"6+	c #C0C2C2",
"7+	c #B5B7B8",
"8+	c #646566",
"9+	c #A8A8A8",
"0+	c #D5D5D5",
"a+	c #6D6D6D",
"b+	c #9E9E9E",
"c+	c #666666",
"d+	c #AAAAAA",
"e+	c #D7D7D7",
"f+	c #C6C6C6",
"g+	c #6E6E6E",
"h+	c #A0A0A0",
"i+	c #676767",
"j+	c #ADADAD",
"k+	c #B0B0B0",
"l+	c #707070",
"m+	c #ACACAC",
"n+	c #6A6A6A",
"o+	c #B2B2B2",
"p+	c #DBDBDB",
"q+	c #919191",
"r+	c #AFAFAF",
"s+	c #D3D3D3",
"t+	c #717171",
"u+	c #959595",
"v+	c #606060",
"w+	c #727272",
"x+	c #4D4D4D",
"y+	c #A2A2A2",
"z+	c #5E5E5E",
"A+	c #353535",
"B+	c #999999",
"C+	c #4B4B4B",
"D+	c #B5B5B5",
"E+	c #555555",
"F+	c #7B7B7B",
"G+	c #212121",
"H+	c #B3B3B3",
"I+	c #1F1F1F",
"J+	c #C5C5C5",
"K+	c #ECECEC",
"L+	c #979797",
"M+	c #505050",
"N+	c #626262",
"O+	c #A1A1A1",
"P+	c #838383",
"Q+	c #3D3D3D",
"R+	c #424242",
"        . +           @ # $               % & * * * = -         ",
"      ; > , '         ) ! ~ {           ] ^ / ( ( ( ( _ : <     ",
"    [ } | 1 2         3 | 4 5 6         7 8 9 0 0 0 0 a b c     ",
"  6 d e f ! #       g h 4 | 1 i       j k l m m m m m m n o p   ",
"  # q e 4 } r       g 3 e | s h 6     t u v w w w w w w x y z   ",
"  A } e e , B       g C 1 e s > r     D E F G G G G G H I J K   ",
"  L q 1 1 q M       N 3 ! 1 1 h O     P Q R S S S S T U V W K   ",
"  X , } } , 5 Y Z `  ...q } } 3 +.    @.#.$.%.%.&.*.=.-.;.>.,.  ",
"  '.3 , , , ..5 ).~ 3 h ).!.~.i +     {.].^./.(._.:.:.:.<.[.,.  ",
"  }.~ h h h h ......|.~.L L 1.2.3.    4.5.6.7.7.7.7.7.8.9.0.,.  ",
"  a.!.5 3 3 3 3 ~ X L L L L  .b.c.    d.e.f.g.g.g.g.g.h.i.j.,.  ",
"    r k.5 5 ~ !.) L L L L l.m.n.o.    p.q.r.s.s.s.s.s.t.u.v.,.  ",
"    w.b.x.L ) L L L L L 1.A 2 y.      z.A.B.C.C.C.C.C.C.D.E.K   ",
"      F.G.1.L L L L L L  .b.H.        I.J.K.L.M.M.M.M.L.N.O.K   ",
"        B P.L L L L L L A N           Q.R.S.T.T.U.U.T.T.V.W.X.  ",
"        Y. .~.~.~.~.~.L m.Z.            `. +.+++@+#+++$+%+&+*+  ",
"        =+ .-+-+-+-+-+~.G.;+            >+,+'+)+!+!+~+{+]+^+    ",
"        /+l.!.!.!.!.!.-+m.(+              _+:+<+[+}+|+1+2+      ",
"        2 ) 3+3+3+3+3+!.4+(+                  5+6+7+8+          ",
"        9+X |.|.|.|.|.0+'.a+                  b+'.+.c+          ",
"        d+!.d d d d d e+f+g+                  h+f+2.i+          ",
"        j+3+5 5 5 5 5 ~ l.Z.                  /+1.A i+          ",
"        k+e+3 3 3 3 3 5 L l+                  m+k.l.n+          ",
"        o+~ ..C p+5 3 3 -+l+                q+P.d 3+r+Z         ",
"        }.5 3 ) B +.)...s+t+              u+l.~ 3 C 3+}.v+      ",
"        O 3 0+w+  x+k+3 0+t+              y+e+, , , 3 P.z+      ",
"        }.3 f+A+    u+..|.n+              B+~ ! 1 1 , A C+      ",
"        ; 3 ~ Z     D+> ~.E+              F+e+s e e , m+G+      ",
"        ` |., 3+H+M , 3 m+I+                J+e K+f > 3.        ",
"          L+0+h , > C +.M+                  m+h 1 } |.N+        ",
"            Z.O+b.m+P+Q+                    F.=+9+2 [ R+        ",
"                                                                "};
