/* XPM */
char * image_data[] = {
"32  32  257  2",
"  	c	None",
"!!	c #fefbfa",
"@!	c #e6f2ff",
"#!	c #e0e0f1",
"$!	c #ffeee9",
"%!	c #ffe7e1",
"^!	c #eaeaea",
"&!	c #e3e3eb",
"*!	c #e2e2e2",
"(!	c #d7fefa",
")!	c #d2e6f9",
"{!	c #cce6ff",
"}!	c #c4e3ff",
"[!	c #c7faea",
"]!	c #d1d1f5",
"|!	c #d9d9ed",
"+!	c #d6d6eb",
"=!	c #d5d5e3",
"-!	c #c2f7c7",
",!	c #fcd5ca",
".!	c #dcdcdc",
"<!	c #d5d5da",
">!	c #d3d3d3",
"/!	c #cec7c5",
"?!	c #a8eeff",
";!	c #92e2e0",
":!	c #aedcff",
"a!	c #99d4fd",
"b!	c #89deff",
"c!	c #8bd0ff",
"d!	c #99c7f2",
"e!	c #8fc9ff",
"f!	c #83c5ff",
"g!	c #87c0f0",
"h!	c #b2f3c5",
"j!	c #9de8ce",
"i!	c #b5d9d9",
"k!	c #81bcf1",
"l!	c #fec2b3",
"m!	c #aef0af",
"n!	c #98e5ba",
"o!	c #a4ec94",
"p!	c #96e494",
"q!	c #8de095",
"r!	c #9be787",
"s!	c #84db84",
"t!	c #c6b5ae",
"u!	c #f6ac98",
"v!	c #ff9d84",
"w!	c #d59c91",
"x!	c #a2a2a2",
"y!	c #93a4a9",
"z!	c #a99da2",
"A!	c #9a9ab2",
"B!	c #9b9bab",
"C!	c #9d9ea4",
"D!	c #848ba2",
"E!	c #a68a89",
"F!	c #98989a",
"G!	c #93939a",
"H!	c #979797",
"I!	c #8c8e99",
"J!	c #868686",
"K!	c #77d4ff",
"L!	c #59c6f3",
"M!	c #66cbcf",
"N!	c #54c2c4",
"O!	c #73bfff",
"P!	c #63baff",
"Q!	c #79bbee",
"R!	c #6ab5ed",
"S!	c #71aee2",
"T!	c #57b4fa",
"U!	c #4cb9ff",
"V!	c #57adeb",
"W!	c #4da6e6",
"X!	c #41a6ce",
"Y!	c #459bd5",
"Z!	c #37aeff",
"0!	c #33a5f2",
"1!	c #2aaaff",
"2!	c #3fa4e9",
"3!	c #2fa1ed",
"4!	c #1da3ff",
"5!	c #349ee7",
"6!	c #2b9ce9",
"7!	c #0f9eff",
"8!	c #0099ff",
"9!	c #0092f8",
"!@	c #008bf1",
"@@	c #158ae8",
"#@	c #0085eb",
"$@	c #0081e7",
"%@	c #37b4d5",
"^@	c #0ea0c6",
"&@	c #2191de",
"*@	c #308bd9",
"(@	c #78d598",
")@	c #6ace9d",
"{@	c #7cd788",
"}@	c #63cb81",
"[@	c #51c18e",
"]@	c #6d96b8",
"|@	c #4b84ad",
"+@	c #718899",
"=@	c #3fb8af",
"-@	c #0284b2",
",@	c #0b9a90",
".@	c #008a97",
"<@	c #13978e",
">@	c #0e9187",
"/@	c #008187",
"?@	c #937f83",
";@	c #455ec0",
":@	c #027de2",
"a@	c #1e7ed5",
"b@	c #0079df",
"c@	c #0074da",
"d@	c #0070d6",
"e@	c #006bd1",
"f@	c #1e6cc4",
"g@	c #0065cb",
"h@	c #005cc2",
"j@	c #5466a7",
"i@	c #425baa",
"k@	c #46668b",
"l@	c #1b6bb1",
"m@	c #1879ab",
"n@	c #085abc",
"o@	c #0058be",
"p@	c #0055bb",
"q@	c #0b52b3",
"r@	c #0051b7",
"s@	c #1345ab",
"t@	c #0a4dae",
"u@	c #0049af",
"v@	c #0043a9",
"w@	c #0040a6",
"x@	c #016a93",
"y@	c #2a5383",
"z@	c #1c4c9b",
"A@	c #00389e",
"B@	c #133c8c",
"C@	c #90e177",
"D@	c #83da72",
"E@	c #8bde6a",
"F@	c #83db6c",
"G@	c #81d95b",
"H@	c #f78e72",
"I@	c #97847f",
"J@	c #6ecf71",
"K@	c #7fd95a",
"L@	c #7bd653",
"M@	c #75d44b",
"N@	c #70d143",
"O@	c #6fd041",
"P@	c #6ccf44",
"Q@	c #54c349",
"R@	c #1da86e",
"S@	c #008270",
"T@	c #2aac55",
"U@	c #6ed03f",
"V@	c #67cd35",
"W@	c #5bc63b",
"X@	c #5ec930",
"Y@	c #5bc62d",
"Z@	c #52c229",
"0@	c #48bd24",
"1@	c #43bb22",
"2@	c #24a839",
"3@	c #2eae25",
"4@	c #3db81f",
"5@	c #3cb71e",
"6@	c #35b41b",
"7@	c #009700",
"8@	c #008404",
"9@	c #fd724f",
"!#	c #af705f",
"@#	c #f95f37",
"##	c #7b7b7b",
"$#	c #79737a",
"%#	c #737379",
"^#	c #737373",
"&#	c #6a6a6a",
"*#	c #616161",
"(#	c #47607a",
")#	c #565656",
"{#	c #48515e",
"}#	c #4a4e54",
"[#	c #454649",
"]#	c #3a6674",
"|#	c #26607a",
"+#	c #316662",
"=#	c #20616e",
"-#	c #136463",
",#	c #344a61",
".#	c #2e665c",
"<#	c #236647",
">#	c #007455",
"/#	c #26425b",
"?#	c #354043",
";#	c #253e6b",
":#	c #353d56",
"a#	c #2c3d57",
"b#	c #263a53",
"c#	c #383f4e",
"d#	c #27354f",
"e#	c #2f3542",
"f#	c #356c29",
"g#	c #1e663c",
"h#	c #006930",
"j#	c #007926",
"i#	c #13652a",
"k#	c #2b4134",
"l#	c #31522b",
"m#	c #2b4f29",
"n#	c #264226",
"o#	c #005f39",
"p#	c #007b0e",
"q#	c #00710c",
"r#	c #007800",
"s#	c #007500",
"t#	c #006d0e",
"u#	c #06660c",
"v#	c #006b00",
"w#	c #016702",
"x#	c #1d551d",
"y#	c #383838",
"z#	c #333333",
"A#	c #000000",
"B#	c #000000",
"C#	c #000000",
"D#	c #000000",
"E#	c #000000",
"F#	c #000000",
"G#	c #000000",
"H#	c #000000",
"I#	c #000000",
"J#	c #000000",
"K#	c #000000",
"L#	c #000000",
"M#	c #000000",
"N#	c #000000",
"O#	c #000000",
"P#	c #000000",
"Q#	c #000000",
"R#	c #000000",
"S#	c #000000",
"T#	c #000000",
"U#	c #000000",
"V#	c #000000",
"W#	c #000000",
"X#	c #000000",
"Y#	c #000000",
"Z#	c #000000",
"0#	c #000000",
"1#	c #ffffff",

"                                                                ",
"                        {@M!{@J@1!=@[@N!2@                      ",
"                    )@)@(@s!E@L@U@X@1@6@2@b@b@                  ",
"                }@}@s!p!o!o!p!E@L@V@Z@5@T@#@:@b@b@              ",
"              M!M@D@r!n!;!h!j!p!G@U@Y@4@2@!@$@b@b@b@            ",
"            J@Q@J@D@r!m!-!-!m!?!D@N@Y@1@^@!@#@b@d@/@b@          ",
"          0@0@X@M@E@r!m!h!-!o![!q!P@W@T@R@,@#@b@/@8@.@b@        ",
"          3@1@X@P@G@C@j!m!m!-!(!j!P@L!%@T@,@#@-@8@p#p#m@        ",
"        X!2@5@Z@V@M@F@;!n!C@E@(!?!K!L!Z!7!9!.@S@8@j#s#>#|@      ",
"        c@-@6@1@Y@V@M@L@F@K@L@D@b!K!U!1!8!-@7@-@8@p#s#t#l@      ",
"      *@d@b@<@f#z#z#z#z#z#z#z#z#z#z#z#z#z#z#z#z#x#r#s#v#x@(#    ",
"      *@d@b@>@l#.!*!*!*!*!*!*!*!*!.!.!.!.!.!>!H!n#s#v#w#-#(#    ",
"      a@e@c@-@m#*!*!>!>!>!>!>!.!.!.!*!*!*!^!*!F!n#q#v#u#-#y@    ",
"      h@g@d@c@/#*!>!Y!6!6!6!6!3!3!3!3!0!0!a!*!F!k#h#o#i#-#y@    ",
"      p@g@e@d@/#*!>!5!7!7!7!7!&@&@7!7!7!7!c!&!F!n#v#u#g#=#y@    ",
"      n@n@g@e@/#*!>!2!4!4!|@C!t!/!z!5!4!4!c!&!G!n#w#i#<#|#y@    ",
"      f@r@h@g@/#*!>!W!1!|@/!%!$!!!,!w!3!1!a!&!G!n#i#<#+#y@,#    ",
"      *@u@r@h@/#*!>!V!Z!y!!!l!,!!!%!v!D!Z!a!&!G!k#<#.#]#z@{#    ",
"      @@v@u@r@b#*!>!R!W!E!l!l!,!,!,!u!E!U!:!&!G!k#.#]#k@B@)#    ",
"      @@t@w@u@b#*!>!R!T!!#9@$!%!v!H@*!+@T!:!&!G!?#]#k@i@;###    ",
"        *@A@w@d#.!.!Q!P!$#@#u!,!9@9@i!]@P!:!&!G!?#k@j@z@}#      ",
"        @@q@A@d#.!.!g!O!S!I@@#H@@#t!+@O!O!:!&!G!c#j@i@;#&#      ",
"          6!s@d#.!.!d!f!f!k!+@?@I!]@k!f!f!}!#!G!:#;@B@)#        ",
"            @@a#.!.!d!c!c!c!c!c!c!c!c!c!c!}!#!G!:#B@[#J!        ",
"              ,#.!*!)!{!{!{!{!{!{!{!{!{!{!@!#!G!e#[###          ",
"              )#.!^!^!^!^!^!^!^!^!^!^!^!^!^!|!G!z#&#            ",
"              *#.!^!*!*!*!*!*!*!*!*!*!*!*!*!+!I!y###            ",
"              *#.!^!*!*!*!*!*!*!*!*!*!*!*!*!+!I!y###            ",
"              *#.!.!<!<!<!<!<!=!=!=!=!+!+!+!]!I!y###            ",
"              &#x!H!G!C!C!C!B!B!B!B!B!B!B!A!A!%#y###            ",
"                [#y#y#y#y#y#y#y#y#y#y#y#y#y#y#y#[#J!            ",
"                &#^#&#&#&#&#&#&#&#&#&#&#&#&#&#&#^#              ",
};

