/* XPM */
char * image_data[] = {
"32  32  257  2",
"  	c	None",
"!!	c #d1fdff",
"@!	c #c1f9d5",
"#!	c #c4f9cb",
"$!	c #c6f6c2",
"%!	c #bdf0b8",
"^!	c #b5f3b7",
"&!	c #aaeeea",
"*!	c #b0f1b3",
"(!	c #aef0b8",
")!	c #abe9e5",
"{!	c #b2f0a6",
"}!	c #a8edd0",
"[!	c #a3ebc0",
"]!	c #99ff66",
"|!	c #a5ebaa",
"+!	c #9be7cf",
"=!	c #93e3e6",
"-!	c #a6e990",
",!	c #8ee0f5",
".!	c #93e3c4",
"<!	c #9be794",
">!	c #96e4ae",
"/!	c #9ce884",
"?!	c #86dcff",
";!	c #8ff55c",
":!	c #90e1b6",
"a!	c #93e2a3",
"b!	c #88ddd8",
"c!	c #8cf259",
"d!	c #96e488",
"e!	c #97e57e",
"f!	c #8adec1",
"g!	c #90e183",
"h!	c #8de090",
"j!	c #7cd7d9",
"i!	c #81cdf2",
"k!	c #83d7b4",
"l!	c #80e64d",
"m!	c #86dc72",
"n!	c #87dd64",
"o!	c #7bd79d",
"p!	c #7cd88e",
"q!	c #80d978",
"r!	c #81da6d",
"s!	c #83db5d",
"t!	c #65cbff",
"u!	c #7bd775",
"v!	c #7ae047",
"w!	c #66cce6",
"x!	c #73c3ef",
"y!	c #7ed857",
"z!	c #7cbee6",
"A!	c #78d563",
"B!	c #68cdb6",
"C!	c #7ad650",
"D!	c #73d36b",
"E!	c #77d550",
"F!	c #73d940",
"G!	c #a1abb8",
"H!	c #61cab0",
"I!	c #74d348",
"J!	c #85b0d5",
"K!	c #71d243",
"L!	c #4dc0ff",
"M!	c #6ace64",
"N!	c #63b7ec",
"O!	c #57bde9",
"P!	c #66cb71",
"Q!	c #5cc799",
"R!	c #69cf36",
"S!	c #66cc4d",
"T!	c #69ce38",
"U!	c #68cd35",
"V!	c #68adda",
"W!	c #66cc33",
"X!	c #40b9ff",
"Y!	c #63c932",
"Z!	c #4bbe9a",
"0!	c #36b5ff",
"1!	c #60c630",
"2!	c #40b9c9",
"3!	c #5dc72e",
"4!	c #5ac62d",
"5!	c #45b6ba",
"6!	c #32b2ff",
"7!	c #4ca9e8",
"8!	c #3db8b9",
"9!	c #57c52c",
"!@	c #36b4d9",
"@@	c #2db0ff",
"#@	c #43b98f",
"$@	c #53c229",
"%@	c #26adff",
"^@	c #4dbe26",
"&@	c #30a5f1",
"*@	c #449edd",
"(@	c #47bc23",
")@	c #4fb52c",
"{@	c #1aa6ff",
"}@	c #319de4",
"[@	c #42b821",
"]@	c #3bb71e",
"|@	c #10a1ff",
"+@	c #0da0ff",
"=@	c #36b51c",
"-@	c #16a4c4",
",@	c #32b228",
".@	c #33b31a",
"<@	c #2395e5",
">@	c #099dff",
"/@	c #1aa69b",
"?@	c #2dad34",
";@	c #30b018",
":@	c #26ad42",
"a@	c #20a960",
"b@	c #2baa3b",
"c@	c #0099ff",
"d@	c #2aae15",
"e@	c #0096fc",
"f@	c #27ad14",
"g@	c #268ad0",
"h@	c #148fe6",
"j@	c #20a930",
"i@	c #0093f9",
"k@	c #25aa13",
"l@	c #0093e9",
"m@	c #008ff5",
"n@	c #039ba1",
"o@	c #0d8dce",
"p@	c #028de3",
"q@	c #008bf1",
"r@	c #1ca70e",
"s@	c #0b86e7",
"t@	c #1aa60d",
"u@	c #18a41b",
"v@	c #0d8db3",
"w@	c #0e9e55",
"x@	c #0090c6",
"y@	c #17a128",
"z@	c #167fda",
"A@	c #0086ec",
"B@	c #0088de",
"C@	c #000000",
"D@	c #2578cc",
"E@	c #0085eb",
"F@	c #10a128",
"G@	c #18a20c",
"H@	c #14a30a",
"I@	c #0083e9",
"J@	c #0081e7",
"K@	c #4f669c",
"L@	c #4d60bf",
"M@	c #0b9d24",
"N@	c #007ee4",
"O@	c #0281c8",
"P@	c #037ce0",
"Q@	c #48668f",
"R@	c #007be1",
"S@	c #0085ab",
"T@	c #0083ad",
"U@	c #00954c",
"V@	c #415ec1",
"W@	c #079920",
"X@	c #0078de",
"Y@	c #009157",
"Z@	c #0081aa",
"0@	c #4859b6",
"1@	c #00962d",
"2@	c #0075db",
"3@	c #00838f",
"4@	c #0073d9",
"5@	c #166bc6",
"6@	c #008671",
"7@	c #0877aa",
"8@	c #0075be",
"9@	c #008856",
"!#	c #0070d6",
"@#	c #386670",
"##	c #00940e",
"$#	c #356669",
"%#	c #0076a3",
"^#	c #006cd2",
"&#	c #009300",
"*#	c #355a9d",
"(#	c #326663",
")#	c #007d69",
"{#	c #0069cf",
"}#	c #2e665c",
"[#	c #008530",
"]#	c #0066cc",
"|#	c #19629d",
"+#	c #007e44",
"=#	c #0064ca",
"-#	c #008900",
",#	c #157b0b",
".#	c #26664d",
"<#	c #007e29",
">#	c #255d73",
"/#	c #1a5d90",
"?#	c #13790a",
";#	c #285976",
":#	c #008300",
"a#	c #1a5b8e",
"b#	c #4d4d4d",
"c#	c #0d6288",
"d#	c #005dc3",
"e#	c #008100",
"f#	c #294ea1",
"g#	c #0e7707",
"h#	c #007051",
"j#	c #000000",
"i#	c #1c6639",
"k#	c #07618d",
"l#	c #007c0d",
"m#	c #007e00",
"n#	c #3f4b62",
"o#	c #0d54b4",
"p#	c #0058be",
"q#	c #0a7405",
"r#	c #16662d",
"s#	c #146629",
"t#	c #007600",
"u#	c #00711a",
"v#	c #057202",
"w#	c #0052b8",
"x#	c #00710c",
"y#	c #007300",
"z#	c #00673d",
"A#	c #144b9c",
"B#	c #007200",
"C#	c #076d04",
"D#	c #004eb4",
"E#	c #006f00",
"F#	c #1d439a",
"G#	c #004cb2",
"H#	c #004f9c",
"I#	c #0549ac",
"J#	c #06660d",
"K#	c #004ab0",
"L#	c #005d43",
"M#	c #006516",
"N#	c #00660d",
"O#	c #303f5b",
"P#	c #006800",
"Q#	c #016606",
"R#	c #006600",
"S#	c #154087",
"T#	c #0042a8",
"U#	c #103c9c",
"V#	c #0040a6",
"W#	c #1c3b70",
"X#	c #003aa0",
"Y#	c #28344b",
"Z#	c #0e3386",
"0#	c #15336e",
"1#	c #00349a",

"                                                                ",
"                      b#b#b#b#b#b#b#b#b#                        ",
"                      b#R#R#R#R#R#R#R#R#R#                      ",
"                      b#R#]!]!]!]!]!]!]!R#                      ",
"                      b#R#;!;!;!;!;!;!;!R#                      ",
"                      b#R#c!c!c!c!c!c!c!R#                      ",
"            b#b#b#b#b#b#R#l!l!l!l!l!l!l!R#b#b#b#b#              ",
"            b#R#R#R#R#R#R#v!v!v!v!v!v!v!R#R#R#R#R#R#            ",
"            b#C#)@F!F!F!F!F!F!F!F!F!F!F!F!F!F!F!)@C#            ",
"            b#Y#,#Y!R!R!R!R!R!R!R!R!R!R!R!R!R!Y!,#G!            ",
"          b#O#U#J!?#1!W!W!W!W!W!W!W!W!W!W!W!1!?#J!<@            ",
"          n#Z#L@V@J!?#^@$@$@$@$@$@$@$@$@$@^@?#J!1#I#*@          ",
"        b#0#0@K@f#1#J!g#[@(@(@(@(@(@(@(@[@g#J!T#X#1#5@          ",
"        n#F#K@Q@;#X#V#J!q#;@.@.@.@.@.@;@q#J!D#G#K#V#X#7!        ",
"        W#*#Q@$#>#T#G#D#J!q#k@f@f@f@k@q#J!=#d#w#D#G#T#D@        ",
"      b#S#Q@$#}#r#H#D#d#]#J!v#G@t@G@v#J!!#{#]#=#p#D#G#o#7!      ",
"      b#A#@#(#r#Q#M#x#h#^#4@J!E#&#E#J!6@2@4@!#{#]#d#D#G#7!      ",
"      b#a#(#i#Q#P#B#y#m#%#R@N@J!R#J!U@Y@Y@S@X@4@^#]#d#D#7!      ",
"      b#a#.#J#P#B#y#m#e#Z@O@A@m@J!n@F@w@w@M@W@Z@4@^#]#p#x!      ",
"      b#/#s#L#z#u#m#e#3@J@q@e@c@>@+@-@:@a@j@r@H@O@4@{#=#x!      ",
"      b#c#J#N#u#t#<#-#T@q@c@>@%@6!X!8!]@=@.@.@k@y@2@!#]#x!      ",
"      b#k#R#E#y#m#:#9@B@e@>@6!L!t!H!4!4!9!^@]@.@d@N@4@{#i!      ",
"      b#|#N#B#t#e#-###x@c@@@L!t!j!D!K!I!K!U!4![@.@v@2@z@        ",
"        b#h#y#l#:#3@1@l@|@0!t!?!.!y!s!m!q!y!K!4!]@?@X@N!        ",
"        b#7@y#l#:#6@I@i@{@X!w!=!!!%!-![!,!m!y!T!^@.@b@N!        ",
"          b#)#e#+#N@I@u@,@2!S!E!!!{!$!^!|!e!s!I!4!=@k!          ",
"          b#g@[#8@R@J@i@/@(@W!C!&!*!#!@!{!/!u!C!3!P!            ",
"            b#h@P@X@J@p@,@(@W!E!:!+!(!}!b!/!n!M!5!)!            ",
"              b#}@s@J@E@;@[@Y!K!n!d!>!|!<!o!A!a!)!              ",
"                b#V!&@o@f@=@9!W!I!r!g!h!p!h!)!)!                ",
"                    V!z!O!Z!#@!@Q!q!B!f!)!)!                    ",
"                        V!z!z!x!x!x!i!)!                        ",
};

