/* XPM */
char * image_data[] = {
"32  32  257  2",
"  	c	None",
"!!	c #fcfdfe",
"@!	c #f4f9fd",
"#!	c #f1f7fb",
"$!	c #fbf9f7",
"%!	c #f8f7f6",
"^!	c #ebf4fc",
"&!	c #e7f2fd",
"*!	c #edf0f5",
"(!	c #e6ecf3",
")!	c #daecfe",
"{!	c #d7ebfe",
"}!	c #d9e7ff",
"[!	c #d1e5fe",
"]!	c #ccecff",
"|!	c #c8e3fe",
"+!	c #d4dcfc",
"=!	c #cadcfd",
"-!	c #c5d7fc",
",!	c #c3d9f3",
".!	c #c1d3eb",
"<!	c #bddefe",
">!	c #b7d9fd",
"/!	c #bed2fc",
"?!	c #b2d5fa",
";!	c #b1d1f4",
":!	c #aad3fd",
"a!	c #bdcbfd",
"b!	c #b6d3eb",
"c!	c #b5c3e5",
"d!	c #a8c3e8",
"e!	c #a7c4e9",
"f!	c #96d8ff",
"g!	c #85ceff",
"h!	c #9cc0ec",
"j!	c #aec5db",
"i!	c #b6b6fe",
"k!	c #a7a6fd",
"l!	c #a1bbe2",
"m!	c #90bbec",
"n!	c #9c9dfd",
"o!	c #b4b9d9",
"p!	c #a9b9d5",
"q!	c #a9b3cc",
"r!	c #96a6d3",
"s!	c #8aadce",
"t!	c #969ed1",
"u!	c #8c98dd",
"v!	c #8b96dc",
"w!	c #8694d9",
"x!	c #909aaa",
"y!	c #66ffff",
"z!	c #66ccff",
"A!	c #63bbff",
"B!	c #54b5fe",
"C!	c #47a1ee",
"D!	c #689cd2",
"E!	c #7b93c6",
"F!	c #538fcc",
"G!	c #33a9ff",
"H!	c #27a5fc",
"I!	c #3399ff",
"J!	c #3895e7",
"K!	c #3587d9",
"L!	c #6886b9",
"M!	c #3333cc",
"N!	c #666699",
"O!	c #330099",
"P!	c #666666",
"Q!	c #000000",
"R!	c #000000",
"S!	c #000000",
"T!	c #000000",
"U!	c #000000",
"V!	c #000000",
"W!	c #000000",
"X!	c #000000",
"Y!	c #000000",
"Z!	c #000000",
"0!	c #000000",
"1!	c #000000",
"2!	c #000000",
"3!	c #000000",
"4!	c #000000",
"5!	c #000000",
"6!	c #000000",
"7!	c #000000",
"8!	c #000000",
"9!	c #000000",
"!@	c #000000",
"@@	c #000000",
"#@	c #000000",
"$@	c #000000",
"%@	c #000000",
"^@	c #000000",
"&@	c #000000",
"*@	c #000000",
"(@	c #000000",
")@	c #000000",
"{@	c #000000",
"}@	c #000000",
"[@	c #000000",
"]@	c #000000",
"|@	c #000000",
"+@	c #000000",
"=@	c #000000",
"-@	c #000000",
",@	c #000000",
".@	c #000000",
"<@	c #000000",
">@	c #000000",
"/@	c #000000",
"?@	c #000000",
";@	c #000000",
":@	c #000000",
"a@	c #000000",
"b@	c #000000",
"c@	c #000000",
"d@	c #000000",
"e@	c #000000",
"f@	c #000000",
"g@	c #000000",
"h@	c #000000",
"j@	c #000000",
"i@	c #000000",
"k@	c #000000",
"l@	c #000000",
"m@	c #000000",
"n@	c #000000",
"o@	c #000000",
"p@	c #000000",
"q@	c #000000",
"r@	c #000000",
"s@	c #000000",
"t@	c #000000",
"u@	c #000000",
"v@	c #000000",
"w@	c #000000",
"x@	c #000000",
"y@	c #000000",
"z@	c #000000",
"A@	c #000000",
"B@	c #000000",
"C@	c #000000",
"D@	c #000000",
"E@	c #000000",
"F@	c #000000",
"G@	c #000000",
"H@	c #000000",
"I@	c #000000",
"J@	c #000000",
"K@	c #000000",
"L@	c #000000",
"M@	c #000000",
"N@	c #000000",
"O@	c #000000",
"P@	c #000000",
"Q@	c #000000",
"R@	c #000000",
"S@	c #000000",
"T@	c #000000",
"U@	c #000000",
"V@	c #000000",
"W@	c #000000",
"X@	c #000000",
"Y@	c #000000",
"Z@	c #000000",
"0@	c #000000",
"1@	c #000000",
"2@	c #000000",
"3@	c #000000",
"4@	c #000000",
"5@	c #000000",
"6@	c #000000",
"7@	c #000000",
"8@	c #000000",
"9@	c #000000",
"!#	c #000000",
"@#	c #000000",
"##	c #000000",
"$#	c #000000",
"%#	c #000000",
"^#	c #000000",
"&#	c #000000",
"*#	c #000000",
"(#	c #000000",
")#	c #000000",
"{#	c #000000",
"}#	c #000000",
"[#	c #000000",
"]#	c #000000",
"|#	c #000000",
"+#	c #000000",
"=#	c #000000",
"-#	c #000000",
",#	c #000000",
".#	c #000000",
"<#	c #000000",
">#	c #000000",
"/#	c #000000",
"?#	c #000000",
";#	c #000000",
":#	c #000000",
"a#	c #000000",
"b#	c #000000",
"c#	c #000000",
"d#	c #000000",
"e#	c #000000",
"f#	c #000000",
"g#	c #000000",
"h#	c #000000",
"j#	c #000000",
"i#	c #000000",
"k#	c #000000",
"l#	c #000000",
"m#	c #000000",
"n#	c #000000",
"o#	c #000000",
"p#	c #000000",
"q#	c #000000",
"r#	c #000000",
"s#	c #000000",
"t#	c #000000",
"u#	c #000000",
"v#	c #000000",
"w#	c #000000",
"x#	c #000000",
"y#	c #000000",
"z#	c #000000",
"A#	c #000000",
"B#	c #000000",
"C#	c #000000",
"D#	c #000000",
"E#	c #000000",
"F#	c #000000",
"G#	c #000000",
"H#	c #000000",
"I#	c #000000",
"J#	c #000000",
"K#	c #000000",
"L#	c #000000",
"M#	c #000000",
"N#	c #000000",
"O#	c #000000",
"P#	c #000000",
"Q#	c #000000",
"R#	c #000000",
"S#	c #000000",
"T#	c #000000",
"U#	c #000000",
"V#	c #000000",
"W#	c #000000",
"X#	c #000000",
"Y#	c #000000",
"Z#	c #000000",
"0#	c #000000",
"1#	c #ffffff",

"        :!<!?!?!;!;!a!e!e!e!e!e!e!e!l!l!p!d!x!                  ",
"        [!!!!!!!!!!!!!!!!!!!!!!!!!$!%!!!*!b!s!P!                ",
"        |!!!!!!!!!!!!!!!!!!!!!!!!!!!!!!!^!b!f!E!P!              ",
"        |!!!!!!!!!!!!!!!!!!!!!@!^!^!^!!!^!e!g!B!D!P!            ",
"        |!!!!!!!!!!!!!!!!!!!!!@!^!^!^!&!^!h!A!G!H!F!P!          ",
"        ,!!!!!!!I!I!I!I!I!I!I!@!^!O!O!O!^!m!C!J!K!K!L!P!        ",
"        ,!!!!!!!O!y!y!y!y!]!N!!!!!&!&!&!&!=!i!k!k!n!w!P!        ",
"        ,!!!!!!!O!]!y!]!y!y!N!]!&!O!O!O!&!)!}![![!/!v!P!        ",
"        ,!!!!!!!O!y!y!y!y!y!N!!!&!&!&!&!&!)!)!)!{!/!u!P!        ",
"        .!!!!!!!O!z!z!z!z!z!N!!!&!O!O!O!O!O!O!{!{!/!u!P!        ",
"        .!!!!!!!O!z!z!z!z!z!N!&!&!&!&!{!)!)!{!{!|!/!u!P!        ",
"        b!!!!!!!O!M!M!M!M!M!M!&!&!O!O!O!O!O!O!|!|!/!u!P!        ",
"        b!!!!!@!@!^!^!#!&!&!&!&!&!{!{!{!{!{!|!|!|!/!u!P!        ",
"        c!@!^!^!M!M!M!M!M!M!M!M!M!M!M!M!M!M!M!|!|!/!u!P!        ",
"        c!@!^!^!!!&!&!&!&!&!&!(!{!{!{!{!|!|!|!|!|!/!u!P!        ",
"        c!@!^!^!M!M!M!M!M!M!M!M!M!M!M!M!M!M!M!|!>!>!u!P!        ",
"        j!!!!!&!!!&!&!&!&!{!{!{!{!{!|!|!|!|!|!|!>!>!u!P!        ",
"        j!!!&!&!M!M!M!M!M!M!M!M!M!M!M!M!M!M!M!|!>!>!u!P!        ",
"        j!!!&!&!&!&!&!{!{!{!{!{!|!|!|!|!|!|!|!>!>!>!u!P!        ",
"        j!!!&!&!O!O!O!O!O!O!O!O!O!O!O!O!O!O!O!>!>!>!u!P!        ",
"        j!&!&!&!&!{!{!{!{!{!|!|!|!|!|!|!|!>!>!>!>!>!u!P!        ",
"        o!&!&!&!O!O!O!O!O!O!O!O!O!O!O!O!O!O!O!>!>!>!u!P!        ",
"        o!&!&!{!{!{!{!{!|!|!|!|!|!|!|!>!>!>!>!>!>!>!u!P!        ",
"        p!&!{!{!{!{!{!|!|!|!|!|!|!|!>!>!>!]!>!>!>!>!u!P!        ",
"        p!(!{!{!O!O!O!O!O!O!O!O!O!O!O!O!O!O!O!>!>!>!u!P!        ",
"        q!{!{!{!{!|!|!|!|!|!|!|!>!>!>!>!>!>!>!>!>!>!v!P!        ",
"        q!{!{!{!O!O!O!O!O!O!|!>!>!>!>!>!:!>!>!>!>!>!v!P!        ",
"        q!{!{!|!|!|!|!|!|!|!>!>!>!>!>!:!:!>!>!>!>!/!v!P!        ",
"        q!{!+!-!-!-!-!-!-!-!-!-!-!-!-!-!-!>!>!>!/!/!v!P!        ",
"        u!r!r!r!t!t!t!t!t!t!t!t!t!t!t!t!t!t!t!t!t!t!t!P!        ",
"          P!P!P!P!P!P!P!P!P!P!P!P!P!P!P!P!P!P!P!P!P!P!P!        ",
"                                                                ",
};

