/* XPM */
char * image_data[] = {
"32  32  257  2",
"  	c	None",
"!!	c #000000",
"@!	c #0d1a32",
"#!	c #111436",
"$!	c #0e2736",
"%!	c #0a0a4a",
"^!	c #002040",
"&!	c #192844",
"*!	c #152b55",
"(!	c #1a334d",
")!	c #1c3955",
"{!	c #212e4b",
"}!	c #2b2b55",
"[!	c #25324b",
"]!	c #283753",
"|!	c #303d5a",
"+!	c #2f4258",
"=!	c #324868",
"-!	c #4c3425",
",!	c #453438",
".!	c #55392a",
"<!	c #5f3e31",
">!	c #7d1a15",
"/!	c #683427",
"?!	c #5b402d",
";!	c #65432d",
":!	c #634232",
"a!	c #704b2c",
"b!	c #774b33",
"c!	c #534042",
"d!	c #46476f",
"e!	c #7d5644",
"f!	c #666666",
"g!	c #000080",
"h!	c #1966bf",
"j!	c #0073d9",
"i!	c #007ae0",
"k!	c #525385",
"l!	c #5e5f91",
"m!	c #5252b0",
"n!	c #5a618f",
"o!	c #695fa7",
"p!	c #666798",
"q!	c #6a69a8",
"r!	c #6a67b6",
"s!	c #6c73a5",
"t!	c #6e7bbf",
"u!	c #7266a0",
"v!	c #7378a7",
"w!	c #707ab3",
"x!	c #757ac1",
"y!	c #008ff5",
"z!	c #3587d9",
"A!	c #3895e7",
"B!	c #31a8fd",
"C!	c #6986b9",
"D!	c #7d82ad",
"E!	c #7484b6",
"F!	c #4e92d4",
"G!	c #4092e0",
"H!	c #47a1ee",
"I!	c #43a6f7",
"J!	c #44b0ff",
"K!	c #54b5fe",
"L!	c #6887c3",
"M!	c #628ad0",
"N!	c #6a93c8",
"O!	c #689cd0",
"P!	c #7b8dc2",
"Q!	c #7a93c6",
"R!	c #6aa1de",
"S!	c #78a6da",
"T!	c #6fa3e2",
"U!	c #66bcff",
"V!	c #72a6e2",
"W!	c #76b3ea",
"X!	c #74c0ff",
"Y!	c #990402",
"Z!	c #802a1c",
"0!	c #a71508",
"1!	c #a93712",
"2!	c #ba2711",
"3!	c #b23412",
"4!	c #ad322d",
"5!	c #98501a",
"6!	c #875c2c",
"7!	c #8a5830",
"8!	c #9e6d1d",
"9!	c #8c6027",
"!@	c #b35931",
"@@	c #ae701b",
"#@	c #a96827",
"$@	c #815445",
"%@	c #8d624e",
"^@	c #87657c",
"&@	c #b57745",
"*@	c #a57762",
"(@	c #c42e15",
")@	c #c83518",
"{@	c #d13d1c",
"}@	c #ce421d",
"[@	c #d2411d",
"]@	c #d94921",
"|@	c #dd5225",
"+@	c #d46e29",
"=@	c #e14d23",
"-@	c #e65727",
",@	c #f15f2c",
".@	c #e4602e",
"<@	c #e56933",
">@	c #e97438",
"/@	c #f2642f",
"?@	c #fc6d33",
";@	c #f2722d",
":@	c #fd7336",
"a@	c #f0774e",
"b@	c #8f718a",
"c@	c #8775a5",
"d@	c #857eb9",
"e@	c #967fa2",
"f@	c #a37e8c",
"g@	c #817ec0",
"h@	c #000000",
"j@	c #b7836f",
"i@	c #bc897b",
"k@	c #eb8539",
"l@	c #fb833b",
"m@	c #f6963d",
"n@	c #c88044",
"o@	c #c28359",
"p@	c #d28a54",
"q@	c #db9159",
"r@	c #cb8c69",
"s@	c #c48c73",
"t@	c #c89374",
"u@	c #d18f65",
"v@	c #d59162",
"w@	c #d39d71",
"x@	c #d9a06b",
"y@	c #d7a576",
"z@	c #d5b977",
"A@	c #e7934a",
"B@	c #e29253",
"C@	c #fc8a43",
"D@	c #fd8654",
"E@	c #f89545",
"F@	c #fe905d",
"G@	c #fd9566",
"H@	c #eaa75b",
"I@	c #fda14c",
"J@	c #fda852",
"K@	c #fdb659",
"L@	c #e7a569",
"M@	c #e3a371",
"N@	c #e9b66a",
"O@	c #e7bc76",
"P@	c #fbab69",
"Q@	c #f4ba64",
"R@	c #f9ba74",
"S@	c #ffc05f",
"T@	c #e9c77b",
"U@	c #fdc562",
"V@	c #f5c574",
"W@	c #fed36e",
"X@	c #f9d479",
"Y@	c #ffe17a",
"Z@	c #99889c",
"0@	c #868ca8",
"1@	c #8a82b3",
"2@	c #8a92b6",
"3@	c #9682a6",
"4@	c #9081b0",
"5@	c #9191a5",
"6@	c #ac868c",
"7@	c #a68595",
"8@	c #a59297",
"9@	c #b68983",
"!#	c #bb968a",
"@#	c #b79893",
"##	c #a28ca2",
"$#	c #a994a8",
"%#	c #a094b7",
"^#	c #b298a4",
"&#	c #b3a191",
"*#	c #bdbabf",
"(#	c #8284c2",
")#	c #839bc9",
"{#	c #8a97db",
"}#	c #9597c3",
"[#	c #959cd0",
"]#	c #9c9cfb",
"|#	c #87aacc",
"+#	c #86a8d8",
"=#	c #93a7cb",
"-#	c #98a5d5",
",#	c #95b0cf",
".#	c #9db4da",
"<#	c #8aade0",
">#	c #8cb2e5",
"/#	c #9fa0ff",
"?#	c #90b9eb",
";#	c #91bdf0",
":#	c #a4a7d4",
"a#	c #a9b3cb",
"b#	c #a7b5d6",
"c#	c #b0bed6",
"d#	c #a8a8fd",
"e#	c #a3bce5",
"f#	c #abb1f8",
"g#	c #b7b7fd",
"h#	c #8ac7f9",
"j#	c #9ec0eb",
"i#	c #96c6f7",
"k#	c #96d8ff",
"l#	c #b5c4dc",
"m#	c #a7c3e8",
"n#	c #a5cbf4",
"o#	c #afd0ed",
"p#	c #a8d2fd",
"q#	c #b6cde9",
"r#	c #bbcafa",
"s#	c #b8d3ea",
"t#	c #b7d7fd",
"u#	c #b2e5ff",
"v#	c #c69a83",
"w#	c #c09b95",
"x#	c #c9a88a",
"y#	c #c7b088",
"z#	c #d3a381",
"A#	c #d8b783",
"B#	c #f3bc90",
"C#	c #e6c881",
"D#	c #ecd182",
"E#	c #f2d983",
"F#	c #ffdd9a",
"G#	c #f9e585",
"H#	c #fef28c",
"I#	c #ffe2aa",
"J#	c #cbc9cc",
"K#	c #d5d5d5",
"L#	c #c9cafe",
"M#	c #c2d6ee",
"N#	c #c3d6fc",
"O#	c #d3dde7",
"P#	c #d3defb",
"Q#	c #c6e2fe",
"R#	c #c2f5ff",
"S#	c #dde4eb",
"T#	c #d5e9fe",
"U#	c #fbe6dd",
"V#	c #e5e6e7",
"W#	c #e9edf2",
"X#	c #e8f3fd",
"Y#	c #f7ebe3",
"Z#	c #fbf2e3",
"0#	c #fafcfd",
"1#	c #000000",

"        p#t#t#t#t#t#q#q#m#m#m#m#m#m#e#e#b#m#2@                  ",
"        T#0#0#0#0#0#0#0#0#0#0#0#0#0#0#0#0#q#|#f!                ",
"        Q#0#0#0#0#0#0#0#0#0#0#0#0#0#0#0#X#q#k#Q!f!              ",
"        Q#0#0#0#0#0#0#0#0#0#0#0#0#0#0#X#X#m#h#K!O!f!            ",
"        N#0#0#0#0#0#0#0#0#0#0#0#0#0#0#X#X#j#U!B!B!F!f!          ",
"        N#0#0#0#0#0#0#0#0#0#0#0#0#X#X#X#X#?#H!A!z!z!C!f!        ",
"        N#0#0#0#0#0#0#0#0#0#0#0#0#X#X#X#X#P#g#d#]#]#{#f!        ",
"        M#0#0#0#0#0#0#0#0#0#0#0#0#X#X#X#X#T#L#r#r#t#{#f!        ",
"        M#0#0#Y#D@D@D@D@F@G@P@P@R@V@V@V@R@P@x#N#T#t#{#f!        ",
"        M#0#0#F@:@?@:@:@:@E@E@J@K@U@U@U@K@J@E@8@T#t#{#f!        ",
"        M#0#0#D@:@+@;@:@l@E@J@J@K@U@X@U@U@K@J@8@T#t#{#f!        ",
"        q#0#0#D@:@!@+@:@l@E@J@J@U@X@0#X@U@K@J@8@T#t#{#f!        ",
"        q#0#0#D@:@7!7!:@l@E@>@>@C@K@V@K@E@-@[@b@Q#t#{#f!        ",
"        q#0#0#4!Y!/!/!1!2!2!(@)@]@-@-@-@-@]@[@^@Q#t#{#f!        ",
"        q#0#0#4!0!Z!.!5!2!)@)@[@]@-@-@-@-@]@[@^@Q#t#{#f!        ",
"        l#0#0#L@A@n@.!7!A@E@E@E@I@K@X@E@E@E@A@Z@Q#t#{#f!        ",
"        l#0#0#y@q@p@.!a!&@A@A@A@K@X@X@Q@H@A@q@Z@t#t#{#f!        ",
"        l#0#0#z#u@v@.!.!7!q@q@q@H@N@X@G#N@v@u@0@t#t#{#f!        ",
"        l#0#X#x#s@s@%@.!$@r@u@u@x@D#E#G#O@w@s@0@t#t#{#f!        ",
"        c#X#X#w#9@i@i@:!e!*@s@y@G#G#G#G#C#y@9@E!t#t#{#f!        ",
"        c#X#X#^#7@6@b@m!o!6@9@9@A#E#G#G#C#A#9@C!t#t#{#f!        ",
"        c#X#X#$#Z@7@r!r!c@7@7@x#x#C#G#Y@C#7@Z@L!t#t#{#f!        ",
"        b#X#X#%#3@3@d@d@3@Z@7@@#C#Y@Y@C#x#&#8@L!t#t#{#f!        ",
"        b#X#T#}#d@1@1@1@3@3@3@3@7@&#x#X@T@x#d@M!t#t#{#f!        ",
"        b#W#T#J#(#x!x!t!t!t!t!0@0@&#y#z@z@&#5@h#p#t#{#f!        ",
"        a#W#T#T#T#T#T#Q#Q#Q#Q#t#t#t#t#t#t#t#t#p#p#t#{#f!        ",
"        a#T#T#T#T#T#Q#Q#Q#Q#t#t#t#t#t#t#t#t#p#p#p#t#{#f!        ",
"        a#T#T#T#T#Q#Q#Q#Q#t#t#t#t#t#t#t#t#p#p#p#p#t#{#f!        ",
"        a#P#N#N#N#N#N#N#N#N#N#N#N#N#N#N#N#N#N#N#N#i#{#f!        ",
"        {#-#-#-#-#-#-#-#[#[#[#[#[#[#[#[#[#[#[#[#[#[#{#f!        ",
"          f!f!f!f!f!f!f!f!f!f!f!f!f!f!f!f!f!f!f!f!f!f!f!        ",
"                                                                ",
};

