/* XPM */
static char * run_xpm[] = {
"32 32 200 2",
"  	c None",
". 	c #000000",
"+ 	c #FFFFB3",
"@ 	c #FFFF75",
"# 	c #FFFF85",
"$ 	c #FFFF4F",
"% 	c #F5EE45",
"& 	c #FFFF76",
"* 	c #E9C32F",
"= 	c #FFFFB5",
"- 	c #FFFFA0",
"; 	c #FFFF79",
"> 	c #EFEA44",
", 	c #FDEF42",
"' 	c #FFFF49",
") 	c #BD4D00",
"! 	c #F8FA4E",
"~ 	c #F7F933",
"{ 	c #F6F751",
"] 	c #F4F14B",
"^ 	c #E0D600",
"/ 	c #E0D100",
"( 	c #E3CC0D",
"_ 	c #E4C22F",
": 	c #E1B129",
"< 	c #B93B00",
"[ 	c #FFFF5F",
"} 	c #F4F24C",
"| 	c #E0D800",
"1 	c #D2B600",
"2 	c #D5A500",
"3 	c #DBA100",
"4 	c #DFA626",
"5 	c #DB9C00",
"6 	c #FFFFAD",
"7 	c #D2B900",
"8 	c #CE7500",
"9 	c #DB9700",
"0 	c #F0C930",
"a 	c #FFFF43",
"b 	c #F0E23D",
"c 	c #FFFF7B",
"d 	c #F1EC46",
"e 	c #E9DF11",
"f 	c #FFD433",
"g 	c #E8CD34",
"h 	c #D6B800",
"i 	c #D7C000",
"j 	c #FFFFFF",
"k 	c #F1F000",
"l 	c #E5DD00",
"m 	c #E9E019",
"n 	c #FAEA3E",
"o 	c #ECD034",
"p 	c #FFFF5B",
"q 	c #FFFF51",
"r 	c #D2BE00",
"s 	c #F9FBF9",
"t 	c #EDEEE5",
"u 	c #E8DA28",
"v 	c #F0C330",
"w 	c #E4B029",
"x 	c #E8D939",
"y 	c #F1F1EB",
"z 	c #F5F5EA",
"A 	c #E2E1D3",
"B 	c #FFFF40",
"C 	c #E1BC2D",
"D 	c #DFAC28",
"E 	c #EEB129",
"F 	c #FFF038",
"G 	c #FFFF4D",
"H 	c #E8D739",
"I 	c #EAE33F",
"J 	c #FFFB4B",
"K 	c #EEED00",
"L 	c #E7E6DC",
"M 	c #DCDCCE",
"N 	c #E2E2CE",
"O 	c #FFFFEE",
"P 	c #FFEB39",
"Q 	c #C46000",
"R 	c #D07C00",
"S 	c #DBA300",
"T 	c #E4C52F",
"U 	c #D2AD00",
"V 	c #D7CA00",
"W 	c #E3DE00",
"X 	c #E8EB00",
"Y 	c #FBFBF9",
"Z 	c #F1F1E9",
"` 	c #E7E6DB",
" .	c #D2D4C1",
"..	c #CACAB8",
"+.	c #C0BFAE",
"@.	c #B4B4A4",
"#.	c #A9A99D",
"$.	c #9E9E97",
"%.	c #CE8200",
"&.	c #AF2000",
"*.	c #D5A100",
"=.	c #E3CB0D",
"-.	c #D2B100",
";.	c #FBF9F9",
">.	c #D2D2C4",
",.	c #BFC0AD",
"'.	c #949492",
").	c #8C8C8E",
"!.	c #D2AF00",
"~.	c #D2C800",
"{.	c #D4D2C4",
"].	c #BFBFAE",
"^.	c #88868C",
"/.	c #F9F9F6",
"(.	c #ABA785",
"_.	c #7A7A4D",
":.	c #5F6132",
"<.	c #747256",
"[.	c #979889",
"}.	c #85858B",
"|.	c #000002",
"1.	c #A7A785",
"2.	c #69695E",
"3.	c #7E7E7B",
"4.	c #86868C",
"5.	c #767478",
"6.	c #4D4F50",
"7.	c #6F6D74",
"8.	c #86888C",
"9.	c #9D9E9B",
"0.	c #A2A09A",
"a.	c #D2D2C1",
"b.	c #797980",
"c.	c #B2B2A8",
"d.	c #E9E9D4",
"e.	c #C5C5B1",
"f.	c #75724D",
"g.	c #A6A6AD",
"h.	c #8A8C8E",
"i.	c #949392",
"j.	c #9C9C97",
"k.	c #A7A99D",
"l.	c #B4B3A4",
"m.	c #BFBFAD",
"n.	c #888863",
"o.	c #E3E5D6",
"p.	c #E1E1D3",
"q.	c #CACAB7",
"r.	c #C0C0AE",
"s.	c #A6A693",
"t.	c #E6E6ED",
"u.	c #939492",
"v.	c #9C9E97",
"w.	c #A7A79C",
"x.	c #B3B4A4",
"y.	c #81815E",
"z.	c #7A784B",
"A.	c #8E8E64",
"B.	c #C9C9B3",
"C.	c #CBC9B4",
"D.	c #C0C0AD",
"E.	c #B4B4A8",
"F.	c #A3A29B",
"G.	c #EAEAE9",
"H.	c #9E9C97",
"I.	c #787A4D",
"J.	c #9E9E9C",
"K.	c #909091",
"L.	c #ECECE7",
"M.	c #ECEED7",
"N.	c #8F8F95",
"O.	c #ACACB4",
"P.	c #F9F9FF",
"Q.	c #ECECE9",
"R.	c #9C9C77",
"S.	c #DFDFCB",
"T.	c #AAA99D",
"U.	c #8C8A8E",
"V.	c #939392",
"W.	c #C9CAB8",
"X.	c #B2B293",
"Y.	c #88888C",
"Z.	c #A9A79C",
"`.	c #C9CAB7",
" +	c #E1E1D4",
".+	c #D1D1C2",
"++	c #C3C3BA",
"@+	c #F2F6EB",
"#+	c #5B5A57",
"$+	c #27272B",
"%+	c #7C7C7B",
"&+	c #78784D",
"*+	c #D0D0BB",
"=+	c #D9D9C8",
"-+	c #F0F5E8",
";+	c #979589",
">+	c #787A4B",
",+	c #F5F0F0",
"'+	c #ADAD9B",
")+	c #9C9C80",
"                                              . .               ",
"                                            . + @ .   . .       ",
"                                      . . . . # $ % . & * .     ",
"                                    . = - - - ; > , ' ' ) .     ",
"                                    . ! ~ { ] ^ / ( _ : < .     ",
"                                      . [ } | 1 . 2 3 4 5 . .   ",
"                                    . 6 ; | 7 .   . 8 9 0 a b . ",
"                      . . .       . # c d e .       . f g h i . ",
"                    . j j j .     . k l m n o .   . p q h r .   ",
"          .         . j s t .       . . u g v w . p $ x e .     ",
"        . j . . . . j j y z A . . . . . B C D E F G H I J K .   ",
"      . j j j j j j j y L M N O j j j . P Q R S T U 1 V W X .   ",
"    . j j j j j j Y Z ` M  ...+.@.#.$.. %.&.. *.=.-.. . . .     ",
"      . j j j j ;.y L M >...,.@.#.$.'.).. .   . !.~..           ",
"      . j j j s y ` M {...].@.#.$.'.).^.. .     . .             ",
"      . j j /.y L M (._.:.<.[.$.'.).^.}.|..                     ",
"      . j ;.Z ` M 1._.. . . 2.3.).4.}.4.5..                     ",
"  . . j j Z L M (._..       . 6.7.}.8.).9.0.. .                 ",
". j j j y L M a._..           . b.4.).'.$.c.d.e..               ",
". j ;.y ` M a...f..           . g.h.i.j.k.l.m.n..               ",
". /.o.p.M >.q.r.s..           . t.u.v.w.x.y.z.A..               ",
"  . . B.C...D.@.E.F..       . j G.H.w.@.y.I.. .                 ",
"      . e.+.@.#.$.J.K.. . . j L.H.#.@.m.z..                     ",
"      . M.@.#.$.'.).N.O.P.j Q.j.k.x.m...R..                     ",
"      . S.T.$.'.).4.}.4.U.V.$.w.@.m.W.a.X..                     ",
"      . j $.'.).Y.}.^.).i.H.Z.x.m.`.a.M  +.                     ",
"    . .+++'.).4.}.4.).V.v.w.l.m.q.a.M ` ` @+.                   ",
"      . #+. . . . $+%+H.Z.@.y.&+A.1.*+=+-+.                     ",
"        . . . . . . 2.;+@.y.>+. . . . ,+.                       ",
"          .         . '+m._..         .                         ",
"                    . )+z.A..                                   ",
"                      . . .                                     "};
