/* XPM */
static const char * sun_xpm[] = {
"16 16 2 1",
" 	c None",
".	c #F4CF16",
"                ",
"     ... ..     ",
"      .. .      ",
"   .. .... ..   ",
"    ........    ",
" ........... .. ",
"   ...........  ",
" ............   ",
" .. ........... ",
"   ......... .. ",
" ... .......    ",
"  . ..........  ",
"   .. ..... .   ",
"     .. . .     ",
"     .  . .     ",
"                "};
