/* XPM */
char * image_data[] = {
"32  32  257  2",
"  	c	None",
"!!	c #c3696b",
"@!	c #803940",
"#!	c #946c70",
"$!	c #844750",
"%!	c #000000",
"^!	c #f4f9ff",
"&!	c #e5f2ff",
"*!	c #f0f8ff",
"(!	c #cde3f4",
")!	c #bbd3d3",
"{!	c #e6ffff",
"}!	c #f1ffff",
"[!	c #f5ffff",
"]!	c #fcffff",
"|!	c #feffff",
"+!	c #c2ecdf",
"=!	c #77b290",
"-!	c #69a970",
",!	c #2b8330",
".!	c #9dc69f",
"<!	c #006600",
">!	c #0c700c",
"/!	c #127612",
"?!	c #1aa31a",
";!	c #147b14",
":!	c #168616",
"a!	c #1b901b",
"b!	c #1b7d1b",
"c!	c #1b741b",
"d!	c #1f8220",
"e!	c #29a629",
"f!	c #269726",
"g!	c #258a25",
"h!	c #32b232",
"j!	c #35a535",
"i!	c #3db73d",
"k!	c #3fb93f",
"l!	c #205a20",
"m!	c #47bd47",
"n!	c #4abe4a",
"o!	c #49bb49",
"p!	c #4cbf4c",
"q!	c #3f9f3f",
"r!	c #4fc04f",
"s!	c #44a444",
"t!	c #53c353",
"u!	c #398539",
"v!	c #54c354",
"w!	c #57c557",
"x!	c #2b5e2b",
"y!	c #5bc55b",
"z!	c #5ec95e",
"A!	c #58b758",
"B!	c #62ca62",
"C!	c #65cb65",
"D!	c #6ccf6c",
"E!	c #67c667",
"F!	c #6fd06f",
"G!	c #6bc56b",
"H!	c #75d375",
"I!	c #7fd97f",
"J!	c #3d633d",
"K!	c #455a45",
"L!	c #5e775e",
"M!	c #535a53",
"N!	c #bfccbf",
"O!	c #165a14",
"P!	c #959f93",
"Q!	c #437930",
"R!	c #215302",
"S!	c #366707",
"T!	c #435a17",
"U!	c #576c0f",
"V!	c #e5e7d7",
"W!	c #626261",
"X!	c #ffef7c",
"Y!	c #ffe13e",
"Z!	c #ffe655",
"0!	c #ffd632",
"1!	c #ffeb99",
"2!	c #ffcd10",
"3!	c #e6bb18",
"4!	c #fffae7",
"5!	c #e9b407",
"6!	c #d9ae28",
"7!	c #e6bd34",
"8!	c #b3a16c",
"9!	c #d5c495",
"!@	c #f9b80d",
"@@	c #dba419",
"#@	c #b38b22",
"$@	c #cca950",
"%@	c #ac7603",
"^@	c #ecaa11",
"&@	c #926b12",
"*@	c #ab7e1a",
"(@	c #695d43",
")@	c #ffb418",
"{@	c #79602c",
"}@	c #b08c42",
"[@	c #735d30",
"]@	c #ccb178",
"|@	c #d69112",
"+@	c #ab7616",
"=@	c #a37215",
"-@	c #a87a26",
",@	c #77633d",
".@	c #62553d",
"<@	c #7a705d",
">@	c #b8760f",
"/@	c #b47512",
"?@	c #ffc05a",
";@	c #bf7a14",
":@	c #c57d17",
"a@	c #ec9a1f",
"b@	c #cf8c26",
"c@	c #c28223",
"d@	c #dc9933",
"e@	c #ecaa44",
"f@	c #ffb751",
"g@	c #ffb953",
"h@	c #ffba54",
"j@	c #ffbd57",
"i@	c #5d5241",
"k@	c #8b560f",
"l@	c #ffa527",
"m@	c #8e5c1a",
"n@	c #df912b",
"o@	c #ffa837",
"p@	c #ffb14b",
"q@	c #ffb24c",
"r@	c #ffb54f",
"s@	c #8d4e00",
"t@	c #b2680d",
"u@	c #d6851f",
"v@	c #e18a24",
"w@	c #db8923",
"x@	c #e18e28",
"y@	c #f2a13b",
"z@	c #7d5420",
"A@	c #ffa943",
"B@	c #ffaa44",
"C@	c #ffad47",
"D@	c #ffaf49",
"E@	c #96550b",
"F@	c #ae640e",
"G@	c #bf7015",
"H@	c #884e10",
"I@	c #eb912b",
"J@	c #ffa03a",
"K@	c #ffa23c",
"L@	c #ffa43e",
"M@	c #ffa640",
"N@	c #e48426",
"O@	c #f2922d",
"P@	c #e6882b",
"Q@	c #f7952f",
"R@	c #f6922f",
"S@	c #fb9531",
"T@	c #fe9833",
"U@	c #f99832",
"V@	c #ff9b35",
"W@	c #ff9c36",
"X@	c #fe9d38",
"Y@	c #503417",
"Z@	c #d97a20",
"0@	c #c57122",
"1@	c #f18b2e",
"2@	c #ee882d",
"3@	c #96683d",
"4@	c #1a0e04",
"5@	c #eb822b",
"6@	c #f4882d",
"7@	c #e47e2a",
"8@	c #e27c2a",
"9@	c #d77728",
"!#	c #f0892f",
"@#	c #da7427",
"##	c #d77126",
"$#	c #e07a29",
"%#	c #de7828",
"^#	c #dc7628",
"&#	c #c7641d",
"*#	c #cb6621",
"(#	c #e67427",
")#	c #d26c24",
"{#	c #d06a23",
"}#	c #cf6923",
"[#	c #e87728",
"]#	c #d56f25",
"|#	c #d16b24",
"+#	c #eb7b2a",
"=#	c #893603",
"-#	c #e16b24",
",#	c #c55f20",
".#	c #af4d14",
"<#	c #dc6321",
">#	c #bc561d",
"/#	c #a44b19",
"?#	c #df6923",
";#	c #c0591e",
":#	c #381706",
"a#	c #ba4c15",
"b#	c #b5501a",
"c#	c #b34d1a",
"d#	c #925535",
"e#	c #97390c",
"f#	c #ae4818",
"g#	c #d5591e",
"h#	c #b04a19",
"j#	c #714834",
"i#	c #792603",
"k#	c #a64015",
"l#	c #a84216",
"m#	c #d1531c",
"n#	c #9c3511",
"o#	c #c84617",
"p#	c #cb4b19",
"q#	c #6b2a12",
"r#	c #c23f15",
"s#	c #751b01",
"t#	c #8b280d",
"u#	c #ac2d0e",
"v#	c #97290d",
"w#	c #ba3211",
"x#	c #7e1b07",
"y#	c #843f30",
"z#	c #5d352c",
"A#	c #711301",
"B#	c #9b1d08",
"C#	c #594846",
"D#	c #730c03",
"E#	c #64150d",
"F#	c #670603",
"G#	c #6d1310",
"H#	c #5b2725",
"I#	c #5f1313",
"J#	c #7e7e7e",
"K#	c #757575",
"L#	c #6e6e6e",
"M#	c #6b6b6b",
"N#	c #5b5b5b",
"O#	c #505050",
"P#	c #4e4e4e",
"Q#	c #4b4b4b",
"R#	c #484848",
"S#	c #404040",
"T#	c #313131",
"U#	c #272727",
"V#	c #222222",
"W#	c #1d1d1d",
"X#	c #121212",
"Y#	c #0f0f0f",
"Z#	c #0d0d0d",
"0#	c #040404",
"1#	c #000000",

"                                                                ",
"                                          .@R#R#.@              ",
"                                      .@X#Q#J#K#R#V#T#          ",
"                                    Y@V#N#K#J#K#W!O#T#W#        ",
"          *@*@#@#@*@*@            .@.@Q#W!J#P!J#N#R#S#W#S#      ",
"        %@3!Z!X!X!Z!@@=@          4@Z#Y#X#V#W!K#W!S#T#U#Z#      ",
"      %@!@2!0!Z!Z!Y!2!5!&@        4@/#m#o#t#:#Z#W#V#U#W#0#M#    ",
"    !!a@0!X!4!4!1!0!2!)@|@3@    3@0@V@J@X@!#(#;#/#q#4@Z#0#P#    ",
"    >@2!7!$@]@9!1!Z!2!)@l@;@    3@7@1@S@V@V@V@T@S@2@9@Y@0#R#    ",
"    |@@@x@I@I@w@b@6!5!^@o@d@<@  d#^#7@5@!#1@1@2@5@8@@#)#:#R#    ",
"    @@p@q@f@f@f@g@g@g@f@h@e@,@  d#*###^#$#7@8@%#@#]#}#,#i#N#    ",
"    d@p@r@f@h@j@?@?@j@h@f@r@{@  d#b#*#{#|#)#)#|#}#,#,#.#q#M#    ",
"    b@B@D@q@r@f@f@f@f@r@q@D@{@    e#;#;#,#,#,#,#;#>#b#e#z#M#    ",
"    c@M@B@C@D@p@p@p@p@D@C@y@[@    s#h#c#b#b#b#b#c#f#k#s#C#      ",
"    }@J@L@M@A@B@B@B@B@A@M@n@(@    y#t#k#l#l#l#l#k#n#x#H#L#      ",
"      w@X@J@K@L@L@L@L@K@J@:@W!      A#t#n#n#n#n#n#x#E#N#        ",
"      -@S@V@W@W@X@X@W@W@U@z@    &@/@E@G#x#t#t#x#D#s#z@M#        ",
"        >@I@O@Q@Q@Q@Q@O@:@i@m@F@O@K@/@)!#!@!@!$!#!=@G@k@        ",
"        8!>@u@w@v@v@w@;@S!T!E@+#S@J@/@*!&!&!&!(!=@I@6@&#H@      ",
"        c!Q!-@>@;@;@-@P!b!A!d!U!P@W@;@V!|!|!|!}@x@T@5@-#.#z@    ",
"      ;!E!b!=!)!N!N!(!(!g!I!H!s!S!I@u@9![![!9!;@V@6@[#<#m#=#    ",
"    /!y!F!H!d!)!^!^!^!N!s!I!H!C!f!&@N@8!{!V!+@R@6@[#?#g#p#n#j#  ",
"  /!o!y!D!H!G!,!]!]!]!.!s!I!F!z!o!S![#-@{!}@Z@+#(#?#g#p#r#u#q#  ",
"  a!m!t!B!F!H!q!=!}!}!-!A!F!C!w!m!S!<#t@8!t@-#?#<#g#p#r#w#B#q#  ",
"u!e!i!n!w!B!D!H!;!)!{!,!F!C!w!p!i!R!v#e#s@a#g#m#p#o#r#u#B#D#z#  ",
"u!e!h!k!n!v!z!C!A!,!+!d!z!w!p!k!f!O!H#H#I#I#I#F#F#E#I#I#H#C#.@  ",
"u!?!e!h!i!m!r!t!w!g!,!j!r!m!e!:!O!M!                            ",
"  >!:!a!f!e!j!j!j!f!<!:!;!O!l!K!M#                              ",
"    L!J!x!x!x!x!x!x!K!K!W!                                      ",
"                                                                ",
"                                                                ",
"                                                                ",
};

