/* XPM */
static const char *addlayer_xpm[] = {
"8 8 2 1",
"$ c none",
"% c #0000ff",
"$$$%%$$$",
"$$$%%$$$",
"$$$%%$$$",
"%%%%%%%%",
"%%%%%%%%",
"$$$%%$$$",
"$$$%%$$$",
"$$$%%$$$"
};

