/* XPM */
char * image_data[] = {
"32  32  257  2",
"  	c	None",
"!!	c #ffffff",
"@!	c #fffbf0",
"#!	c #f3f9f3",
"$!	c #e9f4e9",
"%!	c #e5f3e5",
"^!	c #bfe1bf",
"&!	c #a4d9a4",
"*!	c #88d188",
"(!	c #44c344",
")!	c #78bc78",
"{!	c #67b467",
"}!	c #56ab56",
"[!	c #4ba54b",
"]!	c #35bb35",
"|!	c #3fa03f",
"+!	c #34a934",
"=!	c #34a734",
"-!	c #2abc2a",
",!	c #22ad22",
".!	c #339833",
"<!	c #2d982d",
">!	c #2b962b",
"/!	c #269826",
"?!	c #268726",
";!	c #1caf1c",
":!	c #0fb30f",
"a!	c #1a981a",
"b!	c #198b19",
"c!	c #108410",
"d!	c #029d02",
"e!	c #088608",
"f!	c #197b19",
"g!	c #0c7d0c",
"h!	c #0d740d",
"j!	c #027c02",
"i!	c #027202",
"k!	c #0e620e",
"l!	c #026202",
"m!	c #000000",
"n!	c #000000",
"o!	c #000000",
"p!	c #000000",
"q!	c #000000",
"r!	c #000000",
"s!	c #000000",
"t!	c #000000",
"u!	c #000000",
"v!	c #000000",
"w!	c #000000",
"x!	c #000000",
"y!	c #000000",
"z!	c #000000",
"A!	c #000000",
"B!	c #000000",
"C!	c #000000",
"D!	c #000000",
"E!	c #000000",
"F!	c #000000",
"G!	c #000000",
"H!	c #000000",
"I!	c #000000",
"J!	c #000000",
"K!	c #000000",
"L!	c #000000",
"M!	c #000000",
"N!	c #000000",
"O!	c #000000",
"P!	c #000000",
"Q!	c #000000",
"R!	c #000000",
"S!	c #000000",
"T!	c #000000",
"U!	c #000000",
"V!	c #000000",
"W!	c #000000",
"X!	c #000000",
"Y!	c #000000",
"Z!	c #000000",
"0!	c #000000",
"1!	c #000000",
"2!	c #000000",
"3!	c #000000",
"4!	c #000000",
"5!	c #000000",
"6!	c #000000",
"7!	c #000000",
"8!	c #000000",
"9!	c #000000",
"!@	c #000000",
"@@	c #000000",
"#@	c #000000",
"$@	c #000000",
"%@	c #000000",
"^@	c #000000",
"&@	c #000000",
"*@	c #000000",
"(@	c #000000",
")@	c #000000",
"{@	c #000000",
"}@	c #000000",
"[@	c #000000",
"]@	c #000000",
"|@	c #000000",
"+@	c #000000",
"=@	c #000000",
"-@	c #000000",
",@	c #000000",
".@	c #000000",
"<@	c #000000",
">@	c #000000",
"/@	c #000000",
"?@	c #000000",
";@	c #000000",
":@	c #000000",
"a@	c #000000",
"b@	c #000000",
"c@	c #000000",
"d@	c #000000",
"e@	c #000000",
"f@	c #000000",
"g@	c #000000",
"h@	c #000000",
"j@	c #000000",
"i@	c #000000",
"k@	c #000000",
"l@	c #000000",
"m@	c #000000",
"n@	c #000000",
"o@	c #000000",
"p@	c #000000",
"q@	c #000000",
"r@	c #000000",
"s@	c #000000",
"t@	c #000000",
"u@	c #000000",
"v@	c #000000",
"w@	c #000000",
"x@	c #000000",
"y@	c #000000",
"z@	c #000000",
"A@	c #000000",
"B@	c #000000",
"C@	c #000000",
"D@	c #000000",
"E@	c #000000",
"F@	c #000000",
"G@	c #000000",
"H@	c #000000",
"I@	c #000000",
"J@	c #000000",
"K@	c #000000",
"L@	c #000000",
"M@	c #000000",
"N@	c #000000",
"O@	c #000000",
"P@	c #000000",
"Q@	c #000000",
"R@	c #000000",
"S@	c #000000",
"T@	c #000000",
"U@	c #000000",
"V@	c #000000",
"W@	c #000000",
"X@	c #000000",
"Y@	c #000000",
"Z@	c #000000",
"0@	c #000000",
"1@	c #000000",
"2@	c #000000",
"3@	c #000000",
"4@	c #000000",
"5@	c #000000",
"6@	c #000000",
"7@	c #000000",
"8@	c #000000",
"9@	c #000000",
"!#	c #000000",
"@#	c #000000",
"##	c #000000",
"$#	c #000000",
"%#	c #000000",
"^#	c #000000",
"&#	c #000000",
"*#	c #000000",
"(#	c #000000",
")#	c #000000",
"{#	c #000000",
"}#	c #000000",
"[#	c #000000",
"]#	c #000000",
"|#	c #000000",
"+#	c #000000",
"=#	c #000000",
"-#	c #000000",
",#	c #000000",
".#	c #000000",
"<#	c #000000",
">#	c #000000",
"/#	c #000000",
"?#	c #000000",
";#	c #000000",
":#	c #000000",
"a#	c #000000",
"b#	c #000000",
"c#	c #000000",
"d#	c #000000",
"e#	c #000000",
"f#	c #000000",
"g#	c #000000",
"h#	c #000000",
"j#	c #000000",
"i#	c #000000",
"k#	c #000000",
"l#	c #000000",
"m#	c #000000",
"n#	c #000000",
"o#	c #000000",
"p#	c #000000",
"q#	c #000000",
"r#	c #000000",
"s#	c #000000",
"t#	c #000000",
"u#	c #000000",
"v#	c #000000",
"w#	c #000000",
"x#	c #000000",
"y#	c #000000",
"z#	c #000000",
"A#	c #000000",
"B#	c #000000",
"C#	c #000000",
"D#	c #000000",
"E#	c #000000",
"F#	c #000000",
"G#	c #000000",
"H#	c #000000",
"I#	c #000000",
"J#	c #000000",
"K#	c #000000",
"L#	c #000000",
"M#	c #000000",
"N#	c #000000",
"O#	c #000000",
"P#	c #000000",
"Q#	c #000000",
"R#	c #000000",
"S#	c #000000",
"T#	c #000000",
"U#	c #000000",
"V#	c #000000",
"W#	c #000000",
"X#	c #000000",
"Y#	c #000000",
"Z#	c #000000",
"0#	c #000000",
"1#	c #ffffff",

"                                                                ",
"                                                                ",
"                                                                ",
"                                                                ",
"            @!!!!!!!!!!!!!!!!!!!!!!!!!!!!!!!!!!!!!@!            ",
"          @!^!|!|!.!.!.!.!.!.!.!.!/!/!/!?!/!b!b!h!&!@!          ",
"        @!^![!)!{!{!}!}!}![![![![![![!|!|!|!.!.!h!k!^!@!        ",
"        !![!)!*!*!)!)!{!{!{!{!!!!!}!}!}!}![![!|!|!f!k!!!        ",
"        !!|!)!*!)!)!{!{!{!{!}!!!!!}![![![!|!|!|!.!f!k!!!        ",
"        !!|!{!)!)!)!{!{!}!}!}!!!#![!|!|!|!|!.!.!.!f!k!!!        ",
"        !!|!}!)!{!{!!!!!}![![!%!!!|!.!.!!!!!/!<!<!f!k!!!        ",
"        !!.!}!{!{!{!!!!!!![!|!!!#!.!.!!!!!!!.!<!>!f!k!!!        ",
"        !!.!}!{!{!{!}!!!!!!!|!|!|!.!!!!!!!/!/!/!/!f!k!!!        ",
"        !!.![!{!{!}!}!}!!!!!|!|!.!.!!!!!/!/!/!/!/!f!k!!!        ",
"        !!/![!}!}!{!}![![![!|!|!.!.!/!/!/!,!a!/!d!f!k!!!        ",
"        !!/!|!!!!!!!!!!![![!|!|!+!=!+!,!!!!!!!!!#!f!k!!!        ",
"        !!/!|!!!!!!!!!!![![!|!|!.!+!+!/!!!!!!!%!!!f!k!!!        ",
"        !!/!|!}!}!}!}![![![!|!|!+!+!+!,!,!,!,!a!d!f!k!!!        ",
"        !!b!.![!}!}!}!}!!!!![!|!|!+!!!!!,!,!;!:!d!f!k!!!        ",
"        !!b!.![![![![!!!$!!!|!]!+!+!!!!!!!,!:!;!d!f!l!!!        ",
"        !!b!/![![![!!!$!!![!|!!!!!]!-!!!!!!!:!:!d!f!l!!!        ",
"        !!c!/!|![![!!!!![!|!(!!!!!+!,!,!!!%!:!:!d!f!l!!!        ",
"        !!c!b!.!|!|!|!|!|!|!+!!!!!+!,!,!,!,!:!:!d!f!l!!!        ",
"        !!c!b!.!.!|!|!|!|!|!+!%!!!+!,!,!,!:!:!:!d!j!l!!!        ",
"        !!h!h!/!.!.!.!.!.!.!.!!!#!d!d!d!d!d!d!d!d!j!l!!!        ",
"        @!^!l!h!h!f!f!f!f!f!f!f!f!g!g!g!g!g!j!j!i!l!&!@!        ",
"          @!^!k!k!k!k!k!k!k!k!l!k!l!l!l!l!l!l!l!l!&!@!          ",
"            @!!!!!!!!!!!!!!!!!!!!!!!!!!!!!!!!!!!!!@!            ",
"                                                                ",
"                                                                ",
"                                                                ",
"                                                                ",
};

