/* XPM */
char * image_data[] = {
"32  32  257  2",
"  	c	None",
"!!	c #ffffff",
"@!	c #fefaf1",
"#!	c #f9f5f0",
"$!	c #faf5ec",
"%!	c #f7f4ef",
"^!	c #fbf3e7",
"&!	c #f9eeda",
"*!	c #f8ead7",
"(!	c #f6e7d1",
")!	c #f8eaca",
"{!	c #f6e5cc",
"}!	c #f5e3c6",
"[!	c #f4e1b2",
"]!	c #f3ddbb",
"|!	c #f1d9b3",
"+!	c #efd1a3",
"=!	c #eecea0",
"-!	c #f1d690",
",!	c #efd29e",
".!	c #edcd9d",
"<!	c #ebca95",
">!	c #ebc792",
"/!	c #eac48c",
"?!	c #edca82",
";!	c #e9c185",
":!	c #e9bf81",
"a!	c #edcd7e",
"b!	c #ebc672",
"c!	c #e8bd7e",
"d!	c #e6bc7b",
"e!	c #e6b976",
"f!	c #e5b672",
"g!	c #e4b46b",
"h!	c #e6ba64",
"j!	c #e3b065",
"i!	c #e3ae62",
"k!	c #e1ab5b",
"l!	c #e1a956",
"m!	c #e0a653",
"n!	c #e3b048",
"o!	c #e1aa4a",
"p!	c #e0a54a",
"q!	c #e1a744",
"r!	c #dfa552",
"s!	c #dea34c",
"t!	c #dea246",
"u!	c #dd9e43",
"v!	c #cb984d",
"w!	c #c59144",
"x!	c #b78b4a",
"y!	c #b48644",
"z!	c #e6b838",
"A!	c #e4b33c",
"B!	c #e2ad3d",
"C!	c #e1a833",
"D!	c #e4b22a",
"E!	c #e3b123",
"F!	c #e2ae2c",
"G!	c #e2ad23",
"H!	c #e0a726",
"I!	c #dea23e",
"J!	c #dea32c",
"K!	c #db9b3c",
"L!	c #d7993c",
"M!	c #db9b34",
"N!	c #da9733",
"O!	c #d49330",
"P!	c #dd9d2b",
"Q!	c #d9942c",
"R!	c #d3922d",
"S!	c #db9b23",
"T!	c #d69a25",
"U!	c #da9525",
"V!	c #d79025",
"W!	c #d38e28",
"X!	c #d58e23",
"Y!	c #c48629",
"Z!	c #c58924",
"0!	c #c18122",
"1!	c #e4b31b",
"2!	c #e4b214",
"3!	c #e1ab19",
"4!	c #e1ad14",
"5!	c #e2ac0c",
"6!	c #dda31b",
"7!	c #daa214",
"8!	c #daa10d",
"9!	c #dda307",
"!@	c #d99e1d",
"@@	c #d58b1d",
"#@	c #d58916",
"$@	c #d48712",
"%@	c #cc8a1c",
"^@	c #c68a1b",
"&@	c #cc8418",
"*@	c #c1831d",
"(@	c #c98c13",
")@	c #c78916",
"{@	c #ce8415",
"}@	c #d99b04",
"[@	c #d79803",
"]@	c #d2840e",
"|@	c #d08d00",
"+@	c #c98a0b",
"=@	c #c7890e",
"-@	c #c98805",
",@	c #c88703",
".@	c #c68401",
"<@	c #ab803f",
">@	c #c07f1f",
"/@	c #c87b0a",
"?@	c #be7c1a",
";@	c #bc7814",
":@	c #a26b1a",
"a@	c #a36a14",
"b@	c #a16712",
"c@	c #ba740e",
"d@	c #bd7a00",
"e@	c #a56a0b",
"f@	c #a1670c",
"g@	c #ab6a00",
"h@	c #a56905",
"j@	c #a36602",
"i@	c #9d6411",
"k@	c #9c620c",
"l@	c #9b5e00",
"m@	c #000000",
"n@	c #000000",
"o@	c #000000",
"p@	c #000000",
"q@	c #000000",
"r@	c #000000",
"s@	c #000000",
"t@	c #000000",
"u@	c #000000",
"v@	c #000000",
"w@	c #000000",
"x@	c #000000",
"y@	c #000000",
"z@	c #000000",
"A@	c #000000",
"B@	c #000000",
"C@	c #000000",
"D@	c #000000",
"E@	c #000000",
"F@	c #000000",
"G@	c #000000",
"H@	c #000000",
"I@	c #000000",
"J@	c #000000",
"K@	c #000000",
"L@	c #000000",
"M@	c #000000",
"N@	c #000000",
"O@	c #000000",
"P@	c #000000",
"Q@	c #000000",
"R@	c #000000",
"S@	c #000000",
"T@	c #000000",
"U@	c #000000",
"V@	c #000000",
"W@	c #000000",
"X@	c #000000",
"Y@	c #000000",
"Z@	c #000000",
"0@	c #000000",
"1@	c #000000",
"2@	c #000000",
"3@	c #000000",
"4@	c #000000",
"5@	c #000000",
"6@	c #000000",
"7@	c #000000",
"8@	c #000000",
"9@	c #000000",
"!#	c #000000",
"@#	c #000000",
"##	c #000000",
"$#	c #000000",
"%#	c #000000",
"^#	c #000000",
"&#	c #000000",
"*#	c #000000",
"(#	c #000000",
")#	c #000000",
"{#	c #000000",
"}#	c #000000",
"[#	c #000000",
"]#	c #000000",
"|#	c #000000",
"+#	c #000000",
"=#	c #000000",
"-#	c #000000",
",#	c #000000",
".#	c #000000",
"<#	c #000000",
">#	c #000000",
"/#	c #000000",
"?#	c #000000",
";#	c #000000",
":#	c #000000",
"a#	c #000000",
"b#	c #000000",
"c#	c #000000",
"d#	c #000000",
"e#	c #000000",
"f#	c #000000",
"g#	c #000000",
"h#	c #000000",
"j#	c #000000",
"i#	c #000000",
"k#	c #000000",
"l#	c #000000",
"m#	c #000000",
"n#	c #000000",
"o#	c #000000",
"p#	c #000000",
"q#	c #000000",
"r#	c #000000",
"s#	c #000000",
"t#	c #000000",
"u#	c #000000",
"v#	c #000000",
"w#	c #000000",
"x#	c #000000",
"y#	c #000000",
"z#	c #000000",
"A#	c #000000",
"B#	c #000000",
"C#	c #000000",
"D#	c #000000",
"E#	c #000000",
"F#	c #000000",
"G#	c #000000",
"H#	c #000000",
"I#	c #000000",
"J#	c #000000",
"K#	c #000000",
"L#	c #000000",
"M#	c #000000",
"N#	c #000000",
"O#	c #000000",
"P#	c #000000",
"Q#	c #000000",
"R#	c #000000",
"S#	c #000000",
"T#	c #000000",
"U#	c #000000",
"V#	c #000000",
"W#	c #000000",
"X#	c #000000",
"Y#	c #000000",
"Z#	c #000000",
"0#	c #000000",
"1#	c #ffffff",

"                                                                ",
"                                                                ",
"                                                                ",
"                                                                ",
"            @!!!!!!!!!!!!!!!!!!!!!!!!!!!!!!!!!!!!!@!            ",
"          @!e!l!m!s!t!u!K!K!K!K!K!M!N!Q!Q!Q!V!@@&@v!#!          ",
"        @!e!c!/!;!e!g!g!j!i!k!k!k!l!m!r!s!t!K!N!W!?@x!@!        ",
"        !!k!>!=!<!;!d!e!g!g!g!j!/!]!*!{!.!j!t!K!R!0!i@!!        ",
"        !!l!/!.!/!:!e!g!g!j!g!{!!!!!!!!!!!!!/!K!O!0!b@!!        ",
"        !!s!c!/!;!e!g!j!i!k!{!!!$!/!m!k!.!@!!!:!O!0!a@!!        ",
"        !!s!f!d!e!g!i!k!k!d!!!&!s!K!M!N!N!l!!!@!L!Y!:@!!        ",
"        !!u!g!f!g!g!i!k!m!}!!!f!K!K!c!!!+!Q!+!!!d!Y!:@!!        ",
"        !!K!j!g!g!i!k!m!r!(!!!u!K!M!/!!!]!U!k!!!<!Y!:@!!        ",
"        !!K!k!i!i!i!k!r!s!(!!!K!M!M!Q!k!M!U!k!!!<!Z!:@!!        ",
"        !!K!l!k!k!k!k!m!s!(!!!l!M!M!P!S!S!S!,!!!d!Z!a@!!        ",
"        !!N!r!k!k!k!l!r!>!!!@!l!M!M!P!S!S!n!@!@!M!Z!a@!!        ",
"        !!N!s!m!l!l!l!>!!!@!j!I!q!h!J!C!?!@!!!?!S!^@a@!!        ",
"        !!Q!t!s!m!l!<!!!@!g!t!o!&!!!!!!!!!!!a!6!!@%@e@!!        ",
"        !!V!K!s!s!>!!!@!g!p!t!&!!!&!)!)!-!z!3!3!7!(@e@!!        ",
"        !!X!K!u!/!!!!!g!s!s!q!@!!!b!F!E!E!1!4!4!7!+@e@!!        ",
"        !!@@N!K!!!!!/!s!l!}!<!&!!![!D!E!1!1!2!5!8!+@h@!!        ",
"        !!#@Q!M!!!(!s!m!&!!!!!!!&!A!D!E!1!2!2!5!9!-@h@!!        ",
"        !!$@X!Q!!!^!.!&!!!{!!!&!B!F!G!E!1!2!5!5!}@-@j@!!        ",
"        !!]@@@V!!!!!!!!!|!M!M!J!J!H!G!3!4!4!5!9!}@.@j@!!        ",
"        !!/@{@%@X!R!R!R!R!R!R!T!T!!@6!7!7!8!}@}@|@d@l@!!        ",
"        @!w!c@;@?@>@0!0!0!*@*@*@^@)@(@=@=@+@-@.@d@g@<@@!        ",
"          $!y!k@k@k@i@i@i@i@b@a@f@e@e@h@j@j@j@j@l@<@%!          ",
"            @!!!!!!!!!!!!!!!!!!!!!!!!!!!!!!!!!!!!!@!            ",
"                                                                ",
"                                                                ",
"                                                                ",
"                                                                ",
};

