/* XPM */
char * image_data[] = {
"32  32  257  2",
"  	c	None",
"!!	c #ffffff",
"@!	c #fffaf3",
"#!	c #fdf4f2",
"$!	c #fcf1ee",
"%!	c #fcedea",
"^!	c #fce9e4",
"&!	c #fbe4dd",
"*!	c #faded9",
"(!	c #fadcd4",
")!	c #f5c4b9",
"{!	c #f5c1b5",
"}!	c #f4bbac",
"[!	c #f6b8a2",
"]!	c #f2b3a4",
"|!	c #f4b39f",
"+!	c #f2ac9a",
"=!	c #f1a896",
"-!	c #f0a592",
",!	c #efa391",
".!	c #f4a98f",
"<!	c #f3a58a",
">!	c #efa18e",
"/!	c #ef9f8b",
"?!	c #ee9a85",
";!	c #ed9681",
":!	c #ed937c",
"a!	c #ec8d78",
"b!	c #eb8d75",
"c!	c #f0906e",
"d!	c #f18b65",
"e!	c #eb886f",
"f!	c #ea846b",
"g!	c #ea8166",
"h!	c #ee815d",
"j!	c #e97d64",
"i!	c #e8795e",
"k!	c #e8755a",
"l!	c #e7755b",
"m!	c #e87257",
"n!	c #e77155",
"o!	c #e76e51",
"p!	c #ec754d",
"q!	c #e86c49",
"r!	c #e66a4c",
"s!	c #e56749",
"t!	c #e76945",
"u!	c #e56344",
"v!	c #d1674d",
"w!	c #e45f40",
"x!	c #cb5f44",
"y!	c #bc614a",
"z!	c #b95c44",
"A!	c #ec6b3d",
"B!	c #e6643c",
"C!	c #e96133",
"D!	c #e35d3b",
"E!	c #e45a34",
"F!	c #e25632",
"G!	c #e95c2c",
"H!	c #e65a2d",
"I!	c #e2532d",
"J!	c #e85826",
"K!	c #e65325",
"L!	c #e14f2a",
"M!	c #e24c24",
"N!	c #dc5230",
"O!	c #dc512d",
"P!	c #dc5027",
"Q!	c #db4e2a",
"R!	c #dd4d23",
"S!	c #df4620",
"T!	c #cb4929",
"U!	c #cd4827",
"V!	c #ca4422",
"W!	c #c74221",
"X!	c #ea511a",
"Y!	c #ea5017",
"Z!	c #e44d1b",
"0!	c #e94b12",
"1!	c #e44a16",
"2!	c #e14512",
"3!	c #e8460d",
"4!	c #e4410b",
"5!	c #df4d1f",
"6!	c #dd441d",
"7!	c #cb411c",
"8!	c #b0563f",
"9!	c #e23c06",
"!@	c #d53e18",
"@@	c #de3d14",
"#@	c #d63c15",
"$@	c #c63d1a",
"%@	c #cf3d14",
"^@	c #c53714",
"&@	c #d03b0f",
"*@	c #db370e",
"(@	c #d1320a",
")@	c #df3703",
"{@	c #d73200",
"}@	c #cd390e",
"[@	c #cf3709",
"]@	c #c3320e",
"|@	c #cf3204",
"+@	c #cd2f01",
"=@	c #c52b00",
"-@	c #a9361a",
",@	c #aa3314",
".@	c #a73215",
"<@	c #a82f10",
">@	c #a42e11",
"/@	c #ab300f",
"?@	c #b22500",
";@	c #ab2c0a",
":@	c #a32a0c",
"a@	c #ac2906",
"b@	c #aa2502",
"c@	c #a22100",
"d@	c #000000",
"e@	c #000000",
"f@	c #000000",
"g@	c #000000",
"h@	c #000000",
"j@	c #000000",
"i@	c #000000",
"k@	c #000000",
"l@	c #000000",
"m@	c #000000",
"n@	c #000000",
"o@	c #000000",
"p@	c #000000",
"q@	c #000000",
"r@	c #000000",
"s@	c #000000",
"t@	c #000000",
"u@	c #000000",
"v@	c #000000",
"w@	c #000000",
"x@	c #000000",
"y@	c #000000",
"z@	c #000000",
"A@	c #000000",
"B@	c #000000",
"C@	c #000000",
"D@	c #000000",
"E@	c #000000",
"F@	c #000000",
"G@	c #000000",
"H@	c #000000",
"I@	c #000000",
"J@	c #000000",
"K@	c #000000",
"L@	c #000000",
"M@	c #000000",
"N@	c #000000",
"O@	c #000000",
"P@	c #000000",
"Q@	c #000000",
"R@	c #000000",
"S@	c #000000",
"T@	c #000000",
"U@	c #000000",
"V@	c #000000",
"W@	c #000000",
"X@	c #000000",
"Y@	c #000000",
"Z@	c #000000",
"0@	c #000000",
"1@	c #000000",
"2@	c #000000",
"3@	c #000000",
"4@	c #000000",
"5@	c #000000",
"6@	c #000000",
"7@	c #000000",
"8@	c #000000",
"9@	c #000000",
"!#	c #000000",
"@#	c #000000",
"##	c #000000",
"$#	c #000000",
"%#	c #000000",
"^#	c #000000",
"&#	c #000000",
"*#	c #000000",
"(#	c #000000",
")#	c #000000",
"{#	c #000000",
"}#	c #000000",
"[#	c #000000",
"]#	c #000000",
"|#	c #000000",
"+#	c #000000",
"=#	c #000000",
"-#	c #000000",
",#	c #000000",
".#	c #000000",
"<#	c #000000",
">#	c #000000",
"/#	c #000000",
"?#	c #000000",
";#	c #000000",
":#	c #000000",
"a#	c #000000",
"b#	c #000000",
"c#	c #000000",
"d#	c #000000",
"e#	c #000000",
"f#	c #000000",
"g#	c #000000",
"h#	c #000000",
"j#	c #000000",
"i#	c #000000",
"k#	c #000000",
"l#	c #000000",
"m#	c #000000",
"n#	c #000000",
"o#	c #000000",
"p#	c #000000",
"q#	c #000000",
"r#	c #000000",
"s#	c #000000",
"t#	c #000000",
"u#	c #000000",
"v#	c #000000",
"w#	c #000000",
"x#	c #000000",
"y#	c #000000",
"z#	c #000000",
"A#	c #000000",
"B#	c #000000",
"C#	c #000000",
"D#	c #000000",
"E#	c #000000",
"F#	c #000000",
"G#	c #000000",
"H#	c #000000",
"I#	c #000000",
"J#	c #000000",
"K#	c #000000",
"L#	c #000000",
"M#	c #000000",
"N#	c #000000",
"O#	c #000000",
"P#	c #000000",
"Q#	c #000000",
"R#	c #000000",
"S#	c #000000",
"T#	c #000000",
"U#	c #000000",
"V#	c #000000",
"W#	c #000000",
"X#	c #000000",
"Y#	c #000000",
"Z#	c #000000",
"0#	c #000000",
"1#	c #ffffff",

"                                                                ",
"                                                                ",
"                                                                ",
"                                                                ",
"            @!!!!!!!!!!!!!!!!!!!!!!!!!!!!!!!!!!!!!@!            ",
"          #!b!n!o!r!u!u!D!D!D!D!D!F!F!I!I!I!M!6!!@v!#!          ",
"        @!b!:!>!?!b!f!f!j!j!k!k!k!n!o!o!r!u!D!F!Q!$@y!@!        ",
"        !!k!-!]!=!?!:!b!f!f!f!j!j!j!i!k!n!r!u!D!O!V!>@!!        ",
"        !!n!/!+!>!;!b!e!f!j!j!i!i!k!n!n!r!s!u!D!N!V!.@!!        ",
"        !!r!:!/!?!b!f!g!:!{!%!!!!!^!]!j!u!D!D!F!N!V!.@!!        ",
"        !!s!b!:!b!f!j!]!!!!!^!(!(!^!!!@!;!F!F!F!N!T!-@!!        ",
"        !!u!f!b!f!f!]!!!%!]!l!u!D!k!=!$!!!:!I!I!O!T!-@!!        ",
"        !!D!j!f!f!;!@!%!a!s!u!w!D!F!I!g!$!#!r!I!O!T!-@!!        ",
"        !!D!i!j!j!)!!!]!r!s!u!!!!!F!I!M!+!!!=!L!O!U!-@!!        ",
"        !!D!m!i!i!%!%!f!r!s!u!!!!!F!I!K!q!$!(!M!Q!V!,@!!        ",
"        !!F!o!k!k!!!*!o!r!s!u!!!!!E!I!K!M!&!@!M!R!V!,@!!        ",
"        !!F!r!n!m!!!*!o!r!r!u!!!!!E!I!K!K!&!#!Z!R!7!,@!!        ",
"        !!L!u!r!n!^!%!f!r!r!u!!!!!E!H!K!p!$!(!Z!Z!7!/@!!        ",
"        !!M!D!s!r!}!!!]!r!r!t!!!!!C!G!J!|!!!<!Z!1!%@;@!!        ",
"        !!S!D!u!r!f!#!$!:!r!t!B!B!C!G!c!#!%!C!1!2!&@;@!!        ",
"        !!6!F!D!u!r!,!!!#!}!g!B!B!h![!#!!!d!0!3!4![@a@!!        ",
"        !!@@L!E!B!u!r!>!#!!!$!^!^!#!!!$!d!Y!0!3!9!|@b@!!        ",
"        !!@@M!I!E!D!u!u!i!|!&!@!@!(!.!A!X!0!3!4!9!|@b@!!        ",
"        !!*@6!M!I!F!D!D!E!E!E!H!I!K!K!Z!1!0!4!9!)@+@b@!!        ",
"        !!(@#@6!R!Q!O!O!Q!O!O!P!R!5!Z!1!2!4!9!)@{@=@c@!!        ",
"        @!x!]@^@$@7!V!W!V!7!7!7!7!%@%@}@}@[@|@+@=@?@8!@!        ",
"          $!z!:@:@:@>@>@>@>@<@<@;@;@;@a@b@b@b@b@c@8!$!          ",
"            @!!!!!!!!!!!!!!!!!!!!!!!!!!!!!!!!!!!!!@!            ",
"                                                                ",
"                                                                ",
"                                                                ",
"                                                                ",
};

