/* XPM */
static char * config_xpm[] = {
"32 32 256 2",
"  	c None",
". 	c #000000",
"+ 	c #E6F3FD",
"@ 	c #E9F9FF",
"# 	c #E9FAFF",
"$ 	c #7E8486",
"% 	c #8C9297",
"& 	c #818280",
"* 	c #C9D7E2",
"= 	c #E2F6FF",
"- 	c #DFF5FF",
"; 	c #DAF1FF",
"> 	c #D2EBFD",
", 	c #E4F2FD",
"' 	c #E5F4FF",
") 	c #E6F5FF",
"! 	c #FFFFFF",
"~ 	c #A8ACAF",
"{ 	c #FDFFFF",
"] 	c #FBFFFF",
"^ 	c #F1FFFF",
"/ 	c #DCF3FF",
"( 	c #D5F0FF",
"_ 	c #C8E7FD",
": 	c #E2F1FB",
"< 	c #EFFEFF",
"[ 	c #BFCBD5",
"} 	c #A5A8AB",
"| 	c #B1BCC4",
"1 	c #D4DFE8",
"2 	c #B6B8BC",
"3 	c #F2F6FE",
"4 	c #D6DADE",
"5 	c #90979B",
"6 	c #969EA2",
"7 	c #9BA4AA",
"8 	c #E8FEFF",
"9 	c #D3EEFF",
"0 	c #C6E5FB",
"a 	c #BBE1FA",
"b 	c #E0EEFB",
"c 	c #E3F2FD",
"d 	c #EDEEEF",
"e 	c #CBCFD3",
"f 	c #A1A2A1",
"g 	c #ABA597",
"h 	c #B1A893",
"i 	c #9B9D98",
"j 	c #A1A6AA",
"k 	c #C7CBCD",
"l 	c #ECEEF3",
"m 	c #D2D5D6",
"n 	c #D7EDFD",
"o 	c #CEE7FB",
"p 	c #C2E4FB",
"q 	c #B4E0FA",
"r 	c #DEEEFB",
"s 	c #E1F0FD",
"t 	c #E4E7E4",
"u 	c #DCDFE2",
"v 	c #9B9A96",
"w 	c #BA9B6A",
"x 	c #DFB56D",
"y 	c #E3B66E",
"z 	c #CCA66B",
"A 	c #9C8E71",
"B 	c #BBBFC1",
"C 	c #777876",
"D 	c #DCEDFB",
"E 	c #D5EAFB",
"F 	c #CBE7FB",
"G 	c #BDE2FA",
"H 	c #AADDFA",
"I 	c #E1EFFD",
"J 	c #EBFDFF",
"K 	c #C0C4CA",
"L 	c #C9D3DC",
"M 	c #99958B",
"N 	c #ECBA6E",
"O 	c #EBBE76",
"P 	c #F1C57C",
"Q 	c #F1C786",
"R 	c #EDC58E",
"S 	c #E8C083",
"T 	c #E5F1FC",
"U 	c #D3E9FB",
"V 	c #C5E5FB",
"W 	c #D8ECFB",
"X 	c #E4F6FF",
"Y 	c #BEC6CE",
"Z 	c #AAB0B7",
"` 	c #97999B",
" .	c #B0B3B1",
"..	c #C0A26C",
"+.	c #E7B974",
"@.	c #D6B072",
"#.	c #C9A778",
"$.	c #F4D1A5",
"%.	c #F6D9B0",
"&.	c #ABA08A",
"*.	c #A5AEB5",
"=.	c #CDE7FB",
"-.	c #BBE2FA",
";.	c #A0DAF9",
">.	c #DAEEFD",
",.	c #B3ADA2",
"'.	c #DEB26B",
").	c #79684F",
"!.	c #9CA1A7",
"~.	c #727271",
"{.	c #E3C9A2",
"].	c #FBE4BB",
"^.	c #FADCB5",
"/.	c #C4AE8F",
"(.	c #C6CAC8",
"_.	c #E8E8E9",
":.	c #FAFCFE",
"<.	c #D0E9FB",
"[.	c #F8FFFF",
"}.	c #7B7C7C",
"|.	c #B6B7B6",
"1.	c #C1C3C1",
"2.	c #C4C6C7",
"3.	c #C7BEAF",
"4.	c #DAAE6B",
"5.	c #E1B570",
"6.	c #AA916D",
"7.	c #8B8B85",
"8.	c #F5E5BA",
"9.	c #FBECC3",
"0.	c #D8C1A6",
"a.	c #BCBDBB",
"b.	c #8A8C8D",
"c.	c #9CD9F9",
"d.	c #D4EBFD",
"e.	c #B9C3CB",
"f.	c #4A4E4E",
"g.	c #585855",
"h.	c #D3CDC4",
"i.	c #EDE1BA",
"j.	c #F4EDC4",
"k.	c #FBF9CE",
"l.	c #E9DDCF",
"m.	c #A5A6A5",
"n.	c #5C5B58",
"o.	c #494947",
"p.	c #B7E1FA",
"q.	c #94D7F9",
"r.	c #CEE8FB",
"s.	c #E0EAF5",
"t.	c #828789",
"u.	c #D2D0CA",
"v.	c #FBE6BF",
"w.	c #FAE8BC",
"x.	c #F2DDC1",
"y.	c #F1ECE1",
"z.	c #E4E4E0",
"A.	c #B1B6BF",
"B.	c #DEE9F4",
"C.	c #C7E6FB",
"D.	c #ADDDF9",
"E.	c #85D3F8",
"F.	c #F5FFFF",
"G.	c #EAF6FF",
"H.	c #ECE2D5",
"I.	c #FBDFBC",
"J.	c #FBEEDA",
"K.	c #F9FAF8",
"L.	c #D3D5D3",
"M.	c #B0B0AA",
"N.	c #D1D2D2",
"O.	c #868A8E",
"P.	c #E4F1FB",
"Q.	c #99D8F9",
"R.	c #6BCBF7",
"S.	c #C0E3FA",
"T.	c #C7E7FD",
"U.	c #DEF3FF",
"V.	c #A7A7A2",
"W.	c #75756F",
"X.	c #A9ACAC",
"Y.	c #C9CCCA",
"Z.	c #939593",
"`.	c #A4B2BD",
" +	c #A5DBF9",
".+	c #7DD1F7",
"++	c #4EC2F5",
"@+	c #CFE4F3",
"#+	c #6C7172",
"$+	c #636565",
"%+	c #5F605F",
"&+	c #6E706C",
"*+	c #676B6B",
"=+	c #8D9EAA",
"-+	c #A7DCF9",
";+	c #82D2F8",
">+	c #55C4F6",
",+	c #B1DFFA",
"'+	c #BEE3FA",
")+	c #D6E7F5",
"!+	c #656C71",
"~+	c #AAB6BE",
"{+	c #F8FAFE",
"]+	c #E8EAED",
"^+	c #DCEEFB",
"/+	c #96ADBE",
"(+	c #7FD1F8",
"_+	c #CAE8FA",
":+	c #DAEDFB",
"<+	c #D8EBFB",
"[+	c #BCD9EC",
"}+	c #757B7B",
"|+	c #A2B5C3",
"1+	c #C8E6FB",
"2+	c #AFD7F1",
"3+	c #90D5F9",
"4+	c #72CDF8",
"5+	c #D6EBFB",
"6+	c #C5E2F5",
"7+	c #526269",
"8+	c #505656",
"9+	c #505A5A",
"0+	c #98BBCF",
"a+	c #8CD4F9",
"b+	c #76CEF7",
"c+	c #5CC7F6",
"d+	c #E6F7FF",
"e+	c #D6ECFB",
"f+	c #CDE9FB",
"g+	c #97D7F8",
"h+	c #93D6F7",
"i+	c #8CD5F8",
"j+	c #66CAF7",
"k+	c #EDF5FE",
"l+	c #E6F1FC",
"m+	c #DEEFFC",
"n+	c #D8EEFB",
"o+	c #CFEAFB",
"p+	c #B9E2FA",
"q+	c #61C8F5",
"r+	c #DDF1FF",
"s+	c #EBF3FC",
"t+	c #E8F1FC",
"u+	c #F2FAFF",
"v+	c #E2F0FC",
"w+	c #B9E1FA",
"x+	c #7AD0F8",
"y+	c #EBF9FF",
"z+	c #E1F1FE",
"A+	c #E8F2FC",
"B+	c #EEF9FF",
"C+	c #D3EBFB",
"D+	c #E7F3FE",
"E+	c #ECF3FC",
"F+	c #92D8F9",
"G+	c #83D4F8",
"                        . . . . . . . . . . . .                 ",
"                    . . + @ # @ $ % & * = - ; > . .             ",
"                . . , ' ) ! ! ! ~ ! { * ] ] ^ / ( _ . .         ",
"              . : , < [ } | ! 1 2 3 4 5 ' [ 6 7 8 9 0 a .       ",
"            . b c < { ~ ! d e f g h g i j k l m % n o p q .     ",
"          . r s < ! ! 6 t u v w x y y z A B u C | D E F G H .   ",
"          . I J ! ! ! K L M z N O P Q R S A K j T s D U V q .   ",
"        . W X ! * Y Z `  ...N +.@.w #.$.%.R &.j % *.*.W =.-.;.. ",
"        . >.J ! } ! l m ,.'.x +.).!.~.{.].^./.(._.:.K D <.G ;.. ",
"        . ; [.! }.|.1.2.3.4.5.S 6.!.7.8.9.].0.1.a.a.b.D <.-.c.. ",
"        . d.8 ! e.f.g.& h.S y R ].i.j.k.9.%.l.m.n.o.$ D o p.q.. ",
"        . r.- { < s.1 t.f u.{.S $.v.9.w.x.y.z.C A.B.B.W C.D.E.. ",
"        . 0 ( F.[.G.e.f a.v e H.x.^.I.J.K.L.M.N.O.P.D <.-.Q.R.. ",
"        . S.T.( U.s t.t _.V.W.X.4 t z.Y.Z.7.d :.B `.U p  +.+++. ",
"          . p.p =.@+#+ .Z.$+#+%+m.m.X.&+$+*+}.2.Z.=+S.-+;+>+.   ",
"            . ,+'+<.)+!+!+@+W ~+|.{+]+6 ^+W `.f./+p.;.(+>+.     ",
"              . _+:+:+)+)+<+<.[+}+(. .|+=.1+'+2+ +3+4+++.       ",
"              . X = - >.^+:+5+6+7+8+9+0+,+H c.a+b+c+. .         ",
"            . d+! ! ] U.W 5+e+f+p.g+h+i+;+b+j+>+. . )           ",
"            . < ! ! [.k+l+m+n+o+p+E.q+c+R.. . .                 ",
"          . r+{ ! ] k+s+s+s+s+t+<.g+. . .                       ",
"          . d.J ! u+s+s+s+s+s+l+F E..                           ",
"      . . v+e+d.= G.s+s+s+s+s+b w+x+.                           ",
"    . + y+y+z+<+_+W A+A+t+l+b =.a+.                             ",
"    . y+! ! B+m+C+w+D D D E 0 Q.j+.                             ",
"  . ^+B+! [.k+s+W -+-.G w+-+;+j+.                               ",
"  . E D+u+k+s+E+I 3+F+(+4+4+. .                                 ",
"    . :+A+s+s+t+0 G+. . . .                                     ",
"    . -.<.W 5+'+x+.                                             ",
"      . . q.E.. .                                               ",
"          . .                                                   ",
"                                                                "};
