/* XPM */
char * image_data[] = {
"32  32  696  2",
"  	c	None",
"!!	c #fefefe",
"@!	c #f8fafa",
"#!	c #eaeff1",
"$!	c #d5dbe0",
"%!	c #c2ccd3",
"^!	c #bac3cb",
"&!	c #bac2ca",
"*!	c #c0c9d2",
"(!	c #cad4d9",
")!	c #dbe1e6",
"{!	c #eaeef1",
"}!	c #f3f6f7",
"[!	c #fafafb",
"]!	c #fafbfb",
"|!	c #f8f8fa",
"+!	c #f6f8f9",
"=!	c #f5f7f8",
"-!	c #fbfcfc",
",!	c #fdfdfe",
".!	c #000000",
"<!	c #fafbfc",
">!	c #e8ecf0",
"/!	c #c2cdd4",
"?!	c #97a6b2",
";!	c #798a9a",
":!	c #728394",
"a!	c #798a99",
"b!	c #8395a5",
"c!	c #90a1b0",
"d!	c #a7b4bf",
"e!	c #bec7d1",
"f!	c #d4dbe0",
"g!	c #e2e5e9",
"h!	c #e4e7e9",
"j!	c #dbe1e5",
"i!	c #d6dbdf",
"k!	c #d3d9df",
"l!	c #d5dadf",
"m!	c #dadee2",
"n!	c #e4e8ea",
"o!	c #eceef0",
"p!	c #f3f3f5",
"q!	c #fcfcfd",
"r!	c #f2f5f5",
"s!	c #ced6dc",
"t!	c #6e9ab9",
"u!	c #2886c6",
"v!	c #1991de",
"w!	c #1e94e5",
"x!	c #3d95d4",
"y!	c #5498c9",
"z!	c #7396b1",
"A!	c #8194a3",
"B!	c #8796a5",
"C!	c #95a3af",
"D!	c #a4adb7",
"E!	c #a6adb7",
"F!	c #9aa4af",
"G!	c #909aa8",
"H!	c #8c97a5",
"I!	c #8e99a6",
"J!	c #98a0ac",
"K!	c #a8afba",
"L!	c #b8bec6",
"M!	c #c9ced4",
"N!	c #dee2e6",
"O!	c #eff0f2",
"P!	c #fdfdfd",
"Q!	c #e6ebee",
"R!	c #74aad1",
"S!	c #0b9dff",
"T!	c #089cff",
"U!	c #248fd8",
"V!	c #599ece",
"W!	c #71add7",
"X!	c #56a7de",
"Y!	c #4ca4e1",
"Z!	c #54a1d5",
"0!	c #5b829f",
"1!	c #536377",
"2!	c #526173",
"3!	c #445a7b",
"4!	c #38527a",
"5!	c #344c74",
"6!	c #324871",
"7!	c #334871",
"8!	c #475367",
"9!	c #555f73",
"!@	c #667081",
"@@	c #7e8998",
"#@	c #a0a8b4",
"$@	c #c3c9d0",
"%@	c #e0e4e8",
"^@	c #f4f4f7",
"&@	c #dce2e7",
"*@	c #1991e1",
"(@	c #2c7db8",
")@	c #808f9d",
"{@	c #bec8d1",
"}@	c #d7dfe3",
"[@	c #c9d1d8",
"]@	c #99acba",
"|@	c #5d8db0",
"+@	c #2e69a4",
"=@	c #1d6bb3",
"-@	c #145cbb",
",@	c #225fbb",
".@	c #215cba",
"<@	c #275cb6",
">@	c #285ab5",
"/@	c #2858b1",
"?@	c #113fa2",
";@	c #0d3182",
":@	c #19316a",
"a@	c #35435e",
"b@	c #566174",
"c@	c #7d8795",
"d@	c #adb4bc",
"e@	c #d6d9df",
"f@	c #f0f1f3",
"g@	c #a6cbe4",
"h@	c #14a1ff",
"j@	c #12a0ff",
"i@	c #436684",
"k@	c #8493a2",
"l@	c #c8d2d9",
"m@	c #a1afb9",
"n@	c #477ca8",
"o@	c #146bc0",
"p@	c #1a6fd6",
"q@	c #4265cb",
"r@	c #425fc5",
"s@	c #4e64bf",
"t@	c #4560c2",
"u@	c #4b65cb",
"v@	c #4e67cd",
"w@	c #576dd3",
"x@	c #5d72d8",
"y@	c #2f58b3",
"z@	c #1042a5",
"A@	c #142b68",
"B@	c #3d495f",
"C@	c #687282",
"D@	c #9fa5b0",
"E@	c #ced2d8",
"F@	c #aacce4",
"G@	c #1aa3ff",
"H@	c #3f6587",
"I@	c #738595",
"J@	c #a2b0bb",
"K@	c #8da2b3",
"L@	c #2a85c5",
"M@	c #0f65ca",
"N@	c #2d58be",
"O@	c #2c50b7",
"P@	c #294eb5",
"Q@	c #274daa",
"R@	c #3f628d",
"S@	c #2249b0",
"T@	c #3455bc",
"U@	c #3d5cc2",
"V@	c #4964ca",
"W@	c #2850aa",
"X@	c #09297e",
"Y@	c #2f3c57",
"Z@	c #5d687a",
"0@	c #979eaa",
"1@	c #ced3d8",
"2@	c #b2d1e7",
"3@	c #21a6ff",
"4@	c #396991",
"5@	c #526578",
"6@	c #698298",
"7@	c #1d84cf",
"8@	c #094ab8",
"9@	c #1f47ae",
"!#	c #1742a9",
"@#	c #0e3ca2",
"##	c #09399f",
"$#	c #043699",
"%#	c #2e665e",
"^#	c #063996",
"&#	c #03359b",
"*#	c #3657bd",
"(#	c #4662c8",
")#	c #3058b9",
"{#	c #0b318d",
"}#	c #26365b",
"[#	c #5d697b",
"]#	c #9ea7b2",
"|#	c #d7dadf",
"+#	c #d1e1ed",
"=#	c #36aeff",
"-#	c #29a9ff",
",#	c #3a7eb0",
".#	c #2f425a",
"<#	c #177ec8",
">#	c #083eaa",
"/#	c #0d3ba2",
"?#	c #02349a",
";#	c #003399",
":#	c #00349a",
"a#	c #00369c",
"b#	c #1c6638",
"c#	c #0f5160",
"d#	c #003799",
"e#	c #1b45ac",
"f#	c #294eb4",
"g#	c #3a59bf",
"h#	c #2d5bbd",
"j#	c #082c85",
"i#	c #6b7687",
"k#	c #b0b6bf",
"l#	c #e3e6ea",
"m#	c #f9fafa",
"n#	c #47a5e6",
"o#	c #32adff",
"p#	c #39affd",
"q#	c #16659f",
"r#	c #0945ab",
"s#	c #003aa0",
"t#	c #003ea4",
"u#	c #0041a7",
"v#	c #0045ab",
"w#	c #046025",
"x#	c #086610",
"y#	c #05584c",
"z#	c #0c3aa1",
"A#	c #2048af",
"B#	c #3555b9",
"C#	c #4c5fc2",
"D#	c #0b2979",
"E#	c #414c62",
"F#	c #848e9b",
"G#	c #c9ced6",
"H#	c #f1f2f5",
"I#	c #72b6e4",
"J#	c #39b0ff",
"K#	c #3fb3ff",
"L#	c #0f96f6",
"M#	c #003da4",
"N#	c #0043aa",
"O#	c #0049af",
"P#	c #004cb2",
"Q#	c #004eb4",
"R#	c #0050b7",
"S#	c #00603d",
"T#	c #006700",
"U#	c #006600",
"V#	c #00519b",
"W#	c #0048af",
"X#	c #37599a",
"Y#	c #5766af",
"Z#	c #314fa9",
"0#	c #192e62",
"1#	c #acb2bd",
"2#	c #aad0e9",
"3#	c #52ade9",
"4#	c #47b6ff",
"5#	c #47adf6",
"6#	c #003ba1",
"7#	c #004bb1",
"8#	c #004fb5",
"9#	c #0053b9",
"!$	c #0057bd",
"@$	c #005bc1",
"#$	c #005ec4",
"$$	c #006957",
"%$	c #007000",
"^$	c #006f00",
"&$	c #006d00",
"*$	c #0059a3",
"($	c #004ab0",
")$	c #023696",
"{$	c #386671",
"}$	c #47668f",
"[$	c #5264ad",
"]$	c #2150a8",
"|$	c #424d63",
"+$	c #8b93a2",
"=$	c #d2d6db",
"-$	c #f5f6f8",
",$	c #61b1e7",
".$	c #4fb9ff",
"<$	c #56bcff",
">$	c #1e6fc9",
"/$	c #0053ba",
"?$	c #0060c6",
";$	c #0064ca",
":$	c #0066cc",
"a$	c #006f71",
"b$	c #007a00",
"c$	c #007900",
"d$	c #007800",
"e$	c #007600",
"f$	c #006e43",
"g$	c #005fc5",
"h$	c #005ac1",
"j$	c #004db3",
"i$	c #0046ad",
"k$	c #296652",
"l$	c #35666c",
"m$	c #1e4ca4",
"n$	c #223666",
"o$	c #717d8d",
"p$	c #c2c8cf",
"q$	c #f1f2f4",
"r$	c #82b7db",
"s$	c #58bcff",
"t$	c #5dbeff",
"u$	c #5cb8f8",
"v$	c #0057be",
"w$	c #0065cb",
"x$	c #0068ce",
"y$	c #006bd2",
"z$	c #008023",
"A$	c #008400",
"B$	c #008200",
"C$	c #008000",
"D$	c #007d05",
"E$	c #007256",
"F$	c #0050b6",
"G$	c #03508a",
"H$	c #1a6634",
"I$	c #3a5e95",
"J$	c #133073",
"K$	c #606b7e",
"L$	c #b9bdc6",
"M$	c #edeef2",
"N$	c #46a1db",
"O$	c #3092e4",
"P$	c #66c2ff",
"Q$	c #6bc4ff",
"R$	c #2684db",
"S$	c #0069cf",
"T$	c #006fd5",
"U$	c #0074da",
"V$	c #0078de",
"W$	c #008196",
"X$	c #008f00",
"Y$	c #008c00",
"Z$	c #00882c",
"0$	c #0066c6",
"1$	c #006c37",
"2$	c #00615f",
"3$	c #006124",
"4$	c #0b6616",
"5$	c #2b6657",
"6$	c #3c6678",
"7$	c #0d3887",
"8$	c #5a6475",
"9$	c #b4b9c2",
"!%	c #3896da",
"@%	c #025fc4",
"#%	c #64bbf9",
"$%	c #73c7ff",
"%%	c #6fc1fa",
"^%	c #036ed4",
"&%	c #007ae0",
"*%	c #007ee5",
"(%	c #008986",
")%	c #0089b7",
"{%	c #009342",
"}%	c #008e76",
"[%	c #0084ea",
"]%	c #0081e8",
"|%	c #007ee4",
"+%	c #0079df",
"=%	c #00792f",
"-%	c #007700",
",%	c #007100",
".%	c #006900",
"<%	c #016603",
">%	c #0c6618",
"/%	c #1d663b",
"?%	c #296064",
";%	c #0a4197",
":%	c #586173",
"a%	c #b3b7bf",
"b%	c #ecedef",
"c%	c #0e81db",
"d%	c #005cc3",
"e%	c #2784da",
"f%	c #7bcaff",
"g%	c #81ccff",
"h%	c #5fb4f4",
"j%	c #007fd7",
"i%	c #019433",
"k%	c #019465",
"l%	c #049676",
"m%	c #0696a0",
"n%	c #069972",
"o%	c #0094c2",
"p%	c #0090f7",
"q%	c #008df3",
"r%	c #0088ee",
"s%	c #0082e9",
"t%	c #007fb0",
"u%	c #008131",
"v%	c #007d00",
"w%	c #036606",
"x%	c #106622",
"y%	c #195763",
"z%	c #0a4796",
"A%	c #0e82dd",
"B%	c #0060c7",
"C%	c #6abaf5",
"D%	c #8bd0ff",
"E%	c #8fd2ff",
"F%	c #3cad85",
"G%	c #16a40a",
"H%	c #0697d3",
"I%	c #089cc9",
"J%	c #089dbc",
"K%	c #029ae4",
"L%	c #0099ff",
"M%	c #0097fd",
"N%	c #0093f9",
"O%	c #008cf3",
"P%	c #0084eb",
"Q%	c #007ed1",
"R%	c #008312",
"S%	c #006c1b",
"T%	c #00631f",
"U%	c #055e3b",
"V%	c #186632",
"W%	c #0b4d92",
"X%	c #596475",
"Y%	c #b4b8c1",
"Z%	c #2f91d9",
"0%	c #006ed4",
"1%	c #1b84e0",
"2%	c #90d2ff",
"3%	c #98d6ff",
"4%	c #9ad7f8",
"5%	c #34b128",
"6%	c #32b218",
"7%	c #38b51b",
"8%	c #2db074",
"9%	c #26acff",
"!^	c #1ba7ff",
"@^	c #089dff",
"#^	c #0095fb",
"$^	c #008ef4",
"%^	c #0083ea",
"^^	c #008371",
"&^	c #008030",
"*^	c #007728",
"(^	c #00688b",
")^	c #005e7f",
"{^	c #006028",
"}^	c #0e6521",
"[^	c #0b5691",
"]^	c #5d6b7b",
"|^	c #b6bdc4",
"+^	c #3d9fe1",
"=^	c #0071d7",
"-^	c #006dd4",
",^	c #3ca6c4",
".^	c #9fd9ff",
"<^	c #a6dcff",
">^	c #98d7d3",
"/^	c #4abe24",
"?^	c #51c134",
";^	c #52c22e",
":^	c #54c3a0",
"a^	c #59c5ff",
"b^	c #4abeff",
"c^	c #35b4ff",
"d^	c #19a6ff",
"e^	c #008cf2",
"f^	c #008888",
"g^	c #008718",
"h^	c #00794c",
"j^	c #007705",
"i^	c #006e00",
"k^	c #086611",
"l^	c #0f5586",
"m^	c #697988",
"n^	c #bdc5cd",
"o^	c #f0f2f4",
"p^	c #0072d8",
"q^	c #007de4",
"r^	c #14997f",
"s^	c #80cfad",
"t^	c #afdfff",
"u^	c #b5e1ff",
"v^	c #9adab4",
"w^	c #65cb60",
"x^	c #66cc33",
"y^	c #68cd3e",
"z^	c #83dbd1",
"A^	c #7bd7ff",
"B^	c #60c9ff",
"C^	c #3cb7ff",
"D^	c #17a5ff",
"E^	c #0098fe",
"F^	c #0091f8",
"G^	c #0087e6",
"H^	c #008851",
"I^	c #00850c",
"J^	c #007b00",
"K^	c #007200",
"L^	c #026621",
"M^	c #19539d",
"N^	c #83909f",
"O^	c #cdd3da",
"P^	c #f3f5f7",
"Q^	c #bedaec",
"R^	c #15a0fd",
"S^	c #0076dc",
"T^	c #0383d4",
"U^	c #35b321",
"V^	c #4abe25",
"W^	c #a9dee1",
"X^	c #bde5ff",
"Y^	c #c2e7ff",
"Z^	c #a5e0b4",
"0^	c #76d454",
"1^	c #6fd141",
"2^	c #6ccf42",
"3^	c #9ee8e2",
"4^	c #87ddff",
"5^	c #5cc7ff",
"6^	c #30b1ff",
"7^	c #049bff",
"8^	c #00954a",
"9^	c #008c45",
"!&	c #007f6e",
"@&	c #007b22",
"#&	c #007505",
"$&	c #006b61",
"%&	c #396293",
"^&	c #a2adb7",
"&&	c #dfe3e7",
"*&	c #2695e0",
"(&	c #20a063",
")&	c #45bb22",
"{&	c #55c42a",
"}&	c #68cc38",
"[&	c #bce5ef",
"]&	c #caeaff",
"|&	c #d0ecff",
"+&	c #aee8b3",
"=&	c #88dd66",
"-&	c #99e58f",
",&	c #c8fdff",
".&	c #a3ebff",
"<&	c #74d3ff",
">&	c #41baff",
"/&	c #12a2ff",
"?&	c #008fee",
";&	c #0085c8",
":&	c #00854a",
"a&	c #008017",
"b&	c #006c82",
"c&	c #006e05",
"d&	c #106b8f",
"e&	c #6f8497",
"f&	c #bfc8cf",
"g&	c #ecf0f1",
"h&	c #a5d5f5",
"j&	c #34a997",
"i&	c #37b51b",
"k&	c #4cbf25",
"l&	c #61ca30",
"m&	c #6bce3a",
"n&	c #7fd85b",
"o&	c #c8ebeb",
"p&	c #daf0ff",
"q&	c #dff2ff",
"r&	c #ddf6e6",
"s&	c #ebfefa",
"t&	c #ccffff",
"u&	c #abeee3",
"v&	c #76d4cc",
"w&	c #4cbfff",
"x&	c #1aa6f8",
"y&	c #059ad6",
"z&	c #008ff6",
"A&	c #008556",
"B&	c #008500",
"C&	c #007155",
"D&	c #00784e",
"E&	c #326ea6",
"F&	c #9aa8b3",
"G&	c #ccd5da",
"H&	c #ecf0f2",
"I&	c #fbfbfc",
"J&	c #359ee4",
"K&	c #41b863",
"L&	c #51c228",
"M&	c #64cb32",
"N&	c #74d348",
"O&	c #86dc64",
"P&	c #9ee788",
"Q&	c #dbf3f2",
"R&	c #e7f5ff",
"S&	c #ecf7fc",
"T&	c #d0f5d7",
"U&	c #cbfeff",
"V&	c #7dd864",
"W&	c #65cb38",
"X&	c #4cbfb2",
"Y&	c #27adad",
"Z&	c #1aa653",
"0&	c #0291d4",
"1&	c #007e47",
"2&	c #007e14",
"3&	c #177baf",
"4&	c #7d93a6",
"5&	c #b2bfc7",
"6&	c #c6d1d8",
"7&	c #e1e6ea",
"8&	c #f5f8f9",
"9&	c #29a2ca",
"!*	c #47bd47",
"@*	c #52c15a",
"#*	c #4cbf96",
"$*	c #4fc1d6",
"%*	c #91e1b6",
"^*	c #b7edc0",
"&*	c #e4f5fd",
"**	c #f9fcff",
"(*	c #d0fdff",
")*	c #82da63",
"{*	c #64cb33",
"}*	c #53c32b",
"[*	c #2daf59",
"]*	c #0096fc",
"|*	c #008ff4",
"+*	c #0081e7",
"=*	c #0079cc",
"-*	c #0d95a1",
",*	c #638fb0",
".*	c #4d4d4d",
"<*	c #259fd4",
">*	c #089ce2",
"/*	c #76d450",
"?*	c #58c5a5",
";*	c #87ddaf",
":*	c #7ed8fe",
"a*	c #aff0d0",
"b*	c #bff1ea",
"c*	c #69cd39",
"d*	c #3cb71e",
"e*	c #0495e6",
"f*	c #0086ec",
"g*	c #1184db",
"h*	c #5d92b8",
"j*	c #59a7dc",
"i*	c #37b5b4",
"k*	c #43bade",
"l*	c #9be68e",
"m*	c #9be6a3",
"n*	c #c2ebc7",
"o*	c #d5eeff",
"p*	c #b1e9e3",
"q*	c #4dbf2b",
"r*	c #0390e1",
"s*	c #5796c3",
"t*	c #7ea7c3",
"u*	c #3fa2e2",
"v*	c #16a0fb",
"w*	c #4abeae",
"x*	c #33b3e4",
"y*	c #7dd796",
"z*	c #6aceae",
"A*	c #7bd76e",
"B*	c #69ce58",
"C*	c #79d15b",
"D*	c #aee0ed",
"E*	c #a1daec",
"F*	c #4bbc7b",
"G*	c #0596d6",
"H*	c #1e84cb",
"I*	c #4ca6e4",
"J*	c #19a5f0",
"K*	c #29aec9",
"L*	c #1fa8bf",
"M*	c #61c0f2",
"N*	c #8cd1ff",
"O*	c #74cbff",
"P*	c #468ab7",
"Q*	c #657f97",
"R*	c #54a8e0",
"S*	c #66acdb",
"T*	c #6fb1e4",
"U*	c #80a4c4",
"V*	c #98a4b1",
"W*	c #a5afb9",
"X*	c #8caac2",
"Y*	c #2496e1",
"Z*	c #359fe4",
"0*	c #9ac0db",
"                                                I*j*I*Z*0*      ",
"                        R*R*R*u*R*S*S*S*    T*U*V*W*W*X*Y*t*    ",
"                    I*<*J*K*F*L*]*L*M*N*O*P*Q*.*        j*t*    ",
"                u*v*w*x*y*z*A*B*C*D*E*F*G*v*H*,*.*      j*t*    ",
"              <*i*i*k*l*m*%*;*n*o*p*q*[*r*f*+*g*s*.*    j*t*    ",
"            <*>*/*?*;*:*a*b*****^*c*}*d*e*f*&%&%g*h*.*  j*      ",
"          9&!*@*#*$*%*^*&*****(*)*{*}*[*]*|*+*&%=*-*,*.*        ",
"        J&K&L&M&N&O&P&Q&R&S&T&U&V&W&X&Y&Z&0&s%V$1&2&3&4&5&6&7&8&",
"      h&j&i&k&l&m&n&o&p&q&r&s&t&u&v&w&x&y&z&s%A&B&C&D&E&F&G&H&I&",
"      *&[%(&)&{&}&[&]&|&+&=&-&,&.&<&>&/&M%?&;&:&a&b&c&d&e&f&g&-!",
"    Q^R^S^T^U^V^W^X^Y^Z^0^1^2^3^4^5^6^7^#^8^9^!&@&#&&$$&%&^&&&|!",
"    I#r%p^q^r^s^t^u^v^w^x^y^z^A^B^C^D^E^F^G^H^I^J^K^.%L^M^N^O^P^",
"    +^=^-^+%,^.^<^>^/^?^;^:^a^b^c^d^L%#^e^f^g^h^j^i^U#k^l^m^n^o^",
"    Z%0%x$1%2%3%4%5%6%7%8%9%9%!^@^L%#^$^%^^^&^*^(^)^{^}^[^]^|^o!",
"    A%B%:$C%D%E%F%G%H%I%J%K%L%L%M%N%O%P%Q%R%v%e$S%T%U%V%W%X%Y%b%",
"    c%d%e%f%g%h%j%i%k%l%m%n%o%p%q%r%s%t%u%v%-%%$T#w%x%y%z%:%a%b%",
"    !%@%#%$%%%^%U$&%*%(%)%{%}%[%]%|%+%U$=%-%,%.%<%>%/%?%;%:%a%b%",
"    N$O$P$Q$R$:$S$T$U$V$W$X$Y$Z$V$U$T$S$0$1$2$3$4$H$5$6$7$8$9$o!",
"    r$s$t$u$v$?$w$:$x$y$z$A$B$C$D$E$:$w$g$v$F$G$H$k${$I$J$K$L$M$",
"    ,$.$<$>$8#/$@$?$;$:$a$b$c$d$e$f$g$h$/$j$i$t#k$l$}$m$n$o$p$q$",
"  2#3#4#5#6#N#7#8#9#!$@$#$$$%$^$&$*$9#Q#($N#6#)${$}$[$]$|$+$=$-$",
"  I#J#K#L#;#a#M#N#O#P#Q#R#S#T#U#V#P#W#N#M#a#;#&#X#Y#Z#0#[#1#l#]!",
"  n#o#p#q#r#;#;#a#s#t#u#v#w#x#y#u#t#s#a#;#;#z#A#B#C#D#E#F#G#H#P!",
"+#=#-#,#.#<#>#/#?#;#;#:#a#b#c#d#:#;#;#?#/#e#f#g#h#j#Y@i#k#l#m#  ",
"2@G@3@4@5@6@7@8@9@!#@###$#%#^#&###@#!#9@P@*#(#)#{#}#[#]#|#^@P!  ",
"F@h@G@H@I@J@K@L@M@N@O@P@Q@R@S@S@P@O@T@U@V@w@W@X@Y@Z@0@1@f@q!    ",
"g@h@j@i@k@%!l@m@n@o@p@q@r@s@t@r@u@v@w@x@y@z@A@B@C@D@E@o!-!!!    ",
"&@*@S!(@)@{@}@[@]@|@+@=@-@,@.@<@>@/@?@;@:@a@b@c@d@e@f@-!!!      ",
"Q!R!S!T!U!V!W!X!Y!Z!0!1!2!3!4!5!6!7!8!9!!@@@#@$@%@^@q!!!        ",
"r!s!t!u!v!w!x!y!z!A!B!C!D!E!F!G!H!I!J!K!L!M!N!O!|!P!            ",
"<!>!/!?!;!:!a!b!c!d!e!f!g!h!j!i!k!l!m!n!o!p!|!q!!!              ",
"!!@!#!$!%!^!&!*!(!)!{!}![!]!|!+!=!+!|!-!,!!!!!                  ",
};

