/* XPM */
char * image_data[] = {
"32  32  257  2",
"  	c	None",
"!!	c #ffffff",
"@!	c #feffff",
"#!	c #fbffff",
"$!	c #f9ffff",
"%!	c #f7ffff",
"^!	c #f6ffff",
"&!	c #f4ffff",
"*!	c #f3ffff",
"(!	c #fcfbfb",
")!	c #f1ffff",
"{!	c #f0ffff",
"}!	c #efffff",
"[!	c #eeffff",
"]!	c #ebffff",
"|!	c #eaffff",
"+!	c #f5f9fd",
"=!	c #e7ffff",
"-!	c #e6ffff",
",!	c #e4ffff",
".!	c #e9fcfe",
"<!	c #e1ffff",
">!	c #f9f6ed",
"/!	c #dfffff",
"?!	c #eef7fc",
";!	c #ddffff",
":!	c #daffff",
"a!	c #e4fafd",
"b!	c #e7f8fd",
"c!	c #fcf3db",
"d!	c #d7ffff",
"e!	c #e1fafd",
"f!	c #f2f2f9",
"g!	c #edf4fb",
"h!	c #d5ffff",
"j!	c #e6f6fc",
"i!	c #edf3f6",
"k!	c #d2ffff",
"l!	c #ebf3fb",
"m!	c #dbf8fd",
"n!	c #e8f1f9",
"o!	c #def3fb",
"p!	c #e5f0f7",
"q!	c #e1f0f7",
"r!	c #fbebc9",
"s!	c #f2ebdb",
"t!	c #ddf0f7",
"u!	c #d5f3fb",
"v!	c #d9f1fa",
"w!	c #e9e9f5",
"x!	c #d8f0f7",
"y!	c #d5f0fa",
"z!	c #d4f0f7",
"A!	c #d8eff0",
"B!	c #e5e8eb",
"C!	c #dceaf8",
"D!	c #d0f0f7",
"E!	c #d0effa",
"F!	c #ccf0f7",
"G!	c #d2ebf8",
"H!	c #ebe4d9",
"I!	c #c8f0f7",
"J!	c #ceebf8",
"K!	c #d4e7f7",
"L!	c #dae6e9",
"M!	c #efe2c0",
"N!	c #d6e6ea",
"O!	c #e4e1db",
"P!	c #fbdfa3",
"Q!	c #d9e0f0",
"R!	c #c9e6f7",
"S!	c #efdeb8",
"T!	c #e8dbd4",
"U!	c #e0dce0",
"V!	c #f6dc9f",
"W!	c #c7e1f5",
"X!	c #d2dde0",
"Y!	c #bfddf4",
"Z!	c #badef4",
"0!	c #c0daf3",
"1!	c #b9dbf3",
"2!	c #d3d3d3",
"3!	c #e3d2a2",
"4!	c #d9d1bf",
"5!	c #b7d7f2",
"6!	c #b5d7f2",
"7!	c #b5d4f1",
"8!	c #cccbe2",
"9!	c #fdca60",
"!@	c #d6d0aa",
"@@	c #d1ceb5",
"#@	c #dbcf91",
"$@	c #a6d7f2",
"%@	c #abd3f1",
"^@	c #f8c558",
"&@	c #accfef",
"*@	c #e7c579",
"(@	c #a7cfef",
")@	c #bbcacf",
"{@	c #f6c353",
"}@	c #a1cfef",
"[@	c #f4c151",
"]@	c #d4c684",
"|@	c #dac868",
"+@	c #f1c04e",
"=@	c #bebee2",
"-@	c #f3bf4c",
",@	c #9dcbee",
".@	c #f2be4a",
"<@	c #d8c46f",
">@	c #9ec9ed",
"/@	c #f0bd47",
"?@	c #efbc45",
";@	c #cbbf94",
":@	c #96c7ed",
"a@	c #d3c165",
"b@	c #edba42",
"c@	c #b8bcc3",
"d@	c #d6c151",
"e@	c #dfb76d",
"f@	c #e1b957",
"g@	c #c6b8a5",
"h@	c #ebb549",
"j@	c #c1baa0",
"i@	c #b4b9c0",
"k@	c #e9b446",
"l@	c #e9b63a",
"m@	c #c6b884",
"n@	c #d1b863",
"o@	c #c3b49b",
"p@	c #b2b6be",
"q@	c #d2bc45",
"r@	c #8fbfea",
"s@	c #dac307",
"t@	c #d6bf24",
"u@	c #e7b334",
"v@	c #e6b23c",
"w@	c #adb6bd",
"x@	c #c9b766",
"y@	c #c1b199",
"z@	c #acaedb",
"A@	c #e3b032",
"B@	c #a9b3ba",
"C@	c #86bce9",
"D@	c #d1b831",
"E@	c #c6b077",
"F@	c #e1ae29",
"G@	c #acacbe",
"H@	c #bdad7c",
"I@	c #c3ac64",
"J@	c #cdb227",
"K@	c #7cb7e7",
"L@	c #d7ab2e",
"M@	c #a5a5d5",
"N@	c #b7a989",
"O@	c #a8a9ad",
"P@	c #7db4e6",
"Q@	c #dca81e",
"R@	c #a9a3ba",
"S@	c #b6a878",
"T@	c #daa71b",
"U@	c #7cb1e5",
"V@	c #caae1c",
"W@	c #c1a07f",
"X@	c #baa961",
"Y@	c #d9a61b",
"Z@	c #9ea7b0",
"0@	c #d8a327",
"1@	c #d7a314",
"2@	c #74aee4",
"3@	c #a59fa3",
"4@	c #b39f7b",
"5@	c #d49e24",
"6@	c #d19b33",
"7@	c #d39e16",
"8@	c #d39f0f",
"9@	c #b89e5e",
"!#	c #d19e0a",
"@#	c #ac9e66",
"##	c #c5964b",
"$#	c #69a8e2",
"%#	c #cf9c06",
"^#	c #b39d44",
"&#	c #9595c0",
"*#	c #cd9231",
"(#	c #cd9a01",
")#	c #ca960d",
"{#	c #c19625",
"}#	c #b99a25",
"[#	c #be9919",
"]#	c #c09524",
"|#	c #c79200",
"+#	c #af9046",
"=#	c #8989ca",
"-#	c #af912b",
",#	c #7794b1",
".#	c #8d8d9a",
"<#	c #b1901d",
">#	c #c48b03",
"/#	c #8686c6",
"?#	c #988882",
";#	c #8383c7",
":#	c #7c8e9f",
"a#	c #8883b8",
"b#	c #8a8a8a",
"c#	c #c18212",
"d#	c #bb860b",
"e#	c #ad795b",
"f#	c #917f73",
"g#	c #b37d21",
"h#	c #bc7e02",
"j#	c #7e7bb9",
"i#	c #8f7b5e",
"k#	c #8d7869",
"l#	c #8a7a5f",
"m#	c #727d8b",
"n#	c #a7712c",
"o#	c #7571b0",
"p#	c #8b7845",
"q#	c #b16e00",
"r#	c #717680",
"s#	c #6b6bbd",
"t#	c #a86c11",
"u#	c #886f55",
"v#	c #726ba2",
"w#	c #707164",
"x#	c #a36803",
"y#	c #9e660d",
"z#	c #a16509",
"A#	c #82655b",
"B#	c #9c5a32",
"C#	c #000000",
"D#	c #9b572a",
"E#	c #666666",
"F#	c #9d5b08",
"G#	c #9d5a04",
"H#	c #7c5e46",
"I#	c #9b5904",
"J#	c #61626d",
"K#	c #955800",
"L#	c #59616a",
"M#	c #984d22",
"N#	c #935400",
"O#	c #63565b",
"P#	c #934e02",
"Q#	c #8b4928",
"R#	c #575863",
"S#	c #575858",
"T#	c #924515",
"U#	c #904900",
"V#	c #594b55",
"W#	c #505050",
"X#	c #8c3e00",
"Y#	c #57474b",
"Z#	c #8a3900",
"0#	c #4b4b4b",
"1#	c #2a3247",

"        #@!@E##@|@E#@@|@<@E#]@t@d@E#s@q@x@E#                    ",
"      D@a@V@j@s@m@J@y@H@;@X@f#R@^#?#v#;#}#.#                    ",
"    M@v#s#i#k#s#s#<#/#=#a#-#=@=@E@o@w!8![#G@E#                  ",
"    /#Q!z@I@4!@!o#<#f!z@u#4@!!j#[#U!f!k#3!c@E#                  ",
"    /#p!&#n@$!#!g@s!!!(!H!!!!!!!!!!!!!!!!!c@E#                  ",
"    /#p!*!^!%!$!#!@!@!!!!!!!!!!!!!!!!!!!!!i@E#                  ",
"    /#p!)!&!^!$!?!?!g!C!C!g!!!!!!!!!!!n!B!O@E#                  ",
"    /#q!{!r@U@U@7!5!0!l!l!+!!!!!!!!!n!,#L#0#E#                  ",
"    /#q!}!{!*!^!%!$!#!@!@!!!!!r!*@S!>!:#S#0#w#f@f@f@            ",
"    /#q![!6!(@(@&@&@7!K!K!l!(!h@.@b@V!2!b#W#]#T@1@L@r#          ",
"    /#t!]![!}!)!&!^!$!#!#!@!!!*#.@b@V!2!b#W#]#T@1@x#r#          ",
"    /#t!|!]![!{!*!&!^!$!#!c!P!{@-@?@V!2!b#W#{#T@1@8@8@8@r#      ",
"    /#t!=!|![!}!{!*!&!%!M!9!^@{@-@?@V!2!b#W#y#h#>#!#!#(#S@E#    ",
"    /#t!=!v!y!G!5!5!5!7!N@9!^@{@-@?@+@2!b#W#G#q#h#|#!#(#@#E#    ",
"    /#x!-!E!E!y![!}!)!&!W@N#t#[@+@/@b@f@9@g#c#7@7@)#K#N#l#E#    ",
"    /#x!,!-!=!=!o!o!R!W!p@Z#X#k@+@/@b@l@u@F@F@Q@Y@d#X#Z#A#E#    ",
"    /#x!<!C@2@P@%@%@G!v!b!O!e@^@[@k@v@l@u@F@5@Q@Y@1@+#Y#J#      ",
"    /#z!<!<!-!=!=!]![!}!.!j!##^@6@P#P#l@u@0@U#I#7@8@p#R#E#      ",
"    /#z!/!%@}@}@>@>@1!Y!G!j!D#U#U#T#D#A@u@5@Q#T#U#U#H#E#        ",
"    /#z!;!/!<!,!-!=!|!]![!{!O!T#e#i!?!F#z#n#1#V#M#M#O#          ",
"    /#D!;!/!<!m!u!R!1!%@&@7!0!K!j!?!$!T#X#B#E#  E#E#            ",
"    /#D!:!K@$#:@,@E!u!=!]![!}!)!*!^!%!$!T!3@E#                  ",
"    /#D!:!:!;!/!<!,!e!e!o!b![!}!)!&!^!$!$!p@E#                  ",
"    /#F!d!$@}@r@:@(@Z!J!m!a!]![!{!*!&!^!$!i@E#                  ",
"    /#F!d!d!:!;!/!<!<!,!-!=!|!]!}!{!*!&!%!i@E#                  ",
"    /#F!h!d!d!:!;!/!<!<!-!-!=!]![!}!)!*!^!i@E#                  ",
"    /#I!k!h!d!:!:!;!/!<!,!-!=!|!]![!}!)!&!c@E#                  ",
"    /#I!k!k!h!d!:!:!;!/!<!,!-!=!L!X!w@E#E#E#E#                  ",
"    /#I!k!k!h!d!:!A!N!B@Z@E#E#E#E#E#E#                          ",
"    E#N!)@w@m#E#E#E#E#E#E#                                      ",
"      E#E#E#E#                                                  ",
"                                                                ",
};

