/* XPM */
static const char * moon_xpm[] = {
"16 16 3 1",
" 	c None",
".	c #F0F71B",
"+	c #000000",
"             .  ",
"    +++     ... ",
"   +.+       .  ",
"  +.+           ",
"  +.+           ",
"  +..+          ",
"  +..+          ",
"   +..+         ",
"   +...+        ",
"   +....+     + ",
"    +....++  ++ ",
".    +.....++.+ ",
" . .  +++....+  ",
"  .      ++++   ",
" . .            ",
"                "};
