/* XPM */
char * image_data[] = {
"32  32  257  2",
"  	c	None",
"!!	c #000000",
"@!	c #800080",
"#!	c #000080",
"$!	c #008080",
"%!	c #008000",
"^!	c #808000",
"&!	c #800000",
"*!	c #c0c0c0",
"(!	c #c0dcc0",
")!	c #a6caf0",
"{!	c #808080",
"}!	c #ff00ff",
"[!	c #0000ff",
"]!	c #00ffff",
"|!	c #00ff00",
"+!	c #ffff00",
"=!	c #ff0000",
"-!	c #ffffff",
",!	c #fffbf0",
".!	c #a0a0a4",
"<!	c #fff0d4",
">!	c #ffe2b1",
"/!	c #ffd48e",
"?!	c #ffc66b",
";!	c #ffb848",
":!	c #ffaa25",
"a!	c #ffaa00",
"b!	c #dc9200",
"c!	c #b97a00",
"d!	c #966200",
"e!	c #734a00",
"f!	c #503200",
"g!	c #ffe3d4",
"h!	c #ffc7b1",
"j!	c #ffab8e",
"i!	c #ff8f6b",
"k!	c #ff7348",
"l!	c #ff5725",
"m!	c #ff5500",
"n!	c #dc4900",
"o!	c #b93d00",
"p!	c #963100",
"q!	c #732500",
"r!	c #501900",
"s!	c #ffd4d4",
"t!	c #ffb1b1",
"u!	c #ff8e8e",
"v!	c #ff6b6b",
"w!	c #ff4848",
"x!	c #ff2525",
"y!	c #ff0000",
"z!	c #dc0000",
"A!	c #b90000",
"B!	c #960000",
"C!	c #730000",
"D!	c #500000",
"E!	c #ffd4e3",
"F!	c #ffb1c7",
"G!	c #ff8eab",
"H!	c #ff6b8f",
"I!	c #ff4873",
"J!	c #ff2557",
"K!	c #ff0055",
"L!	c #dc0049",
"M!	c #b9003d",
"N!	c #960031",
"O!	c #730025",
"P!	c #500019",
"Q!	c #ffd4f0",
"R!	c #ffb1e2",
"S!	c #ff8ed4",
"T!	c #ff6bc6",
"U!	c #ff48b8",
"V!	c #ff25aa",
"W!	c #ff00aa",
"X!	c #dc0092",
"Y!	c #b9007a",
"Z!	c #960062",
"0!	c #73004a",
"1!	c #500032",
"2!	c #ffd4ff",
"3!	c #ffb1ff",
"4!	c #ff8eff",
"5!	c #ff6bff",
"6!	c #ff48ff",
"7!	c #ff25ff",
"8!	c #ff00ff",
"9!	c #dc00dc",
"!@	c #b900b9",
"@@	c #960096",
"#@	c #730073",
"$@	c #500050",
"%@	c #f0d4ff",
"^@	c #e2b1ff",
"&@	c #d48eff",
"*@	c #c66bff",
"(@	c #b848ff",
")@	c #aa25ff",
"{@	c #aa00ff",
"}@	c #9200dc",
"[@	c #7a00b9",
"]@	c #620096",
"|@	c #4a0073",
"+@	c #320050",
"=@	c #e3d4ff",
"-@	c #c7b1ff",
",@	c #ab8eff",
".@	c #8f6bff",
"<@	c #7348ff",
">@	c #5725ff",
"/@	c #5500ff",
"?@	c #4900dc",
";@	c #3d00b9",
":@	c #310096",
"a@	c #250073",
"b@	c #190050",
"c@	c #d4d4ff",
"d@	c #b1b1ff",
"e@	c #8e8eff",
"f@	c #6b6bff",
"g@	c #4848ff",
"h@	c #2525ff",
"j@	c #0000ff",
"i@	c #0000dc",
"k@	c #0000b9",
"l@	c #000096",
"m@	c #000073",
"n@	c #000050",
"o@	c #d4e3ff",
"p@	c #b1c7ff",
"q@	c #8eabff",
"r@	c #6b8fff",
"s@	c #4873ff",
"t@	c #2557ff",
"u@	c #0055ff",
"v@	c #0049dc",
"w@	c #003db9",
"x@	c #003196",
"y@	c #002573",
"z@	c #001950",
"A@	c #d4f0ff",
"B@	c #b1e2ff",
"C@	c #8ed4ff",
"D@	c #6bc6ff",
"E@	c #48b8ff",
"F@	c #25aaff",
"G@	c #00aaff",
"H@	c #0092dc",
"I@	c #007ab9",
"J@	c #006296",
"K@	c #004a73",
"L@	c #003250",
"M@	c #d4ffff",
"N@	c #b1ffff",
"O@	c #8effff",
"P@	c #6bffff",
"Q@	c #48ffff",
"R@	c #25ffff",
"S@	c #00ffff",
"T@	c #00dcdc",
"U@	c #00b9b9",
"V@	c #009696",
"W@	c #007373",
"X@	c #005050",
"Y@	c #d4fff0",
"Z@	c #b1ffe2",
"0@	c #8effd4",
"1@	c #6bffc6",
"2@	c #48ffb8",
"3@	c #25ffaa",
"4@	c #00ffaa",
"5@	c #00dc92",
"6@	c #00b97a",
"7@	c #009662",
"8@	c #00734a",
"9@	c #005032",
"!#	c #d4ffe3",
"@#	c #b1ffc7",
"##	c #8effab",
"$#	c #6bff8f",
"%#	c #48ff73",
"^#	c #25ff57",
"&#	c #00ff55",
"*#	c #00dc49",
"(#	c #00b93d",
")#	c #009631",
"{#	c #007325",
"}#	c #005019",
"[#	c #d4ffd4",
"]#	c #b1ffb1",
"|#	c #8eff8e",
"+#	c #6bff6b",
"=#	c #48ff48",
"-#	c #25ff25",
",#	c #00ff00",
".#	c #00dc00",
"<#	c #00b900",
">#	c #009600",
"/#	c #007300",
"?#	c #005000",
";#	c #e3ffd4",
":#	c #c7ffb1",
"a#	c #abff8e",
"b#	c #8fff6b",
"c#	c #73ff48",
"d#	c #57ff25",
"e#	c #55ff00",
"f#	c #49dc00",
"g#	c #3db900",
"h#	c #319600",
"j#	c #257300",
"i#	c #195000",
"k#	c #f0ffd4",
"l#	c #e2ffb1",
"m#	c #d4ff8e",
"n#	c #c6ff6b",
"o#	c #b8ff48",
"p#	c #aaff25",
"q#	c #aaff00",
"r#	c #92dc00",
"s#	c #7ab900",
"t#	c #629600",
"u#	c #4a7300",
"v#	c #325000",
"w#	c #ffffd4",
"x#	c #ffffb1",
"y#	c #ffff8e",
"z#	c #ffff6b",
"A#	c #ffff48",
"B#	c #ffff25",
"C#	c #ffff00",
"D#	c #dcdc00",
"E#	c #b9b900",
"F#	c #969600",
"G#	c #737300",
"H#	c #505000",
"I#	c #f2f2f2",
"J#	c #e6e6e6",
"K#	c #dadada",
"L#	c #cecece",
"M#	c #c2c2c2",
"N#	c #b6b6b6",
"O#	c #aaaaaa",
"P#	c #9e9e9e",
"Q#	c #929292",
"R#	c #868686",
"S#	c #7a7a7a",
"T#	c #6e6e6e",
"U#	c #626262",
"V#	c #565656",
"W#	c #4a4a4a",
"X#	c #3e3e3e",
"Y#	c #323232",
"Z#	c #262626",
"0#	c #1a1a1a",
"1#	c #0e0e0e",

"                                                                ",
"                                                                ",
"                                                                ",
"{!Q#{!{!{!{!{!{!{!{!{!{!{!{!{!{!{!{!{!{!{!{!{!{!{!{!{!{!{!{!{!!!",
"Q#M@-!-!-!-!-!-!-!-!-!-!-!-!-!-!-!-!-!-!-!-!-!-!-!-!I#I#I#I#*!!!",
"{!-!I#I#I#I#I#I#I#I#I#I#I#,!I#,!I#I#I#I#I#I#I#I#I#I#I#w#I#,!*!!!",
"{!-!I#,!,!,!,!,!,!,!,!,!,!,!,!,!,!,!,!,!,!,!,!,!,!<!<!<!<!<!N#!!",
"{!-!,!,!,!,!I#I#I#I#I#I#-!I#I#I#I#I#I#I#I#I#I#I#I#,!<!<!<!<!*!!!",
"{!-!I#,!,!K#Q#Q#Q#Q#Q#Q#Q#Q#Q#Q#Q#Q#Q#Q#Q#Q#Q#.!Q#I#<!<!<!<!*!!!",
"{!-!I#,!,!K#.!q@)!B@)!B@B@B@A@A@A@A@B@)!B@)!B@)!.!-!<!w#<!K#*!!!",
"{!-!,!,!,!K#.!C@D@C@B@C@B@A@B@A@A@B@A@B@C@B@C@q@Q#I#,!<!(!I#*!!!",
"{!-!I#,!,!K#.!q@C@p@)!B@)!B@A@A@A@A@P#(!B@C@B@)!Q#I#I#(!I#K#*!!!",
"{!-!I#,!,!K#.!)!)!)!*!N#o@A@A@A@A@!#X#{!*!)!A@)!Q#I#K#I#K#K#*!!!",
"{!-!I#,!,!K#Q#)!B@*!Q#V#V#(!A@A@!#N#X#Z#{!o@Q#.!Q#K#I#(!K#K#*!!!",
"{!-!I#,!,!K#Q#U#{!*!V#T#Z#(!(!Z@(!{!Y#1#Y#T#U#X#Q#I#K#K#K#K#*!!!",
"{!-!I#,!,!K#Q#Z#U#T#n#t#i#V#[#{!a#v#u#X#Z#X#V#W#Q#K#K#K#K#K#*!!!",
"{!-!I#,!,!K#Q#U#1#i#G#v#W#Z#(!i#t#u#v#X#Y#0#U#X#Q#K#K#K#K#K#*!!!",
"{!-!I#,!,!K#.!W#X#V#Z#W#Y#X#1#Y#Y#V#W#W#f!f!{!H#Q#K#K#K#K#K#*!!!",
"{!-!I#,!,!K#.!W#W#Y#W#Z#X#W#H#*!h!g!L#<!/!>!/!<!Q#J#K#K#K#K#*!!!",
"{!-!I#,!,!K#P#V#Q#?!*!>!/!>!/!/!>!/!/!/!/!/!?!/!Q#K#K#K#K#K#*!!!",
"{!-!I#,!,!K#Q#L#/!>!/!/!>!/!/!?!/!?!/!?!?!?!?!*!Q#K#K#K#K#K#*!!!",
"{!-!,!,!,!K#Q#h!>!/!/!?!/!?!/!?!?!?!?!;!;!;!P#P#P#J#K#K#K#K#*!!!",
"{!-!I#,!,!K#Q#*!*!?!?!?!?!?!P#Q#P#P#P#^!Q#{!Q#Q#P#K#K#K#K#K#*!!!",
"{!-!I#,!,!K#Q#Q#Q#Q#Q#Q#Q#Q#Q#Q#Q#Q#Q#Q#Q#Q#Q#Q#Q#K#K#K#K#K#*!!!",
"{!-!I#,!,!K#K#K#J#J#J#J#K#K#K#K#K#K#K#K#K#K#K#K#K#K#K#K#K#K#*!!!",
"{!-!I#,!,!,!I#-!I#-!I#,!I#K#I#K#K#K#K#K#K#K#K#K#K#K#K#K#K#K#*!!!",
"{!-!I#,!,!J#,!J#,!J#,!,!K#,!K#K#K#K#K#K#K#K#K#K#K#K#K#K#K#K#*!!!",
"{!*!*!*!*!*!*!*!*!*!*!*!*!*!*!*!*!*!*!*!*!*!*!*!*!*!*!*!*!*!*!!!",
"!!!!!!!!!!!!!!!!!!!!!!!!!!!!!!!!!!!!!!!!!!!!!!!!!!!!!!!!!!!!!!!!",
"                                                                ",
"                                                                ",
"                                                                ",
};

