/* XPM */
char * image_data[] = {
"16  16  257  2",
"  	c	None",
"!!	c #000000",
"@!	c #000000",
"#!	c #43454f",
"$!	c #434448",
"%!	c #4f5158",
"^!	c #434958",
"&!	c #434a5a",
"*!	c #4a505e",
"(!	c #3f444e",
")!	c #000000",
"{!	c #fffe97",
"}!	c #fffb8d",
"[!	c #fffc91",
"]!	c #fffd94",
"|!	c #fffda9",
"+!	c #fffdc5",
"=!	c #fffeca",
"-!	c #fff882",
",!	c #fff985",
".!	c #fff888",
"<!	c #fff88a",
">!	c #fffa8b",
"/!	c #fffa8d",
"?!	c #fff479",
";!	c #fff67e",
":!	c #fff896",
"a!	c #ffef69",
"b!	c #fff06c",
"c!	c #fff170",
"d!	c #fff271",
"e!	c #fff273",
"f!	c #fff376",
"g!	c #f0e586",
"h!	c #fff9bb",
"j!	c #ffe957",
"i!	c #ffea5b",
"k!	c #ffeb5d",
"l!	c #ffec61",
"m!	c #ffed62",
"n!	c #ffed65",
"o!	c #ffee67",
"p!	c #f6e563",
"q!	c #ffed72",
"r!	c #f9e970",
"s!	c #fff084",
"t!	c #fffce7",
"u!	c #fffdef",
"v!	c #ffe242",
"w!	c #ffe344",
"x!	c #ffe446",
"y!	c #fce047",
"z!	c #f3d846",
"A!	c #ffe54a",
"B!	c #ffe54d",
"C!	c #ffe64e",
"D!	c #ffe552",
"E!	c #ffe852",
"F!	c #ffe855",
"G!	c #fee75b",
"H!	c #ffec84",
"I!	c #fff6c0",
"J!	c #fffbe2",
"K!	c #fffbe4",
"L!	c #ffd824",
"M!	c #ffd928",
"N!	c #ffda2a",
"O!	c #ffdb2d",
"P!	c #ffdb2f",
"Q!	c #ffdc31",
"R!	c #ffdd33",
"S!	c #ffde36",
"T!	c #ffdc37",
"U!	c #ffdf39",
"V!	c #fcdc39",
"W!	c #ffe03b",
"X!	c #fcdd3b",
"Y!	c #eece38",
"Z!	c #ffe03d",
"0!	c #ffe03e",
"1!	c #ffe13f",
"2!	c #ffe150",
"3!	c #e8ce4a",
"4!	c #ffe562",
"5!	c #f0d95e",
"6!	c #ffe76b",
"7!	c #ffe671",
"8!	c #ffea89",
"9!	c #feed9a",
"!@	c #ffefa3",
"@@	c #fff1a7",
"#@	c #fcf3c6",
"$@	c #ffcc00",
"%@	c #fcc900",
"^@	c #ffcc02",
"&@	c #ffcd02",
"*@	c #ffcd03",
"(@	c #ffce04",
")@	c #ffce06",
"{@	c #ffcf07",
"}@	c #ffcf09",
"[@	c #fccc09",
"]@	c #ffcf0a",
"|@	c #ffd00b",
"+@	c #fccd0c",
"=@	c #ffd00d",
"-@	c #ffd10e",
",@	c #ffd110",
".@	c #ffd211",
"<@	c #ffd212",
">@	c #ffd214",
"/@	c #ffd315",
"?@	c #ffd417",
";@	c #f0c617",
":@	c #ffd419",
"a@	c #eec319",
"b@	c #ffd51b",
"c@	c #fcd31d",
"d@	c #ffd61e",
"e@	c #ebc21c",
"f@	c #ffd620",
"g@	c #ffd721",
"h@	c #ffd826",
"j@	c #ffd727",
"i@	c #ecc82e",
"k@	c #ffd935",
"l@	c #ffdc43",
"m@	c #ffe054",
"n@	c #fcdd5d",
"o@	c #ffe263",
"p@	c #ddc35c",
"q@	c #ffe77d",
"r@	c #dac66c",
"s@	c #eedc95",
"t@	c #fef0b2",
"u@	c #f6e9b4",
"v@	c #fff6cf",
"w@	c #fef6d5",
"x@	c #fff8d9",
"y@	c #fffbeb",
"z@	c #fffefa",
"A@	c #f6c300",
"B@	c #eebb01",
"C@	c #f6c60a",
"D@	c #deae09",
"E@	c #ebbd0e",
"F@	c #ccad3f",
"G@	c #f0da87",
"H@	c #eedea1",
"I@	c #fcf9ee",
"J@	c #dfac00",
"K@	c #ddaa01",
"L@	c #d1a20b",
"M@	c #cca014",
"N@	c #d3a91b",
"O@	c #cca422",
"P@	c #ccaf52",
"Q@	c #f6f0dc",
"R@	c #cc9900",
"S@	c #c39001",
"T@	c #bb8902",
"U@	c #c08e03",
"V@	c #bb8a07",
"W@	c #bd8e0c",
"X@	c #bb8f16",
"Y@	c #b88d19",
"Z@	c #bb911c",
"0@	c #bd9625",
"1@	c #daba5d",
"2@	c #ddc687",
"3@	c #ddc688",
"4@	c #eedeaf",
"5@	c #ae7e0a",
"6@	c #af8211",
"7@	c #bc9532",
"8@	c #ccaa52",
"9@	c #ccac5d",
"!#	c #ccae63",
"@#	c #eee4cb",
"##	c #fffdf8",
"$#	c #fdfbf6",
"%#	c #ac7901",
"^#	c #a77401",
"&#	c #a16f03",
"*#	c #a97808",
"(#	c #a17109",
")#	c #a9790c",
"{#	c #a77a12",
"}#	c #aa7e17",
"[#	c #ab7f1e",
"]#	c #af8732",
"|#	c #ebe0c7",
"+#	c #f6f2e9",
"=#	c #9b6800",
"-#	c #996600",
",#	c #996601",
".#	c #9b6902",
"<#	c #996602",
">#	c #9b6a08",
"/#	c #9a6b0a",
"?#	c #98680b",
";#	c #a17215",
":#	c #a27216",
"a#	c #996e18",
"b#	c #a77b23",
"c#	c #af8838",
"d#	c #bb9955",
"e#	c #ccb27d",
"f#	c #d1bb8d",
"g#	c #ddccaa",
"h#	c #eee5d3",
"j#	c #9d6d1a",
"i#	c #a0701c",
"k#	c #92671b",
"l#	c #8a621d",
"m#	c #8b631e",
"n#	c #aa7e2b",
"o#	c #976e27",
"p#	c #8b6626",
"q#	c #826024",
"r#	c #8c6727",
"s#	c #916c2a",
"t#	c #735726",
"u#	c #906e33",
"v#	c #8b6d38",
"w#	c #976a1e",
"x#	c #a87a2c",
"y#	c #7a5a23",
"z#	c #846129",
"A#	c #977130",
"B#	c #88662c",
"C#	c #705424",
"D#	c #a97f37",
"E#	c #6a5127",
"F#	c #ac8542",
"G#	c #ab8442",
"H#	c #856a3d",
"I#	c #6d5732",
"J#	c #745d37",
"K#	c #79623b",
"L#	c #735f3f",
"M#	c #574933",
"N#	c #857357",
"O#	c #524839",
"P#	c #4a4540",
"Q#	c #42403e",
"R#	c #777777",
"S#	c #000000",
"T#	c #000000",
"U#	c #000000",
"V#	c #000000",
"W#	c #000000",
"X#	c #000000",
"Y#	c #000000",
"Z#	c #000000",
"0#	c #000000",
"1#	c #000000",

"              >#                ",
"            >#>#>#              ",
"            >#Y!>#              ",
"          >#]#M!]#>#            ",
"          >#Y@<@Y@>#            ",
"  >#>#>#>#>#L@^@L@>#>#>#>#>#    ",
">#g!4@4@4@e#l@]@z!e#|#4@u@g!>#R#",
">#L@v![!o!S!)@d@j![!b!Q!B@]#>#R#",
"  R#]#E@1!g@*@U!d!]!D!X@E#^!R#  ",
"    R#N#F@>@/@C!.!?![#Q#&!R#    ",
"      R#3@$@O!f!]!k!Y@(!R#      ",
"      >#7!-@y!1@|!w!E@%!R#      ",
"      >#>@f@x#Q#d#8!]@c#c#      ",
"    >#t@B@G#(!R#R#7@@@O@D#R#    ",
"    >#Y@L#*!R#      F#F#D#R#    ",
"      R#R#R#          R#R#R#    ",
};

