/* XPM */
char * image_data[] = {
"32  32  257  2",
"  	c	None",
"!!	c #31394a",
"@!	c #323843",
"#!	c #383d48",
"$!	c #3b4353",
"%!	c #414246",
"^!	c #434959",
"&!	c #444240",
"*!	c #4d525f",
"(!	c #4e4436",
")!	c #544731",
"{!	c #5c4a2e",
"}!	c #5d626d",
"[!	c #5e5c5d",
"]!	c #5f5e5e",
"|!	c #616064",
"+!	c #625645",
"=!	c #635846",
"-!	c #666666",
",!	c #715425",
".!	c #746652",
"<!	c #765c31",
">!	c #795b2b",
"/!	c #7a5a23",
"?!	c #7b6f5c",
";!	c #7e663f",
":!	c #7f612f",
"a!	c #827767",
"b!	c #876d43",
"c!	c #88621d",
"d!	c #886424",
"e!	c #8b682e",
"f!	c #8d651f",
"g!	c #8f6621",
"h!	c #93723b",
"j!	c #966e1e",
"i!	c #9b6902",
"k!	c #9d7532",
"l!	c #9f7011",
"m!	c #a3720a",
"n!	c #a57405",
"o!	c #a67925",
"p!	c #a77b23",
"q!	c #a97921",
"r!	c #a97e27",
"s!	c #a9823f",
"t!	c #a98240",
"u!	c #aa7808",
"v!	c #aa7f2a",
"w!	c #ab7802",
"x!	c #ab843b",
"y!	c #ac7c07",
"z!	c #ac8331",
"A!	c #ad8543",
"B!	c #ad8643",
"C!	c #ae8b4e",
"D!	c #af7e03",
"E!	c #af8231",
"F!	c #b38839",
"G!	c #b4811e",
"H!	c #b7924f",
"I!	c #b88500",
"J!	c #bb9450",
"K!	c #bc8a06",
"L!	c #bc8e35",
"M!	c #bd9d5c",
"N!	c #c08b24",
"O!	c #c08d00",
"P!	c #c0971d",
"Q!	c #cc9900",
"R!	c #cca014",
"S!	c #ccb27f",
"T!	c #d1a51b",
"U!	c #d7ac18",
"V!	c #dac7a2",
"W!	c #ddae0b",
"X!	c #ddb31a",
"Y!	c #ddccaa",
"Z!	c #dfbb2b",
"0!	c #e8ddc6",
"1!	c #ebb800",
"2!	c #eed06a",
"3!	c #eedea1",
"4!	c #eee0a2",
"5!	c #eee4c0",
"6!	c #eee5d4",
"7!	c #f0bd00",
"8!	c #f0c616",
"9!	c #f0ca25",
"!@	c #f0d647",
"@@	c #f0e9db",
"#@	c #f6cc18",
"$@	c #f6d433",
"%@	c #f6d639",
"^@	c #f6e055",
"&@	c #f6f1df",
"*@	c #f6f2e9",
"(@	c #fcc901",
")@	c #fcca04",
"{@	c #fceb99",
"}@	c #fced6a",
"[@	c #fcf9f1",
"]@	c #fcf9f2",
"|@	c #fcfae8",
"+@	c #000000",
"=@	c #ffcc00",
"-@	c #ffcc01",
",@	c #ffcc02",
".@	c #ffcd03",
"<@	c #ffcd05",
">@	c #ffce06",
"/@	c #ffce07",
"?@	c #ffcf08",
";@	c #ffcf09",
":@	c #ffcf0d",
"a@	c #ffd00d",
"b@	c #ffd110",
"c@	c #ffd210",
"d@	c #ffd212",
"e@	c #ffd213",
"f@	c #ffd312",
"g@	c #ffd315",
"h@	c #ffd31e",
"j@	c #ffd418",
"i@	c #ffd419",
"k@	c #ffd519",
"l@	c #ffd51a",
"m@	c #ffd61c",
"n@	c #ffd61e",
"o@	c #ffd623",
"p@	c #ffd722",
"q@	c #ffd821",
"r@	c #ffd823",
"s@	c #ffd926",
"t@	c #ffd928",
"u@	c #ffda31",
"v@	c #ffda38",
"w@	c #ffdb2d",
"x@	c #ffdd32",
"y@	c #ffdd33",
"z@	c #ffdd40",
"A@	c #ffde36",
"B@	c #ffdf39",
"C@	c #ffdf5b",
"D@	c #ffe03b",
"E@	c #ffe13d",
"F@	c #ffe13e",
"G@	c #ffe14d",
"H@	c #ffe242",
"I@	c #ffe346",
"J@	c #ffe446",
"K@	c #ffe549",
"L@	c #ffe64d",
"M@	c #ffe64e",
"N@	c #ffe65d",
"O@	c #ffe670",
"P@	c #ffe750",
"Q@	c #ffe785",
"R@	c #ffe853",
"S@	c #ffe855",
"T@	c #ffe856",
"U@	c #ffea5a",
"V@	c #ffea67",
"W@	c #ffeb5f",
"X@	c #ffec5f",
"Y@	c #ffec63",
"Z@	c #ffed61",
"0@	c #ffed91",
"1@	c #ffee66",
"2@	c #ffefae",
"3@	c #fff06d",
"4@	c #fff17c",
"5@	c #fff1b3",
"6@	c #fff271",
"7@	c #fff373",
"8@	c #fff3b9",
"9@	c #fff477",
"!#	c #fff478",
"@#	c #fff57c",
"##	c #fff6d0",
"$#	c #fff780",
"%#	c #fff781",
"^#	c #fff7d6",
"&#	c #fff7d7",
"*#	c #fff7db",
"(#	c #fff884",
")#	c #fff886",
"{#	c #fff893",
"}#	c #fff8d3",
"[#	c #fff986",
"]#	c #fffa8b",
"|#	c #fffacc",
"+#	c #fffae2",
"=#	c #fffb8c",
"-#	c #fffbe4",
",#	c #fffbec",
".#	c #fffc91",
"<#	c #fffce6",
">#	c #fffd94",
"/#	c #fffde9",
"?#	c #fffe96",
";#	c #fffea8",
":#	c #fffed5",
"a#	c #fffff6",
"b#	c #000000",
"c#	c #000000",
"d#	c #000000",
"e#	c #000000",
"f#	c #000000",
"g#	c #000000",
"h#	c #000000",
"j#	c #000000",
"i#	c #000000",
"k#	c #000000",
"l#	c #000000",
"m#	c #000000",
"n#	c #000000",
"o#	c #000000",
"p#	c #000000",
"q#	c #000000",
"r#	c #000000",
"s#	c #000000",
"t#	c #000000",
"u#	c #000000",
"v#	c #000000",
"w#	c #000000",
"x#	c #000000",
"y#	c #000000",
"z#	c #000000",
"A#	c #000000",
"B#	c #000000",
"C#	c #000000",
"D#	c #000000",
"E#	c #000000",
"F#	c #000000",
"G#	c #000000",
"H#	c #000000",
"I#	c #000000",
"J#	c #000000",
"K#	c #000000",
"L#	c #000000",
"M#	c #000000",
"N#	c #000000",
"O#	c #000000",
"P#	c #000000",
"Q#	c #000000",
"R#	c #000000",
"S#	c #000000",
"T#	c #000000",
"U#	c #000000",
"V#	c #000000",
"W#	c #000000",
"X#	c #000000",
"Y#	c #000000",
"Z#	c #000000",
"0#	c #000000",
"1#	c #000000",

"                                                                ",
"                                                                ",
"                                                                ",
"                                                                ",
"                            p!p!p!                              ",
"                            p!}#G!-!                            ",
"                            p!0@R!-!                            ",
"                          p!0!G@8!<!-!                          ",
"                          r!]@s@/@f!-!                          ",
"                          v!8@m@=@D!|!-!                        ",
"                          p!O@a@?@X!=!-!                        ",
"        H!H!H!H!H!C!B!A!s!6!u@,@g@$@d!k!t!B!B!B!B!B!B!          ",
"        J!2!5@-#/#a#|@6!3!,#d@.@r@I@4!5!&@<#,#^#&#{@x!-!        ",
"        -!u!7!p@(#?#!#Y@N@z@<@b@y@S@{#;#!#L@q@,@#@q!+!-!        ",
"          -!e!O!)@W@3@P@x@k@-@n@H@1@]#=#1@D@f@Q!/!%!-!          ",
"            -!?!m!1!e@E@s@?@;@w@M@9@?#@#R@9!n!(!-!-!            ",
"              -!-!;!I!(@o@-@j@F@X@[#.#}@P!c!#!-!                ",
"                  -!h!Y!C@>@t@K@6@>#$#^@j!!!-!                  ",
"                    l![@,@c@B@U@%#>#7@J@y!-!                    ",
"                    S!Q@,@r@I@4@:#)#Z@A@W!-!                    ",
"                  F!*@:@a@x@!@i!V!|#T@r@,@g!-!                  ",
"                  H!2@=@l@Z!,!@!>!S!+#i@/@N!-!                  ",
"                H!@@h@?@U!{!$!-!-!b!M!*#v@%@:!-!                ",
"                L!##-@K!)!^!-!    -!-!z!]@V@H!-!                ",
"                E!T!w!&!*!-!          -!o!6!H!-!                ",
"                -!a!]!}!-!              -!.![!-!                ",
"                  -!-!                    -!-!                  ",
"                                                                ",
"                                                                ",
"                                                                ",
"                                                                ",
"                                                                ",
};

