/* XPM */
char * image_data[] = {
"16  16  257  2",
"  	c	None",
"!!	c #000000",
"@!	c #404041",
"#!	c #747475",
"$!	c #636364",
"%!	c #444549",
"^!	c #3c3f47",
"&!	c #454850",
"*!	c #77787b",
"(!	c #2f3b58",
")!	c #4c556c",
"{!	c #373d4c",
"}!	c #2d3b59",
"[!	c #5a6e9d",
"]!	c #748dc5",
"|!	c #5f7096",
"+!	c #4c5a78",
"=!	c #414b61",
"-!	c #373d4b",
",!	c #1d4084",
".!	c #2e4c89",
"<!	c #355595",
">!	c #283f6f",
"/!	c #293e68",
"?!	c #395283",
";!	c #495265",
":!	c #1e4995",
"a!	c #1b3d79",
"b!	c #254d97",
"c!	c #2d4b82",
"d!	c #31518c",
"e!	c #3c5fa1",
"f!	c #4269ae",
"g!	c #557dc2",
"h!	c #567cbe",
"j!	c #5e81c2",
"i!	c #5f81c1",
"k!	c #6689c6",
"l!	c #6789c5",
"m!	c #6b8bc5",
"n!	c #15499c",
"o!	c #26539f",
"p!	c #29569d",
"q!	c #3264b6",
"r!	c #527bc0",
"s!	c #5c85c6",
"t!	c #6c8ec8",
"u!	c #7092cc",
"v!	c #1951a7",
"w!	c #265bac",
"x!	c #3467b3",
"y!	c #386ab6",
"z!	c #3c6fbc",
"A!	c #3d6fbc",
"B!	c #517ec3",
"C!	c #adc4e5",
"D!	c #1859b5",
"E!	c #296abe",
"F!	c #4379c3",
"G!	c #6191d0",
"H!	c #6290cf",
"I!	c #6c99d3",
"J!	c #739ed6",
"K!	c #7ca3d7",
"L!	c #89abda",
"M!	c #3375c6",
"N!	c #6294d3",
"O!	c #83aadc",
"P!	c #d9e6f6",
"Q!	c #92b9e5",
"R!	c #4e90d6",
"S!	c #5e9fdf",
"T!	c #66a2df",
"U!	c #75ace3",
"V!	c #9eceff",
"W!	c #92bde9",
"X!	c #9ec5ec",
"Y!	c #a9cbee",
"Z!	c #d4e9ff",
"0!	c #add7ff",
"1!	c #5e5e5e",
"2!	c #5c5c5c",
"3!	c #000000",
"4!	c #000000",
"5!	c #000000",
"6!	c #000000",
"7!	c #000000",
"8!	c #000000",
"9!	c #000000",
"!@	c #000000",
"@@	c #000000",
"#@	c #000000",
"$@	c #000000",
"%@	c #000000",
"^@	c #000000",
"&@	c #000000",
"*@	c #000000",
"(@	c #000000",
")@	c #000000",
"{@	c #000000",
"}@	c #000000",
"[@	c #000000",
"]@	c #000000",
"|@	c #000000",
"+@	c #000000",
"=@	c #000000",
"-@	c #000000",
",@	c #000000",
".@	c #000000",
"<@	c #000000",
">@	c #000000",
"/@	c #000000",
"?@	c #000000",
";@	c #000000",
":@	c #000000",
"a@	c #000000",
"b@	c #000000",
"c@	c #000000",
"d@	c #000000",
"e@	c #000000",
"f@	c #000000",
"g@	c #000000",
"h@	c #000000",
"j@	c #000000",
"i@	c #000000",
"k@	c #000000",
"l@	c #000000",
"m@	c #000000",
"n@	c #000000",
"o@	c #000000",
"p@	c #000000",
"q@	c #000000",
"r@	c #000000",
"s@	c #000000",
"t@	c #000000",
"u@	c #000000",
"v@	c #000000",
"w@	c #000000",
"x@	c #000000",
"y@	c #000000",
"z@	c #000000",
"A@	c #000000",
"B@	c #000000",
"C@	c #000000",
"D@	c #000000",
"E@	c #000000",
"F@	c #000000",
"G@	c #000000",
"H@	c #000000",
"I@	c #000000",
"J@	c #000000",
"K@	c #000000",
"L@	c #000000",
"M@	c #000000",
"N@	c #000000",
"O@	c #000000",
"P@	c #000000",
"Q@	c #000000",
"R@	c #000000",
"S@	c #000000",
"T@	c #000000",
"U@	c #000000",
"V@	c #000000",
"W@	c #000000",
"X@	c #000000",
"Y@	c #000000",
"Z@	c #000000",
"0@	c #000000",
"1@	c #000000",
"2@	c #000000",
"3@	c #000000",
"4@	c #000000",
"5@	c #000000",
"6@	c #000000",
"7@	c #000000",
"8@	c #000000",
"9@	c #000000",
"!#	c #000000",
"@#	c #000000",
"##	c #000000",
"$#	c #000000",
"%#	c #000000",
"^#	c #000000",
"&#	c #000000",
"*#	c #000000",
"(#	c #000000",
")#	c #000000",
"{#	c #000000",
"}#	c #000000",
"[#	c #000000",
"]#	c #000000",
"|#	c #000000",
"+#	c #000000",
"=#	c #000000",
"-#	c #000000",
",#	c #000000",
".#	c #000000",
"<#	c #000000",
">#	c #000000",
"/#	c #000000",
"?#	c #000000",
";#	c #000000",
":#	c #000000",
"a#	c #000000",
"b#	c #000000",
"c#	c #000000",
"d#	c #000000",
"e#	c #000000",
"f#	c #000000",
"g#	c #000000",
"h#	c #000000",
"j#	c #000000",
"i#	c #000000",
"k#	c #000000",
"l#	c #000000",
"m#	c #000000",
"n#	c #000000",
"o#	c #000000",
"p#	c #000000",
"q#	c #000000",
"r#	c #000000",
"s#	c #000000",
"t#	c #000000",
"u#	c #000000",
"v#	c #000000",
"w#	c #000000",
"x#	c #000000",
"y#	c #000000",
"z#	c #000000",
"A#	c #000000",
"B#	c #000000",
"C#	c #000000",
"D#	c #000000",
"E#	c #000000",
"F#	c #000000",
"G#	c #000000",
"H#	c #000000",
"I#	c #000000",
"J#	c #000000",
"K#	c #000000",
"L#	c #000000",
"M#	c #000000",
"N#	c #000000",
"O#	c #000000",
"P#	c #000000",
"Q#	c #000000",
"R#	c #000000",
"S#	c #000000",
"T#	c #000000",
"U#	c #000000",
"V#	c #000000",
"W#	c #000000",
"X#	c #000000",
"Y#	c #000000",
"Z#	c #000000",
"0#	c #000000",
"1#	c #000000",

"            i!F!F!              ",
"            u!U!a!#!            ",
"          u!K!0!p!)!            ",
"          m!P!0!s!)!            ",
"          z!P!X!C!>!            ",
"r!B!g!l!]!I!0!X!0!x!f!k!t!h!h!  ",
"j!Y!P!P!P!0!0!X!V!P!P!P!S!D!+!2!",
"  <!J!X!X!X!X!V!0!Z!X!R!n!}!@!  ",
"    ?!w!X!X!V!0!Z!0!H!,!-!2!    ",
"      [!L!X!0!Z!0!V!o!^!$!      ",
"      [!P!0!Z!0!V!V!G!;!#!      ",
"      A!P!W!y!b!N!L!O!/!#!      ",
"      M!Q!e!(!&!c!E!T!d!$!      ",
"      q!.!{!1!    |!v!:!$!      ",
"      q!%!1!        $!=!$!      ",
"      *!1!            $!$!      ",
};

