/* XPM */
char * image_data[] = {
"16  16  257  2",
"  	c	None",
"!!	c #000000",
"@!	c #edf6ff",
"#!	c #f2f9ff",
"$!	c #e5f5ef",
"%!	c #aed0bf",
"^!	c #c6e2cf",
"&!	c #81bc8f",
"*!	c #5da666",
"(!	c #1d8120",
")!	c #177517",
"{!	c #1e891e",
"}!	c #29ad29",
"[!	c #208120",
"]!	c #248624",
"|!	c #217521",
"+!	c #2d9c2d",
"=!	c #2c962c",
"-!	c #227322",
",!	c #217021",
".!	c #206920",
"<!	c #257525",
">!	c #3cb73c",
"/!	c #3db73d",
"?!	c #308c30",
";!	c #287028",
":!	c #45bc45",
"a!	c #399939",
"b!	c #225b22",
"c!	c #389538",
"d!	c #47b947",
"e!	c #4cbf4c",
"f!	c #49b749",
"g!	c #378a37",
"h!	c #41a041",
"j!	c #4ab14a",
"i!	c #52c252",
"k!	c #55c355",
"l!	c #47a347",
"m!	c #56c456",
"n!	c #4ead4e",
"o!	c #5bc65b",
"p!	c #5cc05c",
"q!	c #62ca62",
"r!	c #64cb64",
"s!	c #62c362",
"t!	c #2e5b2e",
"u!	c #3e7a3e",
"v!	c #68ca68",
"w!	c #6dcf6d",
"x!	c #7ad67a",
"y!	c #7bd77b",
"z!	c #568f56",
"A!	c #648a64",
"B!	c #465946",
"C!	c #485b48",
"D!	c #5a675a",
"E!	c #587f33",
"F!	c #fff078",
"G!	c #ffe856",
"H!	c #ffdb32",
"I!	c #ffe062",
"J!	c #e6b811",
"K!	c #816b1e",
"L!	c #fff2bf",
"M!	c #fff6d4",
"N!	c #ffcc30",
"O!	c #ffc30f",
"P!	c #be9c39",
"Q!	c #be9e46",
"R!	c #bf8804",
"S!	c #dfa10e",
"T!	c #ffc01b",
"U!	c #e6b335",
"V!	c #c2a256",
"W!	c #b9a986",
"X!	c #be9033",
"Y!	c #a58441",
"Z!	c #bca26f",
"0!	c #df9e28",
"1!	c #92794c",
"2!	c #df9319",
"3!	c #e9a22c",
"4!	c #ffbe58",
"5!	c #ffbf59",
"6!	c #ffc15b",
"7!	c #bf934c",
"8!	c #be924c",
"9!	c #91703c",
"!@	c #937340",
"@@	c #615a4e",
"#@	c #dc9632",
"$@	c #ffb03f",
"%@	c #ffba54",
"^@	c #ffbb55",
"&@	c #906d3a",
"*@	c #df932d",
"(@	c #ffb04a",
")@	c #ffb14b",
"{@	c #ffb44e",
"}@	c #ffb54f",
"[@	c #dea04c",
"]@	c #e18a24",
"|@	c #ffaa44",
"+@	c #ffab45",
"=@	c #ffac46",
"-@	c #ea8e28",
",@	c #eb8f29",
".@	c #ee902a",
"<@	c #ef922c",
">@	c #f29630",
"/@	c #ffa03a",
"?@	c #ffa23c",
";@	c #ffa640",
":@	c #ffa741",
"a@	c #ff9d37",
"b@	c #ff9e38",
"c@	c #ff9f39",
"d@	c #737373",
"e@	c #656565",
"f@	c #000000",
"g@	c #000000",
"h@	c #000000",
"j@	c #000000",
"i@	c #000000",
"k@	c #000000",
"l@	c #000000",
"m@	c #000000",
"n@	c #000000",
"o@	c #000000",
"p@	c #000000",
"q@	c #000000",
"r@	c #000000",
"s@	c #000000",
"t@	c #000000",
"u@	c #000000",
"v@	c #000000",
"w@	c #000000",
"x@	c #000000",
"y@	c #000000",
"z@	c #000000",
"A@	c #000000",
"B@	c #000000",
"C@	c #000000",
"D@	c #000000",
"E@	c #000000",
"F@	c #000000",
"G@	c #000000",
"H@	c #000000",
"I@	c #000000",
"J@	c #000000",
"K@	c #000000",
"L@	c #000000",
"M@	c #000000",
"N@	c #000000",
"O@	c #000000",
"P@	c #000000",
"Q@	c #000000",
"R@	c #000000",
"S@	c #000000",
"T@	c #000000",
"U@	c #000000",
"V@	c #000000",
"W@	c #000000",
"X@	c #000000",
"Y@	c #000000",
"Z@	c #000000",
"0@	c #000000",
"1@	c #000000",
"2@	c #000000",
"3@	c #000000",
"4@	c #000000",
"5@	c #000000",
"6@	c #000000",
"7@	c #000000",
"8@	c #000000",
"9@	c #000000",
"!#	c #000000",
"@#	c #000000",
"##	c #000000",
"$#	c #000000",
"%#	c #000000",
"^#	c #000000",
"&#	c #000000",
"*#	c #000000",
"(#	c #000000",
")#	c #000000",
"{#	c #000000",
"}#	c #000000",
"[#	c #000000",
"]#	c #000000",
"|#	c #000000",
"+#	c #000000",
"=#	c #000000",
"-#	c #000000",
",#	c #000000",
".#	c #000000",
"<#	c #000000",
">#	c #000000",
"/#	c #000000",
"?#	c #000000",
";#	c #000000",
":#	c #000000",
"a#	c #000000",
"b#	c #000000",
"c#	c #000000",
"d#	c #000000",
"e#	c #000000",
"f#	c #000000",
"g#	c #000000",
"h#	c #000000",
"j#	c #000000",
"i#	c #000000",
"k#	c #000000",
"l#	c #000000",
"m#	c #000000",
"n#	c #000000",
"o#	c #000000",
"p#	c #000000",
"q#	c #000000",
"r#	c #000000",
"s#	c #000000",
"t#	c #000000",
"u#	c #000000",
"v#	c #000000",
"w#	c #000000",
"x#	c #000000",
"y#	c #000000",
"z#	c #000000",
"A#	c #000000",
"B#	c #000000",
"C#	c #000000",
"D#	c #000000",
"E#	c #000000",
"F#	c #000000",
"G#	c #000000",
"H#	c #000000",
"I#	c #000000",
"J#	c #000000",
"K#	c #000000",
"L#	c #000000",
"M#	c #000000",
"N#	c #000000",
"O#	c #000000",
"P#	c #000000",
"Q#	c #000000",
"R#	c #000000",
"S#	c #000000",
"T#	c #000000",
"U#	c #000000",
"V#	c #000000",
"W#	c #000000",
"X#	c #000000",
"Y#	c #000000",
"Z#	c #000000",
"0#	c #000000",
"1#	c #000000",

"          V!P!Q!Z!              ",
"        R!H!F!G!J!Y!            ",
"      X!N!L!M!I!O!2!Y!          ",
"      S!3!*@#@U!T!$@1!          ",
"      0!}@^@5!6!4!%@!@          ",
"      [@=@)@{@}@{@(@9!          ",
"      0!?@:@|@+@|@;@&@          ",
"        <@a@c@/@b@>@@@          ",
"        0!]@,@.@-@K!D!          ",
"        g!E!8!7!W!c!a!z!        ",
"      [!v!h!%!@!#!l!y!j!A!      ",
"    [!d!q!x!?!$!^!n!w!k!;!d@    ",
"    {!>!i!r!s!*!&!p!o!:!.!d@    ",
"    ]!}!/!e!m!=!(!f!+!)!B!d@    ",
"      u!|!-!<!,!b!t!C!e@d@      ",
"        d@d@d@d@d@d@d@d@        ",
};

