/* XPM */
static char * distgrid_xpm[] = {
"32 32 31 1",
" 	c None",
".	c #D6D6D6",
"+	c #D2D2D2",
"@	c #000000",
"#	c #CACACA",
"$	c #CDCDCD",
"%	c #FFFFFF",
"&	c #B6B6B6",
"*	c #BBBBBB",
"=	c #C1C1C1",
"-	c #999999",
";	c #A1A1A1",
">	c #ADADAD",
",	c #767676",
"'	c #828282",
")	c #979797",
"!	c #585858",
"~	c #686868",
"{	c #454545",
"]	c #3D3D3D",
"^	c #505050",
"/	c #707070",
"(	c #393939",
"_	c #4E4E4E",
":	c #6D6D6D",
"<	c #939393",
"[	c #B4B4B4",
"}	c #C8C8C8",
"|	c #383838",
"1	c #4D4D4D",
"2	c #444444",
"..................+.............",
"......++..+++++++++++++++.......",
"..@@@@@@@@@@@@@@@@@@@@@@##$$+...",
"..@%%@%%@%%@%%@%%@%%@%%@&*=#++..",
"..@%%@%%@%%@%%@%%@%%@%%@-;>*#$..",
"..@@@@@@@@@@@@@@@@@@@@@@,')>=$..",
".+@%%@%%@%%@%%@%%@%%@%%@!~';*#+.",
"++@%%@%%@%%@%%@%%@%%@%%@{!,-&#+.",
".+@@@@@@@@@@@@@@@@@@@@@@]^/)&#+.",
".+@%%@%%@%%@%%@%%@%%@%%@(_:<[}++",
".+@%%@%%@%%@%%@%%@%%@%%@(_:<[#+.",
".+@@@@@@@@@@@@@@@@@@@@@@|1:<[#$.",
".+@%%@%%@%%@%%@%%@%%@%%@|1:<[#+.",
".+@%%@%%@%%@%%@%%@%%@%%@(1:<[}++",
"++@@@@@@@@@@@@@@@@@@@@@@|_:<[#$.",
".+@%%@%%@%%@%%@%%@%%@%%@(_:<[}+.",
".+@%%@%%@%%@%%@%%@%%@%%@|_:<&}+.",
".+@@@@@@@@@@@@@@@@@@@@@@|_:<[}$+",
".+@%%@%%@%%@%%@%%@%%@%%@(_~<[#+.",
".+@%%@%%@%%@%%@%%@%%@%%@|_:<[}+.",
"++@@@@@@@@@@@@@@@@@@@@@@(_:<[#$.",
".+@%%@%%@%%@%%@%%@%%@%%@(_~<[}++",
".+@%%@%%@%%@%%@%%@%%@%%@(_:<[#+.",
".+@@@@@@@@@@@@@@@@@@@@@@]^:)&#+.",
".+#&-,!2]((|((((|(((|||(2!,-&#+.",
".+#*;'~!^____1_________^!~'-*#++",
".+$=>)',:::::~::~:::~::/,')[=$..",
".++#*>;))<<<<<<)<<<<<<<));>*#++.",
"..+$#=*&&[&[[[[[[[[[[[&&&*=#$...",
"...++$$#}#}}}#}}#}}}}}###$$$....",
"....+.+++++++$++$++++$+++++.+...",
"..............+...+............."};

