/* XPM */
static char *target_xpm[] = {
/* width height ncols cpp */
"32 32 4 2",
  /* Colors */
  "00 c #000000",
  "01 c #FF0000",
  "02 c #FFFF00",
  ".. s None c None",
  "........................0000000000000000........................",
  "..................0000000202020202020202000000..................",
  "..............000002020202020202020202020202020000..............",
  "............0000020202020000000000000000020202020000............",
  "..........00020202020000000101010101010000000202020200..........",
  "........000202020000010101010101010101010101000002020200........",
  "......0002020200000101010101010101010101010101000002020200......",
  "....00000202000001010101010000000000000101010101000002020000....",
  "....00020200000101010100000202020202020000010101010000020200....",
  "..000202020001010101000202020202020202020200010101010002020200..",
  "..000202000101010100020202020202020202020202000101010100020200..",
  "..000202000101010002020202020000000002020202020001010100020200..",
  "0002020000010101000202020000010101010000020202000101010000020200",
  "0002020001010100020202020001010101010100020202020001010100020200",
  "0002020001010100020202000101010101010101000202020001010100020200",
  "0002020001010100020202000101010101010101000202020001010100020200",
  "0002020001010100020202000101010101010101000202020001010100020200",
  "0002020001010100020202000101010101010101000202020001010100020200",
  "0002020001010100020202020001010101010100020202020001010100020200",
  "0002020000010101000202020000010101010000020202000101010000020200",
  "..000202000101010002020202020000000002020202020001010100020200..",
  "..000202000101010100020202020202020202020202000101010100020200..",
  "..000202020001010101000202020202020202020200010101010002020200..",
  "....00020200000101010100000202020202020000010101010000020200....",
  "....00000202000001010101010000000000000101010101000002020000....",
  "......0002020200000101010101010101010101010101000002020200......",
  "........000202020000010101010101010101010101000002020200........",
  "..........00020202020000000101010101010000000202020200..........",
  "............0000020202020000000000000000020202020000............",
  "..............000002020202020202020202020202020000..............",
  "..................0000000202020202020202000000..................",
  "........................0000000000000000........................",
};
