/* XPM */
char * image_data[] = {
"16  16  257  2",
"  	c	None",
"!!	c #fdffff",
"@!	c #fdfaf3",
"#!	c #fbf5eb",
"$!	c #fbf2e4",
"%!	c #f9efe0",
"^!	c #faf2de",
"&!	c #f9eddb",
"*!	c #f9efd7",
"(!	c #f7e8d2",
")!	c #f9edcf",
"{!	c #f5e5cc",
"}!	c #f5e2bb",
"[!	c #f3ddbc",
"]!	c #f1d9b4",
"|!	c #f1d7b1",
"+!	c #f2dbab",
"=!	c #eed1a3",
"-!	c #eecfa1",
",!	c #edcc9b",
".!	c #f1d78e",
"<!	c #eecc88",
">!	c #ebc48c",
"/!	c #eac384",
"?!	c #e7c187",
";!	c #e8bf83",
":!	c #ebc67e",
"a!	c #e8bd7e",
"b!	c #e7bb7a",
"c!	c #e6ba77",
"d!	c #e4b672",
"e!	c #e4b56d",
"f!	c #e3b167",
"g!	c #e2ad61",
"h!	c #dfae62",
"j!	c #e1ab5b",
"i!	c #e1a956",
"k!	c #e0a752",
"l!	c #e7ba4a",
"m!	c #e0a74a",
"n!	c #dfa653",
"o!	c #dea44d",
"p!	c #dea244",
"q!	c #dc9f43",
"r!	c #e6b73d",
"s!	c #e3b130",
"t!	c #e1ab33",
"u!	c #e3b221",
"v!	c #e2ad25",
"w!	c #dfa635",
"x!	c #dc9c3c",
"y!	c #d69939",
"z!	c #db9a35",
"A!	c #d99631",
"B!	c #d69533",
"C!	c #da9a2c",
"D!	c #d6952f",
"E!	c #db9d24",
"F!	c #d89127",
"G!	c #d38e26",
"H!	c #e3b21c",
"I!	c #e3b014",
"J!	c #e2ae13",
"K!	c #e1ab0b",
"L!	c #dda41c",
"M!	c #dca513",
"N!	c #dea50a",
"O!	c #dba006",
"P!	c #d48b1c",
"Q!	c #ce8314",
"R!	c #d59602",
"S!	c #be8012",
"T!	c #b97e23",
"U!	c #bb7f1c",
"V!	c #b6791b",
"W!	c #b5761b",
"X!	c #bb7e15",
"Y!	c #b27212",
"Z!	c #bc7e0a",
"0!	c #bc7d04",
"1!	c #b57400",
"2!	c #000000",
"3!	c #ce8314",
"4!	c #d59602",
"5!	c #b38337",
"6!	c #be8012",
"7!	c #b97e23",
"8!	c #bb7f1c",
"9!	c #b6791b",
"!@	c #b5761b",
"@@	c #bb7e15",
"#@	c #b27212",
"$@	c #bc7e0a",
"%@	c #bc7d04",
"^@	c #b57400",
"&@	c #000000",
"*@	c #000000",
"(@	c #000000",
")@	c #000000",
"{@	c #000000",
"}@	c #000000",
"[@	c #000000",
"]@	c #000000",
"|@	c #000000",
"+@	c #000000",
"=@	c #000000",
"-@	c #000000",
",@	c #000000",
".@	c #000000",
"<@	c #000000",
">@	c #000000",
"/@	c #000000",
"?@	c #000000",
";@	c #000000",
":@	c #000000",
"a@	c #000000",
"b@	c #000000",
"c@	c #000000",
"d@	c #000000",
"e@	c #000000",
"f@	c #000000",
"g@	c #000000",
"h@	c #000000",
"j@	c #000000",
"i@	c #000000",
"k@	c #000000",
"l@	c #000000",
"m@	c #000000",
"n@	c #000000",
"o@	c #000000",
"p@	c #000000",
"q@	c #000000",
"r@	c #000000",
"s@	c #000000",
"t@	c #000000",
"u@	c #000000",
"v@	c #000000",
"w@	c #000000",
"x@	c #000000",
"y@	c #000000",
"z@	c #000000",
"A@	c #000000",
"B@	c #000000",
"C@	c #000000",
"D@	c #000000",
"E@	c #000000",
"F@	c #000000",
"G@	c #000000",
"H@	c #000000",
"I@	c #000000",
"J@	c #000000",
"K@	c #000000",
"L@	c #000000",
"M@	c #000000",
"N@	c #000000",
"O@	c #000000",
"P@	c #000000",
"Q@	c #000000",
"R@	c #000000",
"S@	c #000000",
"T@	c #000000",
"U@	c #000000",
"V@	c #000000",
"W@	c #000000",
"X@	c #000000",
"Y@	c #000000",
"Z@	c #000000",
"0@	c #000000",
"1@	c #000000",
"2@	c #000000",
"3@	c #000000",
"4@	c #000000",
"5@	c #000000",
"6@	c #000000",
"7@	c #000000",
"8@	c #000000",
"9@	c #000000",
"!#	c #000000",
"@#	c #000000",
"##	c #000000",
"$#	c #000000",
"%#	c #000000",
"^#	c #000000",
"&#	c #000000",
"*#	c #000000",
"(#	c #000000",
")#	c #000000",
"{#	c #000000",
"}#	c #000000",
"[#	c #000000",
"]#	c #000000",
"|#	c #000000",
"+#	c #000000",
"=#	c #000000",
"-#	c #000000",
",#	c #000000",
".#	c #000000",
"<#	c #000000",
">#	c #000000",
"/#	c #000000",
"?#	c #000000",
";#	c #000000",
":#	c #000000",
"a#	c #000000",
"b#	c #000000",
"c#	c #000000",
"d#	c #000000",
"e#	c #000000",
"f#	c #000000",
"g#	c #000000",
"h#	c #000000",
"j#	c #000000",
"i#	c #000000",
"k#	c #000000",
"l#	c #000000",
"m#	c #000000",
"n#	c #000000",
"o#	c #000000",
"p#	c #000000",
"q#	c #000000",
"r#	c #000000",
"s#	c #000000",
"t#	c #000000",
"u#	c #000000",
"v#	c #000000",
"w#	c #000000",
"x#	c #000000",
"y#	c #000000",
"z#	c #000000",
"A#	c #000000",
"B#	c #000000",
"C#	c #000000",
"D#	c #000000",
"E#	c #000000",
"F#	c #000000",
"G#	c #000000",
"H#	c #000000",
"I#	c #000000",
"J#	c #000000",
"K#	c #000000",
"L#	c #000000",
"M#	c #000000",
"N#	c #000000",
"O#	c #000000",
"P#	c #000000",
"Q#	c #000000",
"R#	c #000000",
"S#	c #000000",
"T#	c #000000",
"U#	c #000000",
"V#	c #000000",
"W#	c #000000",
"X#	c #000000",
"Y#	c #000000",
"Z#	c #000000",
"0#	c #000000",
"1#	c #ffffff",

"    !!!!!!!!!!!!!!!!!!!!!!!!    ",
"  !!b!e!j!j!k!n!o!o!q!x!A!G!!!  ",
"!!a!,!>!c!e!e!b![!&!(!=!k!B!V!!!",
"!!d!>!a!e!f!b!&!&!,!-!$!]!q!V!!!",
"!!g!c!e!g!j![!{!q!p!e!o!#!?!T!!!",
"!!j!e!f!j!n!&!>!x!e!$!i!=!]!T!!!",
"!!o!g!g!j!o!%!;!z!C!p!C!=!]!T!!!",
"!!o!j!j!i!e!@!>!z!C!E!w!$!/!U!!!",
"!!q!k!i!/!$!=!m!/!:!<!^!+!w!U!!!",
"!!z!o!e!$!]!k!>!#!^!)!.!s!L!S!!!",
"!!A!f!$!|!i!e!}!*!l!u!H!J!M!Z!!!",
"!!F!b!#!j!>!$!#!}!r!u!H!I!N!0!!!",
"!!P!d!@!{!$!=!+!t!v!H!I!K!O!0!!!",
"!!Q!y!d!d!h!D!C!E!L!M!M!O!R!1!!!",
"  !!Y!W!W!W!V!V!X!S!Z!Z!0!1!!!  ",
"    !!!!!!!!!!!!!!!!!!!!!!!!    ",
};

