/* XPM */
char * image_data[] = {
"16  16  257  2",
"  	c	None",
"!!	c #feffff",
"@!	c #f3b3a2",
"#!	c #f1a896",
"$!	c #ef9f89",
"%!	c #f99072",
"^!	c #ee937c",
"&!	c #ed8b72",
"*!	c #f98a6d",
"(!	c #ec8a6f",
")!	c #eb8065",
"{!	c #eb7f63",
"}!	c #fc7f5f",
"[!	c #f97653",
"]!	c #ea7a5f",
"|!	c #ea7153",
"+!	c #e86f50",
"=!	c #f9744f",
"-!	c #ea6849",
",!	c #e7694a",
".!	c #eb6643",
"<!	c #e66443",
">!	c #e9633b",
"/!	c #ec5e36",
"?!	c #e55631",
";!	c #ea5329",
":!	c #e45026",
"a!	c #e44e27",
"b!	c #eb541f",
"c!	c #e74d1f",
"d!	c #e94b12",
"e!	c #e84207",
"f!	c #e83f04",
"g!	c #e13100",
"h!	c #c5330b",
"j!	c #c53207",
"i!	c #bc2400",
"k!	c #000000",
"l!	c #000000",
"m!	c #000000",
"n!	c #000000",
"o!	c #000000",
"p!	c #000000",
"q!	c #000000",
"r!	c #000000",
"s!	c #000000",
"t!	c #000000",
"u!	c #000000",
"v!	c #000000",
"w!	c #000000",
"x!	c #000000",
"y!	c #000000",
"z!	c #000000",
"A!	c #000000",
"B!	c #000000",
"C!	c #000000",
"D!	c #000000",
"E!	c #000000",
"F!	c #000000",
"G!	c #000000",
"H!	c #000000",
"I!	c #000000",
"J!	c #000000",
"K!	c #000000",
"L!	c #000000",
"M!	c #000000",
"N!	c #000000",
"O!	c #000000",
"P!	c #000000",
"Q!	c #000000",
"R!	c #000000",
"S!	c #000000",
"T!	c #000000",
"U!	c #000000",
"V!	c #000000",
"W!	c #000000",
"X!	c #000000",
"Y!	c #000000",
"Z!	c #000000",
"0!	c #000000",
"1!	c #000000",
"2!	c #000000",
"3!	c #000000",
"4!	c #000000",
"5!	c #000000",
"6!	c #000000",
"7!	c #000000",
"8!	c #000000",
"9!	c #000000",
"!@	c #000000",
"@@	c #000000",
"#@	c #000000",
"$@	c #000000",
"%@	c #000000",
"^@	c #000000",
"&@	c #000000",
"*@	c #000000",
"(@	c #000000",
")@	c #000000",
"{@	c #000000",
"}@	c #000000",
"[@	c #000000",
"]@	c #000000",
"|@	c #000000",
"+@	c #000000",
"=@	c #000000",
"-@	c #000000",
",@	c #000000",
".@	c #000000",
"<@	c #000000",
">@	c #000000",
"/@	c #000000",
"?@	c #000000",
";@	c #000000",
":@	c #000000",
"a@	c #000000",
"b@	c #000000",
"c@	c #000000",
"d@	c #000000",
"e@	c #000000",
"f@	c #000000",
"g@	c #000000",
"h@	c #000000",
"j@	c #000000",
"i@	c #000000",
"k@	c #000000",
"l@	c #000000",
"m@	c #000000",
"n@	c #000000",
"o@	c #000000",
"p@	c #000000",
"q@	c #000000",
"r@	c #000000",
"s@	c #000000",
"t@	c #000000",
"u@	c #000000",
"v@	c #000000",
"w@	c #000000",
"x@	c #000000",
"y@	c #000000",
"z@	c #000000",
"A@	c #000000",
"B@	c #000000",
"C@	c #000000",
"D@	c #000000",
"E@	c #000000",
"F@	c #000000",
"G@	c #000000",
"H@	c #000000",
"I@	c #000000",
"J@	c #000000",
"K@	c #000000",
"L@	c #000000",
"M@	c #000000",
"N@	c #000000",
"O@	c #000000",
"P@	c #000000",
"Q@	c #000000",
"R@	c #000000",
"S@	c #000000",
"T@	c #000000",
"U@	c #000000",
"V@	c #000000",
"W@	c #000000",
"X@	c #000000",
"Y@	c #000000",
"Z@	c #000000",
"0@	c #000000",
"1@	c #000000",
"2@	c #000000",
"3@	c #000000",
"4@	c #000000",
"5@	c #000000",
"6@	c #000000",
"7@	c #000000",
"8@	c #000000",
"9@	c #000000",
"!#	c #000000",
"@#	c #000000",
"##	c #000000",
"$#	c #000000",
"%#	c #000000",
"^#	c #000000",
"&#	c #000000",
"*#	c #000000",
"(#	c #000000",
")#	c #000000",
"{#	c #000000",
"}#	c #000000",
"[#	c #000000",
"]#	c #000000",
"|#	c #000000",
"+#	c #000000",
"=#	c #000000",
"-#	c #000000",
",#	c #000000",
".#	c #000000",
"<#	c #000000",
">#	c #000000",
"/#	c #000000",
"?#	c #000000",
";#	c #000000",
":#	c #000000",
"a#	c #000000",
"b#	c #000000",
"c#	c #000000",
"d#	c #000000",
"e#	c #000000",
"f#	c #000000",
"g#	c #000000",
"h#	c #000000",
"j#	c #000000",
"i#	c #000000",
"k#	c #000000",
"l#	c #000000",
"m#	c #000000",
"n#	c #000000",
"o#	c #000000",
"p#	c #000000",
"q#	c #000000",
"r#	c #000000",
"s#	c #000000",
"t#	c #000000",
"u#	c #000000",
"v#	c #000000",
"w#	c #000000",
"x#	c #000000",
"y#	c #000000",
"z#	c #000000",
"A#	c #000000",
"B#	c #000000",
"C#	c #000000",
"D#	c #000000",
"E#	c #000000",
"F#	c #000000",
"G#	c #000000",
"H#	c #000000",
"I#	c #000000",
"J#	c #000000",
"K#	c #000000",
"L#	c #000000",
"M#	c #000000",
"N#	c #000000",
"O#	c #000000",
"P#	c #000000",
"Q#	c #000000",
"R#	c #000000",
"S#	c #000000",
"T#	c #000000",
"U#	c #000000",
"V#	c #000000",
"W#	c #000000",
"X#	c #000000",
"Y#	c #000000",
"Z#	c #000000",
"0#	c #000000",
"1#	c #ffffff",

"    !!!!!!!!!!!!!!!!!!!!!!!!    ",
"  !!%!%!%!%!%!%!%!%!%!%!%!%!!!  ",
"!!e!{!%!*!*!}!{!}!}!}![!=!h!h!!!",
"!!e!{!@!$!(!{!]!]!|!|!<!?!h!h!!!",
"!!e![!#!^!)!!!!!!!!!<!<!?!h!h!!!",
"!!e!|!)!)!!!^!?!a!{!!!?!:!h!h!!!",
"!!e!-!]!!!^!<!!!@!c!|!!!:!h!h!!!",
"!!e!.!{!!!,!,!@!!!:!c!!!>!h!h!!!",
"!!e!/!)!!!,!,!!!@!:!c!!!/!h!h!!!",
"!!e!;!-!!!,!,!@!!!a!c!!!d!h!h!!!",
"!!e!b!<!&!!!<!)!]!a!!!|!e!h!h!!!",
"!!e!d!?!?!&!!!@!!!@!{!d!f!h!h!!!",
"!!e!e!:!?!?!/!/!/!c!e!e!g!h!h!!!",
"!!e!e!i!j!i!i!i!i!i!i!i!i!i!h!!!",
"  !!i!i!i!i!i!i!i!i!i!i!i!h!!!  ",
"    !!!!!!!!!!!!!!!!!!!!!!!!    ",
};

