/* XPM */
char * image_data[] = {
"16  16  257  2",
"  	c	None",
"!!	c #ffffff",
"@!	c #f4dac0",
"#!	c #d8d8d8",
"$!	c #cecdce",
"%!	c #e8b481",
"^!	c #eaae80",
"&!	c #808080",
"*!	c #e8aa78",
"(!	c #e8a874",
")!	c #e29e60",
"{!	c #e09052",
"}!	c #e08c50",
"[!	c #e0884b",
"]!	c #dc8d40",
"|!	c #dc8341",
"+!	c #a48a70",
"=!	c #968678",
"-!	c #b68658",
",!	c #d98538",
".!	c #da8434",
"<!	c #b67c48",
">!	c #8c6c50",
"/!	c #8c6a4e",
"?!	c #8c6448",
";!	c #8c6343",
":!	c #d97c38",
"a!	c #d87832",
"b!	c #d87630",
"c!	c #d87d2b",
"d!	c #d8762e",
"e!	c #d87a25",
"f!	c #d67822",
"g!	c #d87225",
"h!	c #d47622",
"j!	c #d86e22",
"i!	c #d5741d",
"k!	c #d27214",
"l!	c #d86c1e",
"m!	c #d5691a",
"n!	c #d46a14",
"o!	c #d26411",
"p!	c #d26d0d",
"q!	c #d0610a",
"r!	c #d06400",
"s!	c #d05e08",
"t!	c #d05d01",
"u!	c #b06e36",
"v!	c #b06626",
"w!	c #8a623e",
"x!	c #885c35",
"y!	c #865428",
"z!	c #7e7f7e",
"A!	c #6a676a",
"B!	c #605f60",
"C!	c #625044",
"D!	c #565456",
"E!	c #423f42",
"F!	c #604a3a",
"G!	c #684c34",
"H!	c #383438",
"I!	c #000000",
"J!	c #000000",
"K!	c #000000",
"L!	c #000000",
"M!	c #000000",
"N!	c #000000",
"O!	c #000000",
"P!	c #000000",
"Q!	c #000000",
"R!	c #000000",
"S!	c #000000",
"T!	c #000000",
"U!	c #000000",
"V!	c #000000",
"W!	c #000000",
"X!	c #000000",
"Y!	c #000000",
"Z!	c #000000",
"0!	c #000000",
"1!	c #000000",
"2!	c #000000",
"3!	c #000000",
"4!	c #000000",
"5!	c #000000",
"6!	c #000000",
"7!	c #000000",
"8!	c #000000",
"9!	c #000000",
"!@	c #000000",
"@@	c #000000",
"#@	c #000000",
"$@	c #000000",
"%@	c #000000",
"^@	c #000000",
"&@	c #000000",
"*@	c #000000",
"(@	c #000000",
")@	c #000000",
"{@	c #000000",
"}@	c #000000",
"[@	c #000000",
"]@	c #000000",
"|@	c #000000",
"+@	c #000000",
"=@	c #000000",
"-@	c #000000",
",@	c #000000",
".@	c #000000",
"<@	c #000000",
">@	c #000000",
"/@	c #000000",
"?@	c #000000",
";@	c #000000",
":@	c #000000",
"a@	c #000000",
"b@	c #000000",
"c@	c #000000",
"d@	c #000000",
"e@	c #000000",
"f@	c #000000",
"g@	c #000000",
"h@	c #000000",
"j@	c #000000",
"i@	c #000000",
"k@	c #000000",
"l@	c #000000",
"m@	c #000000",
"n@	c #000000",
"o@	c #000000",
"p@	c #000000",
"q@	c #000000",
"r@	c #000000",
"s@	c #000000",
"t@	c #000000",
"u@	c #000000",
"v@	c #000000",
"w@	c #000000",
"x@	c #000000",
"y@	c #000000",
"z@	c #000000",
"A@	c #000000",
"B@	c #000000",
"C@	c #000000",
"D@	c #000000",
"E@	c #000000",
"F@	c #000000",
"G@	c #000000",
"H@	c #000000",
"I@	c #000000",
"J@	c #000000",
"K@	c #000000",
"L@	c #000000",
"M@	c #000000",
"N@	c #000000",
"O@	c #000000",
"P@	c #000000",
"Q@	c #000000",
"R@	c #000000",
"S@	c #000000",
"T@	c #000000",
"U@	c #000000",
"V@	c #000000",
"W@	c #000000",
"X@	c #000000",
"Y@	c #000000",
"Z@	c #000000",
"0@	c #000000",
"1@	c #000000",
"2@	c #000000",
"3@	c #000000",
"4@	c #000000",
"5@	c #000000",
"6@	c #000000",
"7@	c #000000",
"8@	c #000000",
"9@	c #000000",
"!#	c #000000",
"@#	c #000000",
"##	c #000000",
"$#	c #000000",
"%#	c #000000",
"^#	c #000000",
"&#	c #000000",
"*#	c #000000",
"(#	c #000000",
")#	c #000000",
"{#	c #000000",
"}#	c #000000",
"[#	c #000000",
"]#	c #000000",
"|#	c #000000",
"+#	c #000000",
"=#	c #000000",
"-#	c #000000",
",#	c #000000",
".#	c #000000",
"<#	c #000000",
">#	c #000000",
"/#	c #000000",
"?#	c #000000",
";#	c #000000",
":#	c #000000",
"a#	c #000000",
"b#	c #000000",
"c#	c #000000",
"d#	c #000000",
"e#	c #000000",
"f#	c #000000",
"g#	c #000000",
"h#	c #000000",
"j#	c #000000",
"i#	c #000000",
"k#	c #000000",
"l#	c #000000",
"m#	c #000000",
"n#	c #000000",
"o#	c #000000",
"p#	c #000000",
"q#	c #000000",
"r#	c #000000",
"s#	c #000000",
"t#	c #000000",
"u#	c #000000",
"v#	c #000000",
"w#	c #000000",
"x#	c #000000",
"y#	c #000000",
"z#	c #000000",
"A#	c #000000",
"B#	c #000000",
"C#	c #000000",
"D#	c #000000",
"E#	c #000000",
"F#	c #000000",
"G#	c #000000",
"H#	c #000000",
"I#	c #000000",
"J#	c #000000",
"K#	c #000000",
"L#	c #000000",
"M#	c #000000",
"N#	c #000000",
"O#	c #000000",
"P#	c #000000",
"Q#	c #000000",
"R#	c #000000",
"S#	c #000000",
"T#	c #000000",
"U#	c #000000",
"V#	c #000000",
"W#	c #000000",
"X#	c #000000",
"Y#	c #000000",
"Z#	c #000000",
"0#	c #000000",
"1#	c #ffffff",

"    H!    %!p!r!r!r!%!          ",
"    H!H!F!H!e!p!r!r!r!r!]!      ",
"    H!-!H!H!|!i!r!r!r!r!t!]!    ",
"  +!H!%!^!H!]!e!r!r!r!r!t!o!]!  ",
"z!D!H!^!(!H!]!e!r!r!r!r!t!m!n!  ",
"H!H!<!=!B!H!.!i!r!r!r!r!t!m!a!%!",
"k!e!|!B!H!H!)!    ]!r!r!o!m!:!i!",
"r!p!h!v!y!i!        r!t!o!g!:!g!",
"r!r!r!r!r!r!        t!s!m!d!|!e!",
"r!r!r!r!r!r!]!    |!t!o!g!:!}!c!",
"%!r!r!r!r!r!r!r!t!t!o!j!:!|!{!%!",
"  r!r!r!r!r!r!t!t!o!l!a!|!}!c!  ",
"  ]!t!t!t!t!o!o!m!g!:!|!}!|!]!  ",
"    ]!o!m!m!m!g!d!:!|!}!|!]!    ",
"      ]!n!a!:!:!|!}!{!c!]!      ",
"          %!i!g!e!c!%!          ",
};

