/* XPM */
char * image_data[] = {
"16  16  257  2",
"  	c	None",
"!!	c #000000",
"@!	c #6060b9",
"#!	c #5959a6",
"$!	c #56569c",
"%!	c #7676bc",
"^!	c #a3a3ee",
"&!	c #656592",
"*!	c #a9a9f0",
"(!	c #7a7aad",
")!	c #aaaaee",
"{!	c #8080b3",
"}!	c #8383b6",
"[!	c #acaced",
"]!	c #b0b0ed",
"|!	c #9494c7",
"+!	c #b3b3ed",
"=!	c #b5b5ed",
"-!	c #a9a9dc",
",!	c #bcbcf0",
".!	c #666680",
"<!	c #71718b",
">!	c #b0b0d5",
"/!	c #a5a5c6",
"?!	c #9b9bb5",
";!	c #a3a3bd",
":!	c #9b9bb4",
"a!	c #7e7e92",
"b!	c #707081",
"c!	c #666675",
"d!	c #777788",
"e!	c #8a8a9d",
"f!	c #848496",
"g!	c #c2c2db",
"h!	c #9d9db1",
"j!	c #71717e",
"i!	c #55555e",
"k!	c #222225",
"l!	c #8d8d98",
"m!	c #7f7f89",
"n!	c #bfbfcc",
"o!	c #101011",
"p!	c #d2d2df",
"q!	c #acacb6",
"r!	c #232325",
"s!	c #515154",
"t!	c #323234",
"u!	c #bdbdc3",
"v!	c #8c8c90",
"w!	c #8f8f92",
"x!	c #9d9da0",
"y!	c #707072",
"z!	c #777778",
"A!	c #646465",
"B!	c #7f7f80",
"C!	c #707d73",
"D!	c #5e7e54",
"E!	c #f8f8f8",
"F!	c #f5f5f5",
"G!	c #f4f4f4",
"H!	c #f1f1f1",
"I!	c #efefef",
"J!	c #e9e9e9",
"K!	c #e6e6e6",
"L!	c #e1e1e1",
"M!	c #dddddd",
"N!	c #dbdbdb",
"O!	c #d8d8d8",
"P!	c #d5d5d5",
"Q!	c #d4d4d4",
"R!	c #d2d2d2",
"S!	c #d0d0d0",
"T!	c #cfcfcf",
"U!	c #cdcdcd",
"V!	c #cccccc",
"W!	c #cacaca",
"X!	c #c9c9c9",
"Y!	c #c6c6c6",
"Z!	c #c5c5c5",
"0!	c #c4c4c4",
"1!	c #c2c2c2",
"2!	c #bebebe",
"3!	c #bcbcbc",
"4!	c #bababa",
"5!	c #b9b9b9",
"6!	c #b7b7b7",
"7!	c #b6b6b6",
"8!	c #b4b4b4",
"9!	c #b0b0b0",
"!@	c #a9a9a9",
"@@	c #a8a8a8",
"#@	c #a6a6a6",
"$@	c #9e9e9e",
"%@	c #8e8e8e",
"^@	c #8b8b8b",
"&@	c #8a8a8a",
"*@	c #868686",
"(@	c #808080",
")@	c #777777",
"{@	c #767676",
"}@	c #727272",
"[@	c #707070",
"]@	c #6d6d6d",
"|@	c #6a6a6a",
"+@	c #666666",
"=@	c #626262",
"-@	c #5f5f5f",
",@	c #585858",
".@	c #535353",
"<@	c #505050",
">@	c #4a4a4a",
"/@	c #414141",
"?@	c #0e0e0e",
";@	c #000000",
":@	c #000000",
"a@	c #000000",
"b@	c #000000",
"c@	c #000000",
"d@	c #000000",
"e@	c #000000",
"f@	c #000000",
"g@	c #000000",
"h@	c #000000",
"j@	c #000000",
"i@	c #000000",
"k@	c #000000",
"l@	c #000000",
"m@	c #000000",
"n@	c #000000",
"o@	c #000000",
"p@	c #000000",
"q@	c #000000",
"r@	c #000000",
"s@	c #000000",
"t@	c #000000",
"u@	c #000000",
"v@	c #000000",
"w@	c #000000",
"x@	c #000000",
"y@	c #000000",
"z@	c #000000",
"A@	c #000000",
"B@	c #000000",
"C@	c #000000",
"D@	c #000000",
"E@	c #000000",
"F@	c #000000",
"G@	c #000000",
"H@	c #000000",
"I@	c #000000",
"J@	c #000000",
"K@	c #000000",
"L@	c #000000",
"M@	c #000000",
"N@	c #000000",
"O@	c #000000",
"P@	c #000000",
"Q@	c #000000",
"R@	c #000000",
"S@	c #000000",
"T@	c #000000",
"U@	c #000000",
"V@	c #000000",
"W@	c #000000",
"X@	c #000000",
"Y@	c #000000",
"Z@	c #000000",
"0@	c #000000",
"1@	c #000000",
"2@	c #000000",
"3@	c #000000",
"4@	c #000000",
"5@	c #000000",
"6@	c #000000",
"7@	c #000000",
"8@	c #000000",
"9@	c #000000",
"!#	c #000000",
"@#	c #000000",
"##	c #000000",
"$#	c #000000",
"%#	c #000000",
"^#	c #000000",
"&#	c #000000",
"*#	c #000000",
"(#	c #000000",
")#	c #000000",
"{#	c #000000",
"}#	c #000000",
"[#	c #000000",
"]#	c #000000",
"|#	c #000000",
"+#	c #000000",
"=#	c #000000",
"-#	c #000000",
",#	c #000000",
".#	c #000000",
"<#	c #000000",
">#	c #000000",
"/#	c #000000",
"?#	c #000000",
";#	c #000000",
":#	c #000000",
"a#	c #000000",
"b#	c #000000",
"c#	c #000000",
"d#	c #000000",
"e#	c #000000",
"f#	c #000000",
"g#	c #000000",
"h#	c #000000",
"j#	c #000000",
"i#	c #000000",
"k#	c #000000",
"l#	c #000000",
"m#	c #000000",
"n#	c #000000",
"o#	c #000000",
"p#	c #000000",
"q#	c #000000",
"r#	c #000000",
"s#	c #000000",
"t#	c #000000",
"u#	c #000000",
"v#	c #000000",
"w#	c #000000",
"x#	c #000000",
"y#	c #000000",
"z#	c #000000",
"A#	c #000000",
"B#	c #000000",
"C#	c #000000",
"D#	c #000000",
"E#	c #000000",
"F#	c #000000",
"G#	c #000000",
"H#	c #000000",
"I#	c #000000",
"J#	c #000000",
"K#	c #000000",
"L#	c #000000",
"M#	c #000000",
"N#	c #000000",
"O#	c #000000",
"P#	c #000000",
"Q#	c #000000",
"R#	c #000000",
"S#	c #000000",
"T#	c #000000",
"U#	c #000000",
"V#	c #000000",
"W#	c #000000",
"X#	c #000000",
"Y#	c #000000",
"Z#	c #000000",
"0#	c #000000",
"1#	c #000000",

"                                ",
"            p!p!p!p!N!%!x!      ",
"          ,!#!Y!Y!5!Q!#!-@x!    ",
"          =!#!3!$@7!O!#!>@x!    ",
"          +!#!9!n!;!{!@!>@x!    ",
"          ]!@!$!(!<!.!#!>@x!    ",
"          [!#!g!?!V!;!#!>@x!    ",
"        4!)!#!}!|!E!:!#!>@x!    ",
"  4!Q!M!I!*!#!}!-!L!e!&!=@x!    ",
"0!K!G!F!H!^!#!Z!4!!@W!#@*@z!x!  ",
"6!2!Z!P!J!u!8!Q!#@*@{@v!m!D!C!^@",
"*@1!T!1!4!X!U!^@B!A!r!y!k!>!a!]@",
"  *@@@S!R!Z!)@w!t!o!?@j!/!b!s!{@",
"    *@|@&@@@+@q!d!h!f!i!>@-@%@  ",
"        *@}@,@l!c!/@.@[@*@      ",
"            *@(@<@{@            ",
};

