/* XPM */
char * image_data[] = {
"16  16  257  2",
"  	c	None",
"!!	c #000000",
"@!	c #9898b7",
"#!	c #76768a",
"$!	c #646474",
"%!	c #808093",
"^!	c #757584",
"&!	c #515159",
"*!	c #ccccde",
"(!	c #84848e",
")!	c #505056",
"{!	c #434348",
"}!	c #4c4c51",
"[!	c #6d6d73",
"]!	c #3b3b3e",
"|!	c #6f6f74",
"+!	c #424245",
"=!	c #77777c",
"-!	c #88888d",
",!	c #4b4b4e",
".!	c #8a8a8f",
"<!	c #eaeaee",
">!	c #7b7b7c",
"/!	c #99999a",
"?!	c #fcfcfc",
";!	c #f7f7f7",
":!	c #f2f2f2",
"a!	c #ececec",
"b!	c #e6e6e6",
"c!	c #e1e1e1",
"d!	c #dfdfdf",
"e!	c #dedede",
"f!	c #d8d8d8",
"g!	c #d3d3d3",
"h!	c #d1d1d1",
"j!	c #d0d0d0",
"i!	c #cacaca",
"k!	c #c9c9c9",
"l!	c #c7c7c7",
"m!	c #c3c3c3",
"n!	c #c0c0c0",
"o!	c #bababa",
"p!	c #b9b9b9",
"q!	c #b8b8b8",
"r!	c #b5b5b5",
"s!	c #aeaeae",
"t!	c #a5a5a5",
"u!	c #a4a4a4",
"v!	c #a3a3a3",
"w!	c #9f9f9f",
"x!	c #9c9c9c",
"y!	c #989898",
"z!	c #929292",
"A!	c #8e8e8e",
"B!	c #8c8c8c",
"C!	c #898989",
"D!	c #888888",
"E!	c #828282",
"F!	c #818181",
"G!	c #808080",
"H!	c #7f7f7f",
"I!	c #7c7c7c",
"J!	c #7a7a7a",
"K!	c #787878",
"L!	c #747474",
"M!	c #717171",
"N!	c #707070",
"O!	c #6b6b6b",
"P!	c #6a6a6a",
"Q!	c #666666",
"R!	c #616161",
"S!	c #5c5c5c",
"T!	c #555555",
"U!	c #515151",
"V!	c #4d4d4d",
"W!	c #494949",
"X!	c #333333",
"Y!	c #000000",
"Z!	c #000000",
"0!	c #000000",
"1!	c #000000",
"2!	c #000000",
"3!	c #000000",
"4!	c #000000",
"5!	c #000000",
"6!	c #000000",
"7!	c #000000",
"8!	c #000000",
"9!	c #000000",
"!@	c #000000",
"@@	c #000000",
"#@	c #000000",
"$@	c #000000",
"%@	c #000000",
"^@	c #000000",
"&@	c #000000",
"*@	c #000000",
"(@	c #000000",
")@	c #000000",
"{@	c #000000",
"}@	c #000000",
"[@	c #000000",
"]@	c #000000",
"|@	c #000000",
"+@	c #000000",
"=@	c #000000",
"-@	c #000000",
",@	c #000000",
".@	c #000000",
"<@	c #000000",
">@	c #000000",
"/@	c #000000",
"?@	c #000000",
";@	c #000000",
":@	c #000000",
"a@	c #000000",
"b@	c #000000",
"c@	c #000000",
"d@	c #000000",
"e@	c #000000",
"f@	c #000000",
"g@	c #000000",
"h@	c #000000",
"j@	c #000000",
"i@	c #000000",
"k@	c #000000",
"l@	c #000000",
"m@	c #000000",
"n@	c #000000",
"o@	c #000000",
"p@	c #000000",
"q@	c #000000",
"r@	c #000000",
"s@	c #000000",
"t@	c #000000",
"u@	c #000000",
"v@	c #000000",
"w@	c #000000",
"x@	c #000000",
"y@	c #000000",
"z@	c #000000",
"A@	c #000000",
"B@	c #000000",
"C@	c #000000",
"D@	c #000000",
"E@	c #000000",
"F@	c #000000",
"G@	c #000000",
"H@	c #000000",
"I@	c #000000",
"J@	c #000000",
"K@	c #000000",
"L@	c #000000",
"M@	c #000000",
"N@	c #000000",
"O@	c #000000",
"P@	c #000000",
"Q@	c #000000",
"R@	c #000000",
"S@	c #000000",
"T@	c #000000",
"U@	c #000000",
"V@	c #000000",
"W@	c #000000",
"X@	c #000000",
"Y@	c #000000",
"Z@	c #000000",
"0@	c #000000",
"1@	c #000000",
"2@	c #000000",
"3@	c #000000",
"4@	c #000000",
"5@	c #000000",
"6@	c #000000",
"7@	c #000000",
"8@	c #000000",
"9@	c #000000",
"!#	c #000000",
"@#	c #000000",
"##	c #000000",
"$#	c #000000",
"%#	c #000000",
"^#	c #000000",
"&#	c #000000",
"*#	c #000000",
"(#	c #000000",
")#	c #000000",
"{#	c #000000",
"}#	c #000000",
"[#	c #000000",
"]#	c #000000",
"|#	c #000000",
"+#	c #000000",
"=#	c #000000",
"-#	c #000000",
",#	c #000000",
".#	c #000000",
"<#	c #000000",
">#	c #000000",
"/#	c #000000",
"?#	c #000000",
";#	c #000000",
":#	c #000000",
"a#	c #000000",
"b#	c #000000",
"c#	c #000000",
"d#	c #000000",
"e#	c #000000",
"f#	c #000000",
"g#	c #000000",
"h#	c #000000",
"j#	c #000000",
"i#	c #000000",
"k#	c #000000",
"l#	c #000000",
"m#	c #000000",
"n#	c #000000",
"o#	c #000000",
"p#	c #000000",
"q#	c #000000",
"r#	c #000000",
"s#	c #000000",
"t#	c #000000",
"u#	c #000000",
"v#	c #000000",
"w#	c #000000",
"x#	c #000000",
"y#	c #000000",
"z#	c #000000",
"A#	c #000000",
"B#	c #000000",
"C#	c #000000",
"D#	c #000000",
"E#	c #000000",
"F#	c #000000",
"G#	c #000000",
"H#	c #000000",
"I#	c #000000",
"J#	c #000000",
"K#	c #000000",
"L#	c #000000",
"M#	c #000000",
"N#	c #000000",
"O#	c #000000",
"P#	c #000000",
"Q#	c #000000",
"R#	c #000000",
"S#	c #000000",
"T#	c #000000",
"U#	c #000000",
"V#	c #000000",
"W#	c #000000",
"X#	c #000000",
"Y#	c #000000",
"Z#	c #000000",
"0#	c #000000",
"1#	c #000000",

"                                ",
"                                ",
"                                ",
"                                ",
"        n!n!n!n!n!n!n!          ",
"  n!o!K!O!q!:!?!a!d!;!i!n!n!    ",
"p!g!e!l!c!d!:!?!a!d!;!<!*!.!-!  ",
"w!x!r!l!c!b!j!f!h!m!/!=!+!%!^!I!",
"C!s!y!E!u!p!h!A!K!O!F!R!X!@!#!P!",
"  D!D!k!v!H!E!>!V!N!I![!$!)!U!J!",
"      G!L!B!t!|!]!{!&!,!T!M!    ",
"          z!Q!(!}!W!S!M!        ",
"              C!C!C!            ",
"                                ",
"                                ",
"                                ",
};

