/* XPM */
char * image_data[] = {
"16  16  257  2",
"  	c	None",
"!!	c #003f98",
"@!	c #004bb1",
"#!	c #005bc1",
"$!	c #005fc5",
"%!	c #006600",
"^!	c #00660d",
"&!	c #00681c",
"*!	c #006900",
"(!	c #006910",
")!	c #006b00",
"{!	c #006cd2",
"}!	c #006f00",
"[!	c #006f2f",
"]!	c #007000",
"|!	c #007100",
"+!	c #007419",
"=!	c #0074da",
"-!	c #00750f",
",!	c #0078ce",
".!	c #007b00",
"<!	c #007de3",
">!	c #007e00",
"/!	c #007e44",
"?!	c #0080e6",
";!	c #008400",
":!	c #008448",
"a!	c #008500",
"b!	c #0088b0",
"c!	c #008c65",
"d!	c #009000",
"e!	c #0093d9",
"f!	c #026703",
"g!	c #037eb4",
"h!	c #0398fd",
"j!	c #05636c",
"i!	c #056c02",
"k!	c #057a66",
"l!	c #06660d",
"m!	c #066c03",
"n!	c #076d04",
"o!	c #087ddb",
"p!	c #089bed",
"q!	c #0a5f64",
"r!	c #0a85bb",
"s!	c #0d7306",
"t!	c #0da007",
"u!	c #107808",
"v!	c #10a017",
"w!	c #139b91",
"x!	c #165784",
"y!	c #199b8c",
"z!	c #1aa62d",
"A!	c #1d6444",
"B!	c #1da61d",
"C!	c #1da73e",
"D!	c #1f3b70",
"E!	c #1f5589",
"F!	c #216643",
"G!	c #2170c6",
"H!	c #22597f",
"I!	c #26a63d",
"J!	c #26ad14",
"K!	c #2889cf",
"L!	c #2c75c6",
"M!	c #2c89da",
"N!	c #2db0ff",
"O!	c #30b118",
"P!	c #36b41b",
"Q!	c #3ab61d",
"R!	c #3ab665",
"S!	c #3d6679",
"T!	c #3e688c",
"U!	c #3eb81f",
"V!	c #40b920",
"W!	c #46bcff",
"X!	c #478984",
"Y!	c #47a2e5",
"Z!	c #48bd24",
"0!	c #49be4e",
"1!	c #4d4d4d",
"2!	c #51c229",
"3!	c #547693",
"4!	c #55829b",
"5!	c #56c42b",
"6!	c #5aacc8",
"7!	c #5dc69e",
"8!	c #60c930",
"9!	c #60c9ff",
"!@	c #61c86f",
"@@	c #63ca35",
"#@	c #69ce39",
"$@	c #69ce81",
"%@	c #6bce3c",
"^@	c #6dcf3d",
"&@	c #6dd33a",
"*@	c #76d44b",
"(@	c #78b8ce",
")@	c #78d54d",
"{@	c #7ae047",
"}@	c #7bd755",
"[@	c #80c2ad",
"]@	c #86dc63",
"|@	c #88dddb",
"+@	c #8bdf6a",
"=@	c #8ce086",
"-@	c #90e199",
",@	c #93e376",
".@	c #96e47b",
"<@	c #9ce7a4",
">@	c #9ee8ad",
"/@	c #a2e1a4",
"?@	c #a8ceee",
";@	c #aceba7",
":@	c #acef9d",
"a@	c #b6f2bf",
"b@	c #b6f4b7",
"c@	c #b8f4b0",
"d@	c #000000",
"e@	c #000000",
"f@	c #000000",
"g@	c #000000",
"h@	c #000000",
"j@	c #000000",
"i@	c #000000",
"k@	c #000000",
"l@	c #000000",
"m@	c #000000",
"n@	c #000000",
"o@	c #000000",
"p@	c #000000",
"q@	c #000000",
"r@	c #000000",
"s@	c #000000",
"t@	c #000000",
"u@	c #000000",
"v@	c #000000",
"w@	c #000000",
"x@	c #000000",
"y@	c #000000",
"z@	c #000000",
"A@	c #000000",
"B@	c #000000",
"C@	c #000000",
"D@	c #000000",
"E@	c #000000",
"F@	c #000000",
"G@	c #000000",
"H@	c #000000",
"I@	c #000000",
"J@	c #000000",
"K@	c #000000",
"L@	c #000000",
"M@	c #000000",
"N@	c #000000",
"O@	c #000000",
"P@	c #000000",
"Q@	c #000000",
"R@	c #000000",
"S@	c #000000",
"T@	c #000000",
"U@	c #000000",
"V@	c #000000",
"W@	c #000000",
"X@	c #000000",
"Y@	c #000000",
"Z@	c #000000",
"0@	c #000000",
"1@	c #000000",
"2@	c #000000",
"3@	c #000000",
"4@	c #000000",
"5@	c #000000",
"6@	c #000000",
"7@	c #000000",
"8@	c #000000",
"9@	c #000000",
"!#	c #000000",
"@#	c #000000",
"##	c #000000",
"$#	c #000000",
"%#	c #000000",
"^#	c #000000",
"&#	c #000000",
"*#	c #000000",
"(#	c #000000",
")#	c #000000",
"{#	c #000000",
"}#	c #000000",
"[#	c #000000",
"]#	c #000000",
"|#	c #000000",
"+#	c #000000",
"=#	c #000000",
"-#	c #000000",
",#	c #000000",
".#	c #000000",
"<#	c #000000",
">#	c #000000",
"/#	c #000000",
"?#	c #000000",
";#	c #000000",
":#	c #000000",
"a#	c #000000",
"b#	c #000000",
"c#	c #000000",
"d#	c #000000",
"e#	c #000000",
"f#	c #000000",
"g#	c #000000",
"h#	c #000000",
"j#	c #000000",
"i#	c #000000",
"k#	c #000000",
"l#	c #000000",
"m#	c #000000",
"n#	c #000000",
"o#	c #000000",
"p#	c #000000",
"q#	c #000000",
"r#	c #000000",
"s#	c #000000",
"t#	c #000000",
"u#	c #000000",
"v#	c #000000",
"w#	c #000000",
"x#	c #000000",
"y#	c #000000",
"z#	c #000000",
"A#	c #000000",
"B#	c #000000",
"C#	c #000000",
"D#	c #000000",
"E#	c #000000",
"F#	c #000000",
"G#	c #000000",
"H#	c #000000",
"I#	c #000000",
"J#	c #000000",
"K#	c #000000",
"L#	c #000000",
"M#	c #000000",
"N#	c #000000",
"O#	c #000000",
"P#	c #000000",
"Q#	c #000000",
"R#	c #000000",
"S#	c #000000",
"T#	c #000000",
"U#	c #000000",
"V#	c #000000",
"W#	c #000000",
"X#	c #000000",
"Y#	c #000000",
"Z#	c #000000",
"0#	c #000000",
"1#	c #000000",

"        1!%!%!%!%!%!%!          ",
"        1!%!t!t!t!t!%!          ",
"    1!1!1!%!J!J!J!J!%!1!1!      ",
"  1!%!%!%!%!V!V!V!V!%!%!%!%!    ",
"  1!?@i!8!8!8!8!8!8!8!8!u!?@    ",
"  D!D!?@m!&@&@&@&@&@&@s!?@!!    ",
"1!D!S!A!?@^!{@{@{@{@n!?@#!@!L!  ",
"1!E!F!f!|!?@&!{@{@*!?@,!{!$!G!  ",
"1!x!l!]!.!:!?@[!(!?@z!v!g!{!#!  ",
"1!j!)!+!a!b!h!?@?@R!Q!O!B!=!M!  ",
"1!q!}!>!d!e!N!9!$@^@#@5!P!r!Y!  ",
"  H!-!;!c!p!W!|@;@.@-@)@2!I!    ",
"  1!k!/!?!C!0!}@a@c@:@+@@@!@    ",
"    T!o!<!w!Z!*@<@b@>@+@7!      ",
"      3!K!y!U!%@]@,@=@/@        ",
"          4!X!6![@(@            ",
};

