/* XPM */
char * image_data[] = {
"16  16  257  2",
"  	c	None",
"!!	c #000000",
"@!	c #ffffff",
"#!	c #000000",
"$!	c #505083",
"%!	c #545487",
"^!	c #565689",
"&!	c #565687",
"*!	c #acacff",
"(!	c #ccccff",
")!	c #ccccf2",
"{!	c #fdfdff",
"}!	c #fefeff",
"[!	c #58598b",
"]!	c #5b5c8d",
"|!	c #5e5f90",
"+!	c #606292",
"=!	c #646694",
"-!	c #696b9b",
",!	c #7176a5",
".!	c #7b80aa",
"<!	c #4e5686",
">!	c #7380b3",
"/!	c #bbc9ff",
"?!	c #95a5cb",
";!	c #99acd2",
":!	c #eeeff1",
"a!	c #33476a",
"b!	c #b1ccff",
"c!	c #9eb5dc",
"d!	c #90a3c1",
"e!	c #3f5069",
"f!	c #abcdff",
"g!	c #576477",
"h!	c #31445e",
"j!	c #344f71",
"i!	c #5e728a",
"k!	c #1f69bd",
"l!	c #1d3c60",
"m!	c #2f4d6d",
"n!	c #435d79",
"o!	c #557598",
"p!	c #536d8b",
"q!	c #91b9e5",
"r!	c #a0c0e5",
"s!	c #bed6f0",
"t!	c #cfe6ff",
"u!	c #d2e5fa",
"v!	c #e4f1ff",
"w!	c #d3dfec",
"x!	c #e6edf5",
"y!	c #f2f8ff",
"z!	c #2e85da",
"A!	c #3475b6",
"B!	c #3d6a96",
"C!	c #355679",
"D!	c #4c6e91",
"E!	c #96c6f9",
"F!	c #6381a0",
"G!	c #6e8dac",
"H!	c #b1d8ff",
"I!	c #afd5fc",
"J!	c #b2d9ff",
"K!	c #b1d7fd",
"L!	c #b5daff",
"M!	c #b5d9ff",
"N!	c #b6dbff",
"O!	c #b4d7fb",
"P!	c #a8c9eb",
"Q!	c #b8dbfe",
"R!	c #baddff",
"S!	c #b4d5f5",
"T!	c #bedeff",
"U!	c #bbdbfb",
"V!	c #c2e0ff",
"W!	c #c5e2ff",
"X!	c #bfdbf7",
"Y!	c #c7e3ff",
"Z!	c #c9e4ff",
"0!	c #cae4ff",
"1!	c #c5def7",
"2!	c #d2e8ff",
"3!	c #cde2f7",
"4!	c #aabbcc",
"5!	c #d6eaff",
"6!	c #caddf0",
"7!	c #d8ebff",
"8!	c #c4d6e8",
"9!	c #dbedff",
"!@	c #deeeff",
"@@	c #e1f0ff",
"#@	c #e9f4ff",
"$@	c #ebf5ff",
"%@	c #dde6ef",
"^@	c #edf6ff",
"&@	c #e8f1fa",
"*@	c #eff7ff",
"(@	c #f5faff",
")@	c #f4f9fe",
"{@	c #f7fbff",
"}@	c #fdfeff",
"[@	c #2f8fe4",
"]@	c #2e88df",
"|@	c #2c83d5",
"+@	c #3192ea",
"=@	c #358bdb",
"-@	c #3992e3",
",@	c #224e75",
".@	c #2a5e8d",
"<@	c #3f73a2",
">@	c #5689b9",
"/@	c #436585",
"?@	c #8aafd2",
";@	c #83a6c5",
":@	c #a9d1f7",
"a@	c #b7dcff",
"b@	c #b5d2ee",
"c@	c #77899a",
"d@	c #c7e4ff",
"e@	c #8a9eb1",
"f@	c #cce6ff",
"g@	c #9eb2c5",
"h@	c #b9cee2",
"j@	c #b2c4d5",
"i@	c #d8e9f9",
"k@	c #d4e3f1",
"l@	c #c5d2de",
"m@	c #e4f2ff",
"n@	c #e6f3ff",
"o@	c #0075db",
"p@	c #2c93e6",
"q@	c #2e94e8",
"r@	c #2b8bdc",
"s@	c #267abf",
"t@	c #3299ed",
"u@	c #3297ec",
"v@	c #3296e7",
"w@	c #369aef",
"x@	c #399ef2",
"y@	c #3da2f4",
"z@	c #3b84c0",
"A@	c #4a92cd",
"B@	c #487eaa",
"C@	c #639bc8",
"D@	c #71aad9",
"E@	c #7d9ebb",
"F@	c #7e98ae",
"G@	c #d1dce5",
"H@	c #eef5fb",
"I@	c #268bd9",
"J@	c #2485cf",
"K@	c #2994e5",
"L@	c #2d96e7",
"M@	c #2c94e4",
"N@	c #3099ea",
"O@	c #2a87cc",
"P@	c #339eee",
"Q@	c #359fef",
"R@	c #40a8f8",
"S@	c #21537b",
"T@	c #3e9ae3",
"U@	c #2e70a1",
"V@	c #3e8ecb",
"W@	c #7ac4fb",
"X@	c #e6ebef",
"Y@	c #f8fcff",
"Z@	c #008ff5",
"0@	c #2288cf",
"1@	c #2795e2",
"2@	c #2999e6",
"3@	c #2996e5",
"4@	c #2c9dea",
"5@	c #2c99e7",
"6@	c #288bd3",
"7@	c #36abff",
"8@	c #37a5f1",
"9@	c #3aa9f3",
"!#	c #3eadf9",
"@#	c #3996d9",
"##	c #53b9fd",
"$#	c #5caae2",
"%#	c #6595b6",
"^#	c #e4f3fd",
"&#	c #fafdff",
"*#	c #269ae4",
"(#	c #299de6",
")#	c #2893d8",
"{#	c #2fa0e9",
"}#	c #359cdf",
"[#	c #43aef4",
"]#	c #47b4fa",
"|#	c #49aceb",
"+#	c #6cb9ea",
"=#	c #c2e7ff",
"-#	c #e7f5fe",
",#	c #28acfa",
".#	c #2aa4ea",
"<#	c #29a1e7",
">#	c #299fe0",
"/#	c #30a8eb",
"?#	c #35b4f9",
";#	c #34acf3",
":#	c #2a8cc5",
"a#	c #3bb1f5",
"b#	c #56b1e3",
"c#	c #90bbd4",
"d#	c #2baaec",
"e#	c #35b3f3",
"f#	c #3bbbfc",
"g#	c #3bb1ec",
"h#	c #2fb0ef",
"j#	c #3bbcf7",
"i#	c #4cacda",
"k#	c #67cbfa",
"l#	c #67b6db",
"m#	c #2fb6f1",
"n#	c #36baf3",
"o#	c #59c9f8",
"p#	c #7bc4e1",
"q#	c #86c4df",
"r#	c #b4e6fb",
"s#	c #daf1fb",
"t#	c #41c4f6",
"u#	c #44c9f8",
"v#	c #4bb9e3",
"w#	c #73d6fc",
"x#	c #88d2ec",
"y#	c #95e0fb",
"z#	c #a3daef",
"A#	c #c3e6f3",
"B#	c #4ec2e8",
"C#	c #5cc4e5",
"D#	c #96d8ed",
"E#	c #9acee0",
"F#	c #c5e2eb",
"G#	c #fbfeff",
"H#	c #60c9e6",
"I#	c #76d0eb",
"J#	c #84e1fc",
"K#	c #a1e6f9",
"L#	c #4dd4f8",
"M#	c #57d7f6",
"N#	c #8fe9fe",
"O#	c #d9ecf1",
"P#	c #60e5fb",
"Q#	c #65ddf4",
"R#	c #9bedfd",
"S#	c #b4f6ff",
"T#	c #95f5ff",
"U#	c #a9f6ff",
"V#	c #70f3fc",
"W#	c #b2feff",
"X#	c #befeff",
"Y#	c #fdfdfd",
"Z#	c #fafafa",
"0#	c #f5f5f5",
"1#	c #707070",

"      ?@?@?@?@?@?@?@?@>!        ",
"      ?@}@@!@!@!@!@!@!>!C@      ",
"      ?@@!@!x!8!?@?@b@>!/!T@    ",
"      ?@C@>@C@>@>@@!n#-!-!-!.!  ",
"    >@>@N#V#u#n#C@@!+#x!y!/!.!1#",
"  %#C@A#/#:#:#*#.#B@@!$@$@/!,!1#",
"  >@  ;@U@r!@!s@R@@#G!i@m@/!-!1#",
">@  ;@m#0@|#|#=@t@R@B@h@9!/!-!1#",
"  ;@u#*#.@.@.@.@.@.@B!h@2!b!+!1#",
";@w#U@3@.@E!=#=#=#Y!0!P!0!b![!1#",
">@@#U@3@q@A!r!O@O@O@/@b@W!f!%!1#",
"}#  V@U@w@u@9@I#+#h!c#U!T!f!$!1#",
"D@;@  V@.@l!a!l!/@c!s!(!V!f!$!1#",
"  D@D@D@(!r!c!h@(!X!(!Y!(!f!%!1#",
"      [![!^!^!^![!^![!^![![!^!1#",
"        1#1#1#1#1#1#1#1#1#1#1#1#",
};

