/* XPM */
char * image_data[] = {
"16  16  54  2",
"  	c	None",
"!!	c #000000",
"@!	c #ffffff",
"#!	c #f6f6f6",
"$!	c #dfdfdf",
"%!	c #d6d6d6",
"^!	c #c8c8c8",
"&!	c #838383",
"*!	c #6d6d6d",
"(!	c #b5821d",
")!	c #b3811b",
"{!	c #b07e18",
"}!	c #ae7c16",
"[!	c #ab7913",
"]!	c #a87610",
"|!	c #a5730d",
"+!	c #a3710b",
"=!	c #a06e08",
"-!	c #9e6c06",
",!	c #9c6a04",
".!	c #9a6802",
"<!	c #996701",
">!	c #4c4c4c",
"/!	c #ba8722",
"?!	c #ffcc67",
";!	c #b88520",
":!	c #ffff99",
"a!	c #ffd46f",
"b!	c #d3a03b",
"c!	c #6e6e6e",
"d!	c #bd8a25",
"e!	c #bf8c27",
"f!	c #ffe07b",
"g!	c #dca944",
"h!	c #c08d28",
"j!	c #c5922d",
"i!	c #ffeb85",
"k!	c #e6b34e",
"l!	c #c28f2a",
"m!	c #cb9833",
"n!	c #fff791",
"o!	c #efbc57",
"p!	c #cc9934",
"q!	c #f8c560",
"r!	c #c7942f",
"s!	c #ffe681",
"t!	c #8c8c8c",
"u!	c #c99631",
"v!	c #bc8924",
"w!	c #b4811c",
"x!	c #fff48e",
"y!	c #dedede",
"z!	c #b7841f",
"A!	c #f7f7f7",
"                                ",
"    p!m!u!r!$!#!                ",
"  p!@!@!@!@!l!^!#!              ",
"p!@!:!:!:!:!@!d!/!z!(!)!{!$!A!  ",
"m!n!x!x!x!x!x!@!@!@!@!@!}!t!y!@!",
"u!i!s!j!j!j!j!j!j!h!v!;!w!)!)!$!",
"r!f!j!@!@!@!@!@!@!@!@!@!s!@!+!t!",
"j!a!p!:!:!:!:!:!:!:!:!:!q!:!=!c!",
"l!?!m!:!n!n!n!n!n!n!n!n!o!:!-!*!",
"h!?!j!:!i!i!i!i!i!i!i!i!k!:!,!*!",
"d!?!e!:!f!f!f!f!f!f!f!f!g!:!.!*!",
"/!?!;!:!a!a!a!a!a!a!a!a!b!:!<!c!",
"$!(!)!{!}![!]!|!+!=!-!,!.!<!>!&!",
"#!^!&!*!*!*!*!*!*!*!*!*!*!*!&!^!",
"@!#!$!%!%!%!%!%!%!%!%!%!%!%!$!#!",
"                                ",
};

