/* XPM */
char * image_data[] = {
"16  16  257  2",
"  	c	None",
"!!	c #ffffff",
"@!	c #99ccff",
"#!	c #ffff99",
"$!	c #fff791",
"%!	c #fff48e",
"^!	c #ffeb85",
"&!	c #ffe680",
"*!	c #66ccff",
"(!	c #33cccc",
")!	c #6699cc",
"{!	c #0099cc",
"}!	c #006699",
"[!	c #ffd46e",
"]!	c #ffcc66",
"|!	c #f8c55f",
"+!	c #dca943",
"=!	c #d3a03a",
"-!	c #cc9933",
",!	c #c5922c",
".!	c #c28f29",
"<!	c #bd8a24",
">!	c #ba8721",
"/!	c #b8851f",
"?!	c #b4811b",
";!	c #b07d17",
":!	c #ad7a14",
"a!	c #a8750f",
"b!	c #a4710b",
"c!	c #a06d07",
"d!	c #9d6a04",
"e!	c #9a6701",
"f!	c #666666",
"g!	c #003333",
"h!	c #040404",
"j!	c #000000",
"i!	c #000000",
"k!	c #000000",
"l!	c #000000",
"m!	c #000000",
"n!	c #000000",
"o!	c #000000",
"p!	c #000000",
"q!	c #000000",
"r!	c #000000",
"s!	c #000000",
"t!	c #000000",
"u!	c #000000",
"v!	c #000000",
"w!	c #000000",
"x!	c #000000",
"y!	c #000000",
"z!	c #000000",
"A!	c #000000",
"B!	c #000000",
"C!	c #000000",
"D!	c #000000",
"E!	c #000000",
"F!	c #000000",
"G!	c #000000",
"H!	c #000000",
"I!	c #000000",
"J!	c #000000",
"K!	c #000000",
"L!	c #000000",
"M!	c #000000",
"N!	c #000000",
"O!	c #000000",
"P!	c #000000",
"Q!	c #000000",
"R!	c #000000",
"S!	c #000000",
"T!	c #000000",
"U!	c #000000",
"V!	c #000000",
"W!	c #000000",
"X!	c #000000",
"Y!	c #000000",
"Z!	c #000000",
"0!	c #000000",
"1!	c #000000",
"2!	c #000000",
"3!	c #000000",
"4!	c #000000",
"5!	c #000000",
"6!	c #000000",
"7!	c #000000",
"8!	c #000000",
"9!	c #000000",
"!@	c #000000",
"@@	c #000000",
"#@	c #000000",
"$@	c #000000",
"%@	c #000000",
"^@	c #000000",
"&@	c #000000",
"*@	c #000000",
"(@	c #000000",
")@	c #000000",
"{@	c #000000",
"}@	c #000000",
"[@	c #000000",
"]@	c #000000",
"|@	c #000000",
"+@	c #000000",
"=@	c #000000",
"-@	c #000000",
",@	c #000000",
".@	c #000000",
"<@	c #000000",
">@	c #000000",
"/@	c #000000",
"?@	c #000000",
";@	c #000000",
":@	c #000000",
"a@	c #000000",
"b@	c #000000",
"c@	c #000000",
"d@	c #000000",
"e@	c #000000",
"f@	c #000000",
"g@	c #000000",
"h@	c #000000",
"j@	c #000000",
"i@	c #000000",
"k@	c #000000",
"l@	c #000000",
"m@	c #000000",
"n@	c #000000",
"o@	c #000000",
"p@	c #000000",
"q@	c #000000",
"r@	c #000000",
"s@	c #000000",
"t@	c #000000",
"u@	c #000000",
"v@	c #000000",
"w@	c #000000",
"x@	c #000000",
"y@	c #000000",
"z@	c #000000",
"A@	c #000000",
"B@	c #000000",
"C@	c #000000",
"D@	c #000000",
"E@	c #000000",
"F@	c #000000",
"G@	c #000000",
"H@	c #000000",
"I@	c #000000",
"J@	c #000000",
"K@	c #000000",
"L@	c #000000",
"M@	c #000000",
"N@	c #000000",
"O@	c #000000",
"P@	c #000000",
"Q@	c #000000",
"R@	c #000000",
"S@	c #000000",
"T@	c #000000",
"U@	c #000000",
"V@	c #000000",
"W@	c #000000",
"X@	c #000000",
"Y@	c #000000",
"Z@	c #000000",
"0@	c #000000",
"1@	c #000000",
"2@	c #000000",
"3@	c #000000",
"4@	c #000000",
"5@	c #000000",
"6@	c #000000",
"7@	c #000000",
"8@	c #000000",
"9@	c #000000",
"!#	c #000000",
"@#	c #000000",
"##	c #000000",
"$#	c #000000",
"%#	c #000000",
"^#	c #000000",
"&#	c #000000",
"*#	c #000000",
"(#	c #000000",
")#	c #000000",
"{#	c #000000",
"}#	c #000000",
"[#	c #000000",
"]#	c #000000",
"|#	c #000000",
"+#	c #000000",
"=#	c #000000",
"-#	c #000000",
",#	c #000000",
".#	c #000000",
"<#	c #000000",
">#	c #000000",
"/#	c #000000",
"?#	c #000000",
";#	c #000000",
":#	c #000000",
"a#	c #000000",
"b#	c #000000",
"c#	c #000000",
"d#	c #000000",
"e#	c #000000",
"f#	c #000000",
"g#	c #000000",
"h#	c #000000",
"j#	c #000000",
"i#	c #000000",
"k#	c #000000",
"l#	c #000000",
"m#	c #000000",
"n#	c #000000",
"o#	c #000000",
"p#	c #000000",
"q#	c #000000",
"r#	c #000000",
"s#	c #000000",
"t#	c #000000",
"u#	c #000000",
"v#	c #000000",
"w#	c #000000",
"x#	c #000000",
"y#	c #000000",
"z#	c #000000",
"A#	c #000000",
"B#	c #000000",
"C#	c #000000",
"D#	c #000000",
"E#	c #000000",
"F#	c #000000",
"G#	c #000000",
"H#	c #000000",
"I#	c #000000",
"J#	c #000000",
"K#	c #000000",
"L#	c #000000",
"M#	c #000000",
"N#	c #000000",
"O#	c #000000",
"P#	c #000000",
"Q#	c #000000",
"R#	c #000000",
"S#	c #000000",
"T#	c #000000",
"U#	c #000000",
"V#	c #000000",
"W#	c #000000",
"X#	c #000000",
"Y#	c #000000",
"Z#	c #000000",
"0#	c #000000",
"1#	c #ffffff",

"    -!-!,!    h!h!h!h!h!h!g!    ",
"  -!!!!!!!.!h!}!{!{!(!(!*!)!g!  ",
"-!!!#!#!#!!!<!?!?!;!h!h!h!}!@!g!",
"-!$!%!%!%!%!!!!!!!:!f!    h!@!h!",
"-!^!&!,!,!,!,!<!/!?!?!?!  h!@!h!",
",!&!,!!!!!!!!!!!!!&!!!b!f!h!@!h!",
",![!-!#!#!#!#!#!#!|!#!c!f!h!@!h!",
"<!]!<!&!&!&!&!&!&!+!#!e!f!h!@!h!",
">!]!/![![![![![![!=!#!e!f!h!@!h!",
"  ?!?!:!:!a!b!d!d!e!e!f!f!h!@!h!",
"    f!f!f!f!h!h!h!h!h!h!h!}!@!g!",
"            h!}!{!{!(!(!*!)!g!  ",
"              h!h!h!h!h!h!g!    ",
"                      h!{!      ",
"                h!}!h!{!h!}!h!}!",
"                }!h!}!h!{!h!}!h!",
};

