/* XPM */
char * image_data[] = {
"16  16  257  2",
"  	c	None",
"!!	c #000000",
"@!	c #ffdcc5",
"#!	c #fff7a5",
"$!	c #fff599",
"%!	c #fff1b1",
"^!	c #000008",
"&!	c #37121d",
"*!	c #8e4550",
"(!	c #873e3f",
")!	c #966443",
"{!	c #975c3a",
"}!	c #ffffd9",
"[!	c #ffff8f",
"]!	c #ffff91",
"|!	c #ffffc1",
"+!	c #ffedc2",
"=!	c #fff2ba",
"-!	c #ffffb5",
",!	c #ffffc8",
".!	c #ffffd1",
"<!	c #fffb7c",
">!	c #2a3447",
"/!	c #876536",
"?!	c #ffffb3",
";!	c #ffff92",
":!	c #ffff95",
"a!	c #ffff90",
"b!	c #ffff93",
"c!	c #ffff94",
"d!	c #ffff8d",
"e!	c #ffff86",
"f!	c #ffc133",
"g!	c #7c4f29",
"h!	c #866a35",
"j!	c #9d705b",
"i!	c #876337",
"k!	c #ffffaa",
"l!	c #ffff96",
"m!	c #ffff9a",
"n!	c #ffff97",
"o!	c #fff387",
"p!	c #ffd472",
"q!	c #ffdfb5",
"r!	c #ffedd6",
"s!	c #fff5dd",
"t!	c #ffffff",
"u!	c #f2d390",
"v!	c #876939",
"w!	c #ffe1a2",
"x!	c #ffcc86",
"y!	c #ffb751",
"z!	c #ffc579",
"A!	c #ffc782",
"B!	c #ffd5a5",
"C!	c #ffffeb",
"D!	c #dde0ce",
"E!	c #dfe2ce",
"F!	c #ccbea0",
"G!	c #fffff0",
"H!	c #ffffe8",
"I!	c #64512c",
"J!	c #876630",
"K!	c #ffde8f",
"L!	c #ffbd54",
"M!	c #fffdec",
"N!	c #ffffe7",
"O!	c #ffffd2",
"P!	c #f9feba",
"Q!	c #d6d4dd",
"R!	c #c3d0e0",
"S!	c #c6c7cc",
"T!	c #bac5d6",
"U!	c #9c9ca1",
"V!	c #d8bc81",
"W!	c #00020d",
"X!	c #875e0e",
"Y!	c #ffdf93",
"Z!	c #ffc570",
"0!	c #ffffb6",
"1!	c #ffff87",
"2!	c #f1f18e",
"3!	c #e4e1ea",
"4!	c #d3e2f1",
"5!	c #ffe2aa",
"6!	c #f0ffff",
"7!	c #a8bed7",
"8!	c #9d9c9d",
"9!	c #040404",
"!@	c #874559",
"@@	c #ffd571",
"#@	c #ffe3b9",
"$@	c #ffff8e",
"%@	c #ffff8b",
"^@	c #d9d8ed",
"&@	c #c7d9f0",
"*@	c #f9ffff",
"(@	c #ecffff",
")@	c #9ba2a1",
"{@	c #88898a",
"}@	c #a7c2d4",
"[@	c #a3a1a0",
"]@	c #87494c",
"|@	c #ffc344",
"+@	c #ffffde",
"=@	c #fff48e",
"-@	c #fffa8e",
",@	c #bdbdca",
".@	c #e5e8e1",
"<@	c #fcffff",
">@	c #deffff",
"/@	c #918c96",
"?@	c #534a45",
";@	c #c4efff",
":@	c #fac3c5",
"a@	c #7c8181",
"b@	c #555555",
"c@	c #874839",
"d@	c #ffdd88",
"e@	c #ffedb8",
"f@	c #ffee98",
"g@	c #fff699",
"h@	c #adaeba",
"j@	c #dce5d5",
"i@	c #e3ffff",
"k@	c #d5ffff",
"l@	c #6e7e90",
"m@	c #aac2ce",
"n@	c #add2ec",
"o@	c #ffc8ae",
"p@	c #8e9397",
"q@	c #303030",
"r@	c #8f4b39",
"s@	c #fff9c6",
"t@	c #fff587",
"u@	c #ffd75b",
"v@	c #fac029",
"w@	c #c3c5d3",
"x@	c #bddef2",
"y@	c #dbf4ff",
"z@	c #c5f2ff",
"A@	c #c2f4ff",
"B@	c #ace4ff",
"C@	c #f2ffff",
"D@	c #adc3c9",
"E@	c #7e8895",
"F@	c #4e4d4c",
"G@	c #40201c",
"H@	c #d4aa69",
"I@	c #8e7f2a",
"J@	c #4d556c",
"K@	c #1f2636",
"L@	c #393939",
"M@	c #b8b3b0",
"N@	c #dcf1fd",
"O@	c #c6f6ff",
"P@	c #e6b8bb",
"Q@	c #d5e8e8",
"R@	c #a9b2d9",
"S@	c #73706c",
"T@	c #858585",
"U@	c #95918f",
"V@	c #b1b6b9",
"W@	c #a1a2a1",
"X@	c #b1b8bd",
"Y@	c #a7a4a3",
"Z@	c #686764",
"0@	c #151515",
"1@	c #3f3f3f",
"2@	c #777676",
"3@	c #7c7c7d",
"4@	c #6f6e6d",
"5@	c #6a6a6a",
"6@	c #111111",
"7@	c #000000",
"8@	c #000000",
"9@	c #000000",
"!#	c #000000",
"@#	c #000000",
"##	c #000000",
"$#	c #000000",
"%#	c #000000",
"^#	c #000000",
"&#	c #000000",
"*#	c #000000",
"(#	c #000000",
")#	c #000000",
"{#	c #000000",
"}#	c #000000",
"[#	c #000000",
"]#	c #000000",
"|#	c #000000",
"+#	c #000000",
"=#	c #000000",
"-#	c #000000",
",#	c #000000",
".#	c #000000",
"<#	c #000000",
">#	c #000000",
"/#	c #000000",
"?#	c #000000",
";#	c #000000",
":#	c #000000",
"a#	c #000000",
"b#	c #000000",
"c#	c #000000",
"d#	c #000000",
"e#	c #000000",
"f#	c #000000",
"g#	c #000000",
"h#	c #000000",
"j#	c #000000",
"i#	c #000000",
"k#	c #000000",
"l#	c #000000",
"m#	c #000000",
"n#	c #000000",
"o#	c #000000",
"p#	c #000000",
"q#	c #000000",
"r#	c #000000",
"s#	c #000000",
"t#	c #000000",
"u#	c #000000",
"v#	c #000000",
"w#	c #000000",
"x#	c #000000",
"y#	c #000000",
"z#	c #000000",
"A#	c #000000",
"B#	c #000000",
"C#	c #000000",
"D#	c #000000",
"E#	c #000000",
"F#	c #000000",
"G#	c #000000",
"H#	c #000000",
"I#	c #000000",
"J#	c #000000",
"K#	c #000000",
"L#	c #000000",
"M#	c #000000",
"N#	c #000000",
"O#	c #000000",
"P#	c #000000",
"Q#	c #000000",
"R#	c #000000",
"S#	c #000000",
"T#	c #000000",
"U#	c #000000",
"V#	c #000000",
"W#	c #000000",
"X#	c #000000",
"Y#	c #000000",
"Z#	c #000000",
"0#	c #000000",
"1#	c #000000",

"                                ",
"                                ",
"    @!#!$!%!      *!j!)!        ",
"  {!}![!]!|!+!=!-!,!.!<!        ",
"  j!?!;!:!a!]!b!c!d!e!f!g!j!j!  ",
"  j!k!l!m!n!n!o!p!q!r!s!t!t!u!  ",
"  j!w!x!y!z!A!B!C!D!E!F!G!H!I!  ",
"  j!K!L!M!N!O!P!Q!R!S!T!U!V!    ",
"  j!Y!Z!0!1!2!3!4!t!5!6!7!8!    ",
"  j!@@#@$@%@^@&@t!*@(@)@{@}@[@  ",
"  j!|@+@=@-@,@.@<@>@/@?@;@:@a@  ",
"  j!d@e@f@g@h@j@i@k@l@m@n@o@p@  ",
"  j!s@t@u@v@w@x@y@z@A@B@C@D@E@  ",
"    H@I@J@    M@N@O@P@C@Q@R@S@  ",
"              T@U@V@W@X@Y@Z@    ",
"                  2@3@4@5@      ",
};

