/* XPM */
char * image_data[] = {
"16  16  257  2",
"  	c	None",
"!!	c #000000",
"@!	c #74a674",
"#!	c #95bb95",
"$!	c #c1d7c1",
"%!	c #186a17",
"^!	c #316c30",
"&!	c #548f53",
"*!	c #579256",
"(!	c #83af82",
")!	c #377019",
"{!	c #44721a",
"}!	c #7a7c1d",
"[!	c #ffff99",
"]!	c #fff791",
"|!	c #fff48e",
"+!	c #e9dc73",
"=!	c #f6e57c",
"-!	c #ffeb85",
",!	c #dac258",
".!	c #ffe680",
"<!	c #ebcc59",
">!	c #e5c556",
"/!	c #e9cc5f",
"?!	c #e7c14c",
";!	c #e1bf53",
":!	c #e5c559",
"a!	c #ffe07a",
"b!	c #dab247",
"c!	c #e9c55c",
"d!	c #e9b538",
"e!	c #ffd46e",
"f!	c #efc96e",
"g!	c #f2d388",
"h!	c #ae7b0b",
"j!	c #b07d0e",
"i!	c #be8b17",
"k!	c #b88819",
"l!	c #c49120",
"m!	c #ce9a23",
"n!	c #cf9c29",
"o!	c #deaa2f",
"p!	c #dba732",
"q!	c #e3af39",
"r!	c #f8e6bd",
"s!	c #f9ebca",
"t!	c #996600",
"u!	c #9a6701",
"v!	c #9c6903",
"w!	c #9e6b05",
"x!	c #a06d07",
"y!	c #a3700a",
"z!	c #a5720c",
"A!	c #a8750f",
"B!	c #ab7812",
"C!	c #ae7b15",
"D!	c #b07d17",
"E!	c #b3801a",
"F!	c #b5821c",
"G!	c #b8851f",
"H!	c #ba8721",
"I!	c #bd8a24",
"J!	c #bf8c26",
"K!	c #c08d27",
"L!	c #c28f29",
"M!	c #c5922c",
"N!	c #c7942e",
"O!	c #c99630",
"P!	c #cb9832",
"Q!	c #cc9933",
"R!	c #d3a03a",
"S!	c #ffcc66",
"T!	c #fefaf3",
"U!	c #ffffff",
"V!	c #989898",
"W!	c #747474",
"X!	c #404040",
"Y!	c #000000",
"Z!	c #000000",
"0!	c #000000",
"1!	c #000000",
"2!	c #000000",
"3!	c #000000",
"4!	c #000000",
"5!	c #000000",
"6!	c #000000",
"7!	c #000000",
"8!	c #000000",
"9!	c #000000",
"!@	c #000000",
"@@	c #000000",
"#@	c #000000",
"$@	c #000000",
"%@	c #000000",
"^@	c #000000",
"&@	c #000000",
"*@	c #000000",
"(@	c #000000",
")@	c #000000",
"{@	c #000000",
"}@	c #000000",
"[@	c #000000",
"]@	c #000000",
"|@	c #000000",
"+@	c #000000",
"=@	c #000000",
"-@	c #000000",
",@	c #000000",
".@	c #000000",
"<@	c #000000",
">@	c #000000",
"/@	c #000000",
"?@	c #000000",
";@	c #000000",
":@	c #000000",
"a@	c #000000",
"b@	c #000000",
"c@	c #000000",
"d@	c #000000",
"e@	c #000000",
"f@	c #000000",
"g@	c #000000",
"h@	c #000000",
"j@	c #000000",
"i@	c #000000",
"k@	c #000000",
"l@	c #000000",
"m@	c #000000",
"n@	c #000000",
"o@	c #000000",
"p@	c #000000",
"q@	c #000000",
"r@	c #000000",
"s@	c #000000",
"t@	c #000000",
"u@	c #000000",
"v@	c #000000",
"w@	c #000000",
"x@	c #000000",
"y@	c #000000",
"z@	c #000000",
"A@	c #000000",
"B@	c #000000",
"C@	c #000000",
"D@	c #000000",
"E@	c #000000",
"F@	c #000000",
"G@	c #000000",
"H@	c #000000",
"I@	c #000000",
"J@	c #000000",
"K@	c #000000",
"L@	c #000000",
"M@	c #000000",
"N@	c #000000",
"O@	c #000000",
"P@	c #000000",
"Q@	c #000000",
"R@	c #000000",
"S@	c #000000",
"T@	c #000000",
"U@	c #000000",
"V@	c #000000",
"W@	c #000000",
"X@	c #000000",
"Y@	c #000000",
"Z@	c #000000",
"0@	c #000000",
"1@	c #000000",
"2@	c #000000",
"3@	c #000000",
"4@	c #000000",
"5@	c #000000",
"6@	c #000000",
"7@	c #000000",
"8@	c #000000",
"9@	c #000000",
"!#	c #000000",
"@#	c #000000",
"##	c #000000",
"$#	c #000000",
"%#	c #000000",
"^#	c #000000",
"&#	c #000000",
"*#	c #000000",
"(#	c #000000",
")#	c #000000",
"{#	c #000000",
"}#	c #000000",
"[#	c #000000",
"]#	c #000000",
"|#	c #000000",
"+#	c #000000",
"=#	c #000000",
"-#	c #000000",
",#	c #000000",
".#	c #000000",
"<#	c #000000",
">#	c #000000",
"/#	c #000000",
"?#	c #000000",
";#	c #000000",
":#	c #000000",
"a#	c #000000",
"b#	c #000000",
"c#	c #000000",
"d#	c #000000",
"e#	c #000000",
"f#	c #000000",
"g#	c #000000",
"h#	c #000000",
"j#	c #000000",
"i#	c #000000",
"k#	c #000000",
"l#	c #000000",
"m#	c #000000",
"n#	c #000000",
"o#	c #000000",
"p#	c #000000",
"q#	c #000000",
"r#	c #000000",
"s#	c #000000",
"t#	c #000000",
"u#	c #000000",
"v#	c #000000",
"w#	c #000000",
"x#	c #000000",
"y#	c #000000",
"z#	c #000000",
"A#	c #000000",
"B#	c #000000",
"C#	c #000000",
"D#	c #000000",
"E#	c #000000",
"F#	c #000000",
"G#	c #000000",
"H#	c #000000",
"I#	c #000000",
"J#	c #000000",
"K#	c #000000",
"L#	c #000000",
"M#	c #000000",
"N#	c #000000",
"O#	c #000000",
"P#	c #000000",
"Q#	c #000000",
"R#	c #000000",
"S#	c #000000",
"T#	c #000000",
"U#	c #000000",
"V#	c #000000",
"W#	c #000000",
"X#	c #000000",
"Y#	c #000000",
"Z#	c #000000",
"0#	c #000000",
"1#	c #000000",

"                                ",
"                        (!      ",
"    Q!P!O!N!          *!&!V!    ",
"  Q!U!U!U!U!L!      @!%!^!W!    ",
"Q!U![![![![!U!I!H!}!)!%!{!W!    ",
"P!]!|!|!|!|!|!U!$!#!#!%!{!X!    ",
"O!-!.!M!M!M!M!M!M!M!M!M!M!E!E!  ",
"N!a!M!U!U!U!T!f!r!s!g!d!q!U!y!X!",
"M!e!Q![![![!<!o!o!o!?!o!p![!x!X!",
"L!S!P![!]!>!=!]!]!]!/!m!n![!w!X!",
"K!S!M![!:!:!-!-!-!-!;!i!l![!v!X!",
"I!S!J!,!h!b!a!a!a!c!k!h!j!+!u!X!",
"H!S!G![!e!e!e!e!e!e!e!e!R![!t!X!",
"  F!E!D!C!B!A!z!y!x!w!v!u!t!X!X!",
"    X!X!X!X!X!X!X!X!X!X!X!X!X!  ",
"                                ",
};

