/* XPM */
char * image_data[] = {
"16  16  47  2",
"  	c	None",
"!!	c #ffffff",
"@!	c #f5f5f5",
"#!	c #dddddd",
"$!	c #d1d1d1",
"%!	c #c5c5c5",
"^!	c #898989",
"&!	c #717171",
"*!	c #a5730d",
"(!	c #656565",
")!	c #c69a19",
"{!	c #c79c1c",
"}!	c #ffff9c",
"[!	c #ffd76c",
"]!	c #bf9929",
"|!	c #c69a1a",
"+!	c #f0e47a",
"=!	c #ffe37c",
"-!	c #ffdf7c",
",!	c #deb243",
".!	c #9d7b1a",
"<!	c #cfa226",
">!	c #d7b840",
"/!	c #ffeb84",
"?!	c #ffe784",
";!	c #efba43",
":!	c #e2b343",
"a!	c #c9a021",
"b!	c #ffffa5",
"c!	c #fff794",
"d!	c #e7be53",
"e!	c #cebc5c",
"f!	c #fdd570",
"g!	c #f7f089",
"h!	c #ffc75b",
"j!	c #fbf996",
"i!	c #9b7b19",
"k!	c #ffd784",
"l!	c #dabf6c",
"m!	c #fffbf7",
"n!	c #a17e19",
"o!	c #e2c150",
"p!	c #b18919",
"q!	c #fff39c",
"r!	c #fff38c",
"s!	c #000000",
"t!	c #cea222",
"                                ",
"    t!t!t!t!#!@!                ",
"  t!!!!!!!!!)!%!@!@!!!          ",
")!!!}!}!}!}!!!)!)!)!)!)!)!)!#!@!",
")!q!r!r!r!r!r!!!!!!!!!!!!!)!.!%!",
")!/!o!)!)!)!)!)!)!)!)!)!)!)!)!p!",
")!k!)!l!!!!!m!!!!!!!!!!!!!?!!!n!",
")!k!)!l!!!!!m!!!!!!!!!!!!!?!!!n!",
")!f!)!g!}!}!}!}!}!}!}!}!}!h!j!i!",
")!:!a!b!c!c!c!c!c!c!c!c!c!d!e!*!",
")!<!>!}!/!/!/!/!/!/!/!/!?!;!)!(!",
")!|!+!}!=!=!=!=!=!=!=!=!-!,!.!(!",
")!{!}![![![![![![![![![![!]!*!&!",
"#!*!*!*!*!*!*!*!*!*!*!*!*!*!(!^!",
"@!%!^!&!&!&!&!&!&!&!&!&!&!&!^!%!",
"!!@!#!$!$!$!$!$!$!$!$!$!$!$!#!@!",
};

