/* XPM */
char * image_data[] = {
"16  16  257  2",
"  	c	None",
"!!	c #fdfbfc",
"@!	c #000000",
"#!	c #fefdfe",
"$!	c #fdfcfd",
"%!	c #fdfcfe",
"^!	c #e2e2e4",
"&!	c #fbfbfc",
"*!	c #e0e4f1",
"(!	c #e4e8f5",
")!	c #dfe2ec",
"{!	c #0030bd",
"}!	c #f2f3f6",
"[!	c #9fafd5",
"]!	c #d6def2",
"|!	c #eef3ff",
"+!	c #808287",
"=!	c #eff1f6",
"-!	c #3c64b9",
",!	c #373a41",
".!	c #6d7380",
"<!	c #d3dcf1",
">!	c #a4aab8",
"/!	c #d9e1f2",
"?!	c #e0e6f3",
";!	c #0b45b8",
":!	c #0c45bb",
"a!	c #0d48bd",
"b!	c #0f4ac4",
"c!	c #0f4ac1",
"d!	c #104bc1",
"e!	c #1047b9",
"f!	c #1453d1",
"g!	c #134ec6",
"h!	c #154cb7",
"j!	c #1954c9",
"i!	c #1a53c7",
"k!	c #1b53c3",
"l!	c #1e56c5",
"m!	c #205acd",
"n!	c #1f55c4",
"o!	c #215acc",
"p!	c #225bcd",
"q!	c #2158c9",
"r!	c #235bcb",
"s!	c #235aca",
"t!	c #2358c0",
"u!	c #2a66e2",
"v!	c #265cca",
"w!	c #2456b9",
"x!	c #285fcb",
"y!	c #285eca",
"z!	c #2960cd",
"A!	c #295eca",
"B!	c #295dc9",
"C!	c #2b60cd",
"D!	c #2b60cc",
"E!	c #295ec6",
"F!	c #2d62cc",
"G!	c #2b5ec3",
"H!	c #2e62cd",
"I!	c #3570e6",
"J!	c #326adb",
"K!	c #2f64cc",
"L!	c #3368d3",
"M!	c #3266cf",
"N!	c #3165cd",
"O!	c #3165cc",
"P!	c #3266ce",
"Q!	c #3367ce",
"R!	c #3262c5",
"S!	c #3c72e0",
"T!	c #386bd0",
"U!	c #386ace",
"V!	c #3a6bcb",
"W!	c #3f70d0",
"X!	c #517ed7",
"Y!	c #5078c7",
"Z!	c #5c87de",
"0!	c #6a98f5",
"1!	c #587dc7",
"2!	c #658cda",
"3!	c #688ed8",
"4!	c #6f92d9",
"5!	c #769ae2",
"6!	c #6989ca",
"7!	c #6986c2",
"8!	c #7a9ce0",
"9!	c #6d8bc8",
"!@	c #7e9cd7",
"@@	c #809acf",
"#@	c #809ace",
"$@	c #91ade8",
"%@	c #90a8d8",
"^@	c #a1b9e7",
"&@	c #9aafd9",
"*@	c #96abd4",
"(@	c #95a4c2",
")@	c #a2b1cf",
"{@	c #a8b5cf",
"}@	c #cad8f3",
"[@	c #bdc9e0",
"]@	c #bbc6dd",
"|@	c #d0dbf1",
"+@	c #4b4f57",
"=@	c #d1dbef",
"-@	c #000000",
",@	c #bfc8da",
".@	c #d7e0f3",
"<@	c #d9e2f4",
">@	c #d8e1f3",
"/@	c #dfe7f7",
"?@	c #e6edfb",
";@	c #498aff",
":@	c #4d8cfe",
"a@	c #78a4f6",
"b@	c #4e535c",
"c@	c #b1bbcd",
"d@	c #9fa8b8",
"e@	c #d1dcf1",
"f@	c #d0dbef",
"g@	c #d2ddf1",
"h@	c #d1dcef",
"j@	c #d2ddf0",
"i@	c #c6d0e2",
"k@	c #d4def1",
"l@	c #d7e1f3",
"m@	c #d6e0f2",
"n@	c #d5dff1",
"o@	c #dae3f4",
"p@	c #d7e0f1",
"q@	c #d6dff0",
"r@	c #e0e7f4",
"s@	c #e8edf6",
"t@	c #cadeff",
"u@	c #d4dff1",
"v@	c #d3ddee",
"w@	c #d9e3f4",
"x@	c #d8e2f3",
"y@	c #d7e1f2",
"z@	c #d4deef",
"A@	c #87afec",
"B@	c #d8e3f4",
"C@	c #d6e1f2",
"D@	c #dbeaff",
"E@	c #e2eaf5",
"F@	c #70b2ff",
"G@	c #a9d4ff",
"H@	c #0b0c0d",
"I@	c #edf1f5",
"J@	c #f1f2f3",
"K@	c #91c9ff",
"L@	c #98cffc",
"M@	c #cee9ff",
"N@	c #e3eaf0",
"O@	c #a8ddfe",
"P@	c #c6f3ff",
"Q@	c #f8feff",
"R@	c #fbffff",
"S@	c #f9fafa",
"T@	c #f0f1ec",
"U@	c #ffffee",
"V@	c #fffff4",
"W@	c #fffff7",
"X@	c #fffff8",
"Y@	c #fffffa",
"Z@	c #fffffc",
"0@	c #fffffd",
"1@	c #fdfcf8",
"2@	c #fbfaf8",
"3@	c #fef9f3",
"4@	c #f4f0eb",
"5@	c #ffffff",
"6@	c #3e3e3e",
"7@	c #272727",
"8@	c #191919",
"9@	c #040404",
"!#	c #030303",
"@#	c #020202",
"##	c #000000",
"$#	c #ffffff",
"%#	c #000000",
"^#	c #000000",
"&#	c #000000",
"*#	c #000000",
"(#	c #000000",
")#	c #000000",
"{#	c #000000",
"}#	c #000000",
"[#	c #000000",
"]#	c #000000",
"|#	c #000000",
"+#	c #000000",
"=#	c #000000",
"-#	c #000000",
",#	c #000000",
".#	c #000000",
"<#	c #000000",
">#	c #000000",
"/#	c #000000",
"?#	c #000000",
";#	c #000000",
":#	c #000000",
"a#	c #000000",
"b#	c #000000",
"c#	c #000000",
"d#	c #000000",
"e#	c #000000",
"f#	c #000000",
"g#	c #000000",
"h#	c #000000",
"j#	c #000000",
"i#	c #000000",
"k#	c #000000",
"l#	c #000000",
"m#	c #000000",
"n#	c #000000",
"o#	c #000000",
"p#	c #000000",
"q#	c #000000",
"r#	c #000000",
"s#	c #000000",
"t#	c #000000",
"u#	c #000000",
"v#	c #000000",
"w#	c #000000",
"x#	c #000000",
"y#	c #000000",
"z#	c #000000",
"A#	c #000000",
"B#	c #000000",
"C#	c #000000",
"D#	c #000000",
"E#	c #000000",
"F#	c #000000",
"G#	c #000000",
"H#	c #000000",
"I#	c #000000",
"J#	c #000000",
"K#	c #000000",
"L#	c #000000",
"M#	c #000000",
"N#	c #000000",
"O#	c #000000",
"P#	c #000000",
"Q#	c #000000",
"R#	c #000000",
"S#	c #000000",
"T#	c #000000",
"U#	c #000000",
"V#	c #000000",
"W#	c #000000",
"X#	c #000000",
"Y#	c #000000",
"Z#	c #000000",
"0#	c #000000",
"1#	c #000000",

"          e@f@=@h@|@            ",
"      <!(!$!5@5@5@!!?!g@        ",
"    q@5@R@P@O@L@K@G@Q@Z@u@      ",
"  k@5@M@F@A@)!4@*!a@:@t@0@j@    ",
"  =!D@;@Z!U@%!^@Y@3@S!I!|!r@b@  ",
"q@5@0!u!9!N@X!{!!@5@2!f!5!#!c@b@",
"p@?@J!L!y!q!j!d!i@5@W!m!U!&!v@7@",
"/!}@p!M!K!D!n!{@5@8!i!C!E!I@z@9@",
">@]!l!P!O!o!7!5@$@b!F!x!G!J@n@!#",
".@2@R!v!Q!r!6!/@T!s!N!k!Y!1@,@@#",
">!S@%@a!H!z!V!3!A!F!B!e![@s@.!b@",
"  y@X@1!:!g!(@5@4!c!;!#@X@m@##  ",
"  >!E@V@@@h!-!&@t!w![!W@<@,!b@  ",
"    >!B@2@^!)@*@]@T@}!C@+@b@    ",
"      +!+!l@w@o@x@l@d@b@b@      ",
"          b@########b@          ",
};

