/* XPM */
char * image_data[] = {
"16  16  257  2",
"  	c	None",
"!!	c #1f66a3",
"@!	c #248ecd",
"#!	c #25496b",
"$!	c #2581b7",
"%!	c #2595e2",
"^!	c #269de5",
"&!	c #269fe5",
"*!	c #2796de",
"(!	c #279ce4",
")!	c #28506e",
"{!	c #2883b8",
"}!	c #288bda",
"[!	c #2894e0",
"]!	c #28a0e5",
"|!	c #2975b6",
"+!	c #2998e6",
"=!	c #2a93e0",
"-!	c #2a96e5",
",!	c #2aa0e8",
".!	c #2aaced",
"<!	c #2b5785",
">!	c #2b7fd0",
"/!	c #2b93e3",
"?!	c #2c97e7",
";!	c #2d93e7",
":!	c #2d96e8",
"a!	c #2d99dd",
"b!	c #2da0ea",
"c!	c #2dabed",
"d!	c #2dacec",
"e!	c #2e93e7",
"f!	c #2ea0ea",
"g!	c #2f4259",
"h!	c #2f90e7",
"j!	c #2fadef",
"i!	c #3195e9",
"k!	c #319beb",
"l!	c #31b7f1",
"m!	c #337ec3",
"n!	c #33acf3",
"o!	c #34516f",
"p!	c #3489cc",
"q!	c #349bee",
"r!	c #35b4f4",
"s!	c #368acf",
"t!	c #3697ef",
"u!	c #3698e7",
"v!	c #369aef",
"w!	c #36a5e8",
"x!	c #36a6f2",
"y!	c #375571",
"z!	c #3880b9",
"A!	c #389bf0",
"B!	c #38a4f1",
"C!	c #399af0",
"D!	c #39a5e9",
"E!	c #3aafe0",
"F!	c #3ab1e1",
"G!	c #3b94de",
"H!	c #3ba8f4",
"I!	c #3ca7f2",
"J!	c #3cb5f6",
"K!	c #3ebcf4",
"L!	c #3f7bb1",
"M!	c #4079aa",
"N!	c #41a1ed",
"O!	c #41b1f4",
"P!	c #41c6f5",
"Q!	c #42c5f5",
"R!	c #4494cf",
"S!	c #46a8ea",
"T!	c #46afed",
"U!	c #46d1f6",
"V!	c #4acff8",
"W!	c #4db2ec",
"X!	c #50b3dd",
"Y!	c #51bdf7",
"Z!	c #53a5dc",
"0!	c #53b4f0",
"1!	c #5498d1",
"2!	c #61afe0",
"3!	c #64b2df",
"4!	c #66b7e2",
"5!	c #66d4e6",
"6!	c #6bd4fb",
"7!	c #6dd2fd",
"8!	c #76d4fa",
"9!	c #7db7d8",
"!@	c #89caea",
"@@	c #8acae5",
"#@	c #8dbcd2",
"$@	c #8edaf1",
"%@	c #91ceeb",
"^@	c #93d7f4",
"&@	c #000000",
"*@	c #000000",
"(@	c #000000",
")@	c #000000",
"{@	c #000000",
"}@	c #000000",
"[@	c #000000",
"]@	c #000000",
"|@	c #000000",
"+@	c #000000",
"=@	c #000000",
"-@	c #000000",
",@	c #000000",
".@	c #000000",
"<@	c #000000",
">@	c #000000",
"/@	c #000000",
"?@	c #000000",
";@	c #000000",
":@	c #000000",
"a@	c #000000",
"b@	c #000000",
"c@	c #000000",
"d@	c #000000",
"e@	c #000000",
"f@	c #000000",
"g@	c #000000",
"h@	c #000000",
"j@	c #000000",
"i@	c #000000",
"k@	c #000000",
"l@	c #000000",
"m@	c #000000",
"n@	c #000000",
"o@	c #000000",
"p@	c #000000",
"q@	c #000000",
"r@	c #000000",
"s@	c #000000",
"t@	c #000000",
"u@	c #000000",
"v@	c #000000",
"w@	c #000000",
"x@	c #000000",
"y@	c #000000",
"z@	c #000000",
"A@	c #000000",
"B@	c #000000",
"C@	c #000000",
"D@	c #000000",
"E@	c #000000",
"F@	c #000000",
"G@	c #000000",
"H@	c #000000",
"I@	c #000000",
"J@	c #000000",
"K@	c #000000",
"L@	c #000000",
"M@	c #000000",
"N@	c #000000",
"O@	c #000000",
"P@	c #000000",
"Q@	c #000000",
"R@	c #000000",
"S@	c #000000",
"T@	c #000000",
"U@	c #000000",
"V@	c #000000",
"W@	c #000000",
"X@	c #000000",
"Y@	c #000000",
"Z@	c #000000",
"0@	c #000000",
"1@	c #000000",
"2@	c #000000",
"3@	c #000000",
"4@	c #000000",
"5@	c #000000",
"6@	c #000000",
"7@	c #000000",
"8@	c #000000",
"9@	c #000000",
"!#	c #000000",
"@#	c #000000",
"##	c #000000",
"$#	c #000000",
"%#	c #000000",
"^#	c #000000",
"&#	c #000000",
"*#	c #000000",
"(#	c #000000",
")#	c #000000",
"{#	c #000000",
"}#	c #000000",
"[#	c #000000",
"]#	c #000000",
"|#	c #000000",
"+#	c #000000",
"=#	c #000000",
"-#	c #000000",
",#	c #000000",
".#	c #000000",
"<#	c #000000",
">#	c #000000",
"/#	c #000000",
"?#	c #000000",
";#	c #000000",
":#	c #000000",
"a#	c #000000",
"b#	c #000000",
"c#	c #000000",
"d#	c #000000",
"e#	c #000000",
"f#	c #000000",
"g#	c #000000",
"h#	c #000000",
"j#	c #000000",
"i#	c #000000",
"k#	c #000000",
"l#	c #000000",
"m#	c #000000",
"n#	c #000000",
"o#	c #000000",
"p#	c #000000",
"q#	c #000000",
"r#	c #000000",
"s#	c #000000",
"t#	c #000000",
"u#	c #000000",
"v#	c #000000",
"w#	c #000000",
"x#	c #000000",
"y#	c #000000",
"z#	c #000000",
"A#	c #000000",
"B#	c #000000",
"C#	c #000000",
"D#	c #000000",
"E#	c #000000",
"F#	c #000000",
"G#	c #000000",
"H#	c #000000",
"I#	c #000000",
"J#	c #000000",
"K#	c #000000",
"L#	c #000000",
"M#	c #000000",
"N#	c #000000",
"O#	c #000000",
"P#	c #000000",
"Q#	c #000000",
"R#	c #000000",
"S#	c #000000",
"T#	c #000000",
"U#	c #000000",
"V#	c #000000",
"W#	c #000000",
"X#	c #000000",
"Y#	c #000000",
"Z#	c #000000",
"0#	c #000000",
"1#	c #000000",

"                      @@@@#@    ",
"                  #@@@      #@  ",
"          #@#@#@X!V!L!L!    #@  ",
"      #@#@5!5!U!l!.!j!w!L!  #@  ",
"    #@@@  $@F!$!@!]!(!b!D!L!    ",
"    %@  P!E!)!g!y!|!+!?!B!L!    ",
"  %@  P!P!{!#!    |!s!:!q!q!L!  ",
"      Q!d!&!*![!=!/!;!i!C!N!L!  ",
"    K!c!^!>!>!>!>!>!>!>!>!>!L!  ",
"  4!r!,!%!!!o!o!o!o!o!o!o!o!o!  ",
"  J!n!f!-!}!<!      |!H!7!9!L!  ",
"2!a!o!x!k!e!h!y!y!|!O!6!^@L!    ",
"W!M!  o!u!A!t!v!I!Y!8!!@L!o!    ",
"T!M!    o!m!G!S!0!3!S!o!o!      ",
"Z!z!    1!L!o!o!o!o!o!          ",
"  R!p!1!                        ",
};

