/* XPM */
char * image_data[] = {
"16  16  257  2",
"  	c	None",
"!!	c #000000",
"@!	c #1e1655",
"#!	c #36306b",
"$!	c #312c68",
"%!	c #1f1b5c",
"^!	c #302b73",
"&!	c #413d79",
"*!	c #413d76",
"(!	c #4b4887",
")!	c #7674a8",
"{!	c #706e9d",
"}!	c #adacc2",
"[!	c #575693",
"]!	c #6d6caf",
"|!	c #76759c",
"+!	c #4545a2",
"=!	c #454599",
"-!	c #505099",
",!	c #6d6dbb",
".!	c #5a5a99",
"<!	c #6464a5",
">!	c #6d6da1",
"/!	c #8181b5",
"?!	c #8383b5",
";!	c #9797c9",
":!	c #8f8fbd",
"a!	c #8f8fba",
"b!	c #a5a5d1",
"c!	c #9f9fc6",
"d!	c #9a9abf",
"e!	c #b4b4dc",
"f!	c #a0a0bf",
"g!	c #b4b4d5",
"h!	c #aeaecc",
"j!	c #adadc7",
"i!	c #adadc2",
"k!	c #b4b4c9",
"l!	c #c2c2d7",
"m!	c #bebed3",
"n!	c #c3c3d1",
"o!	c #c6c6d3",
"p!	c #e1e1ef",
"q!	c #c3c3cc",
"r!	c #d6d6db",
"s!	c #cfcfd2",
"t!	c #e1e1e2",
"u!	c #dfdfe0",
"v!	c #dededf",
"w!	c #686aa4",
"x!	c #22256b",
"y!	c #4f5293",
"z!	c #232a73",
"A!	c #252f7a",
"B!	c #263482",
"C!	c #8f98cf",
"D!	c #a3a9d0",
"E!	c #a5aede",
"F!	c #273989",
"G!	c #8e9bcf",
"H!	c #a1a7c0",
"I!	c #283e90",
"J!	c #5d72b4",
"K!	c #99a6d2",
"L!	c #2b489f",
"M!	c #c8cbd4",
"N!	c #2e52ae",
"O!	c #6a89d8",
"P!	c #9eabcb",
"Q!	c #5b7ac1",
"R!	c #92a2c2",
"S!	c #89a8e0",
"T!	c #5b95e3",
"U!	c #b3c7e3",
"V!	c #9fb3cb",
"W!	c #66a4e6",
"X!	c #8fa0b1",
"Y!	c #5ea7e8",
"Z!	c #90bade",
"0!	c #70bcf4",
"1!	c #7ec2f6",
"2!	c #a7cce8",
"3!	c #55afee",
"4!	c #9dc2dc",
"5!	c #32b2ff",
"6!	c #37b1fe",
"7!	c #4eb7f9",
"8!	c #38b5ff",
"9!	c #3ab6ff",
"!@	c #4abeff",
"@@	c #50c1ff",
"#@	c #55c3ff",
"$@	c #9aceeb",
"%@	c #91b9d0",
"^@	c #53c3ff",
"&@	c #56c4ff",
"*@	c #61c9ff",
"(@	c #62caff",
")@	c #68cdff",
"{@	c #6aceff",
"}@	c #69ceff",
"[@	c #77d4ff",
"]@	c #78d5ff",
"|@	c #7dd7ff",
"+@	c #7bd7ff",
"=@	c #80d9ff",
"-@	c #81d9ff",
",@	c #83dbff",
".@	c #8adeff",
"<@	c #a2d0e3",
">@	c #8cdfff",
"/@	c #8de0ff",
"?@	c #96e4ff",
";@	c #98e5ff",
":@	c #9ce7ff",
"a@	c #9ee8ff",
"b@	c #a0e9ff",
"c@	c #adf0ff",
"d@	c #aef0ff",
"e@	c #aff0ff",
"f@	c #b4f3ff",
"g@	c #bef3f9",
"h@	c #c2faff",
"j@	c #c9fdff",
"i@	c #f2f2f2",
"k@	c #ececec",
"l@	c #e9e9e9",
"m@	c #e2e2e2",
"n@	c #000000",
"o@	c #000000",
"p@	c #000000",
"q@	c #000000",
"r@	c #000000",
"s@	c #000000",
"t@	c #000000",
"u@	c #000000",
"v@	c #000000",
"w@	c #000000",
"x@	c #000000",
"y@	c #000000",
"z@	c #000000",
"A@	c #000000",
"B@	c #000000",
"C@	c #000000",
"D@	c #000000",
"E@	c #000000",
"F@	c #000000",
"G@	c #000000",
"H@	c #000000",
"I@	c #000000",
"J@	c #000000",
"K@	c #000000",
"L@	c #000000",
"M@	c #000000",
"N@	c #000000",
"O@	c #000000",
"P@	c #000000",
"Q@	c #000000",
"R@	c #000000",
"S@	c #000000",
"T@	c #000000",
"U@	c #000000",
"V@	c #000000",
"W@	c #000000",
"X@	c #000000",
"Y@	c #000000",
"Z@	c #000000",
"0@	c #000000",
"1@	c #000000",
"2@	c #000000",
"3@	c #000000",
"4@	c #000000",
"5@	c #000000",
"6@	c #000000",
"7@	c #000000",
"8@	c #000000",
"9@	c #000000",
"!#	c #000000",
"@#	c #000000",
"##	c #000000",
"$#	c #000000",
"%#	c #000000",
"^#	c #000000",
"&#	c #000000",
"*#	c #000000",
"(#	c #000000",
")#	c #000000",
"{#	c #000000",
"}#	c #000000",
"[#	c #000000",
"]#	c #000000",
"|#	c #000000",
"+#	c #000000",
"=#	c #000000",
"-#	c #000000",
",#	c #000000",
".#	c #000000",
"<#	c #000000",
">#	c #000000",
"/#	c #000000",
"?#	c #000000",
";#	c #000000",
":#	c #000000",
"a#	c #000000",
"b#	c #000000",
"c#	c #000000",
"d#	c #000000",
"e#	c #000000",
"f#	c #000000",
"g#	c #000000",
"h#	c #000000",
"j#	c #000000",
"i#	c #000000",
"k#	c #000000",
"l#	c #000000",
"m#	c #000000",
"n#	c #000000",
"o#	c #000000",
"p#	c #000000",
"q#	c #000000",
"r#	c #000000",
"s#	c #000000",
"t#	c #000000",
"u#	c #000000",
"v#	c #000000",
"w#	c #000000",
"x#	c #000000",
"y#	c #000000",
"z#	c #000000",
"A#	c #000000",
"B#	c #000000",
"C#	c #000000",
"D#	c #000000",
"E#	c #000000",
"F#	c #000000",
"G#	c #000000",
"H#	c #000000",
"I#	c #000000",
"J#	c #000000",
"K#	c #000000",
"L#	c #000000",
"M#	c #000000",
"N#	c #000000",
"O#	c #000000",
"P#	c #000000",
"Q#	c #000000",
"R#	c #000000",
"S#	c #000000",
"T#	c #000000",
"U#	c #000000",
"V#	c #000000",
"W#	c #000000",
"X#	c #000000",
"Y#	c #000000",
"Z#	c #000000",
"0#	c #000000",
"1#	c #000000",

"              K!K!K!D!c!c!      ",
"      R!M!q!n!i!H!V!4!Z!&!N!    ",
"      s!X!%@<@g@j@h@c@?@(!L!    ",
"      P!$@.@a@d@f@e@b@>@y!I!    ",
"      P!2!+@>@;@:@;@/@|@J!F!    ",
"      P!U!}@[@=@,@-@]@{@Q!z!    ",
"        h!#@*@)@{@)@(@&@T!x!    ",
"        G!3!!@@@^@@@!@7!O!@!    ",
"        G!Y!5!8!9!0!S!]!^!@!    ",
"          W!6!1!E!,!+!$!z!      ",
"          C!e!b!;!=!=![!        ",
"          p!i@t!g!<!-!/!w!      ",
"        l@i@k@v!l!a!.!?!)!      ",
"        o!m@u!r!m!f!>!:!*!      ",
"          |!}!k!j!d!{!#!@!      ",
"            B!%!@!@!@!A!        ",
};

