/* XPM */
char * image_data[] = {
"16  16  257  2",
"  	c	None",
"!!	c #000000",
"@!	c #9898b7",
"#!	c #76768a",
"$!	c #646474",
"%!	c #808093",
"^!	c #757584",
"&!	c #4e4e57",
"*!	c #ccccde",
"(!	c #2f2f33",
")!	c #505056",
"{!	c #434348",
"}!	c #6d6d73",
"[!	c #3b3b3e",
"]!	c #6f6f74",
"|!	c #424245",
"+!	c #77777c",
"=!	c #88888d",
"-!	c #4b4b4e",
",!	c #8a8a8f",
".!	c #eaeaee",
"<!	c #7b7b7c",
">!	c #99999a",
"/!	c #81828e",
"?!	c #e0f1ff",
";!	c #dff1ff",
":!	c #95a1aa",
"a!	c #fff7cd",
"b!	c #efe5bb",
"c!	c #efebda",
"d!	c #d9ad15",
"e!	c #eac028",
"f!	c #ebc12b",
"g!	c #dfb82a",
"h!	c #f2e4af",
"j!	c #f5eed4",
"i!	c #d2a725",
"k!	c #d5ad32",
"l!	c #d2b048",
"m!	c #d8b64d",
"n!	c #be9015",
"o!	c #c69f2b",
"p!	c #d8b140",
"q!	c #c8a644",
"r!	c #af7e05",
"s!	c #bd8f19",
"t!	c #a97601",
"u!	c #a37101",
"v!	c #a26f01",
"w!	c #a87502",
"x!	c #ffffff",
"y!	c #fcfcfc",
"z!	c #f7f7f7",
"A!	c #f2f2f2",
"B!	c #ececec",
"C!	c #e6e6e6",
"D!	c #e1e1e1",
"E!	c #dfdfdf",
"F!	c #dedede",
"G!	c #d8d8d8",
"H!	c #d5d5d5",
"I!	c #d3d3d3",
"J!	c #d1d1d1",
"K!	c #d0d0d0",
"L!	c #cdcdcd",
"M!	c #cacaca",
"N!	c #c9c9c9",
"O!	c #c8c8c8",
"P!	c #c7c7c7",
"Q!	c #c3c3c3",
"R!	c #c0c0c0",
"S!	c #bababa",
"T!	c #b9b9b9",
"U!	c #b8b8b8",
"V!	c #b5b5b5",
"W!	c #aeaeae",
"X!	c #a5a5a5",
"Y!	c #a4a4a4",
"Z!	c #a3a3a3",
"0!	c #9f9f9f",
"1!	c #9c9c9c",
"2!	c #999999",
"3!	c #989898",
"4!	c #929292",
"5!	c #8e8e8e",
"6!	c #8c8c8c",
"7!	c #888888",
"8!	c #828282",
"9!	c #818181",
"!@	c #808080",
"@@	c #7f7f7f",
"#@	c #7c7c7c",
"$@	c #7a7a7a",
"%@	c #787878",
"^@	c #747474",
"&@	c #717171",
"*@	c #707070",
"(@	c #6b6b6b",
")@	c #6a6a6a",
"{@	c #616161",
"}@	c #585858",
"[@	c #555555",
"]@	c #535353",
"|@	c #515151",
"+@	c #4f4f4f",
"=@	c #4d4d4d",
"-@	c #404040",
",@	c #383838",
".@	c #333333",
"<@	c #262626",
">@	c #1d1d1d",
"/@	c #141414",
"?@	c #000000",
";@	c #000000",
":@	c #000000",
"a@	c #000000",
"b@	c #000000",
"c@	c #000000",
"d@	c #000000",
"e@	c #000000",
"f@	c #000000",
"g@	c #000000",
"h@	c #000000",
"j@	c #000000",
"i@	c #000000",
"k@	c #000000",
"l@	c #000000",
"m@	c #000000",
"n@	c #000000",
"o@	c #000000",
"p@	c #000000",
"q@	c #000000",
"r@	c #000000",
"s@	c #000000",
"t@	c #000000",
"u@	c #000000",
"v@	c #000000",
"w@	c #000000",
"x@	c #000000",
"y@	c #000000",
"z@	c #000000",
"A@	c #000000",
"B@	c #000000",
"C@	c #000000",
"D@	c #000000",
"E@	c #000000",
"F@	c #000000",
"G@	c #000000",
"H@	c #000000",
"I@	c #000000",
"J@	c #000000",
"K@	c #000000",
"L@	c #000000",
"M@	c #000000",
"N@	c #000000",
"O@	c #000000",
"P@	c #000000",
"Q@	c #000000",
"R@	c #000000",
"S@	c #000000",
"T@	c #000000",
"U@	c #000000",
"V@	c #000000",
"W@	c #000000",
"X@	c #000000",
"Y@	c #000000",
"Z@	c #000000",
"0@	c #000000",
"1@	c #000000",
"2@	c #000000",
"3@	c #000000",
"4@	c #000000",
"5@	c #000000",
"6@	c #000000",
"7@	c #000000",
"8@	c #000000",
"9@	c #000000",
"!#	c #000000",
"@#	c #000000",
"##	c #000000",
"$#	c #000000",
"%#	c #000000",
"^#	c #000000",
"&#	c #000000",
"*#	c #000000",
"(#	c #000000",
")#	c #000000",
"{#	c #000000",
"}#	c #000000",
"[#	c #000000",
"]#	c #000000",
"|#	c #000000",
"+#	c #000000",
"=#	c #000000",
"-#	c #000000",
",#	c #000000",
".#	c #000000",
"<#	c #000000",
">#	c #000000",
"/#	c #000000",
"?#	c #000000",
";#	c #000000",
":#	c #000000",
"a#	c #000000",
"b#	c #000000",
"c#	c #000000",
"d#	c #000000",
"e#	c #000000",
"f#	c #000000",
"g#	c #000000",
"h#	c #000000",
"j#	c #000000",
"i#	c #000000",
"k#	c #000000",
"l#	c #000000",
"m#	c #000000",
"n#	c #000000",
"o#	c #000000",
"p#	c #000000",
"q#	c #000000",
"r#	c #000000",
"s#	c #000000",
"t#	c #000000",
"u#	c #000000",
"v#	c #000000",
"w#	c #000000",
"x#	c #000000",
"y#	c #000000",
"z#	c #000000",
"A#	c #000000",
"B#	c #000000",
"C#	c #000000",
"D#	c #000000",
"E#	c #000000",
"F#	c #000000",
"G#	c #000000",
"H#	c #000000",
"I#	c #000000",
"J#	c #000000",
"K#	c #000000",
"L#	c #000000",
"M#	c #000000",
"N#	c #000000",
"O#	c #000000",
"P#	c #000000",
"Q#	c #000000",
"R#	c #000000",
"S#	c #000000",
"T#	c #000000",
"U#	c #000000",
"V#	c #000000",
"W#	c #000000",
"X#	c #000000",
"Y#	c #000000",
"Z#	c #000000",
"0#	c #000000",
"1#	c #000000",

"                                ",
"      T!T!O!H!C!L!I!T!          ",
"T!T!S!%@(@U!A!y!B!E!z!M!R!T!    ",
"T!I!F!P!D!E!A!y!B!E!z!.!*!,!=!  ",
"0!1!V!P!D!C!K!G!J!Q!>!+!|!%!^!#@",
"X!W!3!8!Y!T!J!5!%@(@9!{@.@@!#!)@",
"  7!7!N!Z!@@8!<!=@*@#@}!$!)!|@$@",
"      !@^@6!X!]![!{!&!-![@&@    ",
"          4!+@/!(!>@]@7!        ",
"            8!:!/@,@            ",
"          i!p!l!o!q!            ",
"2!2!2!2!2!m!c!x!j!n!2!2!2!2!2!  ",
"2!;!;!?!?!k!b!a!h!s!;!;!;!;!<@}@",
"<@<@<@<@<@d!f!g!e!r!<@<@<@<@<@-@",
"  *@}@}@}@t!u!u!w!v!-@}@}@}@}@}@",
"            *@}@}@}@*@          ",
};

