/* XPM */
char * image_data[] = {
"16  16  257  2",
"  	c	None",
"!!	c #f33233",
"@!	c #ee3334",
"#!	c #f53d3f",
"$!	c #be595a",
"%!	c #2e1d1e",
"^!	c #000000",
"&!	c #9898b7",
"*!	c #76768a",
"(!	c #646474",
")!	c #808093",
"{!	c #757584",
"}!	c #4e4e57",
"[!	c #ccccde",
"]!	c #2f2f33",
"|!	c #505056",
"+!	c #434348",
"=!	c #6d6d73",
"-!	c #3b3b3e",
",!	c #6f6f74",
".!	c #424245",
"<!	c #77777c",
">!	c #88888d",
"/!	c #4b4b4e",
"?!	c #8a8a8f",
";!	c #eaeaee",
":!	c #7b7b7c",
"a!	c #99999a",
"b!	c #81828e",
"c!	c #8b9098",
"d!	c #e0f1ff",
"e!	c #dff1ff",
"f!	c #d5ac32",
"g!	c #d1aa49",
"h!	c #573602",
"j!	c #804608",
"i!	c #7c4315",
"k!	c #d96921",
"l!	c #ad5626",
"m!	c #762f15",
"n!	c #d46a54",
"o!	c #dd6f60",
"p!	c #f06254",
"q!	c #a82921",
"r!	c #dc6761",
"s!	c #d52f28",
"t!	c #a91d1d",
"u!	c #e02727",
"v!	c #de2727",
"w!	c #ba2424",
"x!	c #e12d2c",
"y!	c #cb2a28",
"z!	c #f14444",
"A!	c #ff4f4f",
"B!	c #fd5554",
"C!	c #672323",
"D!	c #dc4d4d",
"E!	c #ff5c5c",
"F!	c #eb5d5d",
"G!	c #8d4141",
"H!	c #753636",
"I!	c #462222",
"J!	c #593636",
"K!	c #694242",
"L!	c #3d2b2b",
"M!	c #a07979",
"N!	c #765b5b",
"O!	c #544343",
"P!	c #fcfcfc",
"Q!	c #f7f7f7",
"R!	c #f2f2f2",
"S!	c #ececec",
"T!	c #e6e6e6",
"U!	c #e1e1e1",
"V!	c #dfdfdf",
"W!	c #dedede",
"X!	c #d8d8d8",
"Y!	c #d3d3d3",
"Z!	c #d1d1d1",
"0!	c #d0d0d0",
"1!	c #c9c9c9",
"2!	c #c7c7c7",
"3!	c #c3c3c3",
"4!	c #b9b9b9",
"5!	c #b8b8b8",
"6!	c #b5b5b5",
"7!	c #aeaeae",
"8!	c #a5a5a5",
"9!	c #a4a4a4",
"!@	c #a3a3a3",
"@@	c #9f9f9f",
"#@	c #9c9c9c",
"$@	c #999999",
"%@	c #989898",
"^@	c #929292",
"&@	c #8e8e8e",
"*@	c #8c8c8c",
"(@	c #888888",
")@	c #828282",
"{@	c #818181",
"}@	c #808080",
"[@	c #7f7f7f",
"]@	c #7c7c7c",
"|@	c #7a7a7a",
"+@	c #787878",
"=@	c #747474",
"-@	c #737373",
",@	c #717171",
".@	c #707070",
"<@	c #6b6b6b",
">@	c #6a6a6a",
"/@	c #616161",
"?@	c #585858",
";@	c #555555",
":@	c #535353",
"a@	c #515151",
"b@	c #4f4f4f",
"c@	c #4d4d4d",
"d@	c #404040",
"e@	c #333333",
"f@	c #262626",
"g@	c #1d1d1d",
"h@	c #000000",
"j@	c #000000",
"i@	c #000000",
"k@	c #000000",
"l@	c #000000",
"m@	c #000000",
"n@	c #000000",
"o@	c #000000",
"p@	c #000000",
"q@	c #000000",
"r@	c #000000",
"s@	c #000000",
"t@	c #000000",
"u@	c #000000",
"v@	c #000000",
"w@	c #000000",
"x@	c #000000",
"y@	c #000000",
"z@	c #000000",
"A@	c #000000",
"B@	c #000000",
"C@	c #000000",
"D@	c #000000",
"E@	c #000000",
"F@	c #000000",
"G@	c #000000",
"H@	c #000000",
"I@	c #000000",
"J@	c #000000",
"K@	c #000000",
"L@	c #000000",
"M@	c #000000",
"N@	c #000000",
"O@	c #000000",
"P@	c #000000",
"Q@	c #000000",
"R@	c #000000",
"S@	c #000000",
"T@	c #000000",
"U@	c #000000",
"V@	c #000000",
"W@	c #000000",
"X@	c #000000",
"Y@	c #000000",
"Z@	c #000000",
"0@	c #000000",
"1@	c #000000",
"2@	c #000000",
"3@	c #000000",
"4@	c #000000",
"5@	c #000000",
"6@	c #000000",
"7@	c #000000",
"8@	c #000000",
"9@	c #000000",
"!#	c #000000",
"@#	c #000000",
"##	c #000000",
"$#	c #000000",
"%#	c #000000",
"^#	c #000000",
"&#	c #000000",
"*#	c #000000",
"(#	c #000000",
")#	c #000000",
"{#	c #000000",
"}#	c #000000",
"[#	c #000000",
"]#	c #000000",
"|#	c #000000",
"+#	c #000000",
"=#	c #000000",
"-#	c #000000",
",#	c #000000",
".#	c #000000",
"<#	c #000000",
">#	c #000000",
"/#	c #000000",
"?#	c #000000",
";#	c #000000",
":#	c #000000",
"a#	c #000000",
"b#	c #000000",
"c#	c #000000",
"d#	c #000000",
"e#	c #000000",
"f#	c #000000",
"g#	c #000000",
"h#	c #000000",
"j#	c #000000",
"i#	c #000000",
"k#	c #000000",
"l#	c #000000",
"m#	c #000000",
"n#	c #000000",
"o#	c #000000",
"p#	c #000000",
"q#	c #000000",
"r#	c #000000",
"s#	c #000000",
"t#	c #000000",
"u#	c #000000",
"v#	c #000000",
"w#	c #000000",
"x#	c #000000",
"y#	c #000000",
"z#	c #000000",
"A#	c #000000",
"B#	c #000000",
"C#	c #000000",
"D#	c #000000",
"E#	c #000000",
"F#	c #000000",
"G#	c #000000",
"H#	c #000000",
"I#	c #000000",
"J#	c #000000",
"K#	c #000000",
"L#	c #000000",
"M#	c #000000",
"N#	c #000000",
"O#	c #000000",
"P#	c #000000",
"Q#	c #000000",
"R#	c #000000",
"S#	c #000000",
"T#	c #000000",
"U#	c #000000",
"V#	c #000000",
"W#	c #000000",
"X#	c #000000",
"Y#	c #000000",
"Z#	c #000000",
"0#	c #000000",
"1#	c #000000",

"                                ",
"        @@@@@@@@@@@@@@          ",
"  @@@@+@<@5!R!P!S!V!Q!@@@@@@    ",
"@@Y!W!2!U!V!R!P!S!V!Q!;![!?!>!  ",
"@@#@6!2!U!T!0!X!Z!3!a!<!.!)!{!]@",
"8!7!%@)@9!4!Z!&@+@<@{@/@e@&!*!>@",
"  (@(@1!!@[@)@:!c@.@]@=!(!|!a@|@",
"      }@=@*@8!,!-!+!}!/!;@,@    ",
"          ^@b@b!]!g@:@,@        ",
"        E!E!$!c!I!F!D!          ",
"          l!B!n!p!z!K!          ",
"$@$@$@$@$@g!r!A!#!m!-@$@$@$@$@  ",
"$@e!e!d!d!f!o!!!@!i!e!e!e!e!f@?@",
"f@f@f@f@f@k!x!q!y!s!%!f@f@f@f@d@",
"  .@?@?@G!v!t!h!j!u!w!O!?@?@?@?@",
"        M!H!L!c@?@J!C!N!        ",
};

