/* XPM */ 
static const unsigned char * picture_xpm[] = {
"16 16 144 2",
"  	c None",
"! 	c black",
"# 	c #C4D2D2",
"$ 	c white",
"% 	c #5D5D5E",
"& 	c #BEBDBE",
"' 	c #FFFFF6",
"( 	c #FFFEF1",
") 	c #FFFFF9",
"* 	c #FFFEF6",
"+ 	c #FFFFFA",
", 	c #FFFCF5",
"- 	c #FFFCF6",
". 	c #FFFCEE",
"0 	c #FFEFD2",
"1 	c #FFFFE1",
"2 	c #505256",
"3 	c #BDBEBE",
"4 	c #FFFEF9",
"5 	c #F5F2EA",
"6 	c #8388A3",
"7 	c #9EB1BF",
"8 	c #99ACBD",
"9 	c #98B3C2",
": 	c #AFBAC1",
"; 	c #AFBBC2",
"< 	c #95ACC1",
"= 	c #9AACBC",
"> 	c #9BB1C3",
"? 	c #C5C5C9",
"@ 	c #FFFBD6",
"A 	c #FFFAE5",
"B 	c #555759",
"C 	c #BDBDBE",
"D 	c #FFFFF8",
"E 	c #F6F1E7",
"F 	c #93ADD3",
"G 	c #8BD6FF",
"H 	c #AFE7FF",
"I 	c #BFE9FF",
"J 	c #D4F4FF",
"K 	c #D4F6FF",
"L 	c #CFE6E3",
"M 	c #A1E8FF",
"N 	c #9CD2FF",
"O 	c #C5C0BC",
"P 	c #F3F6E3",
"Q 	c #EDF8F2",
"R 	c #585758",
"S 	c #F6F1E9",
"T 	c #A1B5CB",
"U 	c #C3E2FF",
"V 	c #9A8A8B",
"W 	c #BDCCCF",
"X 	c #E1FAFF",
"Y 	c #E6FFF8",
"Z 	c #261B1D",
"[ 	c #CFD8E9",
"] 	c #BACAD6",
"^ 	c #BDBBBA",
"_ 	c #E5EEE7",
"` 	c #E9E8E9",
"a 	c #585858",
"b 	c #FBF9F3",
"c 	c #575553",
"d 	c #948B94",
"e 	c #88AD49",
"f 	c #455A3C",
"g 	c #CFF7DF",
"h 	c #92B979",
"i 	c #26320C",
"j 	c #3B3A3E",
"k 	c #3E3C3D",
"l 	c #CACACA",
"m 	c #E0DFE0",
"n 	c #EBEBEB",
"o 	c #FAF8F2",
"p 	c #7B7A7E",
"q 	c #112911",
"r 	c #424907",
"s 	c #292537",
"t 	c #314C35",
"u 	c #385900",
"v 	c #323E35",
"w 	c #220D00",
"x 	c #4A503D",
"y 	c #C0C0C3",
"z 	c #E1E1E1",
"{ 	c #666A70",
"| 	c #87755E",
"} 	c #8B898D",
"~ 	c #A7967C",
" !	c #CCB87E",
"!!	c #FFEED5",
"#!	c #FFEFCE",
"$!	c #FFF0B2",
"%!	c #FFF0A2",
"&!	c #B2B6BE",
"'!	c #F2F1ED",
"(!	c #BFB0B0",
")!	c #FFF5B1",
"*!	c #FFDF8A",
"+!	c #FFE49E",
",!	c #FFDA81",
"-!	c #FFD16F",
".!	c #FFCE6B",
"0!	c #FFC749",
"1!	c #BAB2A5",
"2!	c #BDBFC2",
"3!	c #E0E0E0",
"4!	c #F5F3ED",
"5!	c #898D91",
"6!	c #B0A38F",
"7!	c #C3A575",
"8!	c #C9A975",
"9!	c #7F8898",
":!	c #8B91A0",
";!	c #808763",
"<!	c #7C8494",
"=!	c #87878A",
">!	c #BABABA",
"?!	c #BFC0C0",
"@!	c #FFFFFB",
"A!	c #FBF9EE",
"B!	c #F3F4F5",
"C!	c #F9FBFF",
"D!	c #F9FAFC",
"E!	c #E4E8EE",
"F!	c #EEEEEE",
"G!	c #E5E5E5",
"H!	c #E6E6EA",
"I!	c #E7E7E7",
"J!	c #E6E6E6",
"K!	c #DEDEDE",
"L!	c #ECECEC",
"M!	c #C3C3C3",
"N!	c #FAF9F6",
"O!	c #F1F0EE",
"P!	c #F3F2EE",
"Q!	c #F2F1EE",
"R!	c #FBF9F2",
"S!	c #F1EFED",
"T!	c #F3F3F3",
"U!	c #666666",
"                                ",
"                                ",
"# $ $ $ $ $ $ $ $ $ $ $ $ $ $ % ",
"& ' ( ) * * + , - * * * . 0 1 2 ",
"3 4 5 6 7 8 9 : ; < = > ? @ A B ",
"C D E F G H I J K L M N O P Q R ",
"3 ) S T U V W X Y Z [ ] ^ _ ` a ",
"3 ) b c d e f g h i j k l m n a ",
"3 ) o p q r s t u v w x y z n a ",
"3 ) o { | } ~  !!!#!$!%!&!z n a ",
"C D '!(!)!*!+!,!-!.!0!1!2!3!n a ",
"3 ) 4!5!6!7!8!9!:!;!<!=!>!z n a ",
"?!@!A!B!C!D!E!F!G!H!I!J!z K!L!a ",
"M!N!O!P!Q!R!S!G!I!I!I!I!I!I!T!U!",
"                                ",
"                                "};