/* XPM */
char * image_data[] = {
"16  16  257  2",
"  	c	None",
"!!	c #fdfdfc",
"@!	c #f9f8f2",
"#!	c #f0eee2",
"$!	c #ebeae8",
"%!	c #e6e6e6",
"^!	c #efead8",
"&!	c #e8e4d6",
"*!	c #e4e0ce",
"(!	c #e2decd",
")!	c #c6d2da",
"{!	c #cad0d5",
"}!	c #c7d0d7",
"[!	c #dbd8c9",
"]!	c #d4d2c2",
"|!	c #c9c9c9",
"+!	c #a1afc8",
"=!	c #9eacc2",
"-!	c #c2bbb4",
",!	c #babbbc",
".!	c #a3a395",
"<!	c #98988d",
">!	c #4ba1e7",
"/!	c #4994d4",
"?!	c #278ddf",
";!	c #337fd4",
":!	c #1668c4",
"a!	c #436199",
"b!	c #1b69be",
"c!	c #235eb6",
"d!	c #355ba7",
"e!	c #003ba3",
"f!	c #003399",
"g!	c #003090",
"h!	c #163c86",
"j!	c #545453",
"i!	c #333333",
"k!	c #000000",
"l!	c #000000",
"m!	c #000000",
"n!	c #000000",
"o!	c #000000",
"p!	c #000000",
"q!	c #000000",
"r!	c #000000",
"s!	c #000000",
"t!	c #000000",
"u!	c #000000",
"v!	c #000000",
"w!	c #000000",
"x!	c #000000",
"y!	c #000000",
"z!	c #000000",
"A!	c #000000",
"B!	c #000000",
"C!	c #000000",
"D!	c #000000",
"E!	c #000000",
"F!	c #000000",
"G!	c #000000",
"H!	c #000000",
"I!	c #000000",
"J!	c #000000",
"K!	c #000000",
"L!	c #000000",
"M!	c #000000",
"N!	c #000000",
"O!	c #000000",
"P!	c #000000",
"Q!	c #000000",
"R!	c #000000",
"S!	c #000000",
"T!	c #000000",
"U!	c #000000",
"V!	c #000000",
"W!	c #000000",
"X!	c #000000",
"Y!	c #000000",
"Z!	c #000000",
"0!	c #000000",
"1!	c #000000",
"2!	c #000000",
"3!	c #000000",
"4!	c #000000",
"5!	c #000000",
"6!	c #000000",
"7!	c #000000",
"8!	c #000000",
"9!	c #000000",
"!@	c #000000",
"@@	c #000000",
"#@	c #000000",
"$@	c #000000",
"%@	c #000000",
"^@	c #000000",
"&@	c #000000",
"*@	c #000000",
"(@	c #000000",
")@	c #000000",
"{@	c #000000",
"}@	c #000000",
"[@	c #000000",
"]@	c #000000",
"|@	c #000000",
"+@	c #000000",
"=@	c #000000",
"-@	c #000000",
",@	c #000000",
".@	c #000000",
"<@	c #000000",
">@	c #000000",
"/@	c #000000",
"?@	c #000000",
";@	c #000000",
":@	c #000000",
"a@	c #000000",
"b@	c #000000",
"c@	c #000000",
"d@	c #000000",
"e@	c #000000",
"f@	c #000000",
"g@	c #000000",
"h@	c #000000",
"j@	c #000000",
"i@	c #000000",
"k@	c #000000",
"l@	c #000000",
"m@	c #000000",
"n@	c #000000",
"o@	c #000000",
"p@	c #000000",
"q@	c #000000",
"r@	c #000000",
"s@	c #000000",
"t@	c #000000",
"u@	c #000000",
"v@	c #000000",
"w@	c #000000",
"x@	c #000000",
"y@	c #000000",
"z@	c #000000",
"A@	c #000000",
"B@	c #000000",
"C@	c #000000",
"D@	c #000000",
"E@	c #000000",
"F@	c #000000",
"G@	c #000000",
"H@	c #000000",
"I@	c #000000",
"J@	c #000000",
"K@	c #000000",
"L@	c #000000",
"M@	c #000000",
"N@	c #000000",
"O@	c #000000",
"P@	c #000000",
"Q@	c #000000",
"R@	c #000000",
"S@	c #000000",
"T@	c #000000",
"U@	c #000000",
"V@	c #000000",
"W@	c #000000",
"X@	c #000000",
"Y@	c #000000",
"Z@	c #000000",
"0@	c #000000",
"1@	c #000000",
"2@	c #000000",
"3@	c #000000",
"4@	c #000000",
"5@	c #000000",
"6@	c #000000",
"7@	c #000000",
"8@	c #000000",
"9@	c #000000",
"!#	c #000000",
"@#	c #000000",
"##	c #000000",
"$#	c #000000",
"%#	c #000000",
"^#	c #000000",
"&#	c #000000",
"*#	c #000000",
"(#	c #000000",
")#	c #000000",
"{#	c #000000",
"}#	c #000000",
"[#	c #000000",
"]#	c #000000",
"|#	c #000000",
"+#	c #000000",
"=#	c #000000",
"-#	c #000000",
",#	c #000000",
".#	c #000000",
"<#	c #000000",
">#	c #000000",
"/#	c #000000",
"?#	c #000000",
";#	c #000000",
":#	c #000000",
"a#	c #000000",
"b#	c #000000",
"c#	c #000000",
"d#	c #000000",
"e#	c #000000",
"f#	c #000000",
"g#	c #000000",
"h#	c #000000",
"j#	c #000000",
"i#	c #000000",
"k#	c #000000",
"l#	c #000000",
"m#	c #000000",
"n#	c #000000",
"o#	c #000000",
"p#	c #000000",
"q#	c #000000",
"r#	c #000000",
"s#	c #000000",
"t#	c #000000",
"u#	c #000000",
"v#	c #000000",
"w#	c #000000",
"x#	c #000000",
"y#	c #000000",
"z#	c #000000",
"A#	c #000000",
"B#	c #000000",
"C#	c #000000",
"D#	c #000000",
"E#	c #000000",
"F#	c #000000",
"G#	c #000000",
"H#	c #000000",
"I#	c #000000",
"J#	c #000000",
"K#	c #000000",
"L#	c #000000",
"M#	c #000000",
"N#	c #000000",
"O#	c #000000",
"P#	c #000000",
"Q#	c #000000",
"R#	c #000000",
"S#	c #000000",
"T#	c #000000",
"U#	c #000000",
"V#	c #000000",
"W#	c #000000",
"X#	c #000000",
"Y#	c #000000",
"Z#	c #000000",
"0#	c #000000",
"1#	c #ffffff",

"                                ",
"                                ",
"                                ",
"        a!c!:!;!;!;!;!;!;!;!c!  ",
"{!{!,!<!e!?!?!?!?!?!?!>!>!/!b!i!",
"        d!*!(!(!(!(!(!(!*!&!f!i!",
")!|!<!h!=!.!<!<!<!<!<!.!$!+!i!  ",
"      f!]!<!j!%!%!%!%![!!!d!i!  ",
")!)!  d!]!<!-!$!$!$!$!#!#!f!i!  ",
"    h!=!@!!!!!!!!!!!!!!!=!i!    ",
"}!  f!&!^!^!^!^!^!^!^!^!d!i!    ",
"    f!f!f!f!f!f!f!f!f!f!i!      ",
"      i!i!i!i!i!i!i!i!i!i!      ",
"                                ",
"                                ",
"                                ",
};

