/* XPM */
char * image_data[] = {
"16  16  257  2",
"  	c	None",
"!!	c #ffffff",
"@!	c #f3f9f3",
"#!	c #cae5ca",
"$!	c #c5e3c5",
"%!	c #bbe3bb",
"^!	c #b6e2b6",
"&!	c #bcdebc",
"*!	c #b5dbb5",
"(!	c #abdcab",
")!	c #aed5ae",
"{!	c #a4d1a4",
"}!	c #9dda9d",
"[!	c #9ed19e",
"]!	c #9ccd9c",
"|!	c #96cb96",
"+!	c #8cd68c",
"=!	c #84d284",
"-!	c #8ecf8e",
",!	c #8cc68c",
".!	c #86cf86",
"<!	c #87c687",
">!	c #7cc17c",
"/!	c #65c165",
"?!	c #73b973",
";!	c #6cb66c",
":!	c #61be61",
"a!	c #65b365",
"b!	c #54b854",
"c!	c #56b656",
"d!	c #5dae5d",
"e!	c #54aa54",
"f!	c #4ba54b",
"g!	c #43a943",
"h!	c #44a244",
"j!	c #3ea13e",
"i!	c #34a934",
"k!	c #33a333",
"l!	c #2ab12a",
"m!	c #28ac28",
"n!	c #22ad22",
"o!	c #3c9f3c",
"p!	c #369b36",
"q!	c #2b982b",
"r!	c #2a962a",
"s!	c #259b25",
"t!	c #209220",
"u!	c #12b212",
"v!	c #1cae1c",
"w!	c #0fb30f",
"x!	c #0ba20b",
"y!	c #06a406",
"z!	c #1e991e",
"A!	c #168916",
"B!	c #039f03",
"C!	c #147d14",
"D!	c #147314",
"E!	c #0a740a",
"F!	c #027302",
"G!	c #0d6e0d",
"H!	c #026f02",
"I!	c #000000",
"J!	c #147d14",
"K!	c #147314",
"L!	c #0a740a",
"M!	c #027302",
"N!	c #0d6e0d",
"O!	c #026f02",
"P!	c #000000",
"Q!	c #000000",
"R!	c #000000",
"S!	c #000000",
"T!	c #000000",
"U!	c #000000",
"V!	c #000000",
"W!	c #000000",
"X!	c #000000",
"Y!	c #000000",
"Z!	c #000000",
"0!	c #000000",
"1!	c #000000",
"2!	c #000000",
"3!	c #000000",
"4!	c #000000",
"5!	c #000000",
"6!	c #000000",
"7!	c #000000",
"8!	c #000000",
"9!	c #000000",
"!@	c #000000",
"@@	c #000000",
"#@	c #000000",
"$@	c #000000",
"%@	c #000000",
"^@	c #000000",
"&@	c #000000",
"*@	c #000000",
"(@	c #000000",
")@	c #000000",
"{@	c #000000",
"}@	c #000000",
"[@	c #000000",
"]@	c #000000",
"|@	c #000000",
"+@	c #000000",
"=@	c #000000",
"-@	c #000000",
",@	c #000000",
".@	c #000000",
"<@	c #000000",
">@	c #000000",
"/@	c #000000",
"?@	c #000000",
";@	c #000000",
":@	c #000000",
"a@	c #000000",
"b@	c #000000",
"c@	c #000000",
"d@	c #000000",
"e@	c #000000",
"f@	c #000000",
"g@	c #000000",
"h@	c #000000",
"j@	c #000000",
"i@	c #000000",
"k@	c #000000",
"l@	c #000000",
"m@	c #000000",
"n@	c #000000",
"o@	c #000000",
"p@	c #000000",
"q@	c #000000",
"r@	c #000000",
"s@	c #000000",
"t@	c #000000",
"u@	c #000000",
"v@	c #000000",
"w@	c #000000",
"x@	c #000000",
"y@	c #000000",
"z@	c #000000",
"A@	c #000000",
"B@	c #000000",
"C@	c #000000",
"D@	c #000000",
"E@	c #000000",
"F@	c #000000",
"G@	c #000000",
"H@	c #000000",
"I@	c #000000",
"J@	c #000000",
"K@	c #000000",
"L@	c #000000",
"M@	c #000000",
"N@	c #000000",
"O@	c #000000",
"P@	c #000000",
"Q@	c #000000",
"R@	c #000000",
"S@	c #000000",
"T@	c #000000",
"U@	c #000000",
"V@	c #000000",
"W@	c #000000",
"X@	c #000000",
"Y@	c #000000",
"Z@	c #000000",
"0@	c #000000",
"1@	c #000000",
"2@	c #000000",
"3@	c #000000",
"4@	c #000000",
"5@	c #000000",
"6@	c #000000",
"7@	c #000000",
"8@	c #000000",
"9@	c #000000",
"!#	c #000000",
"@#	c #000000",
"##	c #000000",
"$#	c #000000",
"%#	c #000000",
"^#	c #000000",
"&#	c #000000",
"*#	c #000000",
"(#	c #000000",
")#	c #000000",
"{#	c #000000",
"}#	c #000000",
"[#	c #000000",
"]#	c #000000",
"|#	c #000000",
"+#	c #000000",
"=#	c #000000",
"-#	c #000000",
",#	c #000000",
".#	c #000000",
"<#	c #000000",
">#	c #000000",
"/#	c #000000",
"?#	c #000000",
";#	c #000000",
":#	c #000000",
"a#	c #000000",
"b#	c #000000",
"c#	c #000000",
"d#	c #000000",
"e#	c #000000",
"f#	c #000000",
"g#	c #000000",
"h#	c #000000",
"j#	c #000000",
"i#	c #000000",
"k#	c #000000",
"l#	c #000000",
"m#	c #000000",
"n#	c #000000",
"o#	c #000000",
"p#	c #000000",
"q#	c #000000",
"r#	c #000000",
"s#	c #000000",
"t#	c #000000",
"u#	c #000000",
"v#	c #000000",
"w#	c #000000",
"x#	c #000000",
"y#	c #000000",
"z#	c #000000",
"A#	c #000000",
"B#	c #000000",
"C#	c #000000",
"D#	c #000000",
"E#	c #000000",
"F#	c #000000",
"G#	c #000000",
"H#	c #000000",
"I#	c #000000",
"J#	c #000000",
"K#	c #000000",
"L#	c #000000",
"M#	c #000000",
"N#	c #000000",
"O#	c #000000",
"P#	c #000000",
"Q#	c #000000",
"R#	c #000000",
"S#	c #000000",
"T#	c #000000",
"U#	c #000000",
"V#	c #000000",
"W#	c #000000",
"X#	c #000000",
"Y#	c #000000",
"Z#	c #000000",
"0#	c #000000",
"1#	c #ffffff",

"    !!!!!!!!!!!!!!!!!!!!!!!!    ",
"  !!a!e!f!f!h!h!h!j!p!p!r!C!!!  ",
"!!;!.!>!;!a!a!#!$!e!e!f!h!o!D!!!",
"!!d!>!>!a!a!d!$!&!h!h!h!p!p!D!!!",
"!!f!;!a!!!*!f!*!&!p!{!!!q!r!D!!!",
"!!f!a!a!*!!!|!;!a!,!!![!q!r!D!!!",
"!!h!a!d!e!]!|!j!p!,!<!s!s!z!D!!!",
"!!o!$!#!$!?!h!j!k!k!b!^!*!(!D!!!",
"!!p!$!$!$!?!h!j!k!i!c!^!(!(!D!!!",
"!!r!e!e!e!]!]!h!j!-!=!n!v!x!D!!!",
"!!r!f!f!)!@!|!/!:!+!!!}!u!x!D!!!",
"!!t!h!f!!!)!g!$!%!l!}!@!w!y!D!!!",
"!!A!p!o!j!j!j!^!%!m!n!v!w!y!E!!!",
"!!C!q!p!p!p!p!*!(!x!x!x!y!B!F!!!",
"  !!G!D!D!D!D!D!D!E!E!E!F!H!!!  ",
"    !!!!!!!!!!!!!!!!!!!!!!!!    ",
};

