/* XPM */
char * image_data[] = {
"16  16  257  2",
"  	c	None",
"!!	c #000000",
"@!	c #ffe8ff",
"#!	c #fff4ff",
"$!	c #fffaff",
"%!	c #fffcff",
"^!	c #fdd9ff",
"&!	c #fcd9ff",
"*!	c #fce6ff",
"(!	c #f8d4ff",
")!	c #fcedff",
"{!	c #f4d2ff",
"}!	c #f9f4fc",
"[!	c #f3e8ff",
"]!	c #c2bbc9",
"|!	c #afabb3",
"+!	c #f9f4ff",
"=!	c #ede1ff",
"-!	c #c0b8cf",
",!	c #e6dbff",
".!	c #eee8ff",
"<!	c #b6aaec",
">!	c #d9d3ff",
"/!	c #9593a8",
"?!	c #bab8ef",
";!	c #dad8ff",
":!	c #dbd9ff",
"a!	c #5959b3",
"b!	c #494993",
"c!	c #343467",
"d!	c #6060b9",
"e!	c #6767c3",
"f!	c #464683",
"g!	c #444480",
"h!	c #44447e",
"j!	c #44447d",
"i!	c #4d4d8c",
"k!	c #4a4a87",
"l!	c #5e5ea7",
"m!	c #535393",
"n!	c #6060a9",
"o!	c #59599b",
"p!	c #6c6cbc",
"q!	c #6565ae",
"r!	c #7878cd",
"s!	c #7d7dd4",
"t!	c #6060a3",
"u!	c #7e7ed4",
"v!	c #8181d2",
"w!	c #7171b6",
"x!	c #9393ec",
"y!	c #9b9bf6",
"z!	c #5c5c8e",
"A!	c #ababfd",
"B!	c #3b3b57",
"C!	c #7979ac",
"D!	c #b2b2f9",
"E!	c #9e9ed9",
"F!	c #b4b4ee",
"G!	c #61617f",
"H!	c #a8a8db",
"I!	c #9f9fcf",
"J!	c #afafe2",
"K!	c #9b9bc7",
"L!	c #8686ac",
"M!	c #b7b7ea",
"N!	c #b9b9e6",
"O!	c #ceceff",
"P!	c #474758",
"Q!	c #cfcfff",
"R!	c #c5c5f3",
"S!	c #c2c2ee",
"T!	c #bdbde8",
"U!	c #c1c1ec",
"V!	c #bfbfe8",
"W!	c #d3d3ff",
"X!	c #d4d4ff",
"Y!	c #c6c6ec",
"Z!	c #4d4d5c",
"0!	c #d8d8ff",
"1!	c #d9d9ff",
"2!	c #d1d1f4",
"3!	c #aaaac6",
"4!	c #a1a1bc",
"5!	c #d6d6f9",
"6!	c #c9c9e9",
"7!	c #656575",
"8!	c #ddddff",
"9!	c #6e6e7f",
"!@	c #dedeff",
"@@	c #e0e0ff",
"#@	c #d7d7f5",
"$@	c #e1e1ff",
"%@	c #e2e2ff",
"^@	c #a6a6bc",
"&@	c #e3e3ff",
"*@	c #dbdbf5",
"(@	c #cbcbe2",
")@	c #e7e7ff",
"{@	c #a2a2b3",
"}@	c #797986",
"[@	c #e8e8ff",
"]@	c #9494a3",
"|@	c #9797a4",
"+@	c #ececff",
"=@	c #7b7b85",
"-@	c #47474d",
",@	c #9c9ca7",
".@	c #95959f",
"<@	c #808089",
">@	c #ccccd9",
"/@	c #f2f2ff",
"?@	c #ebebf8",
";@	c #7f7f86",
":@	c #f6f6ff",
"a@	c #e5e5ec",
"b@	c #808084",
"c@	c #a0a0a4",
"d@	c #757578",
"e@	c #acacb0",
"f@	c #aaaaae",
"g@	c #fbfbff",
"h@	c #727274",
"j@	c #f9f9fc",
"i@	c #a4a4a6",
"k@	c #8d8d8f",
"l@	c #989899",
"m@	c #ffffff",
"n@	c #e2e2e2",
"o@	c #b3b3b3",
"p@	c #a9a9a9",
"q@	c #a0a0a0",
"r@	c #8c8c8c",
"s@	c #868686",
"t@	c #838383",
"u@	c #7f7f7f",
"v@	c #7e7e7e",
"w@	c #737373",
"x@	c #6e6e6e",
"y@	c #676767",
"z@	c #656565",
"A@	c #616161",
"B@	c #5f5f5f",
"C@	c #585858",
"D@	c #575757",
"E@	c #555555",
"F@	c #515151",
"G@	c #505050",
"H@	c #4d4d4d",
"I@	c #4c4c4c",
"J@	c #464646",
"K@	c #000000",
"L@	c #000000",
"M@	c #000000",
"N@	c #000000",
"O@	c #000000",
"P@	c #000000",
"Q@	c #000000",
"R@	c #000000",
"S@	c #000000",
"T@	c #000000",
"U@	c #000000",
"V@	c #000000",
"W@	c #000000",
"X@	c #000000",
"Y@	c #000000",
"Z@	c #000000",
"0@	c #000000",
"1@	c #000000",
"2@	c #000000",
"3@	c #000000",
"4@	c #000000",
"5@	c #000000",
"6@	c #000000",
"7@	c #000000",
"8@	c #000000",
"9@	c #000000",
"!#	c #000000",
"@#	c #000000",
"##	c #000000",
"$#	c #000000",
"%#	c #000000",
"^#	c #000000",
"&#	c #000000",
"*#	c #000000",
"(#	c #000000",
")#	c #000000",
"{#	c #000000",
"}#	c #000000",
"[#	c #000000",
"]#	c #000000",
"|#	c #000000",
"+#	c #000000",
"=#	c #000000",
"-#	c #000000",
",#	c #000000",
".#	c #000000",
"<#	c #000000",
">#	c #000000",
"/#	c #000000",
"?#	c #000000",
";#	c #000000",
":#	c #000000",
"a#	c #000000",
"b#	c #000000",
"c#	c #000000",
"d#	c #000000",
"e#	c #000000",
"f#	c #000000",
"g#	c #000000",
"h#	c #000000",
"j#	c #000000",
"i#	c #000000",
"k#	c #000000",
"l#	c #000000",
"m#	c #000000",
"n#	c #000000",
"o#	c #000000",
"p#	c #000000",
"q#	c #000000",
"r#	c #000000",
"s#	c #000000",
"t#	c #000000",
"u#	c #000000",
"v#	c #000000",
"w#	c #000000",
"x#	c #000000",
"y#	c #000000",
"z#	c #000000",
"A#	c #000000",
"B#	c #000000",
"C#	c #000000",
"D#	c #000000",
"E#	c #000000",
"F#	c #000000",
"G#	c #000000",
"H#	c #000000",
"I#	c #000000",
"J#	c #000000",
"K#	c #000000",
"L#	c #000000",
"M#	c #000000",
"N#	c #000000",
"O#	c #000000",
"P#	c #000000",
"Q#	c #000000",
"R#	c #000000",
"S#	c #000000",
"T#	c #000000",
"U#	c #000000",
"V#	c #000000",
"W#	c #000000",
"X#	c #000000",
"Y#	c #000000",
"Z#	c #000000",
"0#	c #000000",
"1#	c #000000",

"          ,@i@f@l@,@            ",
"      q@o@a@/@+@)@(@|@,@        ",
"    r@n@m@:@+@)@%@8!0!3!v@      ",
"  ,@n@m@m@g@)@&@8!0!W!O!4!s@    ",
"  e@m@m@m@m@.!,!:!W!O!z!j!7!s@  ",
",@K!6!?@m@#!^!(!*!;!O!z!b!d!9!  ",
".@H!J!M!2!)!|!=@-!+!X!z!e!a!h!A@",
",@T!S!R!5![!D@H@}@$!N!z!>@m!c!A@",
"c@[@&@!@@@)!/!h@]!}!I!z!>@C!B!I@",
"p@*@!@1!X!=!&!{!@!%!j@z!>@L!F@u@",
",@{@1!X!Q!O!>!<!?!x!w!z!>@b@E@s@",
"  k@Y!Q!O!W!F!D!$@A!n!q!]@G@w@  ",
"    <@U!W!1!E!s!y!u!k!r!Z!C@s@  ",
"      d@^@#@V!g!i!f!l!v!-@s@    ",
"        t@A@;@G!o!p!t!P!z@      ",
"          s@r@x@y@E@J@B@        ",
};

