/* XPM */
char * image_data[] = {
"16  16  257  2",
"  	c	None",
"!!	c #feffff",
"@!	c #f4fbff",
"#!	c #f2f3f8",
"$!	c #eaf7ff",
"%!	c #e4f4ff",
"^!	c #ecf2f3",
"&!	c #e5edf4",
"*!	c #dcf2ff",
"(!	c #d7f2ff",
")!	c #daeeff",
"{!	c #d4ecff",
"}!	c #ccebff",
"[!	c #cee6ff",
"]!	c #c4e3ff",
"|!	c #d9e6eb",
"+!	c #bbe0ff",
"=!	c #bcdfff",
"-!	c #b5ddff",
",!	c #bccae5",
".!	c #9bd5ff",
"<!	c #87c2f3",
">!	c #99c2ed",
"/!	c #86baf3",
"?!	c #82b2ef",
";!	c #8ea9d7",
":!	c #dfd8b4",
"a!	c #dcd3aa",
"b!	c #d3ca97",
"c!	c #a1afae",
"d!	c #87a9b8",
"e!	c #869fa6",
"f!	c #ac9495",
"g!	c #949d9d",
"h!	c #8b989a",
"j!	c #60b0f3",
"i!	c #73aae5",
"k!	c #5fa1ec",
"l!	c #6d9ee1",
"m!	c #71aed7",
"n!	c #5ea5db",
"o!	c #6a9bde",
"p!	c #6c8fc9",
"q!	c #5c92da",
"r!	c #5595de",
"s!	c #5f8ad2",
"t!	c #589aca",
"u!	c #5881c4",
"v!	c #3db3ff",
"w!	c #348ddd",
"x!	c #2d7ad5",
"y!	c #2576d3",
"z!	c #2d7cca",
"A!	c #2271cf",
"B!	c #2c74c7",
"C!	c #296fc4",
"D!	c #1d79d8",
"E!	c #0167d0",
"F!	c #1762c3",
"G!	c #0062cb",
"H!	c #005ccb",
"I!	c #0059c7",
"J!	c #0055c2",
"K!	c #4875be",
"L!	c #2b6dba",
"M!	c #2d60b5",
"N!	c #2867af",
"O!	c #2260a5",
"P!	c #235eb8",
"Q!	c #1b56b4",
"R!	c #0252bc",
"S!	c #0e4baf",
"T!	c #0445af",
"U!	c #255d9e",
"V!	c #265b91",
"W!	c #335e86",
"X!	c #27588e",
"Y!	c #184a9f",
"Z!	c #1e568f",
"0!	c #13408a",
"1!	c #023fa5",
"2!	c #0c3d90",
"3!	c #0e3b84",
"4!	c #cfbc70",
"5!	c #c7b870",
"6!	c #ceb14a",
"7!	c #caab3e",
"8!	c #d0a82b",
"9!	c #cba52a",
"!@	c #cea524",
"@@	c #cc990f",
"#@	c #bf7770",
"$@	c #945e5e",
"%@	c #d2552a",
"^@	c #777777",
"&@	c #6f6f6f",
"*@	c #504848",
"(@	c #434343",
")@	c #254364",
"{@	c #1d4570",
"}@	c #103275",
"[@	c #083878",
"]@	c #153c6a",
"|@	c #1a3769",
"+@	c #09356f",
"=@	c #102b61",
"-@	c #263147",
",@	c #192e55",
".@	c #3d3c3c",
"<@	c #000000",
">@	c #000000",
"/@	c #000000",
"?@	c #000000",
";@	c #000000",
":@	c #000000",
"a@	c #000000",
"b@	c #000000",
"c@	c #000000",
"d@	c #000000",
"e@	c #000000",
"f@	c #000000",
"g@	c #000000",
"h@	c #000000",
"j@	c #000000",
"i@	c #000000",
"k@	c #000000",
"l@	c #000000",
"m@	c #000000",
"n@	c #000000",
"o@	c #000000",
"p@	c #000000",
"q@	c #000000",
"r@	c #000000",
"s@	c #000000",
"t@	c #000000",
"u@	c #000000",
"v@	c #000000",
"w@	c #000000",
"x@	c #000000",
"y@	c #000000",
"z@	c #000000",
"A@	c #000000",
"B@	c #000000",
"C@	c #000000",
"D@	c #000000",
"E@	c #000000",
"F@	c #000000",
"G@	c #000000",
"H@	c #000000",
"I@	c #000000",
"J@	c #000000",
"K@	c #000000",
"L@	c #000000",
"M@	c #000000",
"N@	c #000000",
"O@	c #000000",
"P@	c #000000",
"Q@	c #000000",
"R@	c #000000",
"S@	c #000000",
"T@	c #000000",
"U@	c #000000",
"V@	c #000000",
"W@	c #000000",
"X@	c #000000",
"Y@	c #000000",
"Z@	c #000000",
"0@	c #000000",
"1@	c #000000",
"2@	c #000000",
"3@	c #000000",
"4@	c #000000",
"5@	c #000000",
"6@	c #000000",
"7@	c #000000",
"8@	c #000000",
"9@	c #000000",
"!#	c #000000",
"@#	c #000000",
"##	c #000000",
"$#	c #000000",
"%#	c #000000",
"^#	c #000000",
"&#	c #000000",
"*#	c #000000",
"(#	c #000000",
")#	c #000000",
"{#	c #000000",
"}#	c #000000",
"[#	c #000000",
"]#	c #000000",
"|#	c #000000",
"+#	c #000000",
"=#	c #000000",
"-#	c #000000",
",#	c #000000",
".#	c #000000",
"<#	c #000000",
">#	c #000000",
"/#	c #000000",
"?#	c #000000",
";#	c #000000",
":#	c #000000",
"a#	c #000000",
"b#	c #000000",
"c#	c #000000",
"d#	c #000000",
"e#	c #000000",
"f#	c #000000",
"g#	c #000000",
"h#	c #000000",
"j#	c #000000",
"i#	c #000000",
"k#	c #000000",
"l#	c #000000",
"m#	c #000000",
"n#	c #000000",
"o#	c #000000",
"p#	c #000000",
"q#	c #000000",
"r#	c #000000",
"s#	c #000000",
"t#	c #000000",
"u#	c #000000",
"v#	c #000000",
"w#	c #000000",
"x#	c #000000",
"y#	c #000000",
"z#	c #000000",
"A#	c #000000",
"B#	c #000000",
"C#	c #000000",
"D#	c #000000",
"E#	c #000000",
"F#	c #000000",
"G#	c #000000",
"H#	c #000000",
"I#	c #000000",
"J#	c #000000",
"K#	c #000000",
"L#	c #000000",
"M#	c #000000",
"N#	c #000000",
"O#	c #000000",
"P#	c #000000",
"Q#	c #000000",
"R#	c #000000",
"S#	c #000000",
"T#	c #000000",
"U#	c #000000",
"V#	c #000000",
"W#	c #000000",
"X#	c #000000",
"Y#	c #000000",
"Z#	c #000000",
"0#	c #000000",
"1#	c #ffffff",

"                                ",
"      &@&@u!w!D!E!W!            ",
"  w!E!I!I!R!F!K!B!)@.@          ",
"  I!B!o!;!,!&!!!>!)@.@          ",
"  I!!!!!!!!!^!:!/!-@.@          ",
"  I!!!!!@!$!a!:!/!-@.@          ",
"  I!$!@!$!%!@@)!>!|@.@i!c!%@$@  ",
"  I!&!#!%!|!@@}!i!u!.!.!p!$@.@  ",
"  I![!@@:!a!@@e!/!.!u!W!.@.@    ",
"  I!=!|!@@@@c!h!o!{@.@.@        ",
"  I!,!*!:!@@-!j!/!)@.@          ",
"  I!>!{!]!-!+!.!j!}@.@          ",
"  I!>!*!]!-!/!u!U!-@.@          ",
"  I!i!/!K!U!)@.@.@.@            ",
"  I!K!U!)@.@.@.@                ",
"  .@.@.@.@                      ",
};

