/* XPM */
char * image_data[] = {
"16  16  257  2",
"  	c	None",
"!!	c #feffff",
"@!	c #f4faff",
"#!	c #f2f3f8",
"$!	c #e4f3ff",
"%!	c #e5edf4",
"^!	c #dbf1ff",
"&!	c #dcedfd",
"*!	c #d4ecff",
"(!	c #cdebff",
")!	c #c4e3ff",
"{!	c #cadbf2",
"}!	c #cad9d5",
"[!	c #d1d8cb",
"]!	c #bde1ff",
"|!	c #bbdeff",
"+!	c #b5dcff",
"=!	c #b2cbee",
"-!	c #bccae5",
",!	c #9bd5ff",
".!	c #99c2ed",
"<!	c #86baf3",
">!	c #9cbce8",
"/!	c #82b2ef",
"?!	c #d2c380",
";!	c #ac9495",
":!	c #949d9d",
"a!	c #8b989a",
"b!	c #60b0f3",
"c!	c #5fa1ec",
"d!	c #6d9ee1",
"e!	c #4c9ae0",
"f!	c #61a5d4",
"g!	c #6a9bde",
"h!	c #5d92da",
"j!	c #5595de",
"i!	c #5f8aca",
"k!	c #3db3ff",
"l!	c #348ddd",
"m!	c #78a0b5",
"n!	c #2d7ad5",
"o!	c #2576d3",
"p!	c #2271cf",
"q!	c #2c74c7",
"r!	c #0d6dd0",
"s!	c #1762c3",
"t!	c #0059c7",
"u!	c #0055c2",
"v!	c #2b6dba",
"w!	c #2867af",
"x!	c #2260a5",
"y!	c #2252a9",
"z!	c #0151bc",
"A!	c #255d9e",
"B!	c #335e86",
"C!	c #27588e",
"D!	c #093080",
"E!	c #d1b659",
"F!	c #d2b553",
"G!	c #cca934",
"H!	c #cca529",
"I!	c #d14e14",
"J!	c #6f6f6f",
"K!	c #5c5c5b",
"L!	c #545353",
"M!	c #51514f",
"N!	c #434343",
"O!	c #224f7c",
"P!	c #173164",
"Q!	c #263147",
"R!	c #715b25",
"S!	c #443e3e",
"T!	c #3c3c3c",
"U!	c #37393c",
"V!	c #000000",
"W!	c #000000",
"X!	c #000000",
"Y!	c #000000",
"Z!	c #000000",
"0!	c #000000",
"1!	c #000000",
"2!	c #000000",
"3!	c #000000",
"4!	c #000000",
"5!	c #000000",
"6!	c #000000",
"7!	c #000000",
"8!	c #000000",
"9!	c #000000",
"!@	c #000000",
"@@	c #000000",
"#@	c #000000",
"$@	c #000000",
"%@	c #000000",
"^@	c #000000",
"&@	c #000000",
"*@	c #000000",
"(@	c #000000",
")@	c #000000",
"{@	c #000000",
"}@	c #000000",
"[@	c #000000",
"]@	c #000000",
"|@	c #000000",
"+@	c #000000",
"=@	c #000000",
"-@	c #000000",
",@	c #000000",
".@	c #000000",
"<@	c #000000",
">@	c #000000",
"/@	c #000000",
"?@	c #000000",
";@	c #000000",
":@	c #000000",
"a@	c #000000",
"b@	c #000000",
"c@	c #000000",
"d@	c #000000",
"e@	c #000000",
"f@	c #000000",
"g@	c #000000",
"h@	c #000000",
"j@	c #000000",
"i@	c #000000",
"k@	c #000000",
"l@	c #000000",
"m@	c #000000",
"n@	c #000000",
"o@	c #000000",
"p@	c #000000",
"q@	c #000000",
"r@	c #000000",
"s@	c #000000",
"t@	c #000000",
"u@	c #000000",
"v@	c #000000",
"w@	c #000000",
"x@	c #000000",
"y@	c #000000",
"z@	c #000000",
"A@	c #000000",
"B@	c #000000",
"C@	c #000000",
"D@	c #000000",
"E@	c #000000",
"F@	c #000000",
"G@	c #000000",
"H@	c #000000",
"I@	c #000000",
"J@	c #000000",
"K@	c #000000",
"L@	c #000000",
"M@	c #000000",
"N@	c #000000",
"O@	c #000000",
"P@	c #000000",
"Q@	c #000000",
"R@	c #000000",
"S@	c #000000",
"T@	c #000000",
"U@	c #000000",
"V@	c #000000",
"W@	c #000000",
"X@	c #000000",
"Y@	c #000000",
"Z@	c #000000",
"0@	c #000000",
"1@	c #000000",
"2@	c #000000",
"3@	c #000000",
"4@	c #000000",
"5@	c #000000",
"6@	c #000000",
"7@	c #000000",
"8@	c #000000",
"9@	c #000000",
"!#	c #000000",
"@#	c #000000",
"##	c #000000",
"$#	c #000000",
"%#	c #000000",
"^#	c #000000",
"&#	c #000000",
"*#	c #000000",
"(#	c #000000",
")#	c #000000",
"{#	c #000000",
"}#	c #000000",
"[#	c #000000",
"]#	c #000000",
"|#	c #000000",
"+#	c #000000",
"=#	c #000000",
"-#	c #000000",
",#	c #000000",
".#	c #000000",
"<#	c #000000",
">#	c #000000",
"/#	c #000000",
"?#	c #000000",
";#	c #000000",
":#	c #000000",
"a#	c #000000",
"b#	c #000000",
"c#	c #000000",
"d#	c #000000",
"e#	c #000000",
"f#	c #000000",
"g#	c #000000",
"h#	c #000000",
"j#	c #000000",
"i#	c #000000",
"k#	c #000000",
"l#	c #000000",
"m#	c #000000",
"n#	c #000000",
"o#	c #000000",
"p#	c #000000",
"q#	c #000000",
"r#	c #000000",
"s#	c #000000",
"t#	c #000000",
"u#	c #000000",
"v#	c #000000",
"w#	c #000000",
"x#	c #000000",
"y#	c #000000",
"z#	c #000000",
"A#	c #000000",
"B#	c #000000",
"C#	c #000000",
"D#	c #000000",
"E#	c #000000",
"F#	c #000000",
"G#	c #000000",
"H#	c #000000",
"I#	c #000000",
"J#	c #000000",
"K#	c #000000",
"L#	c #000000",
"M#	c #000000",
"N#	c #000000",
"O#	c #000000",
"P#	c #000000",
"Q#	c #000000",
"R#	c #000000",
"S#	c #000000",
"T#	c #000000",
"U#	c #000000",
"V#	c #000000",
"W#	c #000000",
"X#	c #000000",
"Y#	c #000000",
"Z#	c #000000",
"0#	c #000000",
"1#	c #ffffff",

"                                ",
"      J!J!i!l!o!r!B!            ",
"  l!r!t!t!z!s!q!q!P!T!          ",
"  t!q!g!/!-!%!!!.!P!T!          ",
"  t!!!!!!!!!#![!<!Q!T!          ",
"  t!!!!!@!$![![!<!Q!T!          ",
"  t!$!@!$!$!H!^!.!P!T!d!:!I!K!  ",
"  t!%!#!$!%!H!(!d!i!,!,!i!K!T!  ",
"  t!(!H![![!H!a!<!,!i!B!T!T!    ",
"  t!|!%!H!H!:!a!g!O!T!T!        ",
"  t!-!^![!H!+!b!<!P!T!          ",
"  t!.!*!)!+!|!,!b!D!T!          ",
"  t!.!^!)!+!<!i!A!Q!T!          ",
"  t!d!<!q!A!P!T!T!T!            ",
"  t!q!A!P!T!T!T!                ",
"  T!T!T!T!                      ",
};

