/* XPM */
char * image_data[] = {
"16  16  257  2",
"  	c	None",
"!!	c #6c4f59",
"@!	c #000000",
"#!	c #606c60",
"$!	c #668059",
"%!	c #c08a41",
"^!	c #bb751c",
"&!	c #b37629",
"*!	c #817571",
"(!	c #c8725b",
")!	c #c43714",
"{!	c #d54825",
"}!	c #a04630",
"[!	c #7f594f",
"]!	c #b4a7a4",
"|!	c #cdcccc",
"+!	c #d6d6d6",
"=!	c #d0d0d0",
"-!	c #cacaca",
",!	c #c0c0c0",
".!	c #bebebe",
"<!	c #b8b8b8",
">!	c #b5b5b5",
"/!	c #b1b1b1",
"?!	c #acacac",
";!	c #ababab",
":!	c #a5a5a5",
"a!	c #a4a4a4",
"b!	c #a1a1a1",
"c!	c #a0a0a0",
"d!	c #989898",
"e!	c #969696",
"f!	c #8f8f8f",
"g!	c #8d8d8d",
"h!	c #8c8c8c",
"j!	c #888888",
"i!	c #858585",
"k!	c #838383",
"l!	c #808080",
"m!	c #7e7e7e",
"n!	c #7d7d7d",
"o!	c #7c7c7c",
"p!	c #787878",
"q!	c #777777",
"r!	c #747474",
"s!	c #727272",
"t!	c #6d6d6d",
"u!	c #6c6c6c",
"v!	c #6a6a6a",
"w!	c #636363",
"x!	c #616161",
"y!	c #5f5f5f",
"z!	c #5e5e5e",
"A!	c #5c5c5c",
"B!	c #5a5a5a",
"C!	c #595959",
"D!	c #555555",
"E!	c #535353",
"F!	c #4f4f4f",
"G!	c #4e4e4e",
"H!	c #4d4d4d",
"I!	c #444444",
"J!	c #434343",
"K!	c #404040",
"L!	c #3e3e3e",
"M!	c #3d3d3d",
"N!	c #3c3c3c",
"O!	c #3a3a3a",
"P!	c #393939",
"Q!	c #383838",
"R!	c #343434",
"S!	c #333333",
"T!	c #303030",
"U!	c #000000",
"V!	c #000000",
"W!	c #000000",
"X!	c #000000",
"Y!	c #000000",
"Z!	c #000000",
"0!	c #000000",
"1!	c #000000",
"2!	c #000000",
"3!	c #000000",
"4!	c #000000",
"5!	c #000000",
"6!	c #000000",
"7!	c #000000",
"8!	c #000000",
"9!	c #000000",
"!@	c #000000",
"@@	c #000000",
"#@	c #000000",
"$@	c #000000",
"%@	c #000000",
"^@	c #000000",
"&@	c #000000",
"*@	c #000000",
"(@	c #000000",
")@	c #000000",
"{@	c #000000",
"}@	c #000000",
"[@	c #000000",
"]@	c #000000",
"|@	c #000000",
"+@	c #000000",
"=@	c #000000",
"-@	c #000000",
",@	c #000000",
".@	c #000000",
"<@	c #000000",
">@	c #000000",
"/@	c #000000",
"?@	c #000000",
";@	c #000000",
":@	c #000000",
"a@	c #000000",
"b@	c #000000",
"c@	c #000000",
"d@	c #000000",
"e@	c #000000",
"f@	c #000000",
"g@	c #000000",
"h@	c #000000",
"j@	c #000000",
"i@	c #000000",
"k@	c #000000",
"l@	c #000000",
"m@	c #000000",
"n@	c #000000",
"o@	c #000000",
"p@	c #000000",
"q@	c #000000",
"r@	c #000000",
"s@	c #000000",
"t@	c #000000",
"u@	c #000000",
"v@	c #000000",
"w@	c #000000",
"x@	c #000000",
"y@	c #000000",
"z@	c #000000",
"A@	c #000000",
"B@	c #000000",
"C@	c #000000",
"D@	c #000000",
"E@	c #000000",
"F@	c #000000",
"G@	c #000000",
"H@	c #000000",
"I@	c #000000",
"J@	c #000000",
"K@	c #000000",
"L@	c #000000",
"M@	c #000000",
"N@	c #000000",
"O@	c #000000",
"P@	c #000000",
"Q@	c #000000",
"R@	c #000000",
"S@	c #000000",
"T@	c #000000",
"U@	c #000000",
"V@	c #000000",
"W@	c #000000",
"X@	c #000000",
"Y@	c #000000",
"Z@	c #000000",
"0@	c #000000",
"1@	c #000000",
"2@	c #000000",
"3@	c #000000",
"4@	c #000000",
"5@	c #000000",
"6@	c #000000",
"7@	c #000000",
"8@	c #000000",
"9@	c #000000",
"!#	c #000000",
"@#	c #000000",
"##	c #000000",
"$#	c #000000",
"%#	c #000000",
"^#	c #000000",
"&#	c #000000",
"*#	c #000000",
"(#	c #000000",
")#	c #000000",
"{#	c #000000",
"}#	c #000000",
"[#	c #000000",
"]#	c #000000",
"|#	c #000000",
"+#	c #000000",
"=#	c #000000",
"-#	c #000000",
",#	c #000000",
".#	c #000000",
"<#	c #000000",
">#	c #000000",
"/#	c #000000",
"?#	c #000000",
";#	c #000000",
":#	c #000000",
"a#	c #000000",
"b#	c #000000",
"c#	c #000000",
"d#	c #000000",
"e#	c #000000",
"f#	c #000000",
"g#	c #000000",
"h#	c #000000",
"j#	c #000000",
"i#	c #000000",
"k#	c #000000",
"l#	c #000000",
"m#	c #000000",
"n#	c #000000",
"o#	c #000000",
"p#	c #000000",
"q#	c #000000",
"r#	c #000000",
"s#	c #000000",
"t#	c #000000",
"u#	c #000000",
"v#	c #000000",
"w#	c #000000",
"x#	c #000000",
"y#	c #000000",
"z#	c #000000",
"A#	c #000000",
"B#	c #000000",
"C#	c #000000",
"D#	c #000000",
"E#	c #000000",
"F#	c #000000",
"G#	c #000000",
"H#	c #000000",
"I#	c #000000",
"J#	c #000000",
"K#	c #000000",
"L#	c #000000",
"M#	c #000000",
"N#	c #000000",
"O#	c #000000",
"P#	c #000000",
"Q#	c #000000",
"R#	c #000000",
"S#	c #000000",
"T#	c #000000",
"U#	c #000000",
"V#	c #000000",
"W#	c #000000",
"X#	c #000000",
"Y#	c #000000",
"Z#	c #000000",
"0#	c #000000",
"1#	c #000000",

"                                ",
"                                ",
"                                ",
"                                ",
"      ?!?!>!?!a!c!?!?!          ",
"  ?!.!-!,!>!;!b!e!h!n!p!$!      ",
"j!+!=!<!;!b!e!h!*!!!)!{!B!$!$!  ",
"J!H!m!/!?!f!n!}!&!#!(!]!g!T!J!$!",
"s!S!Q!H!r!e!q![!^!%!:!<!|!S!S!t!",
"  u!L!S!Q!F!s!A!L!O!G!C!w!M!N!D!",
"    $!y!N!R!Q!F!O!S!S!Q!I!K!x!  ",
"        $!z!N!P!O!N!J!E!v!k!    ",
"            $!i!o!l!d!          ",
"                                ",
"                                ",
"                                ",
};

