/* XPM */
char * image_data[] = {
"16  16  257  2",
"  	c	None",
"!!	c #000000",
"@!	c #fffaff",
"#!	c #716f71",
"$!	c #fde9ff",
"%!	c #f7d8ff",
"^!	c #f7daff",
"&!	c #cac0cd",
"*!	c #f3d9ff",
"(!	c #f9f4ff",
")!	c #b4aec0",
"{!	c #f5f0ff",
"}!	c #e3deff",
"[!	c #e9e5ff",
"]!	c #7f7d8a",
"|!	c #e6e2ff",
"+!	c #d4d3ff",
"=!	c #ccccff",
"-!	c #ceceff",
",!	c #cfcfff",
".!	c #d1d1ff",
"<!	c #d2d2ff",
">!	c #b3b3d9",
"/!	c #b5b5d9",
"?!	c #d6d6ff",
";!	c #d7d7ff",
":!	c #dadaff",
"a!	c #d2d2f5",
"b!	c #a9a9c5",
"c!	c #dfdfff",
"d!	c #c5c5e2",
"e!	c #e3e3ff",
"f!	c #72727f",
"g!	c #575761",
"h!	c #bbbbcf",
"j!	c #e8e8ff",
"i!	c #888896",
"k!	c #e9e9ff",
"l!	c #82828e",
"m!	c #595961",
"n!	c #ebebff",
"o!	c #b4b4c4",
"p!	c #858590",
"q!	c #b1b1bd",
"r!	c #83838c",
"s!	c #7c7c84",
"t!	c #6b6b72",
"u!	c #4c4c51",
"v!	c #c6c6d2",
"w!	c #888890",
"x!	c #f3f3ff",
"y!	c #77777d",
"z!	c #f4f4ff",
"A!	c #7c7c82",
"B!	c #f5f5ff",
"C!	c #bebec6",
"D!	c #b9b9c1",
"E!	c #b6b6be",
"F!	c #86868c",
"G!	c #a2a2a8",
"H!	c #99999f",
"I!	c #5b5b5e",
"J!	c #bdbdc3",
"K!	c #f9f9ff",
"L!	c #4a4a4c",
"M!	c #fafaff",
"N!	c #838386",
"O!	c #79797b",
"P!	c #c1c1c4",
"Q!	c #a0a0a2",
"R!	c #9b9b9d",
"S!	c #dadadc",
"T!	c #c7c7c8",
"U!	c #9f9fa0",
"V!	c #969697",
"W!	c #8b8b8c",
"X!	c #88948a",
"Y!	c #596554",
"Z!	c #ffffff",
"0!	c #f5f5f5",
"1!	c #f4f4f4",
"2!	c #f2f2f2",
"3!	c #ececec",
"4!	c #eaeaea",
"5!	c #e5e5e5",
"6!	c #e1e1e1",
"7!	c #e0e0e0",
"8!	c #dfdfdf",
"9!	c #dedede",
"!@	c #d6d6d6",
"@@	c #d5d5d5",
"#@	c #d3d3d3",
"$@	c #d2d2d2",
"%@	c #d1d1d1",
"^@	c #d0d0d0",
"&@	c #cecece",
"*@	c #cdcdcd",
"(@	c #cbcbcb",
")@	c #c9c9c9",
"{@	c #c5c5c5",
"}@	c #c2c2c2",
"[@	c #c0c0c0",
"]@	c #bebebe",
"|@	c #bdbdbd",
"+@	c #bcbcbc",
"=@	c #bbbbbb",
"-@	c #bababa",
",@	c #b8b8b8",
".@	c #b5b5b5",
"<@	c #b4b4b4",
">@	c #adadad",
"/@	c #a4a4a4",
"?@	c #9f9f9f",
";@	c #949494",
":@	c #8f8f8f",
"a@	c #8c8c8c",
"b@	c #8b8b8b",
"c@	c #888888",
"d@	c #878787",
"e@	c #868686",
"f@	c #808080",
"g@	c #7d7d7d",
"h@	c #7a7a7a",
"j@	c #747474",
"i@	c #707070",
"k@	c #676767",
"l@	c #5c5c5c",
"m@	c #535353",
"n@	c #4e4e4e",
"o@	c #494949",
"p@	c #000000",
"q@	c #000000",
"r@	c #000000",
"s@	c #000000",
"t@	c #000000",
"u@	c #000000",
"v@	c #000000",
"w@	c #000000",
"x@	c #000000",
"y@	c #000000",
"z@	c #000000",
"A@	c #000000",
"B@	c #000000",
"C@	c #000000",
"D@	c #000000",
"E@	c #000000",
"F@	c #000000",
"G@	c #000000",
"H@	c #000000",
"I@	c #000000",
"J@	c #000000",
"K@	c #000000",
"L@	c #000000",
"M@	c #000000",
"N@	c #000000",
"O@	c #000000",
"P@	c #000000",
"Q@	c #000000",
"R@	c #000000",
"S@	c #000000",
"T@	c #000000",
"U@	c #000000",
"V@	c #000000",
"W@	c #000000",
"X@	c #000000",
"Y@	c #000000",
"Z@	c #000000",
"0@	c #000000",
"1@	c #000000",
"2@	c #000000",
"3@	c #000000",
"4@	c #000000",
"5@	c #000000",
"6@	c #000000",
"7@	c #000000",
"8@	c #000000",
"9@	c #000000",
"!#	c #000000",
"@#	c #000000",
"##	c #000000",
"$#	c #000000",
"%#	c #000000",
"^#	c #000000",
"&#	c #000000",
"*#	c #000000",
"(#	c #000000",
")#	c #000000",
"{#	c #000000",
"}#	c #000000",
"[#	c #000000",
"]#	c #000000",
"|#	c #000000",
"+#	c #000000",
"=#	c #000000",
"-#	c #000000",
",#	c #000000",
".#	c #000000",
"<#	c #000000",
">#	c #000000",
"/#	c #000000",
"?#	c #000000",
";#	c #000000",
":#	c #000000",
"a#	c #000000",
"b#	c #000000",
"c#	c #000000",
"d#	c #000000",
"e#	c #000000",
"f#	c #000000",
"g#	c #000000",
"h#	c #000000",
"j#	c #000000",
"i#	c #000000",
"k#	c #000000",
"l#	c #000000",
"m#	c #000000",
"n#	c #000000",
"o#	c #000000",
"p#	c #000000",
"q#	c #000000",
"r#	c #000000",
"s#	c #000000",
"t#	c #000000",
"u#	c #000000",
"v#	c #000000",
"w#	c #000000",
"x#	c #000000",
"y#	c #000000",
"z#	c #000000",
"A#	c #000000",
"B#	c #000000",
"C#	c #000000",
"D#	c #000000",
"E#	c #000000",
"F#	c #000000",
"G#	c #000000",
"H#	c #000000",
"I#	c #000000",
"J#	c #000000",
"K#	c #000000",
"L#	c #000000",
"M#	c #000000",
"N#	c #000000",
"O#	c #000000",
"P#	c #000000",
"Q#	c #000000",
"R#	c #000000",
"S#	c #000000",
"T#	c #000000",
"U#	c #000000",
"V#	c #000000",
"W#	c #000000",
"X#	c #000000",
"Y#	c #000000",
"Z#	c #000000",
"0#	c #000000",
"1#	c #000000",

"          D!P!D!D!D!            ",
"        +@3!z!n!e!d!a@          ",
"      D!0!Z!x!e!:!<!/!a@        ",
"      o!B!Z!$!^!}!,!?!A!        ",
"    D!>!=!|!&!]!{!<!:!l!a@      ",
"    D!a!:![!)!#!(!=!=!f!a@      ",
"      h!:!+!*!%!@!K!k!I!a@      ",
"      q!.!-!;!c!M!Z!>@m@a@      ",
"  7!9!(@b!;!c!j!B!*@.@?@=@      ",
"|@6!2!1!8!E!v!C!U!=@!@^@=@O!N!  ",
",@}@]@&@5!4!6!{@[@{@V!F!i!X!Y!;@",
"/@|@$@{@-@]@<@:@d@y!w!J!S!%@t!g@",
"  a@c@)@@@)@h@W!Q!T!#@G!r!g!n@b@",
"      f@j@a@k@H!R!p!m!L!m@i@    ",
"          e@m@s!u!o@l@e@        ",
"              e@b@e@            ",
};

