/* XPM */
char * image_data[] = {
"16  16  53  2",
"  	c	None",
"!!	c #000000",
"@!	c #717171",
"#!	c #7e7e7e",
"$!	c #5d5d5d",
"%!	c #5c5c5c",
"^!	c #515151",
"&!	c #767676",
"*!	c #8b8b8b",
"(!	c #bdbdbd",
")!	c #666666",
"{!	c #4e4e4e",
"}!	c #595959",
"[!	c #646464",
"]!	c #575757",
"|!	c #868686",
"+!	c #a8a8a8",
"=!	c #c1c1c1",
"-!	c #8d8d8d",
",!	c #808080",
".!	c #6c6c6c",
"<!	c #333333",
">!	c #545454",
"/!	c #5a5a5a",
"?!	c #bbbbbb",
";!	c #a3a3a3",
":!	c #909090",
"a!	c #939393",
"b!	c #b2b2b2",
"c!	c #cdcdcd",
"d!	c #b5b6b6",
"e!	c #8f8f8f",
"f!	c #727272",
"g!	c #464546",
"h!	c #838383",
"j!	c #9b9b9b",
"i!	c #b0b0b0",
"k!	c #c6c6c6",
"l!	c #dcdcdc",
"m!	c #e1e1e1",
"n!	c #dedede",
"o!	c #d7d7d7",
"p!	c #cecece",
"q!	c #c8c8c8",
"r!	c #acacac",
"s!	c #6d6d6d",
"t!	c #626162",
"u!	c #8e8e8e",
"v!	c #d2d2d2",
"w!	c #dadada",
"x!	c #d9d9d9",
"y!	c #bfbfbf",
"z!	c #b8b8b8",
"                                ",
"                                ",
"                                ",
"      z!z!z!z!z!z!z!z!          ",
"  z!z!m!m!m!m!m!m!m!m!y!y!y!    ",
"|!v!m!m!m!m!m!m!m!m!n!w!x!x!y!u!",
"|!j!i!k!l!m!m!m!n!o!p!q!r!s!t!u!",
"|!?!;!:!a!b!c!d!e!f!)!g!<!<!h!@!",
"  |!|!+!=!-!,!.!<!<!<!<!>!@!/!&!",
"      @!@!*!(!)!{!}!}![!]!&!&!  ",
"          @!#!$!%!^!^!&!&!      ",
"              @!@!@!@!          ",
"                                ",
"                                ",
"                                ",
"                                ",
};

