/* XPM */
static char * earth_picture[] = {
"16  16  257  2",
"  	c	None",
"!!	c #e5e5f5",
"@!	c #e6e6ed",
"#!	c #e4e4e4",
"$!	c #deebf8",
"%!	c #d6d6ee",
"^!	c #f5e1db",
"&!	c #ffded5",
"*!	c #dfdfdf",
"(!	c #d3d3d3",
")!	c #cccccc",
"{!	c #c3c3c3",
"}!	c #8ac7ff",
"[!	c #b4f0c0",
"]!	c #adc1d1",
"|!	c #a8a8c8",
"+!	c #aaaac1",
"=!	c #93b2d4",
"-!	c #96a7c6",
",!	c #b4f3b5",
".!	c #a9ecac",
"<!	c #a6ecab",
">!	c #acefa0",
"/!	c #92e38b",
"?!	c #82d787",
";!	c #fcbead",
":!	c #fdb9a7",
"a!	c #deb7a8",
"b!	c #f6ae9a",
"c!	c #bcbcbc",
"d!	c #b6b6b6",
"e!	c #aaaabc",
"f!	c #aaaab5",
"g!	c #a9a9ab",
"h!	c #afa6af",
"j!	c #6bade2",
"i!	c #53a3cc",
"k!	c #609dd4",
"l!	c #4d9dd9",
"m!	c #32a5f1",
"n!	c #29a1f5",
"o!	c #2ea1ee",
"p!	c #319ce9",
"q!	c #2a9de9",
"r!	c #0081e7",
"s!	c #1d88cc",
"t!	c #058cc2",
"u!	c #7fb898",
"v!	c #72879b",
"w!	c #1589b9",
"x!	c #0072d8",
"y!	c #006ad0",
"z!	c #027bc3",
"A!	c #5a6592",
"B!	c #4a758f",
"C!	c #1d62b8",
"D!	c #0e68a4",
"E!	c #0059bf",
"F!	c #0d5ca8",
"G!	c #0047ad",
"H!	c #3b599c",
"I!	c #0d4d99",
"J!	c #163f8b",
"K!	c #0d3e8a",
"L!	c #98e57d",
"M!	c #89de68",
"N!	c #81da5b",
"O!	c #61ca6c",
"P!	c #71b267",
"Q!	c #71b257",
"R!	c #2aae6e",
"S!	c #28ac63",
"T!	c #22a559",
"U!	c #1e824f",
"V!	c #66cc39",
"W!	c #59c62e",
"X!	c #51c229",
"Y!	c #5ea83a",
"Z!	c #008029",
"0!	c #3eb81f",
"1!	c #f56844",
"2!	c #ac736e",
"3!	c #616161",
"4!	c #546973",
"5!	c #4b6a60",
"6!	c #495264",
"7!	c #5a5a5a",
"8!	c #545454",
"9!	c #434a56",
"!@	c #4a4a4a",
"@@	c #3a6673",
"#@	c #2a5a71",
"$@	c #285575",
"%@	c #334376",
"^@	c #245e68",
"&@	c #354b6e",
"*@	c #236646",
"(@	c #0d7e59",
")@	c #0d7b49",
"{@	c #397039",
"}@	c #396b3b",
"[@	c #326d32",
"]@	c #086710",
"|@	c #037d03",
"+@	c #007100",
"=@	c #006c00",
"-@	c #000000",
",@	c #0b9a90",
".@	c #008a97",
"<@	c #13978e",
">@	c #0e9187",
"/@	c #008187",
"?@	c #937f83",
";@	c #455ec0",
":@	c #027de2",
"a@	c #1e7ed5",
"b@	c #0079df",
"c@	c #0074da",
"d@	c #0070d6",
"e@	c #006bd1",
"f@	c #1e6cc4",
"g@	c #0065cb",
"h@	c #005cc2",
"j@	c #5466a7",
"i@	c #425baa",
"k@	c #46668b",
"l@	c #1b6bb1",
"m@	c #1879ab",
"n@	c #085abc",
"o@	c #0058be",
"p@	c #0055bb",
"q@	c #0b52b3",
"r@	c #0051b7",
"s@	c #1345ab",
"t@	c #0a4dae",
"u@	c #0049af",
"v@	c #0043a9",
"w@	c #0040a6",
"x@	c #016a93",
"y@	c #2a5383",
"z@	c #1c4c9b",
"A@	c #00389e",
"B@	c #133c8c",
"C@	c #90e177",
"D@	c #83da72",
"E@	c #8bde6a",
"F@	c #83db6c",
"G@	c #81d95b",
"H@	c #f78e72",
"I@	c #97847f",
"J@	c #6ecf71",
"K@	c #7fd95a",
"L@	c #7bd653",
"M@	c #75d44b",
"N@	c #70d143",
"O@	c #6fd041",
"P@	c #6ccf44",
"Q@	c #54c349",
"R@	c #1da86e",
"S@	c #008270",
"T@	c #2aac55",
"U@	c #6ed03f",
"V@	c #67cd35",
"W@	c #5bc63b",
"X@	c #5ec930",
"Y@	c #5bc62d",
"Z@	c #52c229",
"0@	c #48bd24",
"1@	c #43bb22",
"2@	c #24a839",
"3@	c #2eae25",
"4@	c #3db81f",
"5@	c #3cb71e",
"6@	c #35b41b",
"7@	c #009700",
"8@	c #008404",
"9@	c #fd724f",
"!#	c #af705f",
"@#	c #f95f37",
"##	c #7b7b7b",
"$#	c #79737a",
"%#	c #737379",
"^#	c #737373",
"&#	c #6a6a6a",
"*#	c #616161",
"(#	c #47607a",
")#	c #565656",
"{#	c #48515e",
"}#	c #4a4e54",
"[#	c #454649",
"]#	c #3a6674",
"|#	c #26607a",
"+#	c #316662",
"=#	c #20616e",
"-#	c #136463",
",#	c #344a61",
".#	c #2e665c",
"<#	c #236647",
">#	c #007455",
"/#	c #26425b",
"?#	c #354043",
";#	c #253e6b",
":#	c #353d56",
"a#	c #2c3d57",
"b#	c #263a53",
"c#	c #383f4e",
"d#	c #27354f",
"e#	c #2f3542",
"f#	c #356c29",
"g#	c #1e663c",
"h#	c #006930",
"j#	c #007926",
"i#	c #13652a",
"k#	c #2b4134",
"l#	c #31522b",
"m#	c #2b4f29",
"n#	c #264226",
"o#	c #005f39",
"p#	c #007b0e",
"q#	c #00710c",
"r#	c #007800",
"s#	c #007500",
"t#	c #006d0e",
"u#	c #06660c",
"v#	c #006b00",
"w#	c #016702",
"x#	c #1d551d",
"y#	c #383838",
"z#	c #333333",
"A#	c #000000",
"B#	c #000000",
"C#	c #000000",
"D#	c #000000",
"E#	c #000000",
"F#	c #000000",
"G#	c #000000",
"H#	c #000000",
"I#	c #000000",
"J#	c #000000",
"K#	c #000000",
"L#	c #000000",
"M#	c #000000",
"N#	c #000000",
"O#	c #000000",
"P#	c #000000",
"Q#	c #000000",
"R#	c #000000",
"S#	c #000000",
"T#	c #000000",
"U#	c #000000",
"V#	c #000000",
"W#	c #000000",
"X#	c #000000",
"Y#	c #000000",
"Z#	c #000000",
"0#	c #000000",
"1#	c #ffffff",

"            W!W!W!W!            ",
"        .!/!L!N!W!T!p!r!        ",
"      ?!M!.!,!/!V!S!r!z!z!      ",
"    X!X!N!<!>![!O!R!t!Z!(@B!    ",
"    w!0!Y!P!Q!u!i!s!)@|@+@B!    ",
"  v!x!U!d!d!d!c!c!c!c![@=@^@3!  ",
"  v!y!D!{!q!q!o!m!m!#!{@]@#@3!  ",
"  v!E!F!{!n!]!^!h!n!@!}@*@$@3!  ",
"  v!G!I!)!l!;!&!:!k!@!5!@@&@3!  ",
"  v!C!K!)!j!1!b!a!j!!!4!H!9!    ",
"    v!J!(!}!-!2!=!}!!!A!%@3!    ",
"      v!#!$!$!$!$!$!!!6!8!      ",
"        #!*!*!*!*!*!%!8!        ",
"        g!g!f!f!e!+!|!8!        ",
"        !@7!!@!@!@!@!@7!        ",
"                                ",
};

