/* XPM */
char * image_data[] = {
"16  16  257  2",
"  	c	None",
"!!	c #000000",
"@!	c #4e67cd",
"#!	c #3b60c6",
"$!	c #3556b0",
"%!	c #4466bb",
"^!	c #0e3b9e",
"&!	c #1743a9",
"*!	c #355bb5",
"(!	c #0c3ca1",
")!	c #35476b",
"{!	c #434549",
"}!	c #013ca2",
"[!	c #3066c8",
"]!	c #355ca1",
"|!	c #154699",
"+!	c #4c5564",
"=!	c #0048ae",
"-!	c #0045ab",
",!	c #0044aa",
".!	c #1d5dbd",
"<!	c #3761a0",
">!	c #38414e",
"/!	c #515d6e",
"?!	c #195db7",
";!	c #30445e",
":!	c #81a9dd",
"a!	c #80a6d8",
"b!	c #6a82a3",
"c!	c #687c96",
"d!	c #5e6875",
"e!	c #a4b5cb",
"f!	c #b9c5d5",
"g!	c #0057bd",
"h!	c #0051b7",
"j!	c #81abe1",
"i!	c #82ace2",
"k!	c #8eb5e7",
"l!	c #91b7e4",
"m!	c #8092a9",
"n!	c #8395ab",
"o!	c #c0d4ed",
"p!	c #acb9c9",
"q!	c #005bc1",
"r!	c #304862",
"s!	c #94c2f3",
"t!	c #8eb6e2",
"u!	c #89add4",
"v!	c #92b5dc",
"w!	c #a0c3e9",
"x!	c #0069cf",
"y!	c #0067cd",
"z!	c #247ace",
"A!	c #3580ce",
"B!	c #345575",
"C!	c #91bae5",
"D!	c #9ac1e7",
"E!	c #a7cbee",
"F!	c #65727f",
"G!	c #0072d8",
"H!	c #5b7a98",
"I!	c #a7cef3",
"J!	c #a9cff3",
"K!	c #a9cded",
"L!	c #a8ccec",
"M!	c #aed1f0",
"N!	c #abcceb",
"O!	c #a8c5e0",
"P!	c #c5ddf3",
"Q!	c #2987d8",
"R!	c #80b9e9",
"S!	c #a2cdf2",
"T!	c #a5d0f3",
"U!	c #a8d1f3",
"V!	c #b2dafc",
"W!	c #b5deff",
"X!	c #afcee9",
"Y!	c #9fb8ce",
"Z!	c #0081e7",
"0!	c #0063ad",
"1!	c #0d8bea",
"2!	c #1d90eb",
"3!	c #5babe7",
"4!	c #9bc3e1",
"5!	c #0279cf",
"6!	c #269cf1",
"7!	c #98cbee",
"8!	c #b0ddfc",
"9!	c #b3d8f3",
"!@	c #b8daf2",
"@@	c #2db0ff",
"#@	c #b9e3fd",
"$@	c #c7e8fc",
"%@	c #3cb7ff",
"^@	c #265169",
"&@	c #c8e5f6",
"*@	c #255a74",
"(@	c #c5ebff",
")@	c #4aa5ce",
"{@	c #027eb4",
"}@	c #7eaabc",
"[@	c #cdf0ff",
"]@	c #0497cc",
"|@	c #0c8ab0",
"+@	c #129fc1",
"=@	c #59c5d7",
"-@	c #75d4e6",
",@	c #87d1df",
".@	c #3db8c8",
"<@	c #03565c",
">@	c #70a9aa",
"/@	c #d9f6f5",
"?@	c #72b4b0",
";@	c #50c1b7",
":@	c #00826e",
"a@	c #018c75",
"b@	c #18a288",
"c@	c #199d84",
"d@	c #04745b",
"e@	c #418874",
"f@	c #018256",
"g@	c #09955c",
"h@	c #3a9068",
"j@	c #84dbaf",
"i@	c #a4eac6",
"k@	c #70ce91",
"l@	c #0a9e35",
"m@	c #a7e7b8",
"n@	c #166d29",
"o@	c #8eda9e",
"p@	c #016d10",
"q@	c #b6eebd",
"r@	c #096811",
"s@	c #10a017",
"t@	c #30ad34",
"u@	c #008e00",
"v@	c #008b00",
"w@	c #008200",
"x@	c #007d00",
"y@	c #007800",
"z@	c #20a71e",
"A@	c #9ee89a",
"B@	c #b2f2ae",
"C@	c #bdf7b8",
"D@	c #90e183",
"E@	c #34b31a",
"F@	c #3eb81f",
"G@	c #42ba21",
"H@	c #70d158",
"I@	c #a6ec93",
"J@	c #91e278",
"K@	c #99e581",
"L@	c #9fe888",
"M@	c #51c229",
"N@	c #97e57d",
"O@	c #58c52d",
"P@	c #5fc933",
"Q@	c #60c933",
"R@	c #6bcf3f",
"S@	c #6ccf40",
"T@	c #7ed856",
"U@	c #85dc61",
"V@	c #c3c3c3",
"W@	c #b7b7b7",
"X@	c #ababab",
"Y@	c #9f9f9f",
"Z@	c #888888",
"0@	c #707070",
"1@	c #646464",
"2@	c #4c4c4c",
"3@	c #404040",
"4@	c #000000",
"5@	c #000000",
"6@	c #000000",
"7@	c #000000",
"8@	c #000000",
"9@	c #000000",
"!#	c #000000",
"@#	c #000000",
"##	c #000000",
"$#	c #000000",
"%#	c #000000",
"^#	c #000000",
"&#	c #000000",
"*#	c #000000",
"(#	c #000000",
")#	c #000000",
"{#	c #000000",
"}#	c #000000",
"[#	c #000000",
"]#	c #000000",
"|#	c #000000",
"+#	c #000000",
"=#	c #000000",
"-#	c #000000",
",#	c #000000",
".#	c #000000",
"<#	c #000000",
">#	c #000000",
"/#	c #000000",
"?#	c #000000",
";#	c #000000",
":#	c #000000",
"a#	c #000000",
"b#	c #000000",
"c#	c #000000",
"d#	c #000000",
"e#	c #000000",
"f#	c #000000",
"g#	c #000000",
"h#	c #000000",
"j#	c #000000",
"i#	c #000000",
"k#	c #000000",
"l#	c #000000",
"m#	c #000000",
"n#	c #000000",
"o#	c #000000",
"p#	c #000000",
"q#	c #000000",
"r#	c #000000",
"s#	c #000000",
"t#	c #000000",
"u#	c #000000",
"v#	c #000000",
"w#	c #000000",
"x#	c #000000",
"y#	c #000000",
"z#	c #000000",
"A#	c #000000",
"B#	c #000000",
"C#	c #000000",
"D#	c #000000",
"E#	c #000000",
"F#	c #000000",
"G#	c #000000",
"H#	c #000000",
"I#	c #000000",
"J#	c #000000",
"K#	c #000000",
"L#	c #000000",
"M#	c #000000",
"N#	c #000000",
"O#	c #000000",
"P#	c #000000",
"Q#	c #000000",
"R#	c #000000",
"S#	c #000000",
"T#	c #000000",
"U#	c #000000",
"V#	c #000000",
"W#	c #000000",
"X#	c #000000",
"Y#	c #000000",
"Z#	c #000000",
"0#	c #000000",
"1#	c #000000",

"      /@q@j@;@k@,@7!            ",
"    m@J@I@L@T@M@c@1!7!          ",
"  o@R@N@C@B@D@O@b@Z!f@}@        ",
"  t@P@U@A@K@i@=@+@a@w@d@V@      ",
"3!|@G@Q@S@H@-@%@]@u@x@p@B!      ",
"Q!5!z@E@F@.@@@6!)@?@>@n@^@V@    ",
"z!x!{@g@s@l@2!X!K!8!T!4!H!Y@    ",
"A!g!y!G!:@v@h@a!L!!@[@(@#@n!    ",
"R!-!h!q!0!y@e@a!C!U!9!l!i!/!X@  ",
"R!?!}!,!=!r@<@]!t!S!:!N!&@F!V@  ",
"  R!.!&!|!*@(!^!*!k!j!b!Y!$@p!  ",
"    R!<![!%!@!#!$!)!{!3@Z@O!D!W@",
"      R!Z@r!;!>!+!d!e!o!P!V!u!2@",
"            f!M!W!J!I!E!v!m!{!1@",
"            w!s!c!3@3@3@2@0@Z@  ",
"              2@3@Z@            ",
};

