/* XPM */
char * image_data[] = {
"16  16  257  2",
"  	c	None",
"!!	c #000000",
"@!	c #2d1d52",
"#!	c #37285c",
"$!	c #3a2e66",
"%!	c #4c4175",
"^!	c #4a3f79",
"&!	c #4e4482",
"*!	c #85809f",
"(!	c #554d84",
")!	c #6e6894",
"{!	c #4f497f",
"}!	c #7570a1",
"[!	c #7470b2",
"]!	c #5a5abd",
"|!	c #7070cc",
"+!	c #7777c9",
"=!	c #8c8ccc",
"-!	c #8e8ecd",
",!	c #9292cf",
".!	c #8f8fc1",
"<!	c #9696c1",
">!	c #9898c3",
"/!	c #9696bd",
"?!	c #a7a7d1",
";!	c #b3b3db",
":!	c #a8a8cc",
"a!	c #b2b2d5",
"b!	c #b4b4d3",
"c!	c #acacc7",
"d!	c #a7a7c0",
"e!	c #b3b3c9",
"f!	c #c2c2d8",
"g!	c #c1c1d6",
"h!	c #b2b2c6",
"j!	c #b7b7ca",
"i!	c #d9d9ec",
"k!	c #bdbdcb",
"l!	c #d5d5db",
"m!	c #d7d7dc",
"n!	c #dadade",
"o!	c #dcdcdf",
"p!	c #d9d9dc",
"q!	c #dcdcde",
"r!	c #dededf",
"s!	c #686aa3",
"t!	c #131657",
"u!	c #9396c1",
"v!	c #a0a3ca",
"w!	c #131a5b",
"x!	c #abaecb",
"y!	c #a2a5bf",
"z!	c #434d8f",
"A!	c #9ba4d6",
"B!	c #8691cb",
"C!	c #808dc3",
"D!	c #15276d",
"E!	c #909dcd",
"F!	c #3b5ac0",
"G!	c #5c6fad",
"H!	c #9aaade",
"I!	c #3251a9",
"J!	c #8599cf",
"K!	c #3859b0",
"L!	c #3c5dac",
"M!	c #6781c3",
"N!	c #849ad4",
"O!	c #426bc7",
"P!	c #6888cf",
"Q!	c #3366cc",
"R!	c #4f76c6",
"S!	c #97a5c0",
"T!	c #033ea4",
"U!	c #2257b7",
"V!	c #295dba",
"W!	c #013ea4",
"X!	c #0e48aa",
"Y!	c #3475d6",
"Z!	c #81a8e2",
"0!	c #004bb1",
"1!	c #3076d7",
"2!	c #266dc8",
"3!	c #a2bee2",
"4!	c #0059bf",
"5!	c #0065cb",
"6!	c #2073c9",
"7!	c #8db3d8",
"8!	c #afc7e0",
"9!	c #c5d4e2",
"!@	c #054b88",
"@@	c #2885d7",
"#@	c #3292e1",
"$@	c #49a1ec",
"%@	c #8bc5f5",
"^@	c #84b9e6",
"&@	c #9abbd6",
"*@	c #96c3e7",
"(@	c #8fa5b6",
")@	c #0078ce",
"{@	c #3ea7f1",
"}@	c #67bbf6",
"[@	c #35b3ff",
"]@	c #38b1fe",
"|@	c #48b8fc",
"+@	c #95b6ca",
"=@	c #3ab6ff",
"-@	c #3cb6ff",
",@	c #44bbff",
".@	c #4cbeff",
"<@	c #4dbfff",
">@	c #52c2ff",
"/@	c #53c2ff",
"?@	c #8cc8eb",
";@	c #54c3ff",
":@	c #57c4ff",
"a@	c #5ac6ff",
"b@	c #62caff",
"c@	c #64cbff",
"d@	c #6aceff",
"e@	c #6bceff",
"f@	c #58a2c8",
"g@	c #6ccfff",
"h@	c #6ed0ff",
"j@	c #79d5ff",
"i@	c #7bd6ff",
"k@	c #7dd7ff",
"l@	c #80caed",
"m@	c #1aa5e0",
"n@	c #81d9ff",
"o@	c #82daff",
"p@	c #83daff",
"q@	c #85dbff",
"r@	c #94ddfa",
"s@	c #a4ccdd",
"t@	c #8cdfff",
"u@	c #8ee0ff",
"v@	c #90e1ff",
"w@	c #91e1ff",
"x@	c #0682a9",
"y@	c #4493ae",
"z@	c #9ae6ff",
"A@	c #9be6ff",
"B@	c #9fe8ff",
"C@	c #a0e9ff",
"D@	c #a3eaff",
"E@	c #adefff",
"F@	c #74b6c5",
"G@	c #b0f1ff",
"H@	c #b2f2ff",
"I@	c #bae6ee",
"J@	c #006a7b",
"K@	c #b7f5ff",
"L@	c #329ba6",
"M@	c #c2faff",
"N@	c #cbfeff",
"O@	c #116a68",
"P@	c #a3cbbe",
"Q@	c #0d5c42",
"R@	c #23a168",
"S@	c #028c46",
"T@	c #70d19e",
"U@	c #62bb81",
"V@	c #018e1f",
"W@	c #83db92",
"X@	c #96df9c",
"Y@	c #007700",
"Z@	c #5ec85f",
"0@	c #20a71e",
"1@	c #aae3a9",
"2@	c #2bae24",
"3@	c #a1ea95",
"4@	c #b8f5ae",
"5@	c #a4eb94",
"6@	c #4cbf26",
"7@	c #56c42d",
"8@	c #8fe170",
"9@	c #69cd3d",
"!#	c #83db5e",
"@#	c #95cf7d",
"##	c #f2f2f2",
"$#	c #f1f1f1",
"%#	c #eeeeee",
"^#	c #ededed",
"&#	c #ebebeb",
"*#	c #e3e3e3",
"(#	c #000000",
")#	c #000000",
"{#	c #000000",
"}#	c #000000",
"[#	c #000000",
"]#	c #000000",
"|#	c #000000",
"+#	c #000000",
"=#	c #000000",
"-#	c #000000",
",#	c #000000",
".#	c #000000",
"<#	c #000000",
">#	c #000000",
"/#	c #000000",
"?#	c #000000",
";#	c #000000",
":#	c #000000",
"a#	c #000000",
"b#	c #000000",
"c#	c #000000",
"d#	c #000000",
"e#	c #000000",
"f#	c #000000",
"g#	c #000000",
"h#	c #000000",
"j#	c #000000",
"i#	c #000000",
"k#	c #000000",
"l#	c #000000",
"m#	c #000000",
"n#	c #000000",
"o#	c #000000",
"p#	c #000000",
"q#	c #000000",
"r#	c #000000",
"s#	c #000000",
"t#	c #000000",
"u#	c #000000",
"v#	c #000000",
"w#	c #000000",
"x#	c #000000",
"y#	c #000000",
"z#	c #000000",
"A#	c #000000",
"B#	c #000000",
"C#	c #000000",
"D#	c #000000",
"E#	c #000000",
"F#	c #000000",
"G#	c #000000",
"H#	c #000000",
"I#	c #000000",
"J#	c #000000",
"K#	c #000000",
"L#	c #000000",
"M#	c #000000",
"N#	c #000000",
"O#	c #000000",
"P#	c #000000",
"Q#	c #000000",
"R#	c #000000",
"S#	c #000000",
"T#	c #000000",
"U#	c #000000",
"V#	c #000000",
"W#	c #000000",
"X#	c #000000",
"Y#	c #000000",
"Z#	c #000000",
"0#	c #000000",
"1#	c #000000",

"    F@X@W@Z@L@1!Q!R!P!N!E!u!O!  ",
"  U@8@4@3@@#P@8!k!h!y!S!&@7!$!  ",
"f@6@!#5@1@o!(@+@s@I@N@M@E@r@^!  ",
"#@R@7@9@T@9!l@v@D@H@K@G@C@t@&!  ",
"@@x@0@2@m@^@?@n@w@A@B@z@u@k@G!  ",
"6!5!)@S@V@y@*@h@i@p@q@o@j@g@z!  ",
"2!0!4!J@Y@O@3!a@c@e@g@d@b@:@z!  ",
"Y!X!T!!@Q@W!v!,@<@/@;@>@.@|@z!  ",
"  V!U!L!K!F!B!{@[@=@-@}@Z![!z!  ",
"      D!w!t!{!$@]@%@H!+!]!@!    ",
"          I!C!A!;!?!,!|!|!(!I!  ",
"          J!$#i!%#n!a!-!=!.!s!  ",
"          x!^###&#q!f!b!:!<!}!  ",
"          M!p!*#r!l!g!m!d!>!%!  ",
"            z!*!j!e!c!/!)!#!    ",
"              z!z!z!z!z!z!      ",
};

