/* XPM */
char * image_data[] = {
"16  16  257  2",
"  	c	None",
"!!	c #000000",
"@!	c #800080",
"#!	c #000080",
"$!	c #008080",
"%!	c #008000",
"^!	c #808000",
"&!	c #800000",
"*!	c #c0c0c0",
"(!	c #c0dcc0",
")!	c #a6caf0",
"{!	c #808080",
"}!	c #ff00ff",
"[!	c #0000ff",
"]!	c #00ffff",
"|!	c #00ff00",
"+!	c #ffff00",
"=!	c #ff0000",
"-!	c #ffffff",
",!	c #fffbf0",
".!	c #a0a0a4",
"<!	c #040404",
">!	c #080808",
"/!	c #0c0c0c",
"?!	c #111111",
";!	c #161616",
":!	c #1c1c1c",
"a!	c #222222",
"b!	c #292929",
"c!	c #555555",
"d!	c #4d4d4d",
"e!	c #424242",
"f!	c #393939",
"g!	c #ff7c80",
"h!	c #ff5050",
"j!	c #d60093",
"i!	c #ccecff",
"k!	c #efd6c6",
"l!	c #e7e7d6",
"m!	c #ada990",
"n!	c #330000",
"o!	c #660000",
"p!	c #990000",
"q!	c #cc0000",
"r!	c #003300",
"s!	c #333300",
"t!	c #663300",
"u!	c #993300",
"v!	c #cc3300",
"w!	c #ff3300",
"x!	c #006600",
"y!	c #336600",
"z!	c #666600",
"A!	c #996600",
"B!	c #cc6600",
"C!	c #ff6600",
"D!	c #009900",
"E!	c #339900",
"F!	c #669900",
"G!	c #999900",
"H!	c #cc9900",
"I!	c #ff9900",
"J!	c #00cc00",
"K!	c #33cc00",
"L!	c #66cc00",
"M!	c #99cc00",
"N!	c #cccc00",
"O!	c #ffcc00",
"P!	c #66ff00",
"Q!	c #99ff00",
"R!	c #ccff00",
"S!	c #000033",
"T!	c #330033",
"U!	c #660033",
"V!	c #990033",
"W!	c #cc0033",
"X!	c #ff0033",
"Y!	c #003333",
"Z!	c #333333",
"0!	c #663333",
"1!	c #993333",
"2!	c #cc3333",
"3!	c #ff3333",
"4!	c #006633",
"5!	c #336633",
"6!	c #666633",
"7!	c #996633",
"8!	c #cc6633",
"9!	c #ff6633",
"!@	c #009933",
"@@	c #339933",
"#@	c #669933",
"$@	c #999933",
"%@	c #cc9933",
"^@	c #ff9933",
"&@	c #00cc33",
"*@	c #33cc33",
"(@	c #66cc33",
")@	c #99cc33",
"{@	c #cccc33",
"}@	c #ffcc33",
"[@	c #33ff33",
"]@	c #66ff33",
"|@	c #99ff33",
"+@	c #ccff33",
"=@	c #ffff33",
"-@	c #000066",
",@	c #330066",
".@	c #660066",
"<@	c #990066",
">@	c #cc0066",
"/@	c #ff0066",
"?@	c #003366",
";@	c #333366",
":@	c #663366",
"a@	c #993366",
"b@	c #cc3366",
"c@	c #ff3366",
"d@	c #006666",
"e@	c #336666",
"f@	c #666666",
"g@	c #996666",
"h@	c #cc6666",
"j@	c #009966",
"i@	c #339966",
"k@	c #669966",
"l@	c #999966",
"m@	c #cc9966",
"n@	c #ff9966",
"o@	c #00cc66",
"p@	c #33cc66",
"q@	c #99cc66",
"r@	c #cccc66",
"s@	c #ffcc66",
"t@	c #00ff66",
"u@	c #33ff66",
"v@	c #99ff66",
"w@	c #ccff66",
"x@	c #ff00cc",
"y@	c #cc00ff",
"z@	c #009999",
"A@	c #993399",
"B@	c #990099",
"C@	c #cc0099",
"D@	c #000099",
"E@	c #333399",
"F@	c #660099",
"G@	c #cc3399",
"H@	c #ff0099",
"I@	c #006699",
"J@	c #336699",
"K@	c #663399",
"L@	c #996699",
"M@	c #cc6699",
"N@	c #ff3399",
"O@	c #339999",
"P@	c #669999",
"Q@	c #999999",
"R@	c #cc9999",
"S@	c #ff9999",
"T@	c #00cc99",
"U@	c #33cc99",
"V@	c #66cc66",
"W@	c #99cc99",
"X@	c #cccc99",
"Y@	c #ffcc99",
"Z@	c #00ff99",
"0@	c #33ff99",
"1@	c #66cc99",
"2@	c #99ff99",
"3@	c #ccff99",
"4@	c #ffff99",
"5@	c #0000cc",
"6@	c #330099",
"7@	c #6600cc",
"8@	c #9900cc",
"9@	c #cc00cc",
"!#	c #003399",
"@#	c #3333cc",
"##	c #6633cc",
"$#	c #9933cc",
"%#	c #cc33cc",
"^#	c #ff33cc",
"&#	c #0066cc",
"*#	c #3366cc",
"(#	c #666699",
")#	c #9966cc",
"{#	c #cc66cc",
"}#	c #ff6699",
"[#	c #0099cc",
"]#	c #3399cc",
"|#	c #6699cc",
"+#	c #9999cc",
"=#	c #cc99cc",
"-#	c #ff99cc",
",#	c #00cccc",
".#	c #33cccc",
"<#	c #66cccc",
">#	c #99cccc",
"/#	c #cccccc",
"?#	c #ffcccc",
";#	c #00ffcc",
":#	c #33ffcc",
"a#	c #66ff99",
"b#	c #99ffcc",
"c#	c #ccffcc",
"d#	c #ffffcc",
"e#	c #3300cc",
"f#	c #6600ff",
"g#	c #9900ff",
"h#	c #0033cc",
"j#	c #3333ff",
"i#	c #6633ff",
"k#	c #9933ff",
"l#	c #cc33ff",
"m#	c #ff33ff",
"n#	c #0066ff",
"o#	c #3366ff",
"p#	c #6666cc",
"q#	c #9966ff",
"r#	c #cc66ff",
"s#	c #ff66cc",
"t#	c #0099ff",
"u#	c #3399ff",
"v#	c #6699ff",
"w#	c #9999ff",
"x#	c #cc99ff",
"y#	c #ff99ff",
"z#	c #00ccff",
"A#	c #33ccff",
"B#	c #66ccff",
"C#	c #99ccff",
"D#	c #ccccff",
"E#	c #ffccff",
"F#	c #33ffff",
"G#	c #66ffcc",
"H#	c #99ffff",
"I#	c #ccffff",
"J#	c #ff6666",
"K#	c #66ff66",
"L#	c #ffff66",
"M#	c #6666ff",
"N#	c #ff66ff",
"O#	c #66ffff",
"P#	c #a50021",
"Q#	c #5f5f5f",
"R#	c #777777",
"S#	c #868686",
"T#	c #969696",
"U#	c #cbcbcb",
"V#	c #b2b2b2",
"W#	c #d7d7d7",
"X#	c #dddddd",
"Y#	c #e3e3e3",
"Z#	c #eaeaea",
"0#	c #f1f1f1",
"1#	c #f8f8f8",

"      +#+#+#+#+#+#+#+#{!X#0#    ",
"      C#-!-!-!-!-!-!-!{!|#*!0#  ",
"      C#-!-!-!-!-!-!-!(#)!u#*!1#",
"      )!-!-!1#-!-!1#1#(#(#(#{!*!",
"      )!S@S@q@V#)!i!1#1#1#)!{!S#",
"    S@9!9!9!(@E!k@>#C#0#0#)!{!f@",
"  S@9!J#S@S@q@(@z!z!)!C#0#)!(#f@",
"Z#9!J#S@S#X#Z#k!(@z!f@B#i!)!(#f@",
"S@9!J#,!f@f@.!0#W@z!z!B#i!)!(#f@",
".!*#B#0#f@:!!!f@0#}@%@B#i!D#(#f@",
"+#t#v#0#e!:!{!W#,!}@%@B#i!)!(#f@",
"D#*#o#)!.!W#-!,!s@}@A!B#i!)!(#f@",
"1#p#h#*#)!W#k!s@}@%@|#C#D#)!(#f@",
"  X#*#h#h#h#}@}@%@f@(#(#(#(#(#f@",
"    X#(#h##!A!A!f@f@f@f@f@f@f@T#",
"      0#l!W#W#W#W#W#W#W#W#W#W#X#",
};

