/* XPM */
char * image_data[] = {
"16  16  257  2",
"  	c	None",
"!!	c #fdfdfe",
"@!	c #f7ffff",
"#!	c #e7f7ff",
"$!	c #e7eff7",
"%!	c #e7efef",
"^!	c #e7e7e7",
"&!	c #deefff",
"*!	c #d6efff",
"(!	c #d6e7f7",
")!	c #ccecff",
"{!	c #cee7ff",
"}!	c #c6e7ff",
"[!	c #dee7ef",
"]!	c #c6deff",
"|!	c #ced6ff",
"+!	c #bddeff",
"=!	c #b5d6ff",
"-!	c #add6ff",
",!	c #a5d6ff",
".!	c #bdceff",
"<!	c #adcef7",
">!	c #b5c6e7",
"/!	c #adb5f7",
"?!	c #b5bde7",
";!	c #a5b5de",
":!	c #a5add6",
"a!	c #9ca5d6",
"b!	c #84a5de",
"c!	c #849cce",
"d!	c #8c94bd",
"e!	c #66ffff",
"f!	c #66ccff",
"g!	c #6bade7",
"h!	c #42a5f7",
"j!	c #7b94c6",
"i!	c #7b84ce",
"k!	c #428cd6",
"l!	c #3399ff",
"m!	c #7384bd",
"n!	c #3333cc",
"o!	c #6b73a5",
"p!	c #666699",
"q!	c #330099",
"r!	c #636363",
"s!	c #000000",
"t!	c #000000",
"u!	c #000000",
"v!	c #000000",
"w!	c #000000",
"x!	c #000000",
"y!	c #000000",
"z!	c #000000",
"A!	c #000000",
"B!	c #000000",
"C!	c #000000",
"D!	c #000000",
"E!	c #000000",
"F!	c #000000",
"G!	c #000000",
"H!	c #000000",
"I!	c #000000",
"J!	c #000000",
"K!	c #000000",
"L!	c #000000",
"M!	c #000000",
"N!	c #000000",
"O!	c #000000",
"P!	c #000000",
"Q!	c #000000",
"R!	c #000000",
"S!	c #000000",
"T!	c #000000",
"U!	c #000000",
"V!	c #000000",
"W!	c #000000",
"X!	c #000000",
"Y!	c #000000",
"Z!	c #000000",
"0!	c #000000",
"1!	c #000000",
"2!	c #000000",
"3!	c #000000",
"4!	c #000000",
"5!	c #000000",
"6!	c #000000",
"7!	c #000000",
"8!	c #000000",
"9!	c #000000",
"!@	c #000000",
"@@	c #000000",
"#@	c #000000",
"$@	c #000000",
"%@	c #000000",
"^@	c #000000",
"&@	c #000000",
"*@	c #000000",
"(@	c #000000",
")@	c #000000",
"{@	c #000000",
"}@	c #000000",
"[@	c #000000",
"]@	c #000000",
"|@	c #000000",
"+@	c #000000",
"=@	c #000000",
"-@	c #000000",
",@	c #000000",
".@	c #000000",
"<@	c #000000",
">@	c #000000",
"/@	c #000000",
"?@	c #000000",
";@	c #000000",
":@	c #000000",
"a@	c #000000",
"b@	c #000000",
"c@	c #000000",
"d@	c #000000",
"e@	c #000000",
"f@	c #000000",
"g@	c #000000",
"h@	c #000000",
"j@	c #000000",
"i@	c #000000",
"k@	c #000000",
"l@	c #000000",
"m@	c #000000",
"n@	c #000000",
"o@	c #000000",
"p@	c #000000",
"q@	c #000000",
"r@	c #000000",
"s@	c #000000",
"t@	c #000000",
"u@	c #000000",
"v@	c #000000",
"w@	c #000000",
"x@	c #000000",
"y@	c #000000",
"z@	c #000000",
"A@	c #000000",
"B@	c #000000",
"C@	c #000000",
"D@	c #000000",
"E@	c #000000",
"F@	c #000000",
"G@	c #000000",
"H@	c #000000",
"I@	c #000000",
"J@	c #000000",
"K@	c #000000",
"L@	c #000000",
"M@	c #000000",
"N@	c #000000",
"O@	c #000000",
"P@	c #000000",
"Q@	c #000000",
"R@	c #000000",
"S@	c #000000",
"T@	c #000000",
"U@	c #000000",
"V@	c #000000",
"W@	c #000000",
"X@	c #000000",
"Y@	c #000000",
"Z@	c #000000",
"0@	c #000000",
"1@	c #000000",
"2@	c #000000",
"3@	c #000000",
"4@	c #000000",
"5@	c #000000",
"6@	c #000000",
"7@	c #000000",
"8@	c #000000",
"9@	c #000000",
"!#	c #000000",
"@#	c #000000",
"##	c #000000",
"$#	c #000000",
"%#	c #000000",
"^#	c #000000",
"&#	c #000000",
"*#	c #000000",
"(#	c #000000",
")#	c #000000",
"{#	c #000000",
"}#	c #000000",
"[#	c #000000",
"]#	c #000000",
"|#	c #000000",
"+#	c #000000",
"=#	c #000000",
"-#	c #000000",
",#	c #000000",
".#	c #000000",
"<#	c #000000",
">#	c #000000",
"/#	c #000000",
"?#	c #000000",
";#	c #000000",
":#	c #000000",
"a#	c #000000",
"b#	c #000000",
"c#	c #000000",
"d#	c #000000",
"e#	c #000000",
"f#	c #000000",
"g#	c #000000",
"h#	c #000000",
"j#	c #000000",
"i#	c #000000",
"k#	c #000000",
"l#	c #000000",
"m#	c #000000",
"n#	c #000000",
"o#	c #000000",
"p#	c #000000",
"q#	c #000000",
"r#	c #000000",
"s#	c #000000",
"t#	c #000000",
"u#	c #000000",
"v#	c #000000",
"w#	c #000000",
"x#	c #000000",
"y#	c #000000",
"z#	c #000000",
"A#	c #000000",
"B#	c #000000",
"C#	c #000000",
"D#	c #000000",
"E#	c #000000",
"F#	c #000000",
"G#	c #000000",
"H#	c #000000",
"I#	c #000000",
"J#	c #000000",
"K#	c #000000",
"L#	c #000000",
"M#	c #000000",
"N#	c #000000",
"O#	c #000000",
"P#	c #000000",
"Q#	c #000000",
"R#	c #000000",
"S#	c #000000",
"T#	c #000000",
"U#	c #000000",
"V#	c #000000",
"W#	c #000000",
"X#	c #000000",
"Y#	c #000000",
"Z#	c #000000",
"0#	c #000000",
"1#	c #ffffff",

"    b!b!b!b!b!b!b!b!b!r!        ",
"    b!!!!!!!@!!!@!!!b!g!r!      ",
"    b!!!l!l!l!l!@!$!h!h!k!r!    ",
"    b!!!q!e!)!p!*!(!|!|!/!/!r!  ",
"    b!!!q!f!f!p!^!#!&!&!{!?!r!  ",
"    b!!!q!n!n!n!*!q!q!q!{!>!r!  ",
"    b!@!$!$!*!(!*!*!(!{!]!>!r!  ",
"    b!@!q!q!q!q!q!q!q!q!+!.!r!  ",
"    b!%!&!&!(!*!]!{!]!}!<!>!r!  ",
"    c!^!q!q!q!q!q!q!q!q!<!.!r!  ",
"    j![!(!*!(!}!]!{!=!=!<!<!r!  ",
"    i![!q!q!q!q!q!q!=!<!.!<!r!  ",
"    m![!{!{!}!]!<!=!=!<!,!?!r!  ",
"    m!(!q!q!q!<!<!-!-!-!,!?!r!  ",
"    o!;!:!a!a!a!a!a!a!a!a!d!r!  ",
"      r!r!r!r!r!r!r!r!r!r!r!r!  ",
};

