/* XPM */
char * image_data[] = {
"16  16  257  2",
"  	c	None",
"!!	c #453840",
"@!	c #4c4e59",
"#!	c #573d2a",
"$!	c #5b403c",
"%!	c #5b474a",
"^!	c #605f68",
"&!	c #615744",
"*!	c #665d46",
"(!	c #666666",
")!	c #68665f",
"{!	c #736ca3",
"}!	c #7f8489",
"[!	c #8abde9",
"]!	c #8b7869",
"|!	c #948587",
"+!	c #954d15",
"=!	c #98c8ed",
"-!	c #9a5718",
",!	c #9b6e2b",
".!	c #a15f0e",
"<!	c #a17829",
">!	c #a196a5",
"/!	c #a66d20",
"?!	c #a6aeb5",
";!	c #a76c3f",
":!	c #a88933",
"a!	c #aa6c14",
"b!	c #aa812f",
"c!	c #aaaaaa",
"d!	c #ae956a",
"e!	c #b1bfd0",
"f!	c #b2b3d2",
"g!	c #b2d5f1",
"h!	c #b3b4d3",
"j!	c #b3dbf3",
"i!	c #b59729",
"k!	c #b5d8f2",
"l!	c #b6b7d5",
"m!	c #b6d9f2",
"n!	c #b7dbf3",
"o!	c #b89846",
"p!	c #b89c4b",
"q!	c #b8a67d",
"r!	c #b8ad59",
"s!	c #b8b4ce",
"t!	c #b9ddf4",
"u!	c #b9e1f5",
"v!	c #bcbcd3",
"w!	c #bcc5ca",
"x!	c #bde1f5",
"y!	c #bfdef4",
"z!	c #c1b356",
"A!	c #c3b65f",
"B!	c #c48e08",
"C!	c #c4edf9",
"D!	c #c5f0fa",
"E!	c #c68b0d",
"F!	c #c6d0d5",
"G!	c #c7edf9",
"H!	c #c7f0fa",
"I!	c #c9bf7f",
"J!	c #ca910d",
"K!	c #caf0f7",
"L!	c #cb9c2d",
"M!	c #ccb36a",
"N!	c #cce7f7",
"O!	c #cde7f7",
"P!	c #cdecf8",
"Q!	c #cdf0f7",
"R!	c #cfa544",
"S!	c #cfab53",
"T!	c #cfd0ea",
"U!	c #cfd6ec",
"V!	c #cff0fa",
"W!	c #cff2fa",
"X!	c #d0f0f7",
"Y!	c #d19e09",
"Z!	c #d2f0f7",
"0!	c #d3f2fa",
"1!	c #d4f0f7",
"2!	c #d5ac3f",
"3!	c #d5cf9b",
"4!	c #d5ffff",
"5!	c #d6edf9",
"6!	c #d7bda1",
"7!	c #d8c9ad",
"8!	c #d8f0f7",
"9!	c #d8f0fa",
"!@	c #d9a51c",
"@@	c #d9a61a",
"#@	c #d9f3fb",
"$@	c #d9ffff",
"%@	c #daedf9",
"^@	c #daf0f7",
"&@	c #dba727",
"*@	c #ddd0ba",
"(@	c #ddedf9",
")@	c #ddf0f7",
"{@	c #ddf0fa",
"}@	c #ddfcfe",
"[@	c #ddffff",
"]@	c #deedf9",
"|@	c #def0fa",
"+@	c #dff0f7",
"=@	c #e0e8ea",
"-@	c #e0edf9",
",@	c #e1a840",
".@	c #e1cda0",
"<@	c #e1e8ec",
">@	c #e1edf9",
"/@	c #e2f0f7",
"?@	c #e2ffff",
";@	c #e4b03d",
":@	c #e4f0f7",
"a@	c #e5ffff",
"b@	c #e6ffff",
"c@	c #e8b537",
"d@	c #e9b639",
"e@	c #eaecef",
"f@	c #eaf3fb",
"g@	c #eafdfe",
"h@	c #eaffff",
"j@	c #ebf5f4",
"i@	c #ebf5fb",
"k@	c #ebffff",
"l@	c #ecffff",
"m@	c #eebb44",
"n@	c #eee8e0",
"o@	c #eeffff",
"p@	c #efffff",
"q@	c #f0c562",
"r@	c #f0ffff",
"s@	c #f1c764",
"t@	c #f2be4e",
"u@	c #f2be4f",
"v@	c #f2ecdb",
"w@	c #f2ffff",
"x@	c #f3ffff",
"y@	c #f4ffff",
"z@	c #f5c251",
"A@	c #f5ffff",
"B@	c #f6ffff",
"C@	c #f8fdfa",
"D@	c #f9e3b0",
"E@	c #f9fcfe",
"F@	c #f9ffff",
"G@	c #fafcfe",
"H@	c #fbd074",
"I@	c #fbfdfe",
"J@	c #fcfaf7",
"K@	c #000000",
"L@	c #ffffff",
"M@	c #000000",
"N@	c #000000",
"O@	c #000000",
"P@	c #000000",
"Q@	c #000000",
"R@	c #000000",
"S@	c #000000",
"T@	c #000000",
"U@	c #000000",
"V@	c #000000",
"W@	c #000000",
"X@	c #000000",
"Y@	c #000000",
"Z@	c #000000",
"0@	c #000000",
"1@	c #000000",
"2@	c #000000",
"3@	c #000000",
"4@	c #000000",
"5@	c #000000",
"6@	c #000000",
"7@	c #000000",
"8@	c #000000",
"9@	c #000000",
"!#	c #000000",
"@#	c #000000",
"##	c #000000",
"$#	c #000000",
"%#	c #000000",
"^#	c #000000",
"&#	c #000000",
"*#	c #000000",
"(#	c #000000",
")#	c #000000",
"{#	c #000000",
"}#	c #000000",
"[#	c #000000",
"]#	c #000000",
"|#	c #000000",
"+#	c #000000",
"=#	c #000000",
"-#	c #000000",
",#	c #000000",
".#	c #000000",
"<#	c #000000",
">#	c #000000",
"/#	c #000000",
"?#	c #000000",
";#	c #000000",
":#	c #000000",
"a#	c #000000",
"b#	c #000000",
"c#	c #000000",
"d#	c #000000",
"e#	c #000000",
"f#	c #000000",
"g#	c #000000",
"h#	c #000000",
"j#	c #000000",
"i#	c #000000",
"k#	c #000000",
"l#	c #000000",
"m#	c #000000",
"n#	c #000000",
"o#	c #000000",
"p#	c #000000",
"q#	c #000000",
"r#	c #000000",
"s#	c #000000",
"t#	c #000000",
"u#	c #000000",
"v#	c #000000",
"w#	c #000000",
"x#	c #000000",
"y#	c #000000",
"z#	c #000000",
"A#	c #000000",
"B#	c #000000",
"C#	c #000000",
"D#	c #000000",
"E#	c #000000",
"F#	c #000000",
"G#	c #000000",
"H#	c #000000",
"I#	c #000000",
"J#	c #000000",
"K#	c #000000",
"L#	c #000000",
"M#	c #000000",
"N#	c #000000",
"O#	c #000000",
"P#	c #000000",
"Q#	c #000000",
"R#	c #000000",
"S#	c #000000",
"T#	c #000000",
"U#	c #000000",
"V#	c #000000",
"W#	c #000000",
"X#	c #000000",
"Y#	c #000000",
"Z#	c #000000",
"0#	c #000000",
"1#	c #000000",

"    3!  I!  z!  A!  r!          ",
"    ]!:!|!i!{!d!>!q!p!(!        ",
"  l!U!M!T!7!s!v@*@J@n@(!        ",
"  h!:@|@(@-@>@G@L@L@e@(!        ",
"  f!/@w@B@i@f@I@D@.@}!)!R!R!    ",
"  f!+@9!5!%@]@E@,@q@c!*!@@o!(!  ",
"  f!)@l@p@y@C@H@z@s@c!&!J!Y!2!  ",
"  f!^@x!n!y!{@a!t@m@S!b!E!B!<!(!",
"  f!8!=![!m!g!6!u@;@c@&@!@L!$!(!",
"  f!1!u!j!t!N!F!.!;!d@/!-!,!@!  ",
"  f!Z!W!V!P!k!O!e!(@+!#!!!%!(!  ",
"  f!X!H!G!0!#@g@r@A@F@(!^!(!    ",
"  f!Q!D!C!}@a@h@o@w@B@(!        ",
"  f!K!4!$@[@?@b@k@p@x@(!        ",
"  v!<@j@=@w!?!(!(!(!(!(!        ",
"    (!(!(!(!(!                  ",
};

