/* XPM */
char * image_data[] = {
"16  16  257  2",
"  	c	None",
"!!	c #ffffff",
"@!	c #f2f9ff",
"#!	c #eaf6ff",
"$!	c #e2f3ff",
"%!	c #ddebf0",
"^!	c #cbe8ff",
"&!	c #b4daff",
"*!	c #aedaff",
"(!	c #bbbfcd",
")!	c #ffff99",
"{!	c #fff791",
"}!	c #fff48e",
"[!	c #ffeb85",
"]!	c #b0bab6",
"|!	c #5cb7ff",
"+!	c #7394c4",
"=!	c #30a7fd",
"-!	c #6c8cbc",
",!	c #6987b7",
".!	c #6581b1",
"<!	c #617dad",
">!	c #5e79a9",
"/!	c #ffe07a",
"?!	c #ffd46e",
";!	c #ffcc66",
":!	c #d0ac57",
"a!	c #d3a03a",
"b!	c #cc9933",
"c!	c #c99630",
"d!	c #c6932d",
"e!	c #c28f29",
"f!	c #c08d27",
"g!	c #be8b25",
"h!	c #ba8721",
"j!	c #b8851f",
"i!	c #b4811b",
"k!	c #b07d17",
"l!	c #ad7a14",
"m!	c #a8750f",
"n!	c #a4710b",
"o!	c #a06d07",
"p!	c #9d6a04",
"q!	c #9a6701",
"r!	c #666666",
"s!	c #000000",
"t!	c #000000",
"u!	c #000000",
"v!	c #000000",
"w!	c #000000",
"x!	c #000000",
"y!	c #000000",
"z!	c #000000",
"A!	c #000000",
"B!	c #000000",
"C!	c #000000",
"D!	c #000000",
"E!	c #000000",
"F!	c #000000",
"G!	c #000000",
"H!	c #000000",
"I!	c #000000",
"J!	c #000000",
"K!	c #000000",
"L!	c #000000",
"M!	c #000000",
"N!	c #000000",
"O!	c #000000",
"P!	c #000000",
"Q!	c #000000",
"R!	c #000000",
"S!	c #000000",
"T!	c #000000",
"U!	c #000000",
"V!	c #000000",
"W!	c #000000",
"X!	c #000000",
"Y!	c #000000",
"Z!	c #000000",
"0!	c #000000",
"1!	c #000000",
"2!	c #000000",
"3!	c #000000",
"4!	c #000000",
"5!	c #000000",
"6!	c #000000",
"7!	c #000000",
"8!	c #000000",
"9!	c #000000",
"!@	c #000000",
"@@	c #000000",
"#@	c #000000",
"$@	c #000000",
"%@	c #000000",
"^@	c #000000",
"&@	c #000000",
"*@	c #000000",
"(@	c #000000",
")@	c #000000",
"{@	c #000000",
"}@	c #000000",
"[@	c #000000",
"]@	c #000000",
"|@	c #000000",
"+@	c #000000",
"=@	c #000000",
"-@	c #000000",
",@	c #000000",
".@	c #000000",
"<@	c #000000",
">@	c #000000",
"/@	c #000000",
"?@	c #000000",
";@	c #000000",
":@	c #000000",
"a@	c #000000",
"b@	c #000000",
"c@	c #000000",
"d@	c #000000",
"e@	c #000000",
"f@	c #000000",
"g@	c #000000",
"h@	c #000000",
"j@	c #000000",
"i@	c #000000",
"k@	c #000000",
"l@	c #000000",
"m@	c #000000",
"n@	c #000000",
"o@	c #000000",
"p@	c #000000",
"q@	c #000000",
"r@	c #000000",
"s@	c #000000",
"t@	c #000000",
"u@	c #000000",
"v@	c #000000",
"w@	c #000000",
"x@	c #000000",
"y@	c #000000",
"z@	c #000000",
"A@	c #000000",
"B@	c #000000",
"C@	c #000000",
"D@	c #000000",
"E@	c #000000",
"F@	c #000000",
"G@	c #000000",
"H@	c #000000",
"I@	c #000000",
"J@	c #000000",
"K@	c #000000",
"L@	c #000000",
"M@	c #000000",
"N@	c #000000",
"O@	c #000000",
"P@	c #000000",
"Q@	c #000000",
"R@	c #000000",
"S@	c #000000",
"T@	c #000000",
"U@	c #000000",
"V@	c #000000",
"W@	c #000000",
"X@	c #000000",
"Y@	c #000000",
"Z@	c #000000",
"0@	c #000000",
"1@	c #000000",
"2@	c #000000",
"3@	c #000000",
"4@	c #000000",
"5@	c #000000",
"6@	c #000000",
"7@	c #000000",
"8@	c #000000",
"9@	c #000000",
"!#	c #000000",
"@#	c #000000",
"##	c #000000",
"$#	c #000000",
"%#	c #000000",
"^#	c #000000",
"&#	c #000000",
"*#	c #000000",
"(#	c #000000",
")#	c #000000",
"{#	c #000000",
"}#	c #000000",
"[#	c #000000",
"]#	c #000000",
"|#	c #000000",
"+#	c #000000",
"=#	c #000000",
"-#	c #000000",
",#	c #000000",
".#	c #000000",
"<#	c #000000",
">#	c #000000",
"/#	c #000000",
"?#	c #000000",
";#	c #000000",
":#	c #000000",
"a#	c #000000",
"b#	c #000000",
"c#	c #000000",
"d#	c #000000",
"e#	c #000000",
"f#	c #000000",
"g#	c #000000",
"h#	c #000000",
"j#	c #000000",
"i#	c #000000",
"k#	c #000000",
"l#	c #000000",
"m#	c #000000",
"n#	c #000000",
"o#	c #000000",
"p#	c #000000",
"q#	c #000000",
"r#	c #000000",
"s#	c #000000",
"t#	c #000000",
"u#	c #000000",
"v#	c #000000",
"w#	c #000000",
"x#	c #000000",
"y#	c #000000",
"z#	c #000000",
"A#	c #000000",
"B#	c #000000",
"C#	c #000000",
"D#	c #000000",
"E#	c #000000",
"F#	c #000000",
"G#	c #000000",
"H#	c #000000",
"I#	c #000000",
"J#	c #000000",
"K#	c #000000",
"L#	c #000000",
"M#	c #000000",
"N#	c #000000",
"O#	c #000000",
"P#	c #000000",
"Q#	c #000000",
"R#	c #000000",
"S#	c #000000",
"T#	c #000000",
"U#	c #000000",
"V#	c #000000",
"W#	c #000000",
"X#	c #000000",
"Y#	c #000000",
"Z#	c #000000",
"0#	c #000000",
"1#	c #ffffff",

"        +!+!+!+!+!+!+!|!        ",
"        +!!!!!!!!!!!!!|!|!      ",
"    b!b!-!!!&!&!&!&!!!=!=!=!    ",
"  b!!!!!,!@!@!@!@!@!@!^!^!,!r!  ",
"b!!!)!)!.!#!&!&!&!&!&!&!#!.!r!  ",
"b!{!}!}!<!$!$!$!$!$!$!$!$!<!r!  ",
"b![!b!b!>!]!]!]!]!]!]!]!]!>!i!  ",
"d!/!b!!!%!!!!!!!!!!!!!!!!!%!n!r!",
"d!?!b!)!(!%!*!*!*!*!*!*!%!(!o!r!",
"e!;!b!)!(!%!%!%!%!%!%!%!%!(!p!r!",
"f!;!d!)!(!%!%!%!%!%!%!%!%!(!p!r!",
"g!;!g!)!(!(!(!(!(!(!(!(!(!(!q!r!",
"h!;!j!)!?!:!:!:!:!:!:!:!a!)!q!r!",
"  i!i!k!l!l!m!n!n!o!p!p!q!q!r!r!",
"    r!r!r!r!r!r!r!r!r!r!r!r!r!  ",
"                                ",
};

