/* XPM */
char * image_data[] = {
"16  16  257  2",
"  	c	None",
"!!	c #ffffff",
"@!	c #cbeec9",
"#!	c #c2cacd",
"$!	c #aae0ee",
"%!	c #bdd0eb",
"^!	c #b2d2ec",
"&!	c #b2cbea",
"*!	c #b3cbe3",
"(!	c #b2efd3",
")!	c #bdced0",
"{!	c #b3d6ca",
"}!	c #8ad8d4",
"[!	c #ffff99",
"]!	c #fdf591",
"|!	c #e5eb9b",
"+!	c #fff48e",
"=!	c #feea85",
"-!	c #fde782",
",!	c #e5e78f",
".!	c #c1cb9c",
"<!	c #d3d388",
">!	c #a7e9b6",
"/!	c #b2d5bc",
"?!	c #87dda5",
";!	c #bec59a",
":!	c #b3c59e",
"a!	c #bbc493",
"b!	c #b6cc8e",
"c!	c #bdc38c",
"d!	c #b3cb83",
"e!	c #afc781",
"f!	c #8ddd95",
"g!	c #c4bd80",
"h!	c #a9b2b8",
"j!	c #bfb980",
"i!	c #7fd5d0",
"k!	c #52a5da",
"l!	c #2aadef",
"m!	c #0495fb",
"n!	c #0389d1",
"o!	c #1c99cd",
"p!	c #7cd1bf",
"q!	c #76cdb8",
"r!	c #7895a1",
"s!	c #41b281",
"t!	c #3ba8b8",
"u!	c #38af8c",
"v!	c #01879c",
"w!	c #0676d7",
"x!	c #ffe07a",
"y!	c #e5d67d",
"z!	c #ffd46e",
"A!	c #ffcc66",
"B!	c #c0bb7a",
"C!	c #e4b14d",
"D!	c #c8a454",
"E!	c #dca943",
"F!	c #bfbc7b",
"G!	c #bba363",
"H!	c #86885a",
"I!	c #8a865b",
"J!	c #8a8d56",
"K!	c #8a8f4c",
"L!	c #d3a03a",
"M!	c #cb9933",
"N!	c #c5922c",
"O!	c #c28f29",
"P!	c #c08d27",
"Q!	c #be8b25",
"R!	c #ba8721",
"S!	c #8b903f",
"T!	c #84812b",
"U!	c #b8851f",
"V!	c #b4811b",
"W!	c #79d16b",
"X!	c #7bd761",
"Y!	c #67ca4e",
"Z!	c #67c946",
"0!	c #139a66",
"1!	c #018268",
"2!	c #45b53d",
"3!	c #34af2e",
"4!	c #2bab1e",
"5!	c #85762d",
"6!	c #856b2a",
"7!	c #b07d17",
"8!	c #ad7a14",
"9!	c #a8750f",
"!@	c #a4710b",
"@@	c #a06d07",
"#@	c #817d1a",
"$@	c #9d6a04",
"%@	c #9a6701",
"^@	c #666666",
"&@	c #1a6670",
"*@	c #017c6f",
"(@	c #395369",
")@	c #156d42",
"{@	c #203f53",
"}@	c #0d6a38",
"[@	c #017b16",
"]@	c #000000",
"|@	c #bdbf81",
"+@	c #a3ba8a",
"=@	c #b6b792",
"-@	c #8d9398",
",@	c #95a19b",
".@	c #98bcd3",
"<@	c #6bcaf2",
">@	c #79cfcb",
"/@	c #4dbdf1",
"?@	c #45baf5",
";@	c #50bfe9",
":@	c #27aaf6",
"a@	c #21a5f4",
"b@	c #3cb6f5",
"c@	c #0895f6",
"d@	c #0082e4",
"e@	c #0487eb",
"f@	c #0a93f5",
"g@	c #048ccc",
"h@	c #0287c9",
"j@	c #0d8cda",
"i@	c #2798d7",
"k@	c #76cf8c",
"l@	c #57abad",
"m@	c #0485a5",
"n@	c #0488bc",
"o@	c #18908c",
"p@	c #246cd0",
"q@	c #0073d6",
"r@	c #017adb",
"s@	c #016bd2",
"t@	c #0164cb",
"u@	c #0b72ca",
"v@	c #015cc3",
"w@	c #0154bb",
"x@	c #0149b2",
"y@	c #0a70a7",
"z@	c #4d6786",
"A@	c #ffe37d",
"B@	c #ffdf79",
"C@	c #ffdb75",
"D@	c #ffd670",
"E@	c #ffd47e",
"F@	c #e2c670",
"G@	c #e6cb7b",
"H@	c #fed46c",
"I@	c #f9d96d",
"J@	c #fecc65",
"K@	c #f9cb6a",
"L@	c #ebd577",
"M@	c #fac75c",
"N@	c #f5c454",
"O@	c #f5ce5e",
"P@	c #eec34b",
"Q@	c #e9c347",
"R@	c #efc656",
"S@	c #84da79",
"T@	c #d7bf67",
"U@	c #e38670",
"V@	c #e6bf57",
"W@	c #f0bd49",
"X@	c #ebbc43",
"Y@	c #e8bc4b",
"Z@	c #debe57",
"0@	c #d9b340",
"1@	c #dcb84e",
"2@	c #dd8c57",
"3@	c #d89d64",
"4@	c #b5a377",
"5@	c #b1ae76",
"6@	c #9cac65",
"7@	c #aaaf57",
"8@	c #98a45d",
"9@	c #9aa744",
"!#	c #a0884b",
"@#	c #92944b",
"##	c #988d4a",
"$#	c #a59f65",
"%#	c #e6bb3b",
"^#	c #e2b332",
"&#	c #e9b63a",
"*#	c #e2af2c",
"(#	c #ddb83a",
")#	c #dcb22b",
"{#	c #daaa24",
"}#	c #d4a823",
"[#	c #d1a72b",
"]#	c #d9aa1e",
"|#	c #d2a51a",
"+#	c #d5a415",
"=#	c #d2a00e",
"-#	c #c99c15",
",#	c #cc9901",
".#	c #ca9908",
"<#	c #d29b16",
">#	c #d8913c",
"/#	c #ac8920",
"?#	c #a68626",
";#	c #b98d25",
":#	c #998033",
"a#	c #958f32",
"b#	c #99892d",
"c#	c #b98f13",
"d#	c #b28c1a",
"e#	c #bf930d",
"f#	c #8f8e02",
"g#	c #7cd568",
"h#	c #76cd74",
"j#	c #74d157",
"i#	c #69cb48",
"k#	c #69c75d",
"l#	c #56c24a",
"m#	c #4bb76e",
"n#	c #54b066",
"o#	c #0b8c79",
"p#	c #0a8b51",
"q#	c #2f9e6d",
"r#	c #5dc62d",
"s#	c #52c224",
"t#	c #4fc022",
"u#	c #62c836",
"v#	c #4cbb30",
"w#	c #49be1f",
"x#	c #46bd1e",
"y#	c #2caa34",
"z#	c #2daa29",
"A#	c #05823a",
"B#	c #0f903b",
"C#	c #3cb71a",
"D#	c #27a812",
"E#	c #078914",
"F#	c #21983a",
"G#	c #80734c",
"H#	c #8c7940",
"I#	c #867646",
"J#	c #a97b65",
"K#	c #937c39",
"L#	c #786878",
"M#	c #6c6960",
"N#	c #666666",
"O#	c #736c59",
"P#	c #797053",
"Q#	c #095a55",
"R#	c #087241",
"S#	c #037517",
"T#	c #007503",
"U#	c #017a06",
"V#	c #006a03",
"W#	c #0f632f",
"X#	c #000000",
"Y#	c #384d46",
"Z#	c #ba738e",
"0#	c #000000",
"1#	c #ffffff",

"                                ",
"              }!p!q!$!          ",
"    M!M!M!e!?!?!W!2!o!k!r!      ",
"  M!!!!!@!Z!f!(!>!s!n!*@&@h!    ",
"M!!![![!t!3!Y!X!i!l!v![@)@(@    ",
"M!]!+!+!w!0!4!u!l!m!1![@}@{@    ",
"M!=!-!N!I!I!K!S!J!H!T!#@5!6!V!  ",
"N!x!N!!!%!&!^!{!/!^!*!)!)!#!!@^@",
"N!z!M![!|!:!:!b!d!:!:!.!.!,!@@^@",
"O!A!M![!]!<!a!a!a!;!.!c!c![!$@^@",
"P!A!N![!=!=!y!g!j!j!g!y!C![!$@^@",
"Q!A!Q![!x!x!x!x!x!x!x!x!E![!%@^@",
"R!A!U![!z!z!z!z!z!z!z!z!L![!%@^@",
"  V!V!7!8!8!9!!@!@@@$@$@%@%@^@^@",
"    ^@^@^@^@^@^@^@^@^@^@^@^@^@  ",
"                                ",
};

