/* XPM */
char * image_data[] = {
"16  16  257  2",
"  	c	None",
"!!	c #000000",
"@!	c #bab6c2",
"#!	c #b0abc8",
"$!	c #b5b2c8",
"%!	c #dfdee5",
"^!	c #adaac6",
"&!	c #acabb5",
"*!	c #a9a6ce",
"(!	c #9998b6",
")!	c #a1a0b3",
"{!	c #8887b0",
"}!	c #abaacd",
"[!	c #c1c1d9",
"]!	c #a1a1b5",
"|!	c #bcbcd3",
"+!	c #b1b1c5",
"=!	c #6d6d78",
"-!	c #a7a7b7",
",!	c #bebece",
".!	c #82828c",
"<!	c #84848d",
">!	c #d6d6e3",
"/!	c #dcdce7",
"?!	c #8a8a91",
";!	c #929299",
":!	c #d4d4db",
"a!	c #e7e7eb",
"b!	c #8889a4",
"c!	c #a6a8d3",
"d!	c #9d9fc2",
"e!	c #5f669b",
"f!	c #7e84af",
"g!	c #9ca2c2",
"h!	c #a2a9c8",
"j!	c #3e60cd",
"i!	c #4665c6",
"k!	c #314484",
"l!	c #3f569f",
"m!	c #2c51bd",
"n!	c #3c5ebc",
"o!	c #4265c4",
"p!	c #435074",
"q!	c #676f87",
"r!	c #1943b2",
"s!	c #0a3ba6",
"t!	c #1845a6",
"u!	c #3c66bb",
"v!	c #6579a2",
"w!	c #bec0c4",
"x!	c #003bab",
"y!	c #0038a2",
"z!	c #1c58c4",
"A!	c #6d89bd",
"B!	c #0049b2",
"C!	c #0045ae",
"D!	c #0044ac",
"E!	c #1055bb",
"F!	c #7b8492",
"G!	c #005ace",
"H!	c #4a84d2",
"I!	c #4876b7",
"J!	c #005dcf",
"K!	c #265389",
"L!	c #355985",
"M!	c #005cc2",
"N!	c #2c78cc",
"O!	c #4193ee",
"P!	c #2a82de",
"Q!	c #0077d0",
"R!	c #0068b9",
"S!	c #798792",
"T!	c #008bf0",
"U!	c #0b9cff",
"V!	c #11a0ff",
"W!	c #008ae4",
"X!	c #0075c1",
"Y!	c #0077bf",
"Z!	c #469bd2",
"0!	c #87b5d2",
"1!	c #7d94a1",
"2!	c #0081c6",
"3!	c #0c83c0",
"4!	c #5dc8ff",
"5!	c #004e6e",
"6!	c #255f71",
"7!	c #008db3",
"8!	c #1ea8d2",
"9!	c #2eb1d3",
"!@	c #008981",
"@@	c #296763",
"#@	c #95e2d7",
"$@	c #0c9179",
"%@	c #008b6d",
"^@	c #28775c",
"&@	c #046035",
"*@	c #10683f",
"(@	c #8bc2a8",
")@	c #00903a",
"{@	c #016d2d",
"}@	c #85d0a2",
"[@	c #baf8d2",
"]@	c #008730",
"|@	c #008330",
"+@	c #007323",
"=@	c #00761f",
"-@	c #73c085",
",@	c #6bcf7e",
".@	c #3ab54e",
"<@	c #aef4b9",
">@	c #18a32b",
"/@	c #23ac32",
"?@	c #9ce6a5",
";@	c #007106",
":@	c #09690e",
"a@	c #36b53c",
"b@	c #8ddd90",
"c@	c #007f00",
"d@	c #007c01",
"e@	c #39b92f",
"f@	c #63cf51",
"g@	c #7add60",
"h@	c #b4f0a1",
"j@	c #4bc211",
"i@	c #63cb2f",
"k@	c #84db5c",
"l@	c #73d340",
"m@	c #000000",
"n@	c #000000",
"o@	c #000000",
"p@	c #000000",
"q@	c #000000",
"r@	c #000000",
"s@	c #000000",
"t@	c #000000",
"u@	c #000000",
"v@	c #000000",
"w@	c #000000",
"x@	c #000000",
"y@	c #000000",
"z@	c #000000",
"A@	c #000000",
"B@	c #000000",
"C@	c #000000",
"D@	c #000000",
"E@	c #000000",
"F@	c #000000",
"G@	c #000000",
"H@	c #000000",
"I@	c #000000",
"J@	c #000000",
"K@	c #000000",
"L@	c #000000",
"M@	c #000000",
"N@	c #000000",
"O@	c #000000",
"P@	c #000000",
"Q@	c #000000",
"R@	c #000000",
"S@	c #000000",
"T@	c #000000",
"U@	c #000000",
"V@	c #000000",
"W@	c #000000",
"X@	c #000000",
"Y@	c #000000",
"Z@	c #000000",
"0@	c #000000",
"1@	c #000000",
"2@	c #000000",
"3@	c #000000",
"4@	c #000000",
"5@	c #000000",
"6@	c #000000",
"7@	c #000000",
"8@	c #000000",
"9@	c #000000",
"!#	c #000000",
"@#	c #000000",
"##	c #000000",
"$#	c #000000",
"%#	c #000000",
"^#	c #000000",
"&#	c #000000",
"*#	c #000000",
"(#	c #000000",
")#	c #000000",
"{#	c #000000",
"}#	c #000000",
"[#	c #000000",
"]#	c #000000",
"|#	c #000000",
"+#	c #000000",
"=#	c #000000",
"-#	c #000000",
",#	c #000000",
".#	c #000000",
"<#	c #000000",
">#	c #000000",
"/#	c #000000",
"?#	c #000000",
";#	c #000000",
":#	c #000000",
"a#	c #000000",
"b#	c #000000",
"c#	c #000000",
"d#	c #000000",
"e#	c #000000",
"f#	c #000000",
"g#	c #000000",
"h#	c #000000",
"j#	c #000000",
"i#	c #000000",
"k#	c #000000",
"l#	c #000000",
"m#	c #000000",
"n#	c #000000",
"o#	c #000000",
"p#	c #000000",
"q#	c #000000",
"r#	c #000000",
"s#	c #000000",
"t#	c #000000",
"u#	c #000000",
"v#	c #000000",
"w#	c #000000",
"x#	c #000000",
"y#	c #000000",
"z#	c #000000",
"A#	c #000000",
"B#	c #000000",
"C#	c #000000",
"D#	c #000000",
"E#	c #000000",
"F#	c #000000",
"G#	c #000000",
"H#	c #000000",
"I#	c #000000",
"J#	c #000000",
"K#	c #000000",
"L#	c #000000",
"M#	c #000000",
"N#	c #000000",
"O#	c #000000",
"P#	c #000000",
"Q#	c #000000",
"R#	c #000000",
"S#	c #000000",
"T#	c #000000",
"U#	c #000000",
"V#	c #000000",
"W#	c #000000",
"X#	c #000000",
"Y#	c #000000",
"Z#	c #000000",
"0#	c #000000",
"1#	c #000000",

"            $!w!                ",
"        *!*!d!1!*!*!            ",
"      *!c!(@}@b@f@.@Z!*!        ",
"      }!-@g@<@[@k@a@T!3!*!      ",
"    #!0!e@l@?@h@#@9!7!]@^@F!    ",
"    ^!O!$@j@i@,@4!V!%@c@{@F!    ",
"    h!P!X!>@/@8!U!W!|@;@*@S!    ",
"    g!N!J!Q!!@)@2!Y!+@:@@@F!    ",
"    )!H!C!G!R!d@=@M!B!6!L!F!    ",
"    )!A!E!y!D!&@5!x!s!n!p!      ",
"      )!I!z!t!K!r!m!j!k!F!      ",
"          v!u!o!i!l!q!F!        ",
"            +!f!e!b!&!          ",
"          @!%!(!{!|!/!]!        ",
"        -!:!a!>![!,!-!=!        ",
"        -!;!;!<!.!?!?!?!        ",
};

