/* XPM */
char * image_data[] = {
"16  16  257  2",
"  	c	None",
"!!	c #fcffff",
"@!	c #f7ffff",
"#!	c #eafeff",
"$!	c #e6ffff",
"%!	c #eaf7ff",
"^!	c #e0eff5",
"&!	c #daffff",
"*!	c #d4feff",
"(!	c #d7f2ff",
")!	c #cdfcff",
"{!	c #c7f9ff",
"}!	c #caf5ff",
"[!	c #c3f5ff",
"]!	c #daedf3",
"|!	c #dde5f1",
"+!	c #c2daef",
"=!	c #cecee2",
"-!	c #c5c5dc",
",!	c #d4d0c9",
".!	c #bef1ff",
"<!	c #bdeeff",
">!	c #b9e5ff",
"/!	c #b1e4ff",
"?!	c #abdeff",
";!	c #a8d2f3",
":!	c #a9cff1",
"a!	c #a4cff5",
"b!	c #b6c0e0",
"c!	c #a6c9ef",
"d!	c #aec7e0",
"e!	c #b3bde0",
"f!	c #a5bee5",
"g!	c #9eb8e0",
"h!	c #babcd8",
"j!	c #a0b3dc",
"i!	c #a4b4d2",
"k!	c #9eb1d2",
"l!	c #99b2cc",
"m!	c #96b0ce",
"n!	c #93accc",
"o!	c #8ea8ce",
"p!	c #ffe3bd",
"q!	c #ffd8a5",
"r!	c #ffcd8d",
"s!	c #cab089",
"t!	c #ababab",
"u!	c #a1a1a1",
"v!	c #869abc",
"w!	c #8a93b9",
"x!	c #8c9eb7",
"y!	c #8194b7",
"z!	c #8d8aad",
"A!	c #8e87aa",
"B!	c #969696",
"C!	c #81859f",
"D!	c #8c8c8c",
"E!	c #818181",
"F!	c #827d98",
"G!	c #767690",
"H!	c #74758b",
"I!	c #ffb853",
"J!	c #cf8c58",
"K!	c #df8840",
"L!	c #d98543",
"M!	c #d68344",
"N!	c #a77979",
"O!	c #a87673",
"P!	c #897573",
"Q!	c #777777",
"R!	c #61617b",
"S!	c #6c6c6c",
"T!	c #626262",
"U!	c #5b5b5f",
"V!	c #575757",
"W!	c #000000",
"X!	c #000000",
"Y!	c #000000",
"Z!	c #000000",
"0!	c #000000",
"1!	c #000000",
"2!	c #000000",
"3!	c #000000",
"4!	c #000000",
"5!	c #000000",
"6!	c #000000",
"7!	c #000000",
"8!	c #000000",
"9!	c #000000",
"!@	c #000000",
"@@	c #000000",
"#@	c #000000",
"$@	c #000000",
"%@	c #000000",
"^@	c #000000",
"&@	c #000000",
"*@	c #000000",
"(@	c #000000",
")@	c #000000",
"{@	c #000000",
"}@	c #000000",
"[@	c #000000",
"]@	c #000000",
"|@	c #000000",
"+@	c #000000",
"=@	c #000000",
"-@	c #000000",
",@	c #000000",
".@	c #000000",
"<@	c #000000",
">@	c #000000",
"/@	c #000000",
"?@	c #000000",
";@	c #000000",
":@	c #000000",
"a@	c #000000",
"b@	c #000000",
"c@	c #000000",
"d@	c #000000",
"e@	c #000000",
"f@	c #000000",
"g@	c #000000",
"h@	c #000000",
"j@	c #000000",
"i@	c #000000",
"k@	c #000000",
"l@	c #000000",
"m@	c #000000",
"n@	c #000000",
"o@	c #000000",
"p@	c #000000",
"q@	c #000000",
"r@	c #000000",
"s@	c #000000",
"t@	c #000000",
"u@	c #000000",
"v@	c #000000",
"w@	c #000000",
"x@	c #000000",
"y@	c #000000",
"z@	c #000000",
"A@	c #000000",
"B@	c #000000",
"C@	c #000000",
"D@	c #000000",
"E@	c #000000",
"F@	c #000000",
"G@	c #000000",
"H@	c #000000",
"I@	c #000000",
"J@	c #000000",
"K@	c #000000",
"L@	c #000000",
"M@	c #000000",
"N@	c #000000",
"O@	c #000000",
"P@	c #000000",
"Q@	c #000000",
"R@	c #000000",
"S@	c #000000",
"T@	c #000000",
"U@	c #000000",
"V@	c #000000",
"W@	c #000000",
"X@	c #000000",
"Y@	c #000000",
"Z@	c #000000",
"0@	c #000000",
"1@	c #000000",
"2@	c #000000",
"3@	c #000000",
"4@	c #000000",
"5@	c #000000",
"6@	c #000000",
"7@	c #000000",
"8@	c #000000",
"9@	c #000000",
"!#	c #000000",
"@#	c #000000",
"##	c #000000",
"$#	c #000000",
"%#	c #000000",
"^#	c #000000",
"&#	c #000000",
"*#	c #000000",
"(#	c #000000",
")#	c #000000",
"{#	c #000000",
"}#	c #000000",
"[#	c #000000",
"]#	c #000000",
"|#	c #000000",
"+#	c #000000",
"=#	c #000000",
"-#	c #000000",
",#	c #000000",
".#	c #000000",
"<#	c #000000",
">#	c #000000",
"/#	c #000000",
"?#	c #000000",
";#	c #000000",
":#	c #000000",
"a#	c #000000",
"b#	c #000000",
"c#	c #000000",
"d#	c #000000",
"e#	c #000000",
"f#	c #000000",
"g#	c #000000",
"h#	c #000000",
"j#	c #000000",
"i#	c #000000",
"k#	c #000000",
"l#	c #000000",
"m#	c #000000",
"n#	c #000000",
"o#	c #000000",
"p#	c #000000",
"q#	c #000000",
"r#	c #000000",
"s#	c #000000",
"t#	c #000000",
"u#	c #000000",
"v#	c #000000",
"w#	c #000000",
"x#	c #000000",
"y#	c #000000",
"z#	c #000000",
"A#	c #000000",
"B#	c #000000",
"C#	c #000000",
"D#	c #000000",
"E#	c #000000",
"F#	c #000000",
"G#	c #000000",
"H#	c #000000",
"I#	c #000000",
"J#	c #000000",
"K#	c #000000",
"L#	c #000000",
"M#	c #000000",
"N#	c #000000",
"O#	c #000000",
"P#	c #000000",
"Q#	c #000000",
"R#	c #000000",
"S#	c #000000",
"T#	c #000000",
"U#	c #000000",
"V#	c #000000",
"W#	c #000000",
"X#	c #000000",
"Y#	c #000000",
"Z#	c #000000",
"0#	c #000000",
"1#	c #ffffff",

"              -!k!o!g!j!D!      ",
"            h!|!#!)!<![!a!w!    ",
"          -!+!!!%!<!?!/!.!;!G!  ",
"          b!}!(!>!.![!{![![!y!D!",
"          f!}!>!<!)!*!&!&!*!n!S!",
"          f!}!?![!*!$!#!$!&!l!V!",
"          e![!/!{!&!#!!!@!&!x!V!",
"          =!c![![!&!#!!!!!]!R!S!",
"        q!,!z!:![!*!&!&!^!C!V!D!",
"      r!I!J!D!H!v!m!d!i!H!V!D!  ",
"    r!I!M!N!F!E!u!S!V!V!T!D!    ",
"  q!I!L!N!z!U!B!                ",
"p!I!L!N!z!U!Q!                  ",
"s!K!O!z!U!Q!                    ",
"t!P!A!U!Q!                      ",
"  D!V!Q!                        ",
};

