/* XPM */
char * image_data[] = {
"16  16  257  2",
"  	c	None",
"!!	c #e0d2d5",
"@!	c #000000",
"#!	c #aba5bf",
"$!	c #696976",
"%!	c #65656f",
"^!	c #d9d9ec",
"&!	c #5d5d60",
"*!	c #ececef",
"(!	c #898bb1",
")!	c #717386",
"{!	c #8189a9",
"}!	c #797f98",
"[!	c #757a90",
"]!	c #ccd2eb",
"|!	c #e3e6f2",
"+!	c #8993ba",
"=!	c #8997bd",
"-!	c #a0accc",
",!	c #8d9dc7",
".!	c #99b3e6",
"<!	c #ccd8f1",
">!	c #e0e6f2",
"/!	c #9ab5e8",
"?!	c #99b4e7",
";!	c #cfd6e3",
":!	c #99b8eb",
"a!	c #9dbeed",
"b!	c #8aa2c7",
"c!	c #d2dff2",
"d!	c #dee6f2",
"e!	c #9ac0f3",
"f!	c #9ac0f2",
"g!	c #dbe5f2",
"h!	c #9ac3f5",
"j!	c #d2dfef",
"i!	c #b1bcc9",
"k!	c #9bc9fa",
"l!	c #9bc7f9",
"m!	c #95aec9",
"n!	c #d7e4f2",
"o!	c #9ccbfc",
"p!	c #9ccafa",
"q!	c #9ecdfb",
"r!	c #a6cff5",
"s!	c #a0d3ff",
"t!	c #a0d2fe",
"u!	c #acbcc9",
"v!	c #a5d8ff",
"w!	c #a6d9ff",
"x!	c #a9d6f9",
"y!	c #e9f2f9",
"z!	c #abdeff",
"A!	c #acdfff",
"B!	c #ade0ff",
"C!	c #a7bcc9",
"D!	c #a0bac9",
"E!	c #b3e6ff",
"F!	c #b6e0f5",
"G!	c #b5e8ff",
"H!	c #b9e2f5",
"I!	c #b9e9fc",
"J!	c #c6e5f2",
"K!	c #b9ecff",
"L!	c #baedff",
"M!	c #bce9f9",
"N!	c #cbebf5",
"O!	c #bff2ff",
"P!	c #c0f3ff",
"Q!	c #c5f8ff",
"R!	c #cafcff",
"S!	c #cdf9fc",
"T!	c #cff9fc",
"U!	c #cbfdff",
"V!	c #cdfeff",
"W!	c #cffeff",
"X!	c #cfffff",
"Y!	c #d0ffff",
"Z!	c #d3ffff",
"0!	c #d4ffff",
"1!	c #d6ffff",
"2!	c #d7ffff",
"3!	c #d8ffff",
"4!	c #d9ffff",
"5!	c #dcffff",
"6!	c #ddffff",
"7!	c #dfffff",
"8!	c #e1ffff",
"9!	c #e2ffff",
"!@	c #e7ffff",
"@@	c #dcf2f2",
"#@	c #e9ffff",
"$@	c #ebffff",
"%@	c #f0ffff",
"^@	c #d7d9c3",
"&@	c #dddfbf",
"*@	c #ffffe2",
"(@	c #ffffe8",
")@	c #ffffee",
"{@	c #fffff0",
"}@	c #fffff5",
"[@	c #ecece2",
"]@	c #fffffa",
"|@	c #fffffe",
"+@	c #f9f69c",
"=@	c #f2f1d0",
"-@	c #e6e4b8",
",@	c #f9f39b",
".@	c #dfddc5",
"<@	c #fffef0",
">@	c #fffcde",
"/@	c #dbd9c4",
"?@	c #ecebe2",
";@	c #fff398",
":@	c #e6dea5",
"a@	c #fff8c8",
"b@	c #fff097",
"c@	c #f2e6a7",
"d@	c #fff5bf",
"e@	c #ffea97",
"f@	c #ffefac",
"g@	c #ffefad",
"h@	c #ffe796",
"j@	c #d9d0b2",
"i@	c #e5ddc3",
"k@	c #ffe295",
"l@	c #dfd5bb",
"m@	c #ffdf95",
"n@	c #fcdd97",
"o@	c #f8da9b",
"p@	c #f9cb74",
"q@	c #f1dcb7",
"r@	c #facd80",
"s@	c #f8cf8f",
"t@	c #f9d598",
"u@	c #f6e0bc",
"v@	c #ffd594",
"w@	c #f5e0c1",
"x@	c #ffd294",
"y@	c #ddc7a9",
"z@	c #e6e3df",
"A@	c #ffce92",
"B@	c #f1b471",
"C@	c #ffcc91",
"D@	c #e3c9ab",
"E@	c #ffc58c",
"F@	c #ffc88e",
"G@	c #f2e5d9",
"H@	c #f9bd8b",
"I@	c #e6b694",
"J@	c #d5c0b3",
"K@	c #e6b295",
"L@	c #e6ad90",
"M@	c #dec7bf",
"N@	c #ece8e8",
"O@	c #e3e2e2",
"P@	c #ffffff",
"Q@	c #979797",
"R@	c #838383",
"S@	c #787878",
"T@	c #595959",
"U@	c #000000",
"V@	c #000000",
"W@	c #000000",
"X@	c #000000",
"Y@	c #000000",
"Z@	c #000000",
"0@	c #000000",
"1@	c #000000",
"2@	c #000000",
"3@	c #000000",
"4@	c #000000",
"5@	c #000000",
"6@	c #000000",
"7@	c #000000",
"8@	c #000000",
"9@	c #000000",
"!#	c #000000",
"@#	c #000000",
"##	c #000000",
"$#	c #000000",
"%#	c #000000",
"^#	c #000000",
"&#	c #000000",
"*#	c #000000",
"(#	c #000000",
")#	c #000000",
"{#	c #000000",
"}#	c #000000",
"[#	c #000000",
"]#	c #000000",
"|#	c #000000",
"+#	c #000000",
"=#	c #000000",
"-#	c #000000",
",#	c #000000",
".#	c #000000",
"<#	c #000000",
">#	c #000000",
"/#	c #000000",
"?#	c #000000",
";#	c #000000",
":#	c #000000",
"a#	c #000000",
"b#	c #000000",
"c#	c #000000",
"d#	c #000000",
"e#	c #000000",
"f#	c #000000",
"g#	c #000000",
"h#	c #000000",
"j#	c #000000",
"i#	c #000000",
"k#	c #000000",
"l#	c #000000",
"m#	c #000000",
"n#	c #000000",
"o#	c #000000",
"p#	c #000000",
"q#	c #000000",
"r#	c #000000",
"s#	c #000000",
"t#	c #000000",
"u#	c #000000",
"v#	c #000000",
"w#	c #000000",
"x#	c #000000",
"y#	c #000000",
"z#	c #000000",
"A#	c #000000",
"B#	c #000000",
"C#	c #000000",
"D#	c #000000",
"E#	c #000000",
"F#	c #000000",
"G#	c #000000",
"H#	c #000000",
"I#	c #000000",
"J#	c #000000",
"K#	c #000000",
"L#	c #000000",
"M#	c #000000",
"N#	c #000000",
"O#	c #000000",
"P#	c #000000",
"Q#	c #000000",
"R#	c #000000",
"S#	c #000000",
"T#	c #000000",
"U#	c #000000",
"V#	c #000000",
"W#	c #000000",
"X#	c #000000",
"Y#	c #000000",
"Z#	c #000000",
"0#	c #000000",
"1#	c #000000",

"          *!-@:@l@N@            ",
"        [@+@;@e@k@t@J@!!        ",
"      ?@,@b@h@m@v@A@F@I@!!      ",
"    G@s@n@p@r@x@C@E@H@K@L@#!    ",
"  z@o@P@P@P@|@w@u@y@D@B@M@i!Q@  ",
"^!j@q@P@P@]@}@)@(@*@a@/@9!u!R@  ",
"|!y!.@=@<@{@>@d@f@g@^@4!2!C!R@  ",
">!#@!@@@&@c@i@O@>!;!S!X!U!D!R@  ",
"d!7!5!4!1!j!%@$@!@9!N!I!G!m!R@  ",
"g!Z!Y!V!J!8!6!3!0!Y!U!F!q!b!R@  ",
"n!Q!P!H!T!W!R!Q!P!L!E!A!a!+!R@  ",
"c!B!x!M!O!K!E!A!w!s!o!h!:!(!R@  ",
"<!l!r!z!v!t!p!e!?!,!{!)!%!T@R@  ",
"]!/!k!f!.!=!}!$!&!T@S@R@R@R@    ",
"^!-![!%!T@T@R@R@R@R@            ",
"  R@R@R@R@                      ",
};

