/* XPM */
char * image_data[] = {
"16  16  257  2",
"  	c	None",
"!!	c #000000",
"@!	c #0c172e",
"#!	c #0d1a33",
"$!	c #101c35",
"%!	c #032b2b",
"^!	c #0e2932",
"&!	c #003333",
"*!	c #152c2c",
"(!	c #142735",
")!	c #173534",
"{!	c #272727",
"}!	c #242437",
"[!	c #233539",
"]!	c #333333",
"|!	c #000055",
"+!	c #192845",
"=!	c #152b55",
"-!	c #1a334d",
",!	c #1b3050",
".!	c #232643",
"<!	c #2b2b55",
">!	c #253548",
"/!	c #273757",
"?!	c #203060",
";!	c #1c4f31",
":!	c #036802",
"a!	c #0d6910",
"b!	c #0b7107",
"c!	c #126a17",
"d!	c #147a0d",
"e!	c #167613",
"f!	c #1d682d",
"g!	c #2a543a",
"h!	c #226c2b",
"j!	c #004c4c",
"i!	c #2e4351",
"k!	c #294564",
"l!	c #387047",
"m!	c #316077",
"n!	c #700d05",
"o!	c #7b230c",
"p!	c #7e2825",
"q!	c #7b3a4c",
"r!	c #414642",
"s!	c #4c4d7e",
"t!	c #4e7050",
"u!	c #5c7967",
"v!	c #607c51",
"w!	c #666666",
"x!	c #67707d",
"y!	c #000080",
"z!	c #1966bf",
"A!	c #3d5690",
"B!	c #0070d6",
"C!	c #007ae0",
"D!	c #4e4e81",
"E!	c #525285",
"F!	c #5f5f92",
"G!	c #4b54b4",
"H!	c #52628a",
"I!	c #5162bc",
"J!	c #765986",
"K!	c #686998",
"L!	c #7c6a8b",
"M!	c #75639d",
"N!	c #6a6ea1",
"O!	c #6669bd",
"P!	c #6d74a7",
"Q!	c #7d6ea3",
"R!	c #7379a5",
"S!	c #717bb0",
"T!	c #4e68c1",
"U!	c #566cc1",
"V!	c #5377c9",
"W!	c #646ec1",
"X!	c #6377c6",
"Y!	c #767ac3",
"Z!	c #1e8413",
"0!	c #288e1a",
"1!	c #349b23",
"2!	c #3ba127",
"3!	c #45a82d",
"4!	c #48ac31",
"5!	c #4bb132",
"6!	c #56bb3a",
"7!	c #458e5c",
"8!	c #479261",
"9!	c #55b54f",
"!@	c #6b8956",
"@@	c #6c916f",
"#@	c #71ac50",
"$@	c #5bc23d",
"%@	c #60c63f",
"^@	c #66cc45",
"&@	c #75d564",
"*@	c #7be056",
"(@	c #008ff5",
")@	c #3587d9",
"{@	c #3895e7",
"}@	c #31a8fd",
"[@	c #5191bf",
"]@	c #739a95",
"|@	c #6d8bbf",
"+@	c #7c81ac",
"=@	c #7483b6",
"-@	c #65b492",
",@	c #72b5a9",
".@	c #4391da",
"<@	c #5688cf",
">@	c #5586d2",
"/@	c #5896cd",
"?@	c #5b94d7",
";@	c #4195e4",
":@	c #47a1ee",
"a@	c #43a6f7",
"b@	c #44b0ff",
"c@	c #54b5fe",
"d@	c #6a8dd3",
"e@	c #639ada",
"f@	c #7987c9",
"g@	c #7b92c5",
"h@	c #799bd9",
"j@	c #70aad2",
"i@	c #6da4e6",
"k@	c #66bcff",
"l@	c #74a8e7",
"m@	c #7ab0ed",
"n@	c #7abaf2",
"o@	c #77cd85",
"p@	c #78c2b0",
"q@	c #74c0ff",
"r@	c #851e0a",
"s@	c #88250a",
"t@	c #862814",
"u@	c #8b3008",
"v@	c #893111",
"w@	c #922c0e",
"x@	c #973c0a",
"y@	c #993711",
"z@	c #8b3a2f",
"A@	c #a43d14",
"B@	c #994213",
"C@	c #8a463e",
"D@	c #a4460a",
"E@	c #ac4816",
"F@	c #ae521f",
"G@	c #b34c19",
"H@	c #b95617",
"I@	c #ac5628",
"J@	c #b96a03",
"K@	c #954e47",
"L@	c #85625f",
"M@	c #926468",
"N@	c #c35c1e",
"O@	c #c86c14",
"P@	c #ca6320",
"Q@	c #c26b3b",
"R@	c #c77634",
"S@	c #d26b23",
"T@	c #da7624",
"U@	c #e27e26",
"V@	c #8a7884",
"W@	c #8878aa",
"X@	c #817ec1",
"Y@	c #000000",
"Z@	c #839c62",
"0@	c #87aa67",
"1@	c #b38b74",
"2@	c #cf8331",
"3@	c #e78228",
"4@	c #f18b2d",
"5@	c #f79130",
"6@	c #f5b60a",
"7@	c #e7b22e",
"8@	c #d58d4d",
"9@	c #c08269",
"!#	c #ee9748",
"@#	c #fecb00",
"##	c #ffd015",
"$#	c #fed226",
"%#	c #ffd533",
"^#	c #fedb53",
"&#	c #ffe377",
"*#	c #808791",
"(#	c #848ca6",
")#	c #8588b3",
"{#	c #8b93b5",
"}#	c #909aaa",
"[#	c #87b0ba",
"]#	c #b4a2b6",
"|#	c #8586c6",
"+#	c #8599c9",
"=#	c #8a98d9",
"-#	c #9198c9",
",#	c #959dd0",
".#	c #9d9dfc",
"<#	c #85a6d9",
">#	c #94a4ca",
"/#	c #96a6d3",
"?#	c #99b2d8",
";#	c #87ade3",
":#	c #89b2e7",
"a#	c #85b9f2",
"b#	c #90ace0",
"c#	c #9fa0ff",
"d#	c #90b7eb",
"e#	c #90b6f0",
"f#	c #a5a6d4",
"g#	c #a9b3cc",
"h#	c #a9b9d5",
"j#	c #b4b9d9",
"i#	c #a7a8fd",
"k#	c #a1bae3",
"l#	c #abb1f8",
"m#	c #b3bce3",
"n#	c #b3b3fd",
"o#	c #80c8b9",
"p#	c #8bc5f9",
"q#	c #9bc3ea",
"r#	c #95c5f9",
"s#	c #99d5f7",
"t#	c #aec5db",
"u#	c #a8c3e8",
"v#	c #a6ccf7",
"w#	c #afd0ed",
"x#	c #a9d3fd",
"y#	c #b6cde8",
"z#	c #b9caf8",
"A#	c #b8d3ea",
"B#	c #b7d9fd",
"C#	c #b7e9fc",
"D#	c #c4baae",
"E#	c #fee791",
"F#	c #feedb1",
"G#	c #cdcdcd",
"H#	c #d5d5d5",
"I#	c #cacbe6",
"J#	c #c7cbfe",
"K#	c #c1d5ed",
"L#	c #c5d7fc",
"M#	c #d3d8e8",
"N#	c #d4dcfc",
"O#	c #c8e3fe",
"P#	c #c2f3fd",
"Q#	c #dde4eb",
"R#	c #d7ebfe",
"S#	c #fef5cf",
"T#	c #e5e7e7",
"U#	c #e6ecf3",
"V#	c #e7f2fd",
"W#	c #fffae9",
"X#	c #f9fbfd",
"Y#	c #000000",
"Z#	c #fffae9",
"0#	c #f9fbfd",
"1#	c #000000",

"<#<#<#<#<#<#<#<#<#w!            ",
"<#E#X#X#X#X#X#X#<#n@w!          ",
"<#@#^#F#X#X#X#X#a@a@;@w!        ",
"<#%#@#@#7@X#V#V#L#L#l#-#w!      ",
"<#E#@#O@3@8@U#V#R#R#J#z#w!      ",
"<#X#1@I@P@r@J!R#R#R#L#z#w!      ",
"<#X#B#V@s@Q!Y!X!O#O#L#z#w!      ",
"<#V#V#O#:#/#,#U!X!L#L#z#w!      ",
"<#U#V#V#R#B#h@,#q#f!t#z#w!      ",
"+#T#V#R#R#R#O#:#,@2!:!z#w!      ",
"g@Q#R#R#R#O#O#B#r#-@2!:!l!      ",
"f@Q#R#R#O#O#O#B#B#r#j@4!e!t!    ",
"=@M#R#O#O#O#B#B#B#x#z#j@#@e!t!  ",
"=@M#O#O#O#B#B#B#x#x#z#k#w!!@u!  ",
"P!/#/#/#/#>#-#-#-#-#{#)#w!w!w!  ",
"  w!w!w!w!w!w!w!w!w!w!w!w!      ",
};

