/* XPM */
char * image_data[] = {
"16  16  257  2",
"  	c	None",
"!!	c #000000",
"@!	c #33334f",
"#!	c #3e3e57",
"$!	c #606079",
"%!	c #363638",
"^!	c #fffcd1",
"&!	c #c9c3a9",
"*!	c #ebdba5",
"(!	c #ffe390",
")!	c #ffeebf",
"{!	c #e4d5b5",
"}!	c #e5c583",
"[!	c #ffe3b2",
"]!	c #ffe2b4",
"|!	c #c6831d",
"+!	c #cbb28c",
"=!	c #d3a971",
"-!	c #f5c586",
",!	c #f5d3a5",
".!	c #c6ac8d",
"<!	c #ffb058",
">!	c #ffc27d",
"/!	c #ffa345",
"?!	c #f49134",
";!	c #ce7d32",
":!	c #e99344",
"a!	c #e6802b",
"b!	c #cb722c",
"c!	c #cb7836",
"d!	c #c67d45",
"e!	c #dbb9a0",
"f!	c #ae632e",
"g!	c #c66020",
"h!	c #aa673d",
"j!	c #8f5735",
"i!	c #987661",
"k!	c #92522c",
"l!	c #b6501b",
"m!	c #ecdfd9",
"n!	c #a84216",
"o!	c #9f8378",
"p!	c #725952",
"q!	c #5c423c",
"r!	c #674f4b",
"s!	c #d6bcbc",
"t!	c #f5f5f5",
"u!	c #e8e8e8",
"v!	c #dbdbdb",
"w!	c #c3c3c3",
"x!	c #b9b9b9",
"y!	c #9a9a9a",
"z!	c #000000",
"A!	c #8e8e8e",
"B!	c #858585",
"C!	c #7d7d7d",
"D!	c #7c7c7c",
"E!	c #7a7a7a",
"F!	c #767676",
"G!	c #747474",
"H!	c #737373",
"I!	c #686868",
"J!	c #616161",
"K!	c #5e5e5e",
"L!	c #595959",
"M!	c #565656",
"N!	c #525252",
"O!	c #3f3f3f",
"P!	c #ffffff",
"Q!	c #000000",
"R!	c #000000",
"S!	c #000000",
"T!	c #000000",
"U!	c #000000",
"V!	c #000000",
"W!	c #000000",
"X!	c #000000",
"Y!	c #000000",
"Z!	c #000000",
"0!	c #000000",
"1!	c #000000",
"2!	c #000000",
"3!	c #000000",
"4!	c #000000",
"5!	c #000000",
"6!	c #000000",
"7!	c #000000",
"8!	c #000000",
"9!	c #000000",
"!@	c #000000",
"@@	c #000000",
"#@	c #000000",
"$@	c #000000",
"%@	c #000000",
"^@	c #000000",
"&@	c #000000",
"*@	c #000000",
"(@	c #000000",
")@	c #000000",
"{@	c #000000",
"}@	c #000000",
"[@	c #000000",
"]@	c #000000",
"|@	c #000000",
"+@	c #000000",
"=@	c #000000",
"-@	c #000000",
",@	c #000000",
".@	c #000000",
"<@	c #000000",
">@	c #000000",
"/@	c #000000",
"?@	c #000000",
";@	c #000000",
":@	c #000000",
"a@	c #000000",
"b@	c #000000",
"c@	c #000000",
"d@	c #000000",
"e@	c #000000",
"f@	c #000000",
"g@	c #000000",
"h@	c #000000",
"j@	c #000000",
"i@	c #000000",
"k@	c #000000",
"l@	c #000000",
"m@	c #000000",
"n@	c #000000",
"o@	c #000000",
"p@	c #000000",
"q@	c #000000",
"r@	c #000000",
"s@	c #000000",
"t@	c #000000",
"u@	c #000000",
"v@	c #000000",
"w@	c #000000",
"x@	c #000000",
"y@	c #000000",
"z@	c #000000",
"A@	c #000000",
"B@	c #000000",
"C@	c #000000",
"D@	c #000000",
"E@	c #000000",
"F@	c #000000",
"G@	c #000000",
"H@	c #000000",
"I@	c #000000",
"J@	c #000000",
"K@	c #000000",
"L@	c #000000",
"M@	c #000000",
"N@	c #000000",
"O@	c #000000",
"P@	c #000000",
"Q@	c #000000",
"R@	c #000000",
"S@	c #000000",
"T@	c #000000",
"U@	c #000000",
"V@	c #000000",
"W@	c #000000",
"X@	c #000000",
"Y@	c #000000",
"Z@	c #000000",
"0@	c #000000",
"1@	c #000000",
"2@	c #000000",
"3@	c #000000",
"4@	c #000000",
"5@	c #000000",
"6@	c #000000",
"7@	c #000000",
"8@	c #000000",
"9@	c #000000",
"!#	c #000000",
"@#	c #000000",
"##	c #000000",
"$#	c #000000",
"%#	c #000000",
"^#	c #000000",
"&#	c #000000",
"*#	c #000000",
"(#	c #000000",
")#	c #000000",
"{#	c #000000",
"}#	c #000000",
"[#	c #000000",
"]#	c #000000",
"|#	c #000000",
"+#	c #000000",
"=#	c #000000",
"-#	c #000000",
",#	c #000000",
".#	c #000000",
"<#	c #000000",
">#	c #000000",
"/#	c #000000",
"?#	c #000000",
";#	c #000000",
":#	c #000000",
"a#	c #000000",
"b#	c #000000",
"c#	c #000000",
"d#	c #000000",
"e#	c #000000",
"f#	c #000000",
"g#	c #000000",
"h#	c #000000",
"j#	c #000000",
"i#	c #000000",
"k#	c #000000",
"l#	c #000000",
"m#	c #000000",
"n#	c #000000",
"o#	c #000000",
"p#	c #000000",
"q#	c #000000",
"r#	c #000000",
"s#	c #000000",
"t#	c #000000",
"u#	c #000000",
"v#	c #000000",
"w#	c #000000",
"x#	c #000000",
"y#	c #000000",
"z#	c #000000",
"A#	c #000000",
"B#	c #000000",
"C#	c #000000",
"D#	c #000000",
"E#	c #000000",
"F#	c #000000",
"G#	c #000000",
"H#	c #000000",
"I#	c #000000",
"J#	c #000000",
"K#	c #000000",
"L#	c #000000",
"M#	c #000000",
"N#	c #000000",
"O#	c #000000",
"P#	c #000000",
"Q#	c #000000",
"R#	c #000000",
"S#	c #000000",
"T#	c #000000",
"U#	c #000000",
"V#	c #000000",
"W#	c #000000",
"X#	c #000000",
"Y#	c #000000",
"Z#	c #000000",
"0#	c #000000",
"1#	c #000000",

"                                ",
"                                ",
"                                ",
"                                ",
"                                ",
"                                ",
"                                ",
"                                ",
"E!E!x!w!s!s!s!                  ",
"G!G!t!&![!]!)!^!+!{!s!  m!*!e!  ",
"N!N!u!.!>!<!:!;!|!,!=!}!(!-!o!I!",
"%!%!v!i!h!c!a!l!n!g!?!/!d!r!I!I!",
"@!@!y!J!K!F!p!j!f!b!k!q!L!I!    ",
"$!#!O!M!I!    I!I!I!I!I!        ",
"  I!I!I!                        ",
"                                ",
};

