/* XPM */
char * image_data[] = {
"16  16  257  2",
"  	c	None",
"!!	c #000000",
"@!	c #1b1b1b",
"#!	c #3f3f3f",
"$!	c #1e1e1e",
"%!	c #0e0e0e",
"^!	c #636363",
"&!	c #3d3d3d",
"*!	c #4d4d4d",
"(!	c #5c5c5c",
")!	c #424242",
"{!	c #b37606",
"}!	c #ffbc3d",
"[!	c #c19a51",
"]!	c #31353c",
"|!	c #353535",
"+!	c #555555",
"=!	c #595959",
"-!	c #5d5d5d",
",!	c #828282",
".!	c #292929",
"<!	c #a5a5a5",
">!	c #d4d4d4",
"/!	c #2c2c2c",
"?!	c #623b00",
";!	c #ffffa3",
":!	c #ecd37f",
"a!	c #161e31",
"b!	c #323232",
"c!	c #757575",
"d!	c #4f4f4f",
"e!	c #575757",
"f!	c #7e7e7e",
"g!	c #a4a4a4",
"h!	c #f1f1f1",
"j!	c #aaaaaa",
"i!	c #8d8d8d",
"k!	c #3c3c3c",
"l!	c #e3c54c",
"m!	c #ffffa4",
"n!	c #3b3e57",
"o!	c #2a2a2a",
"p!	c #bfbfbf",
"q!	c #cbcbcb",
"r!	c #939393",
"s!	c #4b4b4b",
"t!	c #929292",
"u!	c #c5c5c5",
"v!	c #494949",
"w!	c #da9b29",
"x!	c #ffce66",
"y!	c #1a2330",
"z!	c #545454",
"A!	c #cecece",
"B!	c #b1b1b1",
"C!	c #7d7d7d",
"D!	c #606060",
"E!	c #8f8f8f",
"F!	c #d5d5d5",
"G!	c #6a6a69",
"H!	c #30303f",
"I!	c #757574",
"J!	c #717171",
"K!	c #d29f38",
"L!	c #df9447",
"M!	c #373f49",
"N!	c #7b7b7b",
"O!	c #6f6f6f",
"P!	c #676767",
"Q!	c #b7b7b7",
"R!	c #bcbcbc",
"S!	c #e1e1e1",
"T!	c #5b5b5b",
"U!	c #717170",
"V!	c #c9c9c9",
"W!	c #b0b0b0",
"X!	c #1b0d00",
"Y!	c #a78b51",
"Z!	c #40444a",
"0!	c #525252",
"1!	c #75756e",
"2!	c #898989",
"3!	c #5e5e5e",
"4!	c #e9e9e9",
"5!	c #aeaeae",
"6!	c #d9d9d9",
"7!	c #595952",
"8!	c #7373c4",
"9!	c #5e5e57",
"!@	c #eeeeee",
"@@	c #d3d3d3",
"#@	c #a1a1a1",
"$@	c #262524",
"%@	c #1d2e3d",
"^@	c #7e7c7b",
"&@	c #4c4c4c",
"*@	c #8a8a8a",
"(@	c #a9a9a9",
")@	c #b1b1aa",
"{@	c #e6e6e6",
"}@	c #dcdcdc",
"[@	c #bababa",
"]@	c #ffffff",
"|@	c #c5c4c2",
"+@	c #cdcdcd",
"=@	c #c0c0c0",
"-@	c #989898",
",@	c #080808",
".@	c #969696",
"<@	c #b5b5b5",
">@	c #c4c4c4",
"/@	c #505050",
"?@	c #8987a3",
";@	c #1f1f1c",
":@	c #7c7c7c",
"a@	c #a3a3a3",
"b@	c #d7d7d7",
"c@	c #9d9d9d",
"d@	c #464644",
"e@	c #aab8c5",
"f@	c #dddbda",
"g@	c #c7c7c7",
"h@	c #272726",
"j@	c #252522",
"i@	c #7d7b97",
"k@	c #f1ffff",
"l@	c #ababab",
"m@	c #b6b6b6",
"n@	c #767685",
"o@	c #f4f4f2",
"p@	c #e5e4e3",
"q@	c #656565",
"r@	c #595958",
"s@	c #cacaca",
"t@	c #363636",
"u@	c #313131",
"v@	c #eaeaea",
"w@	c #7a7a7a",
"x@	c #000000",
"y@	c #000000",
"z@	c #000000",
"A@	c #000000",
"B@	c #000000",
"C@	c #000000",
"D@	c #000000",
"E@	c #000000",
"F@	c #000000",
"G@	c #000000",
"H@	c #000000",
"I@	c #000000",
"J@	c #000000",
"K@	c #000000",
"L@	c #000000",
"M@	c #000000",
"N@	c #000000",
"O@	c #000000",
"P@	c #000000",
"Q@	c #000000",
"R@	c #000000",
"S@	c #000000",
"T@	c #000000",
"U@	c #000000",
"V@	c #000000",
"W@	c #000000",
"X@	c #000000",
"Y@	c #000000",
"Z@	c #000000",
"0@	c #000000",
"1@	c #000000",
"2@	c #000000",
"3@	c #000000",
"4@	c #000000",
"5@	c #000000",
"6@	c #000000",
"7@	c #000000",
"8@	c #000000",
"9@	c #000000",
"!#	c #000000",
"@#	c #000000",
"##	c #000000",
"$#	c #000000",
"%#	c #000000",
"^#	c #000000",
"&#	c #000000",
"*#	c #000000",
"(#	c #000000",
")#	c #000000",
"{#	c #000000",
"}#	c #000000",
"[#	c #000000",
"]#	c #000000",
"|#	c #000000",
"+#	c #000000",
"=#	c #000000",
"-#	c #000000",
",#	c #000000",
".#	c #000000",
"<#	c #000000",
">#	c #000000",
"/#	c #000000",
"?#	c #000000",
";#	c #000000",
":#	c #000000",
"a#	c #000000",
"b#	c #000000",
"c#	c #000000",
"d#	c #000000",
"e#	c #000000",
"f#	c #000000",
"g#	c #000000",
"h#	c #000000",
"j#	c #000000",
"i#	c #000000",
"k#	c #000000",
"l#	c #000000",
"m#	c #000000",
"n#	c #000000",
"o#	c #000000",
"p#	c #000000",
"q#	c #000000",
"r#	c #000000",
"s#	c #000000",
"t#	c #000000",
"u#	c #000000",
"v#	c #000000",
"w#	c #000000",
"x#	c #000000",
"y#	c #000000",
"z#	c #000000",
"A#	c #000000",
"B#	c #000000",
"C#	c #000000",
"D#	c #000000",
"E#	c #000000",
"F#	c #000000",
"G#	c #000000",
"H#	c #000000",
"I#	c #000000",
"J#	c #000000",
"K#	c #000000",
"L#	c #000000",
"M#	c #000000",
"N#	c #000000",
"O#	c #000000",
"P#	c #000000",
"Q#	c #000000",
"R#	c #000000",
"S#	c #000000",
"T#	c #000000",
"U#	c #000000",
"V#	c #000000",
"W#	c #000000",
"X#	c #000000",
"Y#	c #000000",
"Z#	c #000000",
"0#	c #000000",
"1#	c #000000",

"                                ",
"          ^!&!*!(!)!            ",
"  {!}![!]!|!+!=!-!,!#!    <!>!  ",
"  ;!:!a!b!c!d!e!c!f!g!  h!j!i!  ",
"l!m!n!o!p!q!r!s!t!t!u!v!        ",
"w!x!y!z!A!B!C!D!E!j!F!G!  I!    ",
"K!L!M!=!E!N!O!P!Q!R!S!T!  V!W!V!",
"  Y!Z!0!N!1!2!3!4!5!6!|!        ",
"    -!O!7!8!9!!@@@>!#@    ^@    ",
"    &@*@(@)@{@}@[@]@v!  |@+@=@-@",
"      .@g!<@<@>@]@/@  ?@    :@P!",
"        a@q!b@c@d@    e@f@g@    ",
"                  k@    l@m@Q!  ",
"            o@    p@      [@W!q@",
"            <@      s@      2!  ",
"            v@      >!w@        ",
};

