/* XPM */
char * image_data[] = {
"16  16  257  2",
"  	c	None",
"!!	c #a68995",
"@!	c #000000",
"#!	c #7f6685",
"$!	c #afb0c5",
"%!	c #34374f",
"^!	c #4f5677",
"&!	c #585d77",
"*!	c #7984b1",
"(!	c #7c8ebb",
")!	c #7e91bd",
"{!	c #7e91bc",
"}!	c #7f92bc",
"[!	c #a3b0cd",
"]!	c #e1e6f1",
"|!	c #7f93bc",
"+!	c #8da0c4",
"=!	c #7c9ac5",
"-!	c #295899",
",!	c #0053ad",
".!	c #0052ac",
"<!	c #0053ac",
">!	c #2b6aaf",
"/!	c #0058b2",
"?!	c #0056ae",
";!	c #0054ad",
":!	c #0055ab",
"a!	c #045eb7",
"b!	c #0e5fb4",
"c!	c #4285c8",
"d!	c #4687cc",
"e!	c #bdcbd9",
"f!	c #1381e3",
"g!	c #0d80e2",
"h!	c #0d7fe1",
"j!	c #1383e3",
"i!	c #1483e3",
"k!	c #1585e4",
"l!	c #1584e3",
"m!	c #1684e4",
"n!	c #1a8cee",
"o!	c #1f8be8",
"p!	c #208ae4",
"q!	c #2887d9",
"r!	c #bdcad5",
"s!	c #b7c6d2",
"t!	c #b7c6d1",
"u!	c #b9c7d2",
"v!	c #d0ebfd",
"w!	c #bdcfdb",
"x!	c #b7c8d4",
"y!	c #b6c6d1",
"z!	c #b4d3e7",
"A!	c #bec9d0",
"B!	c #bdc9d0",
"C!	c #becbd2",
"D!	c #d2eef7",
"E!	c #d3dbdd",
"F!	c #efffff",
"G!	c #dde4e2",
"H!	c #deeae5",
"I!	c #dde4e1",
"J!	c #e2e8e5",
"K!	c #deebe4",
"L!	c #a4b2a8",
"M!	c #d8ddd9",
"N!	c #dce2dd",
"O!	c #dfe7e0",
"P!	c #dbe2db",
"Q!	c #dbe1db",
"R!	c #d9dfd9",
"S!	c #dce2da",
"T!	c #e6ebdc",
"U!	c #ffffe1",
"V!	c #ffffe5",
"W!	c #ffffe8",
"X!	c #ffffe9",
"Y!	c #ffffec",
"Z!	c #ffffee",
"0!	c #fffff0",
"1!	c #fffff8",
"2!	c #fffde7",
"3!	c #fffce1",
"4!	c #fffce2",
"5!	c #fffce3",
"6!	c #fffdec",
"7!	c #fff180",
"8!	c #fffbe0",
"9!	c #e5e2ce",
"!@	c #ffe863",
"@@	c #d5c985",
"#@	c #d3ceb0",
"$@	c #fffbe2",
"%@	c #f8f4de",
"^@	c #fdfae8",
"&@	c #af9d43",
"*@	c #f3cd3c",
"(@	c #fdd74d",
")@	c #f0bf2a",
"{@	c #b08f26",
"}@	c #f9cc42",
"[@	c #fcd963",
"]@	c #ffdc6a",
"|@	c #efe3bb",
"+@	c #f8f1db",
"=@	c #e2a500",
"-@	c #fbce53",
",@	c #fed25c",
".@	c #efca5b",
"<@	c #f7cf5f",
">@	c #fff8e5",
"/@	c #fff9e7",
"?@	c #ebb422",
";@	c #ddc27e",
":@	c #eed392",
"a@	c #fff8e7",
"b@	c #e69c08",
"c@	c #d5d0c7",
"d@	c #ecc383",
"e@	c #d6963f",
"f@	c #a5691d",
"g@	c #d2862a",
"h@	c #cb7513",
"j@	c #c57e37",
"i@	c #f9e0c8",
"k@	c #bd6b23",
"l@	c #e0c1a9",
"m@	c #a3481a",
"n@	c #a1897c",
"o@	c #d0957b",
"p@	c #bc8472",
"q@	c #9d534c",
"r@	c #808080",
"s@	c #535353",
"t@	c #000000",
"u@	c #000000",
"v@	c #000000",
"w@	c #000000",
"x@	c #000000",
"y@	c #000000",
"z@	c #000000",
"A@	c #000000",
"B@	c #000000",
"C@	c #000000",
"D@	c #000000",
"E@	c #000000",
"F@	c #000000",
"G@	c #000000",
"H@	c #000000",
"I@	c #000000",
"J@	c #000000",
"K@	c #000000",
"L@	c #000000",
"M@	c #000000",
"N@	c #000000",
"O@	c #000000",
"P@	c #000000",
"Q@	c #000000",
"R@	c #000000",
"S@	c #000000",
"T@	c #000000",
"U@	c #000000",
"V@	c #000000",
"W@	c #000000",
"X@	c #000000",
"Y@	c #000000",
"Z@	c #000000",
"0@	c #000000",
"1@	c #000000",
"2@	c #000000",
"3@	c #000000",
"4@	c #000000",
"5@	c #000000",
"6@	c #000000",
"7@	c #000000",
"8@	c #000000",
"9@	c #000000",
"!#	c #000000",
"@#	c #000000",
"##	c #000000",
"$#	c #000000",
"%#	c #000000",
"^#	c #000000",
"&#	c #000000",
"*#	c #000000",
"(#	c #000000",
")#	c #000000",
"{#	c #000000",
"}#	c #000000",
"[#	c #000000",
"]#	c #000000",
"|#	c #000000",
"+#	c #000000",
"=#	c #000000",
"-#	c #000000",
",#	c #000000",
".#	c #000000",
"<#	c #000000",
">#	c #000000",
"/#	c #000000",
"?#	c #000000",
";#	c #000000",
":#	c #000000",
"a#	c #000000",
"b#	c #000000",
"c#	c #000000",
"d#	c #000000",
"e#	c #000000",
"f#	c #000000",
"g#	c #000000",
"h#	c #000000",
"j#	c #000000",
"i#	c #000000",
"k#	c #000000",
"l#	c #000000",
"m#	c #000000",
"n#	c #000000",
"o#	c #000000",
"p#	c #000000",
"q#	c #000000",
"r#	c #000000",
"s#	c #000000",
"t#	c #000000",
"u#	c #000000",
"v#	c #000000",
"w#	c #000000",
"x#	c #000000",
"y#	c #000000",
"z#	c #000000",
"A#	c #000000",
"B#	c #000000",
"C#	c #000000",
"D#	c #000000",
"E#	c #000000",
"F#	c #000000",
"G#	c #000000",
"H#	c #000000",
"I#	c #000000",
"J#	c #000000",
"K#	c #000000",
"L#	c #000000",
"M#	c #000000",
"N#	c #000000",
"O#	c #000000",
"P#	c #000000",
"Q#	c #000000",
"R#	c #000000",
"S#	c #000000",
"T#	c #000000",
"U#	c #000000",
"V#	c #000000",
"W#	c #000000",
"X#	c #000000",
"Y#	c #000000",
"Z#	c #000000",
"0#	c #000000",
"1#	c #000000",

"                                ",
"q!p!k!i!j!m!m!l!f!g!h!o!n!d!c!  ",
"/!,!;!.!:!;!,!?!,!<!;!b!a!-!>!r@",
"{!T!S!P!N!I!O!H!J!G!Q!M!R!K!{!r@",
"{!W!a@a@a@a@a@a@a@a@a@a@>@Y!{!r@",
"{!5!a@a@a@a@a@a@a@a@a@a@a@2!{!r@",
"{!4!a@a@a@a@a@a@a@a@a@a@a@a@{!r@",
"{!5!a@a@a@a@a@a@a@a@a@a@a@a@{!r@",
"{!$@a@a@a@a@a@a@a@a@a@a@a@a@{!r@",
"{!$@a@a@a@a@a@a@a@a@a@a@a@a@{!r@",
"{!8!a@a@a@a@a@a@a@a@a@a@a@a@{!r@",
"{!V!3!a@a@a@a@a@a@a@a@a@a@X!{!r@",
"=!r!t!s!u!A!w!z!x!C!B!y!s!e!{!r@",
"+!(!{!}!}!}!}!|!}!}!}!}!}!)!{!r@",
"  r@r@r@r@r@r@r@r@r@r@r@r@r@r@r@",
"                                ",
};

