/* XPM */
static const char * object_xpm[] = {
"22 22 131 2",
"  	c None",
". 	c #FFFFFF",
"+ 	c #F9FEF9",
"@ 	c #E0FAE0",
"# 	c #B2F1B2",
"$ 	c #D1F7D1",
"% 	c #F3FDF3",
"& 	c #D6F8D6",
"* 	c #AEF1AE",
"= 	c #8FEB8F",
"- 	c #71E671",
"; 	c #B6F2B6",
"> 	c #F5FDF5",
", 	c #BEF3BE",
"' 	c #6DE56D",
") 	c #22D822",
"! 	c #01D201",
"~ 	c #16D616",
"{ 	c #99ED99",
"] 	c #FDFFFD",
"^ 	c #C7F5C7",
"/ 	c #4BDF4B",
"( 	c #00D200",
"_ 	c #02D202",
": 	c #0DD40D",
"< 	c #6FE56F",
"[ 	c #FBFEFB",
"} 	c #E5FAE5",
"| 	c #50E050",
"1 	c #0FD50F",
"2 	c #12D512",
"3 	c #59E259",
"4 	c #E2FAE2",
"5 	c #E8FBE8",
"6 	c #60E360",
"7 	c #18D618",
"8 	c #0AD40A",
"9 	c #40DD40",
"0 	c #CCF6CC",
"a 	c #F8FEF8",
"b 	c #8CEB8C",
"c 	c #19D619",
"d 	c #04D304",
"e 	c #43DE43",
"f 	c #B7F2B7",
"g 	c #F6FDF6",
"h 	c #FEFFFE",
"i 	c #F0FCF0",
"j 	c #AAF0AA",
"k 	c #2DDA2D",
"l 	c #37DC37",
"m 	c #9AED9A",
"n 	c #C0F4C0",
"o 	c #58E158",
"p 	c #24D824",
"q 	c #E1FAE1",
"r 	c #DFF9DF",
"s 	c #73E673",
"t 	c #0ED40E",
"u 	c #79E779",
"v 	c #D5F8D5",
"w 	c #80E880",
"x 	c #25D825",
"y 	c #0ED50E",
"z 	c #4DDF4D",
"A 	c #D7F8D7",
"B 	c #36DC36",
"C 	c #09D409",
"D 	c #38DC38",
"E 	c #DAF8DA",
"F 	c #FCFEFC",
"G 	c #D4F7D4",
"H 	c #EBFBEB",
"I 	c #FAFEFA",
"J 	c #49DF49",
"K 	c #30DA30",
"L 	c #A4EFA4",
"M 	c #F7FEF7",
"N 	c #D8F8D8",
"O 	c #7AE87A",
"P 	c #41DD41",
"Q 	c #A1EEA1",
"R 	c #76E776",
"S 	c #03D203",
"T 	c #1FD71F",
"U 	c #74E674",
"V 	c #CDF6CD",
"W 	c #97ED97",
"X 	c #1ED71E",
"Y 	c #68E468",
"Z 	c #BCF3BC",
"` 	c #A6EFA6",
" .	c #21D821",
"..	c #05D305",
"+.	c #0CD40C",
"@.	c #65E465",
"#.	c #D0F7D0",
"$.	c #C4F5C4",
"%.	c #86EA86",
"&.	c #36DB36",
"*.	c #61E361",
"=.	c #52E052",
"-.	c #48DF48",
";.	c #B5F2B5",
">.	c #ECFCEC",
",.	c #A7EFA7",
"'.	c #10D510",
").	c #14D514",
"!.	c #9FEE9F",
"~.	c #C5F5C5",
"{.	c #3FDD3F",
"].	c #03D303",
"^.	c #0BD40B",
"/.	c #DCF9DC",
"(.	c #7EE87E",
"_.	c #07D307",
":.	c #08D308",
"<.	c #2FDA2F",
"[.	c #F4FDF4",
"}.	c #BDF3BD",
"|.	c #2AD92A",
"1.	c #BBF3BB",
"2.	c #E3FAE3",
"3.	c #5FE35F",
"4.	c #14D614",
"5.	c #1BD71B",
"6.	c #6AE56A",
"7.	c #CEF6CE",
"8.	c #9EEE9E",
"9.	c #90EB90",
"0.	c #CFF7CF",
". . . . . . . . . . . . . . . . . . + @ # $ ",
". . . . . . . . . . . . . . . . % & * = - ; ",
". . . . . . . . . . . . . . . > , ' ) ! ~ { ",
". . . . . . . . . . . . . . ] ^ / ( _ : < & ",
". . . . . . . . . . . . . [ } | 1 ( 2 3 4 ] ",
". . . . . . . . . . . . . 5 6 7 _ 8 9 0 a . ",
". . . . . . . . . . . . @ b c d ( e f g h . ",
". . . . . . . . . . . i j k _ ( l m > . . . ",
". . . . . . . . . . . n o ( ( p b q . . . . ",
". . . . . . . . . . r s t _ 1 u v . . . . . ",
". . . . . . . . h > w x ! y z A . . . . . . ",
". . . . . . . . [ ; B ( C D E + . . . . . . ",
". . F 5 G H . I r J 1 ( K L M h . . . . . . ",
". N O P D Q % q R 7 S T U H h . . . . . . . ",
"V W X _ ( Y Z `  ...+.@.#.. . . . . . . . . ",
"$.%.( ( ( &.*.=.( ( -.;.. . . . . . . . . . ",
">.,.'.! ( +.).1 _ T !.>.. . . . . . . . . . ",
". ~.{.].( ( ( ! ^.u E . . . . . . . . . . . ",
". /.(._.( ( ( :.<.q . . . . . . . . . . . . ",
". [.}.8 ( ( ( |.1.> . . . . . . . . . . . . ",
". ] 2.3.4.( 5.6.% ] . . . . . . . . . . . . ",
". . a 7.8.9.L 0.. . . . . . . . . . . . . . "};

