/* XPM */
static char *objfind_xpm[] = {
/* width height ncols cpp */
"32 32 9 2",
  /* Colors */
  "00 c #000000",
  "01 c #000080",
  "02 c #008080",
  "03 c #C0C0C0",
  "04 c #808080",
  "05 c #0000FF",
  "06 c #00FFFF",
  "07 c #FFFFFF",
  ".. s None c None",
  "....................................04..........................",
  "..................................040700........................",
  "................................0407060700......................",
  "..............................04070607060700........040404......",
  "..............................04020706070200......0407020200....",
  "..............................04020207020200....04070607020200..",
  "..........04040404040004........0402020200....040706070607020200",
  "......040406..06..0602000004......040200........04070607020200..",
  "....04..06..06..06020602020004......00............0407020200....",
  "..04..06..06..060206020602020004....................040000......",
  "..0406..06..06040604060406040004040404040404....................",
  "0406..06..0607060706020607060200060706070200....................",
  "04..06..060206020602060206020200070707020200040404..............",
  "0406..0607060706070607060206020006070602020007020200............",
  "04..06020602060006070607060202000206070202070607020200..........",
  "04060706070602060206070602060200020206020706070607020200........",
  "040406070602060006020607060200040202020200070607020200..........",
  "0404030607060206020602060202000400000000020007020200............",
  "04060403060206000600060202000400040602000200000000..............",
  "04070600000202020202020000030404000402000200....................",
  "04060706070000000000000403070304050004000200....................",
  "04020202020007070707020204030706050500040000....................",
  "04060706070207060706020200040506060505000400....................",
  "04070607060206070607020200020105060605050004....................",
  "0406070607020706070602020000000105060605050004..................",
  "040706070602060706070200060706070105060605050004................",
  "04020202020202020202000707070702020105060605050004..............",
  "0407060706020607060702070607060202000105060605050004............",
  "0406070607020706070602060706070202000001050606050500............",
  "040706070602060706070207060706020200....010506060500............",
  "0406070607020706070602060706070200........0105060500............",
  "00000000000000000000000000000000............000000..............",
};
