/* XPM */
static char * skygrid_xpm[] = {
"21 21 5 1",
" 	c None",
".	c #000000",
"+	c #6C77B5",
"@	c #C9C7C7",
"#	c #FFFFFF",
".....................",
".++++@++++@++++@++++.",
".++++@++++@++++@++++.",
".@@@@@@@@@@@@@@@@@@@.",
".++++@####@####@####.",
".++++@####@####@####.",
".@@@@@@@@@@@@@@@@@@@.",
".++++@####@####@####.",
".++++@####@####@####.",
".@@@@@@@@@@@@@@@@@@@.",
".++++@####@####@####.",
".++++@####@####@####.",
".@@@@@@@@@@@@@@@@@@@.",
".++++@####@####@####.",
".++++@####@####@####.",
".@@@@@@@@@@@@@@@@@@@.",
".++++@####@####@####.",
".++++@####@####@####.",
".@@@@@@@@@@@@@@@@@@@.",
".++++@####@####@####.",
"....................."};
