/* XPM */
static char *think_xpm[] = {
/* width height ncols cpp */
"32 32 6 2",
  /* Colors */
  "00 c #000000",
  "01 c #808000",
  "02 c #C0C0C0",
  "03 c #808080",
  "04 c #FFFF00",
  ".. s None c None",
  "................................................................",
  "..02030303030303030303030303030303030303030303030303030302......",
  "..0304040404040404040404040404040404040404040404040404040300....",
  "..030404040404040404020303000000000303020404040404040404030003..",
  "..030404040404040200000000000000000000000302040404040404030003..",
  "..030404040404030001040404040404040404010000020404040404030003..",
  "..030404040403000000040404040404040404000000000304040404030003..",
  "..030404040300000000010404040404040401000000000003040404030003..",
  "..030404020000000000000404040404040400000000000000020404030003..",
  "..030404030000000000000104040404040100000000000000030404030003..",
  "..030402000000000000000004040404040000000000000000000204030003..",
  "..030403000000000000000001040404010000000000000000000304030003..",
  "..030403000000000000000000040404000000000000000000000304030003..",
  "..030400000000000000000000010401000000000000000000000004030003..",
  "..030401040404040404040404040404040404040404040404040104030003..",
  "..030400010404040404040404010000010404040404040404010004030003..",
  "..030400000404040404040401000000000104040404040404000004030003..",
  "..030403000104040404040400000000000004040404040401000304030003..",
  "..030403000004040404040100000000000001040404040400000304030003..",
  "..030402000001040404040000000000000000040404040100000204030003..",
  "..030404030000040404010000000000000000010404040000030404030003..",
  "..030404020000010404000000000000000000000404010000020404030003..",
  "..030404040200000401000000000000000000000104000002040404030003..",
  "..030404040403000100000000000000000000000001000304040404030003..",
  "..030404040404030000000000000000000000000000020404040404030003..",
  "..030404040404040203000000000000000000000302040404040404030003..",
  "..030404040404040404020303000000000303020404040404040404030003..",
  "..030404040404040404040404040404040404040404040404040404030003..",
  "..020303030303030303030303030303030303030303030303030303030003..",
  "....0000000000000000000000000000000000000000000000000000000003..",
  "....0203030303030303030303030303030303030303030303030303030303..",
  "................................................................",
};
