/* XPM */
static char *unimap_xpm[] = {
/* width height ncols cpp */
"32 32 3 2",
  /* Colors */
  "00 c #000000",
  "01 c #FF0000",
  ".. s None c None",
  "................................................................",
  "................................................................",
  "................................................................",
  "..............010101................................0101........",
  "............0101010101............................01010101......",
  "..........01010101010101........................010101010101....",
  "..........01010101010101........................010101010101....",
  "..........01010101010101..........................01010101......",
  "............0101010101..............................0101........",
  "..............010101............................................",
  "........................010101010101............................",
  "......................0101010101010101..........................",
  "..................010101010101010101010101......................",
  "..................010101010101010101010101......................",
  "................0101010101010101010101010101....................",
  "..............01010101010101010101010101010101..................",
  "..............01010101010101010101010101010101..................",
  "..............01010101010101010101010101010101..................",
  "..............01010101010101010101010101010101..................",
  "..............01010101010101010101010101010101..................",
  "..............01010101010101010101010101010101..................",
  "................0101010101010101010101010101....................",
  "..................010101010101010101010101......................",
  "..................010101010101010101010101........01010101......",
  "......................0101010101010101..........010101010101....",
  "........................010101010101..........0101010101010101..",
  "....0101......................................0101010101010101..",
  "..01010101....................................0101010101010101..",
  "..01010101....................................0101010101010101..",
  "....0101........................................010101010101....",
  "..................................................01010101......",
  "................................................................",
};
